<?xml version="1.0" encoding="UTF-8" standalone="no"?>
<svg
   width="24"
   height="24"
   enable-background="new"
   version="1.1"
   id="svg1"
   sodipodi:docname="microphone-sensitivity-muted.svg"
   inkscape:version="1.3.2 (091e20ef0f, 2023-11-25, custom)"
   xmlns:inkscape="http://www.inkscape.org/namespaces/inkscape"
   xmlns:sodipodi="http://sodipodi.sourceforge.net/DTD/sodipodi-0.dtd"
   xmlns="http://www.w3.org/2000/svg"
   xmlns:svg="http://www.w3.org/2000/svg">
  <defs
     id="defs1" />
  <sodipodi:namedview
     id="namedview1"
     pagecolor="#505050"
     bordercolor="#eeeeee"
     borderopacity="1"
     inkscape:showpageshadow="0"
     inkscape:pageopacity="0"
     inkscape:pagecheckerboard="0"
     inkscape:deskcolor="#505050"
     inkscape:zoom="33.083333"
     inkscape:cx="11.984887"
     inkscape:cy="12"
     inkscape:window-width="1920"
     inkscape:window-height="1008"
     inkscape:window-x="0"
     inkscape:window-y="0"
     inkscape:window-maximized="1"
     inkscape:current-layer="svg1" />
  <title
     id="title1">Paper Symbolic Icon Theme</title>
  <path
     class="ColorScheme-Text"
     d="m12 3.9766c-1.662 0-3 1.338-3 3v6.0254c0 1.662 1.338 3 3 3s3-1.338 3-3v-6.0254c0-1.662-1.338-3-3-3zm0 1c1.108 0 2 0.892 2 2v6.0254c0 1.108-0.892 2-2 2s-2-0.892-2-2v-6.0254c0-1.108 0.892-2 2-2zm-4.5 6.0234v2e-3c-0.277 0-0.5 0.223-0.5 0.5v1.5c0 2.6 1.967 4.7246 4.5 4.9746v1.0234h-2a0.5 0.5 0 0 0 0 1h5a0.5 0.5 0 0 0 0-1h-2v-1.0254a4.988 4.988 0 0 0 4.5-4.9746v-1.5a0.5 0.5 0 0 0-1 0v1.5c0 2.216-1.784 4-4 4-2.216 0-4-1.784-4-4v-1.5c0-0.277-0.223-0.5-0.5-0.5z"
     fill="#ffffff"
     opacity=".35"
     id="path1"
     style="opacity:1" />
  <rect
     transform="rotate(45)"
     x="6.954"
     y="-.51658"
     width="20"
     height="1"
     rx=".5"
     ry=".5"
     fill="#ffffff"
     id="rect1" />
</svg>
