<?xml version="1.0" encoding="UTF-8" standalone="no"?>
<svg
   width="24"
   height="24"
   version="1.1"
   viewBox="0 0 24 24"
   id="svg1"
   sodipodi:docname="xfsm-logout.svg"
   inkscape:version="1.3.2 (091e20ef0f, 2023-11-25, custom)"
   xmlns:inkscape="http://www.inkscape.org/namespaces/inkscape"
   xmlns:sodipodi="http://sodipodi.sourceforge.net/DTD/sodipodi-0.dtd"
   xmlns="http://www.w3.org/2000/svg"
   xmlns:svg="http://www.w3.org/2000/svg">
  <sodipodi:namedview
     id="namedview1"
     pagecolor="#505050"
     bordercolor="#eeeeee"
     borderopacity="1"
     inkscape:showpageshadow="0"
     inkscape:pageopacity="0"
     inkscape:pagecheckerboard="0"
     inkscape:deskcolor="#505050"
     inkscape:zoom="30.666667"
     inkscape:cx="12"
     inkscape:cy="12"
     inkscape:window-width="1920"
     inkscape:window-height="1015"
     inkscape:window-x="0"
     inkscape:window-y="0"
     inkscape:window-maximized="1"
     inkscape:current-layer="svg1" />
  <defs
     id="defs1">
    <style
       id="current-color-scheme"
       type="text/css">.ColorScheme-Text {
        color:#ffffff;
      }</style>
  </defs>
  <path
     d="m 12,4 a 8,8 0 0 0 -8,8 8,8 0 0 0 8,8 8,8 0 0 0 8,-8 8,8 0 0 0 -8,-8 z m 0,1 a 7,7 0 0 1 7,7 7,7 0 0 1 -7,7 7,7 0 0 1 -7,-7 7,7 0 0 1 7,-7 z"
     style="color:#ffffff;fill:currentColor"
     id="path3" />
  <path
     d="m 10.664911,8.1680121 c -0.10328,0 -0.206524,0.039235 -0.285667,0.1183699 -0.158277,0.1582769 -0.158277,0.4130551 0,0.571332 l 3.142326,3.142326 -3.142326,3.142326 c -0.158277,0.158277 -0.158277,0.413055 0,0.571332 0.158277,0.158277 0.413055,0.158277 0.571332,0 l 3.427993,-3.427992 c 0.158276,-0.158277 0.158276,-0.413055 0,-0.571332 L 10.950576,8.286382 C 10.871438,8.2072444 10.768189,8.1680121 10.664911,8.1680121 Z"
     style="color:#ffffff;fill:currentColor;stroke-width:0.808072"
     id="path2" />
</svg>
