<svg width="48px" height="48px" version="1.1" viewBox="0 0 256 256" xmlns="http://www.w3.org/2000/svg">
 <defs>
  <linearGradient id="color-1" x1="3" x2="45" y1="23" y2="23" gradientUnits="userSpaceOnUse">
   <stop stop-color="#4c4c4c" offset="0"/>
   <stop stop-color="#343434" offset="1"/>
  </linearGradient>
  <radialGradient id="color-2" cx="14.323" cy="9.553" r="38.59" gradientUnits="userSpaceOnUse">
   <stop stop-color="#bd8af5" offset="0"/>
   <stop stop-color="#b88bf5" offset=".137"/>
   <stop stop-color="#a88ff3" offset=".309"/>
   <stop stop-color="#8f96f2" offset=".499"/>
   <stop stop-color="#6b9eef" offset=".702"/>
   <stop stop-color="#3eaaec" offset=".913"/>
   <stop stop-color="#29afea" offset="1"/>
  </radialGradient>
 </defs>
 <g transform="translate(-.0025867 2.6667)" fill="none" font-family="none" font-size="none" font-weight="none" stroke-miterlimit="10" text-anchor="none" style="mix-blend-mode:normal">
  <g transform="scale(5.3333)">
   <path d="m3 11v26h42v-26c0-1.105-0.895-2-2-2h-38c-1.105 0-2 0.895-2 2z" fill="url(#color-1)"/>
   <path d="m27 10c0 0.552 0.552 0 0 0h-6c-0.552 0 0 0.552 0 0h-16c-0.552 0-1 0.448-1 1v23c0 0.552 0.448 1 1 1h38c0.552 0 1-0.448 1-1v-23c0-0.552-0.448-1-1-1z" fill="url(#color-2)"/>
   <path d="m0 36v0.606c0 0.42267 0.448 0.78667 1.07 0.87l2.93 0.524s-0.376 0 0 0h40l2.931-0.524c0.622-0.08267 1.07-0.44667 1.07-0.87v-0.606z" fill="#999" stroke-width=".8165"/>
  </g>
 </g>
</svg>
