<?xml version="1.0" encoding="UTF-8" standalone="no"?>
<svg
   width="122"
   height="143"
   viewBox="0 0 122 143"
   fill="none"
   version="1.1"
   id="svg1"
   sodipodi:docname="brave_mono.svg"
   inkscape:version="1.4 (e7c3feb100, 2024-10-09)"
   xmlns:inkscape="http://www.inkscape.org/namespaces/inkscape"
   xmlns:sodipodi="http://sodipodi.sourceforge.net/DTD/sodipodi-0.dtd"
   xmlns="http://www.w3.org/2000/svg"
   xmlns:svg="http://www.w3.org/2000/svg">
  <sodipodi:namedview
     id="namedview1"
     pagecolor="#505050"
     bordercolor="#eeeeee"
     borderopacity="1"
     inkscape:showpageshadow="0"
     inkscape:pageopacity="0"
     inkscape:pagecheckerboard="0"
     inkscape:deskcolor="#505050"
     inkscape:zoom="3.9904558"
     inkscape:cx="63.401279"
     inkscape:cy="92.59594"
     inkscape:window-width="1920"
     inkscape:window-height="1015"
     inkscape:window-x="0"
     inkscape:window-y="0"
     inkscape:window-maximized="1"
     inkscape:current-layer="svg1" />
  <g
     clip-path="url(#clip0_1_6)"
     id="g1"
     transform="matrix(0.90867422,0,0,0.90867422,5.7208047,6.6715464)">
    <path
       fill-rule="evenodd"
       clip-rule="evenodd"
       d="m 121.67,46.16 -4.4,-11.95 3.06,-6.86 c 0.192,-0.4328 0.249,-0.9135 0.164,-1.3792 -0.086,-0.4658 -0.31,-0.8948 -0.644,-1.2308 l -8.32,-8.41 c -1.786,-1.8123 -4.05,-3.08 -6.529,-3.6553 -2.478,-0.5754 -5.0692,-0.4348 -7.471,0.4053 L 95.2,13.89 82.49,0.120003 60.93,0 H 60.79 L 39.09,0.169998 26.39,14.05 24.13,13.25 C 21.7127,12.3999 19.103,12.257 16.6073,12.8379 14.1116,13.4189 11.8334,14.6997 10.04,16.53 L 1.57,25.1 C 1.30418,25.3679 1.12562,25.7099 1.0578,26.0811 0.989975,26.4524 1.03606,26.8354 1.19,27.18 L 4.38,34.3 0,46.24 15.74,106.09 c 1.4873,5.654 4.9089,10.608 9.67,14 0,0 15.67,11.05 31.13,21.09 1.2226,0.976 2.7406,1.508 4.305,1.508 1.5644,0 3.0824,-0.532 4.305,-1.508 17.37,-11.38 31.11,-21.13 31.11,-21.13 4.757,-3.394 8.175,-8.348 9.66,-14 l 12.84,-49.1 z M 64.39,88.45 c -0.823,-0.3684 -1.672,-0.6759 -2.54,-0.92 h -1.53 c -0.868,0.2441 -1.717,0.5516 -2.54,0.92 l -3.85,1.6 c -1.22,0.51 -3.18,1.42 -4.35,2 l -7.08,3.69 c -0.2564,0.0832 -0.482,0.2412 -0.6478,0.4538 -0.1658,0.2125 -0.2642,0.4698 -0.2825,0.7387 -0.0183,0.269 0.0444,0.5372 0.1799,0.7702 0.1355,0.2331 0.3376,0.4202 0.5804,0.5373 l 6.15,4.34 c 1.08,0.76 2.78,2.1 3.78,3 l 1.73,1.49 c 1,0.86 2.63,2.29 3.62,3.17 l 1.64,1.45 c 0.5067,0.422 1.1454,0.653 1.805,0.653 0.6596,0 1.2982,-0.231 1.805,-0.653 l 7.08,-6.18 c 1,-0.87 2.69,-2.21 3.77,-3 l 6.15,-4.4 c 0.2433,-0.1168 0.4456,-0.3044 0.5806,-0.5381 C 80.5755,97.3382 80.6367,97.0691 80.6162,96.8 80.5956,96.5309 80.4943,96.2743 80.3255,96.0638 80.1567,95.8532 79.9282,95.6985 79.67,95.62 L 72.6,92.03 c -1.18,-0.6 -3.14,-1.5 -4.37,-2 z m 43.8,-40.26 -0.2,0.64 c -0.117,0.4024 -0.261,0.7966 -0.43,1.18 -0.83,1.03 -2.24,2.63 -3.15,3.63 l -14,14.9 c -0.4648,0.5426 -0.7758,1.1997 -0.9006,1.9032 -0.1249,0.7034 -0.0591,1.4274 0.1906,2.0968 l 2.3,5.43 c 0.5207,1.4386 0.5593,3.0075 0.11,4.47 l -0.46,1.26 c -0.7496,2.0503 -2.0382,3.8605 -3.73,5.24 l -2.2,1.8 c -0.5706,0.4139 -1.237,0.676 -1.9367,0.7617 C 83.0836,91.5874 82.3736,91.4939 81.72,91.23 L 73.9,87.51 c -1.4349,-0.7155 -2.778,-1.6019 -4,-2.64 l -6.27,-5.65 c -0.2494,-0.2251 -0.451,-0.498 -0.5929,-0.8025 -0.142,-0.3044 -0.2214,-0.6343 -0.2335,-0.97 -0.0121,-0.3357 0.0433,-0.6705 0.1629,-0.9844 0.1196,-0.3139 0.301,-0.6006 0.5335,-0.8431 l 14.12,-9.54 c 0.535,-0.3797 0.916,-0.9387 1.0739,-1.5754 0.1578,-0.6368 0.0819,-1.309 -0.2139,-1.8946 l -5.49,-10.3 c -0.6283,-1.2737 -0.7254,-2.7447 -0.27,-4.09 0.6805,-1.2705 1.7792,-2.2667 3.11,-2.82 L 93,38.89 c 1.23,-0.47 1.17,-0.96 -0.15,-1.08 L 82.76,36.87 c -1.5822,-0.1008 -3.1706,0.0409 -4.71,0.42 l -8.78,2.46 c -0.6233,0.1879 -1.1574,0.5955 -1.5031,1.1471 -0.3457,0.5517 -0.4796,1.21 -0.3769,1.8529 l 3.47,18.84 c 0.2343,1.0429 0.2951,2.1173 0.18,3.18 -0.15,0.45 -1.32,1.06 -2.61,1.35 l -4.81,1.09 c -1.5537,0.2856 -3.1463,0.2856 -4.7,0 L 53.57,66.07 C 52.28,65.75 51.1,65.2 50.96,64.75 50.8418,63.6879 50.8993,62.6135 51.13,61.57 L 54.58,42.73 C 54.6827,42.0871 54.5488,41.4288 54.2031,40.8771 53.8574,40.3255 53.3233,39.9179 52.7,39.73 l -8.78,-2.45 c -1.5395,-0.379 -3.1278,-0.5206 -4.71,-0.42 l -10.09,1 c -1.31,0.08 -1.38,0.61 -0.14,1.08 l 17.18,6.49 c 1.3308,0.5533 2.4295,1.5495 3.11,2.82 0.226,0.666 0.3186,1.3701 0.2722,2.0719 C 49.4959,51.0237 49.3116,51.7095 49,52.34 l -5.48,10.3 c -0.2958,0.5856 -0.3717,1.2578 -0.2139,1.8946 0.1578,0.6367 0.5389,1.1957 1.0739,1.5754 l 14.13,9.52 c 0.2325,0.2425 0.4139,0.5292 0.5335,0.8431 0.1196,0.3139 0.175,0.6487 0.1629,0.9844 -0.0121,0.3357 -0.0915,0.6656 -0.2335,0.9701 C 58.831,78.732 58.6293,79.0049 58.38,79.23 l -6.26,5.65 c -1.2215,1.0416 -2.5646,1.9314 -4,2.65 l -7.82,3.73 c -0.6528,0.2653 -1.3623,0.3605 -2.062,0.2765 C 37.5384,91.4526 36.8715,91.1923 36.3,90.78 L 34.1,88.99 C 32.41,87.6129 31.1216,85.8064 30.37,83.76 L 29.91,82.5 c -0.4493,-1.4625 -0.4107,-3.0314 0.11,-4.47 l 2.29,-5.43 c 0.2496,-0.6694 0.3155,-1.3934 0.1906,-2.0968 C 32.3757,69.7997 32.0648,69.1426 31.6,68.6 l -14,-14.88 c -0.91,-0.97 -2.33,-2.63 -3.16,-3.63 -0.1501,-0.3946 -0.2737,-0.7989 -0.37,-1.21 l -0.2,-0.64 c 0.0158,-1.2583 0.1973,-2.5091 0.54,-3.72 0.5681,-1.0859 1.1992,-2.1377 1.89,-3.15 l 4,-5.87 c 0.74,-1.09 2.03,-2.87 2.85,-3.87 l 5.35,-6.71 c 0.4889,-0.654 1.02,-1.2753 1.59,-1.86 h 0.11 c 0.01,-0.01 1.08,0.19 2.38,0.44 l 8.2,1.57 3.59,0.68 c 1.1918,0.056 2.3834,-0.1171 3.51,-0.51 l 6.47,-2.1 c 1.26,-0.41 3.34,-0.99 4.63,-1.29 1.3595,-0.1445 2.7305,-0.1445 4.09,0 1.29,0.28 3.37,0.87 4.63,1.28 l 6.47,2.09 c 1.1266,0.3929 2.3181,0.566 3.51,0.51 l 11.78,-2.27 c 1.3,-0.25 2.38,-0.44 2.38,-0.44 h 0.11 c 0.57,0.5847 1.1011,1.206 1.59,1.86 l 5.36,6.71 c 0.85,1.03 2.11,2.77 2.85,3.87 l 4,5.87 c 0.92,1.3427 1.685,2.7852 2.28,4.3 0.118,0.848 0.172,1.7038 0.16,2.56 z"
       fill="#e1e1e1"
       id="path1" />
  </g>
  <defs
     id="defs1">
    <clipPath
       id="clip0_1_6">
      <rect
         width="121.67"
         height="142.688"
         fill="white"
         id="rect1" />
    </clipPath>
  </defs>
</svg>
