<?xml version="1.0" encoding="UTF-8" standalone="no"?>
<!-- Uploaded to: SVG Repo, www.svgrepo.com, Generator: SVG Repo Mixer Tools -->

<svg
   fill="#000000"
   height="800px"
   width="800px"
   version="1.1"
   id="Layer_1"
   viewBox="0 0 305 305"
   xml:space="preserve"
   sodipodi:docname="chrome-svgrepo-com.svg"
   inkscape:version="1.4 (e7c3feb100, 2024-10-09)"
   xmlns:inkscape="http://www.inkscape.org/namespaces/inkscape"
   xmlns:sodipodi="http://sodipodi.sourceforge.net/DTD/sodipodi-0.dtd"
   xmlns="http://www.w3.org/2000/svg"
   xmlns:svg="http://www.w3.org/2000/svg"><defs
   id="defs1" /><sodipodi:namedview
   id="namedview1"
   pagecolor="#505050"
   bordercolor="#eeeeee"
   borderopacity="1"
   inkscape:showpageshadow="0"
   inkscape:pageopacity="0"
   inkscape:pagecheckerboard="0"
   inkscape:deskcolor="#505050"
   inkscape:zoom="0.504375"
   inkscape:cx="431.22677"
   inkscape:cy="482.77571"
   inkscape:window-width="1920"
   inkscape:window-height="1015"
   inkscape:window-x="0"
   inkscape:window-y="0"
   inkscape:window-maximized="1"
   inkscape:current-layer="Layer_1" />
<g
   id="XMLID_16_"
   style="fill:#ececec;fill-opacity:1"
   transform="matrix(0.8512899,0,0,0.8512899,22.67829,22.678364)">
	<path
   id="XMLID_17_"
   d="m 95.506,152.511 c 0,31.426 25.567,56.991 56.994,56.991 31.425,0 56.99,-25.566 56.99,-56.991 0,-31.426 -25.565,-56.993 -56.99,-56.993 -31.427,0 -56.994,25.567 -56.994,56.993 z"
   style="fill:#ececec;fill-opacity:1" />
	<path
   id="XMLID_18_"
   d="m 283.733,77.281 c 0.444,-0.781 0.436,-1.74 -0.023,-2.513 C 270.435,52.41 251.543,33.682 229.077,20.609 205.922,7.134 179.441,0.012 152.5,0.012 c -46.625,0 -90.077,20.924 -119.215,57.407 -0.643,0.804 -0.727,1.919 -0.212,2.81 l 42.93,74.355 c 0.45,0.78 1.28,1.25 2.164,1.25 0.112,0 0.226,-0.008 0.339,-0.023 1.006,-0.137 1.829,-0.869 2.083,-1.852 8.465,-32.799 38.036,-55.706 71.911,-55.706 2.102,0 4.273,0.096 6.455,0.282 0.071,0.007 0.143,0.01 0.214,0.01 H 281.56 c 0.899,0 1.729,-0.482 2.173,-1.264 z"
   style="fill:#ececec;fill-opacity:1" />
	<path
   id="XMLID_19_"
   d="m 175.035,224.936 c -0.621,-0.803 -1.663,-1.148 -2.646,-0.876 -6.457,1.798 -13.148,2.709 -19.889,2.709 -28.641,0 -55.038,-16.798 -67.251,-42.794 -0.03,-0.064 -0.063,-0.126 -0.098,-0.188 L 23.911,77.719 c -0.446,-0.775 -1.272,-1.25 -2.165,-1.25 -0.004,0 -0.009,0 -0.013,0 -0.898,0.005 -1.725,0.49 -2.165,1.272 C 6.767,100.456 0,126.311 0,152.511 c 0,36.755 13.26,72.258 37.337,99.969 23.838,27.435 56.656,45.49 92.411,50.84 0.124,0.019 0.248,0.027 0.371,0.027 0.883,0 1.713,-0.47 2.164,-1.25 l 42.941,-74.378 c 0.508,-0.88 0.433,-1.98 -0.189,-2.783 z"
   style="fill:#ececec;fill-opacity:1" />
	<path
   id="XMLID_20_"
   d="m 292.175,95.226 h -85.974 c -1.016,0 -1.931,0.615 -2.314,1.555 -0.384,0.94 -0.161,2.02 0.564,2.73 14.385,14.102 22.307,32.924 22.307,53 0,15.198 -4.586,29.824 -13.263,42.298 -0.04,0.058 -0.077,0.117 -0.112,0.178 l -61.346,106.252 c -0.449,0.778 -0.446,1.737 0.007,2.513 0.449,0.767 1.271,1.237 2.158,1.237 0.009,0 0.019,0 0.028,0 40.37,-0.45 78.253,-16.511 106.669,-45.222 C 289.338,231.032 305,192.941 305,152.511 c 0,-19.217 -3.532,-37.956 -10.498,-55.698 -0.376,-0.958 -1.299,-1.587 -2.327,-1.587 z"
   style="fill:#ececec;fill-opacity:1" />
</g>
</svg>
