<svg version="1.1" xmlns="http://www.w3.org/2000/svg" xmlns:xlink="http://www.w3.org/1999/xlink" width="48px" height="48px" viewBox="0,0,256,256"><defs><linearGradient x1="21.776" y1="8.297" x2="27.049" y2="38.413" gradientUnits="userSpaceOnUse" id="color-1"><stop offset="0" stop-color="#4c4c4c"></stop><stop offset="1" stop-color="#343434"></stop></linearGradient><radialGradient cx="12.872" cy="6.499" r="43.892" gradientUnits="userSpaceOnUse" id="color-2"><stop offset="0" stop-color="#bd8af5"></stop><stop offset="0.137" stop-color="#b88bf5"></stop><stop offset="0.309" stop-color="#a88ff3"></stop><stop offset="0.499" stop-color="#8f96f2"></stop><stop offset="0.702" stop-color="#6b9eef"></stop><stop offset="0.913" stop-color="#3eaaec"></stop><stop offset="1" stop-color="#29afea"></stop></radialGradient></defs><g fill="none" fill-rule="nonzero" stroke="none" stroke-width="1" stroke-linecap="butt" stroke-linejoin="miter" stroke-miterlimit="10" stroke-dasharray="" stroke-dashoffset="0" font-family="none" font-weight="none" font-size="none" text-anchor="none" style="mix-blend-mode: normal"><g transform="scale(5.33333,5.33333)"><rect x="17" y="33" width="14" height="10" fill="#999999"></rect><path d="M47,36h-46c-0.552,0 -1,-0.448 -1,-1v-28c0,-0.552 0.448,-1 1,-1h46c0.552,0 1,0.448 1,1v28c0,0.552 -0.448,1 -1,1z" fill="url(#color-1)"></path><rect x="1" y="7" width="46" height="28" fill="url(#color-2)"></rect><path d="M31.5,44h-15c-0.276,0 -0.5,-0.224 -0.5,-0.5v-1c0,-0.276 0.224,-0.5 0.5,-0.5h15c0.276,0 0.5,0.224 0.5,0.5v1c0,0.276 -0.224,0.5 -0.5,0.5z" fill="#cad2d9"></path></g></g></svg>