<?xml version="1.0" encoding="UTF-8" standalone="no"?>
<!-- Uploaded to: SVG Repo, www.svgrepo.com, Generator: SVG Repo Mixer Tools -->

<svg
   fill="#000000"
   width="800px"
   height="800px"
   viewBox="0 0 32 32"
   version="1.1"
   id="svg1"
   sodipodi:docname="mozilla-firefox-svgrepo-com.svg"
   inkscape:version="1.4 (e7c3feb100, 2024-10-09)"
   xmlns:inkscape="http://www.inkscape.org/namespaces/inkscape"
   xmlns:sodipodi="http://sodipodi.sourceforge.net/DTD/sodipodi-0.dtd"
   xmlns="http://www.w3.org/2000/svg"
   xmlns:svg="http://www.w3.org/2000/svg">
  <defs
     id="defs1" />
  <sodipodi:namedview
     id="namedview1"
     pagecolor="#505050"
     bordercolor="#eeeeee"
     borderopacity="1"
     inkscape:showpageshadow="0"
     inkscape:pageopacity="0"
     inkscape:pagecheckerboard="0"
     inkscape:deskcolor="#505050"
     inkscape:zoom="0.8675"
     inkscape:cx="400"
     inkscape:cy="400.57637"
     inkscape:window-width="1920"
     inkscape:window-height="1015"
     inkscape:window-x="0"
     inkscape:window-y="0"
     inkscape:window-maximized="1"
     inkscape:current-layer="svg1" />
  <path
     d="m 12.50303,10.808287 c 0.0092,0 0.0042,0 0,0 z M 9.4184638,9.2660034 c 0.00918,0 0.00417,0 0,0 z M 27.869143,11.646575 C 27.312787,10.30865 26.183392,8.8664611 25.300895,8.4060283 c 0.721512,1.4113268 1.138571,2.8326627 1.294551,3.8878217 l 0.0042,0.02252 C 25.149086,8.7054764 22.695112,7.2507755 20.687391,4.0827972 20.587297,3.9226466 20.487203,3.7616619 20.387109,3.5923361 20.33456,3.5055878 20.291186,3.4188396 20.243641,3.3262526 20.161063,3.166102 20.101007,2.9967762 20.056799,2.818275 c 0,-0.016682 -0.01251,-0.030028 -0.03003,-0.034199 -0.0092,0 -0.01752,0 -0.02586,0 l -0.0042,0.00417 c -0.0042,0 -0.0092,0.00417 -0.0092,0.00417 0,0 0,-0.00417 0.0042,-0.00918 -2.850179,1.668235 -4.027119,4.5918169 -4.331572,6.4468943 -0.881662,0.052549 -1.741637,0.2735905 -2.536551,0.6472751 -0.152644,0.077573 -0.221041,0.2527376 -0.164321,0.4078836 0.06423,0.177667 0.264415,0.266084 0.437911,0.186842 0.69482,-0.32614 1.44219,-0.5213232 2.211246,-0.5730385 l 0.07424,-0.00918 c 0.104265,-0.00417 0.2127,-0.00918 0.316965,-0.00918 0.621418,-0.00417 1.242001,0.082578 1.837561,0.2560735 l 0.104265,0.03086 c 0.100094,0.03003 0.196017,0.06423 0.296111,0.100095 0.06923,0.02586 0.143469,0.05255 0.2127,0.08258 0.05672,0.02085 0.11344,0.04754 0.169326,0.06923 0.08758,0.04004 0.174331,0.08341 0.261079,0.126786 l 0.116776,0.05589 c 0.08675,0.04421 0.17016,0.09092 0.252738,0.139297 0.05255,0.03086 0.104265,0.06089 0.15598,0.09592 0.926705,0.573873 1.699097,1.368787 2.237937,2.31551 -0.681474,-0.477115 -1.907626,-0.955065 -3.083732,-0.746535 4.604328,2.302164 3.366498,10.230451 -3.015335,9.930169 -0.569702,-0.02085 -1.130229,-0.130122 -1.664064,-0.321135 -0.130123,-0.04754 -0.256909,-0.100094 -0.377856,-0.152644 -0.0734,-0.0342 -0.147638,-0.06923 -0.21687,-0.10343 -1.564805,-0.80826 -2.855185,-2.338032 -3.015335,-4.193109 0,0 0.590555,-2.20207 4.230644,-2.20207 0.396206,0 1.52143,-1.100201 1.542283,-1.417166 -0.0092,-0.104265 -2.237937,-0.990098 -3.106253,-1.845902 -0.46458,-0.456245 -0.68145,-0.677287 -0.877468,-0.843276 C 11.955849,11.166957 11.843243,11.08438 11.725633,11.006807 11.43536,9.9858468 11.422014,8.9039964 11.691434,7.8780319 10.374363,8.4777624 9.3534027,9.4253199 8.6110381,10.259437 H 8.603531 C 8.0955534,9.6163328 8.1339229,7.496006 8.1597805,7.0530896 8.1556099,7.0230614 7.7819253,7.2441026 7.7335464,7.2791355 7.2864595,7.6002707 6.8652301,7.957273 6.4823702,8.3526447 6.0444585,8.7955611 5.6449162,9.2735105 5.2837433,9.7864927 4.4629717,10.950921 3.8765871,12.271329 3.5679636,13.660969 c -0.00417,0.01752 -0.1209471,0.539674 -0.2076953,1.181944 -0.017517,0.100094 -0.030862,0.200188 -0.043374,0.299448 -0.035867,0.243563 -0.060891,0.491296 -0.074237,0.734858 l -0.00417,0.0392 c -0.00751,0.143469 -0.016682,0.282766 -0.025858,0.426234 v 0.06423 c 0,7.073317 5.7345579,12.807875 12.8078747,12.807875 6.333454,0 11.594233,-4.600992 12.624369,-10.640003 0.02252,-0.164321 0.0392,-0.329477 0.05672,-0.494632 0.256074,-2.194563 -0.02586,-4.505069 -0.829947,-6.433548 z"
     id="path1"
     style="fill:#ececec;fill-opacity:1;stroke-width:0.834118" />
</svg>
