<?xml version="1.0" encoding="UTF-8" standalone="no"?>
<svg
   viewBox="0 0 48 48"
   version="1.1"
   id="svg7"
   sodipodi:docname="fm.svg"
   inkscape:version="1.3.2 (091e20ef0f, 2023-11-25, custom)"
   xmlns:inkscape="http://www.inkscape.org/namespaces/inkscape"
   xmlns:sodipodi="http://sodipodi.sourceforge.net/DTD/sodipodi-0.dtd"
   xmlns="http://www.w3.org/2000/svg"
   xmlns:svg="http://www.w3.org/2000/svg">
  <sodipodi:namedview
     id="namedview7"
     pagecolor="#505050"
     bordercolor="#eeeeee"
     borderopacity="1"
     inkscape:showpageshadow="0"
     inkscape:pageopacity="0"
     inkscape:pagecheckerboard="0"
     inkscape:deskcolor="#505050"
     inkscape:zoom="8.2708335"
     inkscape:cx="39.415616"
     inkscape:cy="3.8690176"
     inkscape:window-width="1920"
     inkscape:window-height="1008"
     inkscape:window-x="0"
     inkscape:window-y="0"
     inkscape:window-maximized="1"
     inkscape:current-layer="g6" />
  <defs
     id="defs6">
    <linearGradient
       id="0"
       x1="249.93613"
       y1="-15.786143"
       x2="249.97"
       y2="-30.34"
       gradientUnits="userSpaceOnUse"
       gradientTransform="matrix(0.41386,0,0,0.41663,367.27965,520.95978)">
      <stop
         stop-color="#a0d5ff"
         id="stop1" />
      <stop
         offset="1"
         stop-color="#edf7f7"
         id="stop2" />
    </linearGradient>
    <linearGradient
       gradientTransform="matrix(1.0478,0,0,0.99815,44.42,6.5093361)"
       gradientUnits="userSpaceOnUse"
       y2="504.66"
       x2="409.81"
       y1="544.81"
       x1="409.56"
       id="1">
      <stop
         stop-color="#197cf1"
         id="stop3" />
      <stop
         offset="1"
         stop-color="#20bcfa"
         id="stop4" />
    </linearGradient>
    <linearGradient
       gradientTransform="matrix(1.09091,0,0,1.03922,-37.15,-19.226371)"
       gradientUnits="userSpaceOnUse"
       y2="504.66"
       x2="409.81"
       y1="544.81"
       x1="409.56"
       id="2">
      <stop
         stop-color="#a0d5ff"
         id="stop5" />
      <stop
         offset="1"
         stop-color="#fff"
         id="stop6" />
    </linearGradient>
  </defs>
  <g
     transform="translate(-384.57-499.8)"
     id="g7">
    <g
       transform="matrix(1.04115 0 0 1.04115-83.39-26)"
       id="g6">
      <path
         d="m 451.81055,508.67711 c -0.45855,0 -0.82772,0.37164 -0.82772,0.83326 v 34.00118 l 43.06627,0.1 v -30.61189 c 0,-0.46162 -0.62671,-1.17978 -1.08527,-1.17978 h -20.93167 c -0.84386,0.075 -1.94306,-1.97995 -2.35982,-2.54031 -0.5914,-0.7966 0.58188,0.77868 0,0 -0.46725,-0.68036 -0.98628,-0.6022 -1.76102,-0.6022 -0.85347,-0.0204 -16.10077,0 -16.10077,0 z"
         fill="url(#0)"
         color="#000000"
         id="path6"
         style="fill:url(#0);stroke-width:0.415243"
         sodipodi:nodetypes="csccsscccccc" />
      <rect
         width="46.099998"
         height="33.937"
         x="449.47"
         y="513.37335"
         fill="url(#1)"
         rx="1.597"
         id="rect6"
         style="fill:url(#1)" />
    </g>
    <path
       d="m 409.1,508.48463 h 21.803 c 0.921,0 1.663,0.742 1.663,1.663 v 32.01 c 0,0.921 -0.742,1.663 -1.663,1.663 h -18.756 c -1.969,-5.614 -2.062,-10.946 -1.09,-16.12 h -6.94 c -0.196,-6.489 1.954,-12.872 4.984,-19.215"
       opacity="0.85"
       fill="url(#2)"
       id="path7"
       style="fill:url(#2)" />
  </g>
</svg>
