<?xml version="1.0" encoding="UTF-8" standalone="no"?>
<!-- Created with Inkscape (http://www.inkscape.org/) -->

<svg
   version="1.1"
   id="svg2"
   width="128"
   height="128"
   viewBox="0 0 128 128"
   sodipodi:docname="music_mono.svg"
   inkscape:version="1.4 (e7c3feb100, 2024-10-09)"
   xmlns:inkscape="http://www.inkscape.org/namespaces/inkscape"
   xmlns:sodipodi="http://sodipodi.sourceforge.net/DTD/sodipodi-0.dtd"
   xmlns="http://www.w3.org/2000/svg"
   xmlns:svg="http://www.w3.org/2000/svg"
   xmlns:rdf="http://www.w3.org/1999/02/22-rdf-syntax-ns#"
   xmlns:cc="http://creativecommons.org/ns#"
   xmlns:dc="http://purl.org/dc/elements/1.1/">
  <metadata
     id="metadata8">
    <rdf:RDF>
      <cc:Work
         rdf:about="">
        <dc:format>image/svg+xml</dc:format>
        <dc:type
           rdf:resource="http://purl.org/dc/dcmitype/StillImage" />
        <dc:title />
      </cc:Work>
    </rdf:RDF>
  </metadata>
  <defs
     id="defs6" />
  <sodipodi:namedview
     pagecolor="#ffffff"
     bordercolor="#666666"
     borderopacity="1"
     objecttolerance="10"
     gridtolerance="10"
     guidetolerance="10"
     inkscape:pageopacity="0"
     inkscape:pageshadow="2"
     inkscape:window-width="1920"
     inkscape:window-height="1015"
     id="namedview4"
     showgrid="false"
     inkscape:zoom="3.6874999"
     inkscape:cx="38.915255"
     inkscape:cy="46.508476"
     inkscape:window-x="0"
     inkscape:window-y="0"
     inkscape:window-maximized="1"
     inkscape:current-layer="svg2"
     inkscape:showpageshadow="0"
     inkscape:pagecheckerboard="0"
     inkscape:deskcolor="#505050" />
  <g
     id="g974"
     transform="matrix(1.2782348,0,0,1.2782348,-358.16305,-20.491494)"
     style="fill:#ececec;fill-opacity:1">
    <path
       sodipodi:nodetypes="cccccscccccccc"
       inkscape:connector-curvature="0"
       id="path863"
       d="m 337.85679,29.580322 -19.17577,3.787215 c -3.0722,0.65674 -3.66799,2.371157 -3.59546,5.081582 l 0.048,42.306559 c -0.13962,2.973501 -0.46236,4.606214 -3.8831,5.15349 -12.10603,1.801889 -14.45566,5.551709 -14.38201,10.882257 0.0733,5.308775 4.37623,9.562375 10.30716,8.964675 5.20132,-0.57853 9.07643,-2.0926 11.45753,-6.903282 0.92183,-1.811914 1.23469,-5.580798 1.00673,-9.396131 l -0.0479,-33.653489 c 0.01,-2.355753 -0.38934,-3.66712 2.73255,-4.31455 l 16.34863,-3.29475 2.44363,-0.492467 z"
       style="fill:#ececec;fill-opacity:1;stroke:none;stroke-width:0.1;stroke-linecap:butt;stroke-linejoin:miter;stroke-miterlimit:4;stroke-dasharray:none;stroke-opacity:1" />
    <path
       style="fill:#ececec;fill-opacity:1;stroke:none;stroke-width:0.1;stroke-linecap:butt;stroke-linejoin:miter;stroke-miterlimit:4;stroke-dasharray:none;stroke-opacity:1"
       d="m 354.97118,47.749371 0.048,25.144238 c -0.13962,2.973501 -0.42846,4.335028 -3.8492,4.882304 -12.10603,1.801889 -14.48956,5.822895 -14.41591,11.153443 0.0733,5.308775 4.44403,9.291189 10.37496,8.693489 5.20132,-0.57853 8.94083,-1.923109 11.32193,-6.733791 0.92183,-1.811914 0.99741,-5.411306 1.07453,-9.294436 l -0.032,-51.482558 c -0.002,-3.860607 -0.87855,-4.856317 -5.27176,-3.863311 l -18.81993,3.819392 3.35487,18.105993 13.51798,-2.726528 c 1.81449,-0.365976 2.66887,0.254882 2.69649,2.301765 z"
       id="path865"
       inkscape:connector-curvature="0"
       sodipodi:nodetypes="cccscccccccscc" />
  </g>
</svg>
