<?xml version="1.0" encoding="UTF-8" standalone="no"?>
<!-- Generator: Adobe Illustrator 16.0.0, SVG Export Plug-In . SVG Version: 6.00 Build 0)  -->

<svg
   version="1.1"
   id="svg2"
   x="0px"
   y="0px"
   width="250"
   height="250"
   viewBox="35.188 31.512 250.00001 249.99999"
   enable-background="new 35.188 31.512 351.46 258.785"
   xml:space="preserve"
   sodipodi:docname="Nvidia_logo.svg"
   inkscape:version="1.3.2 (091e20ef0f, 2023-11-25, custom)"
   xmlns:inkscape="http://www.inkscape.org/namespaces/inkscape"
   xmlns:sodipodi="http://sodipodi.sourceforge.net/DTD/sodipodi-0.dtd"
   xmlns="http://www.w3.org/2000/svg"
   xmlns:svg="http://www.w3.org/2000/svg"
   xmlns:rdf="http://www.w3.org/1999/02/22-rdf-syntax-ns#"
   xmlns:cc="http://creativecommons.org/ns#"
   xmlns:dc="http://purl.org/dc/elements/1.1/"><defs
   id="defs1" /><sodipodi:namedview
   id="namedview1"
   pagecolor="#505050"
   bordercolor="#eeeeee"
   borderopacity="1"
   inkscape:showpageshadow="0"
   inkscape:pageopacity="0"
   inkscape:pagecheckerboard="0"
   inkscape:deskcolor="#505050"
   inkscape:zoom="2.6148069"
   inkscape:cx="154.3135"
   inkscape:cy="129.26385"
   inkscape:window-width="1920"
   inkscape:window-height="1012"
   inkscape:window-x="0"
   inkscape:window-y="0"
   inkscape:window-maximized="1"
   inkscape:current-layer="svg2" />
<title
   id="title4">generated by pstoedit version:3.44 from NVBadge_2D.eps</title>


<path
   id="path21"
   fill="#77b900"
   d="m 61.1685,145.0645 c 0,0 22.504,-33.203 67.437,-36.638 v -12.046 c -49.769,3.997 -92.867,46.149 -92.867,46.149 0,0 24.41,70.565 92.867,77.026 v -12.804 c -50.237,-6.32 -67.437,-61.687 -67.437,-61.687 z m 67.437,36.223 v 11.726 c -37.968,-6.769 -48.507,-46.237 -48.507,-46.237 0,0 18.23,-20.195 48.507,-23.47 v 12.867 c -0.023,0 -0.039,-0.007 -0.058,-0.007 -15.891,-1.907 -28.305,12.938 -28.305,12.938 0,0 6.958,24.991 28.363,32.183 m 0,-107.125 v 22.218 c 1.461,-0.112 2.922,-0.207 4.391,-0.257 56.582,-1.907 93.449,46.406 93.449,46.406 0,0 -42.343,51.488 -86.457,51.488 -4.043,0 -7.828,-0.375 -11.383,-1.005 v 13.739 c 3.04,0.386 6.192,0.613 9.481,0.613 41.051,0 70.738,-20.965 99.484,-45.778 4.766,3.817 24.278,13.103 28.289,17.168 -27.332,22.883 -91.031,41.329 -127.144,41.329 -3.481,0 -6.824,-0.211 -10.11,-0.528 v 19.306 h 156.032 V 74.1625 Z m 0,49.144 v -14.879 c 1.446,-0.101 2.903,-0.179 4.391,-0.226 40.688,-1.278 67.382,34.965 67.382,34.965 0,0 -28.832,40.043 -59.746,40.043 -4.449,0 -8.438,-0.715 -12.028,-1.922 v -45.114 c 15.84,1.914 19.028,8.911 28.551,24.786 l 21.18,-17.859 c 0,0 -15.461,-20.277 -41.524,-20.277 -2.833,-10e-4 -5.544,0.198 -8.206,0.483" />
<metadata
   id="metadata1"><rdf:RDF><cc:Work
       rdf:about=""><dc:title>generated by pstoedit version:3.44 from NVBadge_2D.eps</dc:title></cc:Work></rdf:RDF></metadata></svg>
