<?xml version="1.0" encoding="UTF-8" standalone="no"?>
<svg
   id="custom-logo"
   width="512"
   height="512"
   viewBox="0 0 512 512"
   fill="none"
   style="height:100%;width:100%;"
   version="1.1"
   sodipodi:docname="obsidian.svg"
   inkscape:version="1.3.2 (091e20ef0f, 2023-11-25, custom)"
   xmlns:inkscape="http://www.inkscape.org/namespaces/inkscape"
   xmlns:sodipodi="http://sodipodi.sourceforge.net/DTD/sodipodi-0.dtd"
   xmlns="http://www.w3.org/2000/svg"
   xmlns:svg="http://www.w3.org/2000/svg">
  <sodipodi:namedview
     id="namedview25"
     pagecolor="#505050"
     bordercolor="#eeeeee"
     borderopacity="1"
     inkscape:showpageshadow="0"
     inkscape:pageopacity="0"
     inkscape:pagecheckerboard="0"
     inkscape:deskcolor="#505050"
     inkscape:zoom="1.5019531"
     inkscape:cx="269.98179"
     inkscape:cy="257.6645"
     inkscape:window-width="1920"
     inkscape:window-height="1015"
     inkscape:window-x="0"
     inkscape:window-y="0"
     inkscape:window-maximized="1"
     inkscape:current-layer="custom-logo" />
  <defs
     id="defs17">
    <radialGradient
       id="b"
       cx="0"
       cy="0"
       r="1"
       gradientUnits="userSpaceOnUse"
       gradientTransform="matrix(-53.129266,-204.76904,136.14374,-35.41951,170.80921,447.9837)">
      <stop
         stop-color="#fff"
         stop-opacity=".4"
         id="stop1" />
      <stop
         offset="1"
         stop-opacity=".1"
         id="stop2" />
    </radialGradient>
    <radialGradient
       id="c"
       cx="0"
       cy="0"
       r="1"
       gradientUnits="userSpaceOnUse"
       gradientTransform="matrix(45.381248,-343.12651,253.47087,33.205791,350.7846,361.2059)">
      <stop
         stop-color="#fff"
         stop-opacity=".6"
         id="stop3" />
      <stop
         offset="1"
         stop-color="#fff"
         stop-opacity=".1"
         id="stop4" />
    </radialGradient>
    <radialGradient
       id="d"
       cx="0"
       cy="0"
       r="1"
       gradientUnits="userSpaceOnUse"
       gradientTransform="matrix(63.091003,-288.89038,197.02103,43.167528,183.5381,300.32862)">
      <stop
         stop-color="#fff"
         stop-opacity=".8"
         id="stop5" />
      <stop
         offset="1"
         stop-color="#fff"
         stop-opacity=".4"
         id="stop6" />
    </radialGradient>
    <radialGradient
       id="e"
       cx="0"
       cy="0"
       r="1"
       gradientUnits="userSpaceOnUse"
       gradientTransform="matrix(-87.441916,-147.21234,169.34953,-99.617373,328.42603,486.17036)">
      <stop
         stop-color="#fff"
         stop-opacity=".3"
         id="stop7" />
      <stop
         offset="1"
         stop-opacity=".3"
         id="stop8" />
    </radialGradient>
    <radialGradient
       id="f"
       cx="0"
       cy="0"
       r="1"
       gradientUnits="userSpaceOnUse"
       gradientTransform="matrix(-32.098931,150.53292,-101.83109,-22.137194,305.51404,138.28436)">
      <stop
         stop-color="#fff"
         stop-opacity="0"
         id="stop9" />
      <stop
         offset="1"
         stop-color="#fff"
         stop-opacity=".2"
         id="stop10" />
    </radialGradient>
    <radialGradient
       id="g"
       cx="0"
       cy="0"
       r="1"
       gradientUnits="userSpaceOnUse"
       gradientTransform="matrix(79.693898,80.800758,-171.56325,169.34953,125.20659,221.63089)">
      <stop
         stop-color="#fff"
         stop-opacity=".2"
         id="stop11" />
      <stop
         offset="1"
         stop-color="#fff"
         stop-opacity=".4"
         id="stop12" />
    </radialGradient>
    <radialGradient
       id="h"
       cx="0"
       cy="0"
       r="1"
       gradientUnits="userSpaceOnUse"
       gradientTransform="matrix(22.137194,130.60944,-277.82178,47.594967,210.76685,275.31359)">
      <stop
         stop-color="#fff"
         stop-opacity=".1"
         id="stop13" />
      <stop
         offset="1"
         stop-color="#fff"
         stop-opacity=".3"
         id="stop14" />
    </radialGradient>
    <radialGradient
       id="i"
       cx="0"
       cy="0"
       r="1"
       gradientUnits="userSpaceOnUse"
       gradientTransform="matrix(-179.31127,-94.083074,296.6384,-564.49845,387.0896,383.78584)">
      <stop
         stop-color="#fff"
         stop-opacity=".2"
         id="stop15" />
      <stop
         offset=".5"
         stop-color="#fff"
         stop-opacity=".2"
         id="stop16" />
      <stop
         offset="1"
         stop-color="#fff"
         stop-opacity=".3"
         id="stop17" />
    </radialGradient>
    <filter
       id="a"
       x="80.1"
       y="37"
       width="351.1"
       height="443.2"
       filterUnits="userSpaceOnUse"
       color-interpolation-filters="sRGB">
      <feFlood
         flood-opacity="0"
         result="BackgroundImageFix"
         id="feFlood17" />
      <feBlend
         in="SourceGraphic"
         in2="BackgroundImageFix"
         result="shape"
         id="feBlend17" />
      <feGaussianBlur
         stdDeviation="6.5"
         result="effect1_foregroundBlur_744_9191"
         id="feGaussianBlur17" />
    </filter>
  </defs>
  <!-- <rect id="logo-bg" fill="#000000" width="512" height="512" rx="100"/> -->
  <g
     filter="url(#a)"
     id="g17"
     transform="matrix(1.1068597,0,0,1.1068597,-27.318675,-27.633912)">
    <path
       d="m 359.2,437.5 c -2.6,19 -21.3,33.9 -40,28.7 C 292.7,459 262,447.6 234.4,445.5 L 192,442.3 A 28,28 0 0 1 174,434 l -73,-74.8 a 27.7,27.7 0 0 1 -5.4,-30.7 c 0,0 45,-98.6 46.8,-103.7 1.6,-5.1 7.8,-49.9 11.4,-73.9 a 28,28 0 0 1 9,-16.5 L 249,57.2 a 28,28 0 0 1 40.6,3.4 l 72.6,91.6 a 29.5,29.5 0 0 1 6.2,18.3 c 0,17.3 1.5,53 11.2,76 a 301.3,301.3 0 0 0 35.6,58.2 14,14 0 0 1 1,15.6 c -6.3,10.7 -18.9,31.3 -36.6,57.6 a 142.2,142.2 0 0 0 -20.5,59.6 z"
       fill="#000000"
       fill-opacity="0.3"
       id="path17" />
  </g>
  <path
     id="arrow"
     d="m 371.04012,453.07524 c -2.87783,21.14102 -23.57611,37.63323 -44.27439,31.98825 -29.22109,-8.08008 -63.091,-20.69828 -93.75101,-23.02268 l -46.82016,-3.54195 a 30.881385,30.881385 0 0 1 -19.92348,-9.29763 L 85.470325,366.18676 a 30.881385,30.881385 0 0 1 -5.977042,-34.31265 c 0,0 49.919367,-109.57911 51.801037,-115.33478 1.88166,-5.64498 8.6335,-55.34298 12.6182,-82.12899 a 30.992071,30.992071 0 0 1 9.96173,-18.37387 l 95.41131,-85.781621 a 30.992071,30.992071 0 0 1 44.9385,3.874009 l 80.24733,101.831092 a 32.873732,32.873732 0 0 1 6.86253,20.25553 c 0,19.25936 1.66029,58.88493 12.28614,84.45339 a 335.37848,335.37848 0 0 0 39.4042,64.75129 15.496035,15.496035 0 0 1 1.21755,17.3777 c -7.0839,11.95408 -20.91965,34.75539 -40.62175,64.08718 a 158.61299,158.61299 0 0 0 -22.57994,66.1902 z"
     fill="#6c31e3"
     style="stroke-width:1.10686" />
  <path
     d="m 174.90459,455.39965 c 37.52254,-76.04126 36.52637,-130.60944 20.4769,-169.34953 -14.61055,-35.86225 -41.94998,-58.44219 -63.42306,-72.49931 -0.44274,2.10303 -1.10686,4.09538 -1.99235,5.97704 L 79.493283,331.87411 a 30.881385,30.881385 0 0 0 6.087728,34.31265 l 80.690069,83.01447 c 2.54578,2.54578 5.5343,4.64882 8.63351,6.19842 z"
     fill="url(#b)"
     id="path18"
     style="fill:url(#b);stroke-width:1.10686" />
  <path
     d="m 276.95705,301.10341 c 10.07242,0.99617 19.92347,3.20989 29.66384,6.75184 30.7707,11.51135 58.77425,37.41186 81.90761,87.33123 1.66029,-2.87783 3.32058,-5.64498 5.09156,-8.30144 a 1352.5825,1352.5825 0 0 0 40.62175,-64.08718 15.496035,15.496035 0 0 0 -1.10686,-17.3777 335.37848,335.37848 0 0 1 -39.51489,-64.75129 c -10.62585,-25.45777 -12.17546,-65.19403 -12.28614,-84.45339 0,-7.30527 -2.32441,-14.49986 -6.86253,-20.25553 l -80.24733,-101.831092 -1.32823,-1.66029 c 5.86635,19.370045 5.5343,34.86608 1.88166,48.923198 -3.32058,13.060944 -9.51899,24.904344 -16.04947,37.411854 -2.21372,4.20607 -4.42743,8.52282 -6.53047,12.95026 a 154.96035,154.96035 0 0 0 -17.48838,64.19786 c -1.10686,26.78601 4.31675,60.32385 22.13719,105.15167 z"
     fill="url(#c)"
     id="path19"
     style="fill:url(#c);stroke-width:1.10686" />
  <path
     d="m 276.84636,301.10341 c -17.82044,-44.82782 -23.24405,-78.36566 -22.13719,-105.15167 1.10686,-26.56463 8.85488,-46.4881 17.48838,-64.19786 l 6.64116,-12.95026 c 6.41979,-12.50751 12.50751,-24.35091 15.93878,-37.411854 a 86.888484,86.888484 0 0 0 -1.88166,-48.923198 30.992071,30.992071 0 0 0 -43.61027,-2.213719 l -95.41131,85.781621 a 30.992071,30.992071 0 0 0 -9.96173,18.37387 l -11.62203,77.03744 c 0,0.7748 -0.22137,1.43891 -0.33206,2.21372 21.47308,13.94643 48.70183,36.52637 63.42306,72.27793 2.87784,7.08391 5.31293,14.49986 7.0839,22.57994 a 221.37193,221.37193 0 0 1 74.38097,-7.52665 z"
     fill="url(#d)"
     id="path20"
     style="fill:url(#d);stroke-width:1.10686" />
  <path
     d="m 326.87642,485.06349 c 20.58759,5.64498 41.28587,-10.84723 44.1637,-32.09893 a 169.34953,169.34953 0 0 1 17.59907,-57.77808 c -23.24405,-49.91937 -51.2476,-75.81988 -81.90762,-87.33123 -32.65236,-12.17545 -68.18255,-8.08007 -104.26618,0.66412 8.08008,36.63706 3.32058,84.56408 -27.45012,146.88028 3.43127,1.77097 7.30528,2.76715 11.17929,3.09921 l 48.59114,3.65263 c 26.34326,1.88166 65.63677,15.49604 92.09072,22.912 z"
     fill="url(#e)"
     id="path21"
     style="fill:url(#e);stroke-width:1.10686" />
  <path
     fill-rule="evenodd"
     clip-rule="evenodd"
     d="m 254.93054,194.29145 c -1.21754,26.56463 2.10303,56.89259 19.92348,101.60972 l -5.5343,-0.55343 c -16.04947,-46.59879 -19.59142,-70.50696 -18.37387,-97.40365 1.10686,-26.89669 9.85105,-47.59497 18.48455,-65.30472 2.21372,-4.42744 7.30528,-12.72889 9.519,-16.93495 6.41978,-12.50752 10.73653,-19.037991 14.38917,-30.438645 5.31293,-15.93878 4.20607,-23.465425 3.54195,-30.992071 4.09538,27.118062 -11.51134,50.694176 -23.24405,74.713026 a 160.49465,160.49465 0 0 0 -18.81661,65.30472 z"
     fill="url(#f)"
     id="path22"
     style="fill:url(#f);stroke-width:1.10686" />
  <path
     fill-rule="evenodd"
     clip-rule="evenodd"
     d="m 200.69442,287.93178 c 2.21372,4.87018 4.09538,8.85488 5.42361,14.94261 l -4.7595,1.10686 c -1.88166,-7.08391 -3.32058,-12.17546 -6.08773,-18.26319 -16.16015,-37.96529 -42.06066,-57.5567 -63.091,-71.94588 25.45778,13.72506 51.69035,35.30883 68.51462,74.1596 z"
     fill="url(#g)"
     id="path23"
     style="fill:url(#g);stroke-width:1.10686" />
  <path
     fill-rule="evenodd"
     clip-rule="evenodd"
     d="m 206.3394,307.74457 c 8.85488,41.50724 -1.10686,94.30444 -30.43864,145.66273 24.57229,-50.91554 36.52637,-99.72805 26.56463,-144.99862 l 3.87401,-0.7748 z"
     fill="url(#h)"
     id="path24"
     style="fill:url(#h);stroke-width:1.10686" />
  <path
     fill-rule="evenodd"
     clip-rule="evenodd"
     d="m 307.72775,303.87056 c 48.14839,18.04181 66.74364,57.5567 80.57938,90.65181 -17.15632,-34.53402 -40.95381,-72.72068 -82.35036,-86.88849 -31.43481,-10.84722 -57.99944,-9.51899 -103.49138,0.7748 l -0.99617,-4.42743 c 48.25908,-11.0686 73.49548,-12.39683 106.25853,0 z"
     fill="url(#i)"
     id="path25"
     style="fill:url(#i);stroke-width:1.10686" />
</svg>
