<?xml version="1.0" encoding="UTF-8" standalone="no"?>
<svg
   height="168px"
   width="168px"
   version="1.1"
   viewBox="0 0 168 168"
   id="svg1"
   sodipodi:docname="spotify_mono.svg"
   inkscape:version="1.4 (e7c3feb100, 2024-10-09)"
   xmlns:inkscape="http://www.inkscape.org/namespaces/inkscape"
   xmlns:sodipodi="http://sodipodi.sourceforge.net/DTD/sodipodi-0.dtd"
   xmlns="http://www.w3.org/2000/svg"
   xmlns:svg="http://www.w3.org/2000/svg">
  <defs
     id="defs1" />
  <sodipodi:namedview
     id="namedview1"
     pagecolor="#505050"
     bordercolor="#eeeeee"
     borderopacity="1"
     inkscape:showpageshadow="0"
     inkscape:pageopacity="0"
     inkscape:pagecheckerboard="0"
     inkscape:deskcolor="#505050"
     inkscape:zoom="2.3630953"
     inkscape:cx="86.962214"
     inkscape:cy="32.372795"
     inkscape:window-width="1920"
     inkscape:window-height="1015"
     inkscape:window-x="0"
     inkscape:window-y="0"
     inkscape:window-maximized="1"
     inkscape:current-layer="svg1" />
  <path
     fill="#1ED760"
     d="M 83.999588,15.000001 C 45.892977,15.000001 15,45.892888 15,84.000407 14.999999,122.10956 45.892976,153 83.999588,153 122.11032,153 153,122.10956 153,84.000407 153,45.895361 122.11032,15.003296 83.998763,15.003296 Z m 31.642762,99.518389 c -1.23592,2.02694 -3.88902,2.66965 -5.91592,1.42546 -16.200395,-9.8958 -36.594671,-12.13699 -60.612654,-6.64938 -2.31446,0.52733 -4.621506,-0.92286 -5.148828,-3.23819 -0.529799,-2.31534 0.914576,-4.62244 3.234804,-5.14978 26.283831,-6.007518 48.829426,-3.419447 67.017188,7.69583 2.02689,1.24419 2.66958,3.88911 1.42541,5.91606 z m 8.44543,-18.7905 c -1.55725,2.53369 -4.86951,3.332929 -7.39901,1.775642 C 98.141772,86.100693 69.869761,82.799067 47.932238,89.458346 c -2.84508,0.859395 -5.850005,-0.744039 -6.713499,-3.584244 -0.856903,-2.845149 0.747315,-5.844378 3.587454,-6.70954 25.058625,-7.603541 56.211137,-3.920422 77.510107,9.168249 2.52951,1.557293 3.32875,4.869628 1.77148,7.395901 z m 0.72507,-19.564205 C 102.57461,62.954716 65.884342,61.740192 44.652115,68.184415 c -3.409481,1.034075 -7.015064,-0.890704 -8.04829,-4.300267 -1.033224,-3.411213 0.889861,-7.014408 4.301816,-8.050955 24.373102,-7.399198 64.890569,-5.96962 90.493839,9.230046 3.0733,1.820136 4.07852,5.780933 2.25759,8.843608 -1.81267,3.066793 -5.78409,4.077798 -8.84092,2.256838 z"
     id="path1"
     style="fill:#cccccc;fill-opacity:1;stroke-width:0.823955" />
</svg>
