<svg width="48" height="48" viewBox="0 0 48 48" fill="none" xmlns="http://www.w3.org/2000/svg">
<rect y="6" width="48" height="36" rx="3" fill="url(#paint0_radial_4_25)"/>
<path d="M0 36H48V39C48 40.6569 46.6569 42 45 42H3C1.34315 42 0 40.6569 0 39V36Z" fill="black" fill-opacity="0.5"/>
<path opacity="0.15" d="M13.5 40.9997C12.673 40.9997 12 40.3268 12 39.4998V38.4998C12 37.6728 12.673 36.9998 13.5 36.9998H14.5C15.327 36.9998 16 37.6728 16 38.4998V39.4998C16 40.3268 15.327 40.9997 14.5 40.9997H13.5Z" fill="black"/>
<path d="M14.5 39.9998H13.5C13.224 39.9998 13 39.7758 13 39.4998V38.4998C13 38.2238 13.224 37.9998 13.5 37.9998H14.5C14.776 37.9998 15 38.2238 15 38.4998V39.4998C15 39.7758 14.776 39.9998 14.5 39.9998Z" fill="#B2E0F9"/>
<path opacity="0.15" d="M18.8277 40.9997C18.0008 40.9997 17.3278 40.3268 17.3278 39.4998V38.4998C17.3278 37.6728 18.0008 36.9998 18.8277 36.9998H19.8277C20.6547 36.9998 21.3277 37.6728 21.3277 38.4998V39.4998C21.3277 40.3268 20.6547 40.9997 19.8277 40.9997H18.8277Z" fill="black"/>
<path d="M19.8277 39.9998H18.8278C18.5518 39.9998 18.3278 39.7758 18.3278 39.4998V38.4998C18.3278 38.2238 18.5518 37.9998 18.8278 37.9998H19.8277C20.1037 37.9998 20.3277 38.2238 20.3277 38.4998V39.4998C20.3277 39.7758 20.1037 39.9998 19.8277 39.9998Z" fill="#B2E0F9"/>
<path opacity="0.15" d="M23.8277 40.9997C23.0008 40.9997 22.3278 40.3268 22.3278 39.4998V38.4998C22.3278 37.6728 23.0008 36.9998 23.8277 36.9998H24.8277C25.6547 36.9998 26.3277 37.6728 26.3277 38.4998V39.4998C26.3277 40.3268 25.6547 40.9997 24.8277 40.9997H23.8277Z" fill="black"/>
<path d="M24.8277 39.9998H23.8278C23.5518 39.9998 23.3278 39.7758 23.3278 39.4998V38.4998C23.3278 38.2238 23.5518 37.9998 23.8278 37.9998H24.8277C25.1037 37.9998 25.3277 38.2238 25.3277 38.4998V39.4998C25.3277 39.7758 25.1037 39.9998 24.8277 39.9998Z" fill="#B2E0F9"/>
<path opacity="0.15" d="M28.8277 40.9997C28.0008 40.9997 27.3278 40.3268 27.3278 39.4998V38.4998C27.3278 37.6728 28.0008 36.9998 28.8277 36.9998H29.8277C30.6547 36.9998 31.3277 37.6728 31.3277 38.4998V39.4998C31.3277 40.3268 30.6547 40.9997 29.8277 40.9997H28.8277Z" fill="black"/>
<path d="M29.8277 39.9998H28.8278C28.5518 39.9998 28.3278 39.7758 28.3278 39.4998V38.4998C28.3278 38.2238 28.5518 37.9998 28.8278 37.9998H29.8277C30.1037 37.9998 30.3277 38.2238 30.3277 38.4998V39.4998C30.3277 39.7758 30.1037 39.9998 29.8277 39.9998Z" fill="#B2E0F9"/>
<path opacity="0.15" d="M33.8277 40.9997C33.0008 40.9997 32.3278 40.3268 32.3278 39.4998V38.4998C32.3278 37.6728 33.0008 36.9998 33.8277 36.9998H34.8277C35.6547 36.9998 36.3277 37.6728 36.3277 38.4998V39.4998C36.3277 40.3268 35.6547 40.9997 34.8277 40.9997H33.8277Z" fill="black"/>
<path d="M34.8277 39.9998H33.8278C33.5518 39.9998 33.3278 39.7758 33.3278 39.4998V38.4998C33.3278 38.2238 33.5518 37.9998 33.8278 37.9998H34.8277C35.1037 37.9998 35.3277 38.2238 35.3277 38.4998V39.4998C35.3277 39.7758 35.1037 39.9998 34.8277 39.9998Z" fill="#B2E0F9"/>
<defs>
<radialGradient id="paint0_radial_4_25" cx="0" cy="0" r="1" gradientUnits="userSpaceOnUse" gradientTransform="translate(12.3882 5.35586) scale(45.8003 56.4326)">
<stop stop-color="#8ABCF5"/>
<stop offset="0.137" stop-color="#8BB0F5"/>
<stop offset="0.309" stop-color="#71ACF5"/>
<stop offset="0.499" stop-color="#52ABF8"/>
<stop offset="0.702" stop-color="#42ACFC"/>
<stop offset="0.913" stop-color="#74C7F0"/>
<stop offset="1" stop-color="#29AFEA"/>
</radialGradient>
</defs>
</svg>
