<svg width="19" height="18" viewBox="0 0 19 18" fill="none" xmlns="http://www.w3.org/2000/svg">
<path d="M8.96484 3.92035H16.7674" stroke="#CED0D6" stroke-width="1.11465" stroke-linecap="round" stroke-linejoin="round"/>
<path d="M11.1943 8.93628H16.7676" stroke="#CED0D6" stroke-width="1.11465" stroke-linecap="round" stroke-linejoin="round"/>
<path d="M13.4233 13.9522H16.7673" stroke="#CED0D6" stroke-width="1.11465" stroke-linecap="round" stroke-linejoin="round"/>
<path fill-rule="evenodd" clip-rule="evenodd" d="M9.35904 11.0023C9.57669 10.7847 9.57669 10.4318 9.35904 10.2142C9.14139 9.99652 8.78851 9.99652 8.57086 10.2142L6.17833 12.6067L6.17833 3.92036C6.17833 3.61256 5.9288 3.36304 5.621 3.36304C5.3132 3.36304 5.06368 3.61256 5.06368 3.92036L5.06368 12.6067L2.67114 10.2142C2.45349 9.99652 2.10061 9.99652 1.88296 10.2142C1.66531 10.4318 1.66531 10.7847 1.88296 11.0023L5.22691 14.3463C5.32777 14.4472 5.4671 14.5095 5.621 14.5095C5.77536 14.5095 5.91507 14.4468 6.01599 14.3454M9.35904 11.0023L6.01599 14.3454L9.35904 11.0023Z" fill="#CED0D6"/>
</svg>
