<svg width="1030" height="1000" viewBox="0 0 1030 1000" fill="none" xmlns="http://www.w3.org/2000/svg">
<path d="M33 227.683C33 199.692 55.6918 177 83.6835 177H336.771C352.565 177 367.457 184.363 377.045 196.914L392.443 217.068C402.032 229.619 416.924 236.982 432.718 236.982H946.316C974.308 236.982 997 259.674 997 287.666V876.552C997 893.347 983.385 906.962 966.59 906.962H63.4101C46.6151 906.962 33 893.347 33 876.552V227.683Z" fill="url(#paint0_linear_9_140)"/>
<g filter="url(#filter0_d_9_140)">
<path d="M33 337.683C33 309.692 55.6918 287 83.6835 287H946.317C974.308 287 997 309.692 997 337.683V911.59C997 928.385 983.385 942 966.59 942H63.4101C46.6151 942 33 928.385 33 911.59V337.683Z" fill="url(#paint1_linear_9_140)"/>
</g>
<g opacity="0.25" clip-path="url(#clip0_9_140)">
<path d="M620.633 784.007C641.283 777.949 655.863 763.256 661.829 742.502L663.589 736.402L663.821 572.78C663.992 450.245 663.827 408.395 663.146 406.111C662.431 403.689 661.295 401.658 659.809 400.053C657.623 398.705 654.995 397.995 652.018 398C649.966 398 642.836 398.989 636.186 400.199C606.766 405.558 433.349 440.108 430.387 441.204C425.805 442.899 421.265 446.926 419.112 451.199L417.286 454.82C417.286 454.82 416.424 711.287 415.096 714.173C413.076 718.567 408.591 722.729 404.456 724.055C402.497 724.687 394.753 726.424 387.236 727.918C352.441 734.845 339.52 739.835 328.589 750.571C322.38 756.666 317.783 764.988 315.795 773.719C313.894 782.065 314.53 794.554 317.238 802.149C320.075 810.092 324.642 816.875 330.613 822.212C336.041 826.396 342.448 829.51 349.652 831.359C365.579 835.439 395.398 830.901 410.641 822.081C417.016 818.39 425.217 810.655 429.481 804.292C431.172 801.771 433.709 796.703 435.13 793.019C440.095 780.119 440.25 550.365 440.885 547.471C441.961 542.56 445.317 538.966 449.941 537.745C454.108 536.651 621.091 503.625 625.792 502.966C629.927 502.392 633.831 503.724 635.963 506.351C637.228 507.03 638.296 507.945 639.044 509.072C640.4 511.092 640.482 515.086 640.684 587.828C640.915 671.552 641.019 669.589 636.469 674.874C633.158 678.715 629.029 680.204 612.056 683.668C586.233 688.942 577.397 691.447 567.506 696.273C555.158 702.309 548.3 708.919 543.001 719.899C539.253 727.667 537.854 733.488 537.864 741.218C537.886 755.045 542.655 765.844 553.409 776.418C554.401 777.392 555.373 778.298 556.354 779.15C561.771 783.34 567.296 785.867 574.242 787.467C584.718 789.879 606.04 788.291 620.633 784.007Z" fill="black"/>
</g>
<defs>
<filter id="filter0_d_9_140" x="0.866669" y="272.004" width="1028.27" height="719.267" filterUnits="userSpaceOnUse" color-interpolation-filters="sRGB">
<feFlood flood-opacity="0" result="BackgroundImageFix"/>
<feColorMatrix in="SourceAlpha" type="matrix" values="0 0 0 0 0 0 0 0 0 0 0 0 0 0 0 0 0 0 127 0" result="hardAlpha"/>
<feOffset dy="17.1378"/>
<feGaussianBlur stdDeviation="16.0667"/>
<feComposite in2="hardAlpha" operator="out"/>
<feColorMatrix type="matrix" values="0 0 0 0 0 0 0 0 0 0 0 0 0 0 0 0 0 0 0.25 0"/>
<feBlend mode="normal" in2="BackgroundImageFix" result="effect1_dropShadow_9_140"/>
<feBlend mode="normal" in="SourceGraphic" in2="effect1_dropShadow_9_140" result="shape"/>
</filter>
<linearGradient id="paint0_linear_9_140" x1="515" y1="177" x2="515" y2="348.378" gradientUnits="userSpaceOnUse">
<stop stop-color="#757575"/>
<stop offset="1" stop-color="#555555"/>
</linearGradient>
<linearGradient id="paint1_linear_9_140" x1="515" y1="287" x2="515" y2="942" gradientUnits="userSpaceOnUse">
<stop stop-color="#A0A0A0"/>
<stop offset="1" stop-color="#646464"/>
</linearGradient>
<clipPath id="clip0_9_140">
<rect width="349.182" height="434.871" fill="white" transform="translate(314.703 398)"/>
</clipPath>
</defs>
</svg>
