<svg width="1030" height="1000" viewBox="0 0 1030 1000" fill="none" xmlns="http://www.w3.org/2000/svg">
<path d="M33 227.683C33 199.692 55.6918 177 83.6835 177H336.771C352.565 177 367.457 184.363 377.045 196.914L392.443 217.068C402.032 229.619 416.924 236.982 432.718 236.982H946.316C974.308 236.982 997 259.674 997 287.666V876.552C997 893.347 983.385 906.962 966.59 906.962H63.4101C46.6151 906.962 33 893.347 33 876.552V227.683Z" fill="url(#paint0_linear_9_146)"/>
<g filter="url(#filter0_d_9_146)">
<path d="M33 337.683C33 309.692 55.6918 287 83.6835 287H946.317C974.308 287 997 309.692 997 337.683V911.59C997 928.385 983.385 942 966.59 942H63.4101C46.6151 942 33 928.385 33 911.59V337.683Z" fill="url(#paint1_linear_9_146)"/>
</g>
<g clip-path="url(#clip0_9_146)">
<path opacity="0.25" d="M346.373 432C315.146 432 290.006 457.139 290.006 488.368V742.017C290.006 773.244 315.145 798.384 346.373 798.384H684.576C715.803 798.384 740.944 773.245 740.944 742.017V488.368C740.944 457.141 715.805 432 684.576 432H346.373ZM346.373 460.184H684.576C700.19 460.184 712.76 472.754 712.76 488.368V742.017C712.76 757.631 700.19 770.201 684.576 770.201H346.373C330.76 770.201 318.189 757.631 318.189 742.017V488.368C318.189 472.754 330.76 460.184 346.373 460.184ZM374.557 685.653C358.943 685.653 346.373 698.223 346.373 713.837C346.373 729.45 358.943 742.02 374.557 742.02H656.393C672.006 742.02 684.576 729.45 684.576 713.837C684.576 698.223 672.006 685.653 656.393 685.653H374.557Z" fill="black"/>
</g>
<defs>
<filter id="filter0_d_9_146" x="0.866669" y="272.004" width="1028.27" height="719.267" filterUnits="userSpaceOnUse" color-interpolation-filters="sRGB">
<feFlood flood-opacity="0" result="BackgroundImageFix"/>
<feColorMatrix in="SourceAlpha" type="matrix" values="0 0 0 0 0 0 0 0 0 0 0 0 0 0 0 0 0 0 127 0" result="hardAlpha"/>
<feOffset dy="17.1378"/>
<feGaussianBlur stdDeviation="16.0667"/>
<feComposite in2="hardAlpha" operator="out"/>
<feColorMatrix type="matrix" values="0 0 0 0 0 0 0 0 0 0 0 0 0 0 0 0 0 0 0.25 0"/>
<feBlend mode="normal" in2="BackgroundImageFix" result="effect1_dropShadow_9_146"/>
<feBlend mode="normal" in="SourceGraphic" in2="effect1_dropShadow_9_146" result="shape"/>
</filter>
<linearGradient id="paint0_linear_9_146" x1="515" y1="177" x2="515" y2="348.378" gradientUnits="userSpaceOnUse">
<stop stop-color="#757575"/>
<stop offset="1" stop-color="#555555"/>
</linearGradient>
<linearGradient id="paint1_linear_9_146" x1="515" y1="287" x2="515" y2="942" gradientUnits="userSpaceOnUse">
<stop stop-color="#A0A0A0"/>
<stop offset="1" stop-color="#646464"/>
</linearGradient>
<clipPath id="clip0_9_146">
<rect width="450.938" height="366.384" fill="white" transform="translate(290 432)"/>
</clipPath>
</defs>
</svg>
