<svg width="1020" height="1000" viewBox="0 0 1020 1000" fill="none" xmlns="http://www.w3.org/2000/svg">
<path d="M60 216.319C60 190.185 81.1853 169 107.319 169H343.603C358.349 169 372.252 175.874 381.204 187.592L395.58 206.408C404.532 218.126 418.435 225 433.181 225H912.681C938.815 225 960 246.185 960 272.319V822.109C960 837.789 947.289 850.5 931.609 850.5H88.3912C72.7112 850.5 60 837.789 60 822.109V216.319Z" fill="url(#paint0_linear_4_397)"/>
<g filter="url(#filter0_d_4_397)">
<path d="M60 320.319C60 294.185 81.1853 273 107.319 273H912.681C938.815 273 960 294.185 960 320.319V823.609C960 839.289 947.289 852 931.609 852H88.3912C72.7112 852 60 839.289 60 823.609V320.319Z" fill="url(#paint1_linear_4_397)"/>
</g>
<g clip-path="url(#clip0_4_397)">
<path opacity="0.25" d="M509.49 372C506.224 372 502.958 373.24 500.455 375.742L319.745 556.388C314.739 561.392 314.739 569.445 319.745 574.448C324.751 579.452 332.81 579.452 337.816 574.448L356.137 556.139V703.913C356.137 732.215 378.935 755 407.255 755H611.726C640.045 755 662.844 732.216 662.844 703.913V556.139L681.165 574.448C686.171 579.452 694.23 579.452 699.236 574.448C704.242 569.445 704.242 561.392 699.236 556.388L518.526 375.742C516.023 373.24 512.757 372 509.49 372ZM509.49 402.882L637.283 530.595V703.914C637.283 718.065 625.883 729.457 611.724 729.457H560.606V652.825C560.606 624.523 537.807 601.739 509.487 601.739C481.168 601.739 458.369 624.523 458.369 652.825V729.457H407.251C393.092 729.457 381.692 718.065 381.692 703.914V530.595L509.49 402.882Z" fill="black"/>
</g>
<defs>
<filter id="filter0_d_4_397" x="0" y="229" width="1020" height="699" filterUnits="userSpaceOnUse" color-interpolation-filters="sRGB">
<feFlood flood-opacity="0" result="BackgroundImageFix"/>
<feColorMatrix in="SourceAlpha" type="matrix" values="0 0 0 0 0 0 0 0 0 0 0 0 0 0 0 0 0 0 127 0" result="hardAlpha"/>
<feOffset dy="16"/>
<feGaussianBlur stdDeviation="30"/>
<feComposite in2="hardAlpha" operator="out"/>
<feColorMatrix type="matrix" values="0 0 0 0 0 0 0 0 0 0 0 0 0 0 0 0 0 0 0.55 0"/>
<feBlend mode="normal" in2="BackgroundImageFix" result="effect1_dropShadow_4_397"/>
<feBlend mode="normal" in="SourceGraphic" in2="effect1_dropShadow_4_397" result="shape"/>
</filter>
<linearGradient id="paint0_linear_4_397" x1="510" y1="169" x2="510" y2="329" gradientUnits="userSpaceOnUse">
<stop stop-color="#9B9B9B"/>
<stop offset="1" stop-color="#555555"/>
</linearGradient>
<linearGradient id="paint1_linear_4_397" x1="510" y1="273" x2="510" y2="852" gradientUnits="userSpaceOnUse">
<stop stop-color="#A0A0A0"/>
<stop offset="1" stop-color="#646464"/>
</linearGradient>
<clipPath id="clip0_4_397">
<rect width="387" height="383" fill="white" transform="translate(316 372)"/>
</clipPath>
</defs>
</svg>
