<svg width="1030" height="1000" viewBox="0 0 1030 1000" fill="none" xmlns="http://www.w3.org/2000/svg">
<path d="M33 227.683C33 199.692 55.6918 177 83.6835 177H336.771C352.565 177 367.457 184.363 377.045 196.914L392.443 217.068C402.032 229.619 416.924 236.982 432.718 236.982H946.316C974.308 236.982 997 259.674 997 287.666V876.552C997 893.347 983.385 906.962 966.59 906.962H63.4101C46.6151 906.962 33 893.347 33 876.552V227.683Z" fill="url(#paint0_linear_9_118)"/>
<g filter="url(#filter0_d_9_118)">
<path d="M33 337.683C33 309.692 55.6918 287 83.6835 287H946.317C974.308 287 997 309.692 997 337.683V911.59C997 928.385 983.385 942 966.59 942H63.4101C46.6151 942 33 928.385 33 911.59V337.683Z" fill="url(#paint1_linear_9_118)"/>
</g>
<g clip-path="url(#clip0_9_118)">
<path opacity="0.25" d="M476.339 413.014C471.789 413.174 467.197 414.355 462.977 416.79C449.473 424.587 444.856 441.849 452.653 455.352L481.507 505.319L389.251 665.137H317.231C301.636 665.137 289.001 677.771 289.001 693.365C289.001 708.962 301.635 721.597 317.231 721.597H573.967C586.373 698.524 570.388 665.137 542.053 665.137H454.414L575.524 455.35C583.322 441.846 578.704 424.584 565.2 416.788C551.696 408.99 534.432 413.619 526.634 427.122C526.634 427.122 520.376 448.826 514.094 448.859C507.822 448.859 501.541 427.122 501.541 427.122C496.18 417.839 486.349 412.755 476.339 413.014ZM555.824 521.108C539.13 534.901 522.249 575.87 545.855 616.765C580.66 677.04 615.47 737.324 650.255 797.597C658.053 811.102 675.316 815.721 688.821 807.923C702.325 800.125 706.942 782.873 699.145 769.37L671.564 721.571H712.432C728.027 721.571 740.662 708.937 740.662 693.341C740.662 677.745 728.028 665.109 712.432 665.109H638.964C611.253 617.106 583.535 569.117 555.824 521.108ZM372.223 730.509C363.662 730.885 355.648 735.301 351.195 743.012L330.89 778.184C323.766 790.523 328.525 806.521 341.557 814.043C354.588 821.568 370.817 817.686 377.941 805.349L398.247 770.176C405.37 757.837 400.611 741.855 387.58 734.33C382.693 731.508 377.36 730.281 372.223 730.509Z" fill="black"/>
</g>
<defs>
<filter id="filter0_d_9_118" x="0.866669" y="272.004" width="1028.27" height="719.267" filterUnits="userSpaceOnUse" color-interpolation-filters="sRGB">
<feFlood flood-opacity="0" result="BackgroundImageFix"/>
<feColorMatrix in="SourceAlpha" type="matrix" values="0 0 0 0 0 0 0 0 0 0 0 0 0 0 0 0 0 0 127 0" result="hardAlpha"/>
<feOffset dy="17.1378"/>
<feGaussianBlur stdDeviation="16.0667"/>
<feComposite in2="hardAlpha" operator="out"/>
<feColorMatrix type="matrix" values="0 0 0 0 0 0 0 0 0 0 0 0 0 0 0 0 0 0 0.25 0"/>
<feBlend mode="normal" in2="BackgroundImageFix" result="effect1_dropShadow_9_118"/>
<feBlend mode="normal" in="SourceGraphic" in2="effect1_dropShadow_9_118" result="shape"/>
</filter>
<linearGradient id="paint0_linear_9_118" x1="515" y1="177" x2="515" y2="348.378" gradientUnits="userSpaceOnUse">
<stop stop-color="#757575"/>
<stop offset="1" stop-color="#555555"/>
</linearGradient>
<linearGradient id="paint1_linear_9_118" x1="515" y1="287" x2="515" y2="942" gradientUnits="userSpaceOnUse">
<stop stop-color="#A0A0A0"/>
<stop offset="1" stop-color="#646464"/>
</linearGradient>
<clipPath id="clip0_9_118">
<rect width="451.661" height="404.879" fill="white" transform="translate(289 413)"/>
</clipPath>
</defs>
</svg>
