<svg width="1030" height="1000" viewBox="0 0 1030 1000" fill="none" xmlns="http://www.w3.org/2000/svg">
<path d="M33 227.683C33 199.692 55.6918 177 83.6835 177H336.771C352.565 177 367.457 184.363 377.045 196.914L392.443 217.068C402.032 229.619 416.924 236.982 432.718 236.982H946.316C974.308 236.982 997 259.674 997 287.666V876.552C997 893.347 983.385 906.962 966.59 906.962H63.4101C46.6151 906.962 33 893.347 33 876.552V227.683Z" fill="url(#paint0_linear_9_103)"/>
<g filter="url(#filter0_d_9_103)">
<path d="M33 337.683C33 309.692 55.6918 287 83.6835 287H946.317C974.308 287 997 309.692 997 337.683V911.59C997 928.385 983.385 942 966.59 942H63.4101C46.6151 942 33 928.385 33 911.59V337.683Z" fill="url(#paint1_linear_9_103)"/>
</g>
<path opacity="0.25" d="M515.287 385C513.824 385.042 512.363 385.099 510.901 385.169L510.848 385.228C510.51 385.246 510.173 385.265 509.836 385.284C509.555 385.265 509.273 385.246 508.992 385.228C508.055 385.297 507.118 385.372 506.181 385.453C499.697 385.685 493.226 386.192 486.785 386.971C485.809 387.114 484.835 387.264 483.861 387.42C477.444 388.294 471.066 389.439 464.745 390.85C463.223 391.209 461.705 391.584 460.191 391.974C454.03 393.484 447.934 395.247 441.919 397.259C441.186 397.518 440.455 397.78 439.726 398.046C433.031 400.346 426.446 402.954 419.992 405.861C419.842 405.936 419.692 406.011 419.542 406.086C412.765 409.174 406.141 412.589 399.695 416.318C399.376 416.524 399.057 416.73 398.739 416.937C392.383 420.668 386.21 424.701 380.242 429.024C380.11 429.118 379.979 429.212 379.848 429.306C373.955 433.607 368.27 438.185 362.812 443.025C362.115 443.658 361.421 444.295 360.732 444.936C355.729 449.446 350.927 454.174 346.339 459.105C345.735 459.776 345.135 460.45 344.54 461.129C339.898 466.25 335.49 471.578 331.327 477.096C331.083 477.451 330.839 477.807 330.597 478.164C326.375 483.826 322.417 489.68 318.734 495.706C318.145 496.695 317.564 497.688 316.99 498.686C313.741 504.18 310.721 509.808 307.939 515.553C307.326 516.878 306.727 518.208 306.139 519.545C303.434 525.417 300.976 531.401 298.774 537.48C298.546 538.135 298.321 538.791 298.099 539.448C295.87 545.788 293.919 552.222 292.252 558.733C291.59 561.289 290.971 563.857 290.397 566.435C290.435 566.452 290.472 566.476 290.51 566.489C290.337 567.294 290.168 568.1 290.004 568.907C288.919 574.177 288.019 579.484 287.305 584.818C286.942 587.417 286.624 590.022 286.35 592.633C285.727 598.537 285.333 604.464 285.169 610.399C285.095 612.029 285.039 613.659 285 615.291C285.056 658.898 297.492 701.594 320.861 738.411C344.231 775.228 377.574 804.653 417.011 823.263C417.123 823.32 417.236 823.376 417.348 823.432C421.033 825.199 424.763 826.868 428.537 828.436V828.496C428.631 828.533 428.725 828.571 428.819 828.609C434.653 830.931 440.58 833.013 446.585 834.85C448.061 835.352 449.541 835.839 451.027 836.312C456.154 837.746 461.33 839.003 466.544 840.079C469.009 840.663 471.483 841.206 473.966 841.709C478.871 842.562 483.802 843.256 488.752 843.789C491.408 844.154 494.069 844.473 496.736 844.745C502.907 845.276 509.096 845.557 515.29 845.588C521.652 845.552 528.011 845.252 534.349 844.689V844.633C534.48 844.633 534.612 844.633 534.743 844.633C541.849 844.006 548.922 843.049 555.939 841.766C556.483 841.693 557.027 841.618 557.57 841.541C557.682 841.523 557.795 841.504 557.907 841.486C565.337 840.068 572.692 838.286 579.946 836.144C620.362 824.269 656.746 801.536 685.14 770.419C685.328 770.213 685.515 770.007 685.702 769.801C687.651 767.793 689.563 765.75 691.437 763.673C691.455 763.635 691.474 763.597 691.493 763.559C691.341 763.613 691.192 763.673 691.043 763.728C726.17 722.24 745.488 669.663 745.578 615.301C745.482 595.964 742.951 576.715 738.044 558.01C738.082 558.009 738.119 558.011 738.157 558.01C737.953 557.391 737.747 556.773 737.538 556.155C737.501 556.024 737.463 555.893 737.425 555.761C735.813 549.729 733.956 543.764 731.859 537.883C731.456 536.736 731.043 535.593 730.622 534.453C722.873 513.786 712.194 494.339 698.911 476.711C698.631 476.354 698.35 475.998 698.067 475.643C697.843 475.361 697.618 475.08 697.393 474.799C688.491 463.254 678.513 452.58 667.593 442.921C667.144 442.545 666.695 442.17 666.244 441.797C666.15 441.703 666.056 441.609 665.962 441.515C660.741 436.981 655.32 432.685 649.713 428.64C649.041 428.149 648.366 427.661 647.689 427.178C642.314 423.42 636.78 419.893 631.103 416.608C630.245 416.096 629.383 415.59 628.517 415.09C593.997 395.47 554.993 385.097 515.287 385ZM515.287 413.787C515.512 413.804 515.737 413.822 515.961 413.84C515.821 417.368 515.287 420.79 515.287 424.354C515.287 452.72 518.909 480.213 525.07 506.72C493.143 533.706 453.293 551.594 409.419 556.365C421.779 503.931 446.567 456.489 480.316 416.875C485.035 416.107 489.779 415.507 494.54 415.076C496.579 414.801 498.622 414.557 500.669 414.345C505.533 413.981 510.409 413.797 515.287 413.787ZM544.58 416.148C544.73 416.185 544.88 416.223 545.03 416.261C551.497 417.223 557.914 418.498 564.257 420.084C564.276 420.084 564.294 420.084 564.313 420.084C564.331 420.084 564.35 420.084 564.368 420.084C570.872 421.731 577.289 423.701 583.596 425.988C583.821 426.062 584.046 426.137 584.271 426.212C575.5 446.773 563.825 465.79 549.468 482.491C546.156 463.573 544.07 444.232 544.07 424.358C544.07 421.579 544.502 418.908 544.58 416.148ZM433.427 431.441C408.003 469.036 389.309 511.49 379.51 557.38C360.707 556.843 342.639 553.7 325.367 548.665C327.543 542.476 330.019 536.397 332.788 530.449C332.974 530.055 333.162 529.661 333.35 529.268C336.062 523.508 339.045 517.879 342.29 512.401C342.384 512.251 342.477 512.101 342.572 511.951C345.972 506.283 349.65 500.785 353.591 495.478C357.568 490.117 361.809 484.957 366.298 480.016C366.373 479.922 366.447 479.828 366.522 479.734C370.924 474.902 375.559 470.286 380.409 465.904C380.634 465.716 380.859 465.528 381.084 465.341C385.837 461.079 390.79 457.045 395.927 453.254C396.226 453.047 396.526 452.841 396.826 452.635C402.014 448.839 407.38 445.293 412.906 442.009C413.056 441.934 413.206 441.859 413.356 441.785C419.067 438.424 424.94 435.346 430.954 432.564C431.776 432.184 432.6 431.81 433.427 431.441ZM610.417 437.737C610.473 437.775 610.529 437.813 610.585 437.851C616.449 440.996 622.153 444.43 627.677 448.139C632.632 451.503 637.435 455.086 642.07 458.878C642.654 459.306 643.235 459.737 643.813 460.171C643.87 460.227 643.926 460.284 643.982 460.34C648.482 464.103 652.815 468.061 656.97 472.203C657.535 472.725 658.097 473.249 658.656 473.777C658.694 473.834 658.732 473.89 658.77 473.946C662.12 477.409 665.346 480.991 668.44 484.685C669.794 486.202 671.124 487.739 672.432 489.295C675.03 492.609 677.524 496.002 679.909 499.472C681.39 501.488 682.834 503.531 684.239 505.6C687.249 510.298 690.062 515.118 692.672 520.049C693.146 520.852 693.615 521.658 694.078 522.467C694.096 522.523 694.115 522.579 694.133 522.636C696.621 527.507 698.909 532.477 700.992 537.535C701.489 538.618 701.977 539.705 702.454 540.796C702.492 540.908 702.53 541.021 702.568 541.133C704.218 545.466 705.718 549.854 707.065 554.289C707.833 556.451 708.564 558.625 709.258 560.811C668.156 566.997 630.341 583.248 598.555 607.252C580.41 579.476 566.411 548.855 557.117 516.169C579.717 493.956 597.781 467.282 610.417 437.737ZM533.223 536.633C543.606 568.557 558.159 598.595 576.46 625.971C541.076 659.9 515.755 704.218 505.731 754.103C472.846 748.508 441.657 738.167 412.795 723.743C404.773 694.997 400.145 664.828 400.145 633.503C400.145 617.167 401.714 601.254 403.968 585.545C452.326 581.955 496.725 564.323 533.223 536.633ZM317.669 575.989C335.957 581.427 355 585.059 374.847 585.941C372.799 601.543 371.361 617.349 371.361 633.504C371.361 657.669 373.881 681.266 378.389 704.119C355.774 689.231 335.426 671.352 317.16 651.549C317.16 651.53 317.16 651.512 317.16 651.493C316.33 646.702 315.674 641.883 315.192 637.044C314.896 634.912 314.633 632.775 314.405 630.635C314.004 625.528 313.798 620.408 313.787 615.286C313.788 608.564 314.126 601.846 314.799 595.158C315.446 588.725 316.406 582.33 317.669 575.989ZM714.827 588.977C715.692 595.318 716.255 601.698 716.514 608.093C716.651 610.49 716.745 612.889 716.796 615.289C716.697 645.649 709.74 675.594 696.444 702.887C696.221 703.394 695.996 703.9 695.769 704.405C665.077 684.237 637.837 659.325 615.257 630.469C643.744 608.86 677.76 594.291 714.827 588.977ZM593.553 649.135C618.243 680.426 648.134 707.215 681.654 728.971C681.635 729.009 681.616 729.047 681.598 729.085C679 732.735 676.281 736.298 673.445 739.767C638.625 752.06 601.347 759.221 562.293 759.221C552.852 759.221 543.592 758.579 534.351 757.815C543.157 715.739 564.182 678.269 593.553 649.135ZM337.411 709.633C353.393 722.421 370.454 733.932 388.572 743.816C392.867 757.29 398.053 770.347 403.865 783.059C403.809 783.022 403.752 782.984 403.696 782.946C398.443 779.421 393.358 775.649 388.46 771.645C388.159 771.421 387.859 771.196 387.56 770.971C382.412 766.739 377.477 762.254 372.773 757.533C368.029 752.776 363.525 747.785 359.28 742.578C355.04 737.382 351.062 731.978 347.361 726.386C343.775 720.965 340.456 715.375 337.411 709.633ZM425.398 761.076C449.701 770.984 475.331 778.091 501.918 782.553C501.387 789.124 500.906 795.693 500.906 802.4C500.906 807.033 501.257 811.557 501.524 816.118C501.43 816.1 501.336 816.081 501.243 816.063C483.054 814.781 465.123 811.036 447.941 804.931C447.867 804.912 447.792 804.894 447.717 804.875C439.218 790.942 431.692 776.358 425.398 761.076ZM628.65 781.653C628.612 781.69 628.574 781.728 628.537 781.766C623.12 785.428 617.529 788.824 611.782 791.943C611.67 792.018 611.557 792.092 611.445 792.167C611.388 792.186 611.332 792.204 611.276 792.223C606.268 794.931 601.147 797.426 595.927 799.701C594.677 800.257 593.421 800.8 592.16 801.331C587.303 803.322 582.371 805.123 577.373 806.728C575.992 807.193 574.605 807.643 573.213 808.078C568.628 809.442 563.996 810.642 559.326 811.676C557.253 812.178 555.173 812.646 553.085 813.082C548.796 813.859 544.484 814.496 540.154 814.993C536.959 815.464 533.753 815.858 530.54 816.174C530.178 811.599 529.696 807.075 529.696 802.399C529.696 797.007 530.097 791.724 530.483 786.432C540.988 787.346 551.567 788.006 562.306 788.006C585.015 788.006 607.173 785.79 628.65 781.653Z" fill="black"/>
<defs>
<filter id="filter0_d_9_103" x="0.866669" y="272.004" width="1028.27" height="719.267" filterUnits="userSpaceOnUse" color-interpolation-filters="sRGB">
<feFlood flood-opacity="0" result="BackgroundImageFix"/>
<feColorMatrix in="SourceAlpha" type="matrix" values="0 0 0 0 0 0 0 0 0 0 0 0 0 0 0 0 0 0 127 0" result="hardAlpha"/>
<feOffset dy="17.1378"/>
<feGaussianBlur stdDeviation="16.0667"/>
<feComposite in2="hardAlpha" operator="out"/>
<feColorMatrix type="matrix" values="0 0 0 0 0 0 0 0 0 0 0 0 0 0 0 0 0 0 0.25 0"/>
<feBlend mode="normal" in2="BackgroundImageFix" result="effect1_dropShadow_9_103"/>
<feBlend mode="normal" in="SourceGraphic" in2="effect1_dropShadow_9_103" result="shape"/>
</filter>
<linearGradient id="paint0_linear_9_103" x1="515" y1="177" x2="515" y2="348.378" gradientUnits="userSpaceOnUse">
<stop stop-color="#757575"/>
<stop offset="1" stop-color="#555555"/>
</linearGradient>
<linearGradient id="paint1_linear_9_103" x1="515" y1="287" x2="515" y2="942" gradientUnits="userSpaceOnUse">
<stop stop-color="#A0A0A0"/>
<stop offset="1" stop-color="#646464"/>
</linearGradient>
</defs>
</svg>
