<svg width="1020" height="1000" viewBox="0 0 1020 1000" fill="none" xmlns="http://www.w3.org/2000/svg">
<path d="M60 216.319C60 190.185 81.1853 169 107.319 169H343.603C358.349 169 372.252 175.874 381.204 187.592L395.58 206.408C404.532 218.126 418.435 225 433.181 225H912.681C938.815 225 960 246.185 960 272.319V822.109C960 837.789 947.289 850.5 931.609 850.5H88.3912C72.7112 850.5 60 837.789 60 822.109V216.319Z" fill="url(#paint0_linear_4_346)"/>
<g filter="url(#filter0_d_4_346)">
<path d="M60 320.319C60 294.185 81.1853 273 107.319 273H912.681C938.815 273 960 294.185 960 320.319V823.609C960 839.289 947.289 852 931.609 852H88.3912C72.7112 852 60 839.289 60 823.609V320.319Z" fill="url(#paint1_linear_4_346)"/>
</g>
<g clip-path="url(#clip0_4_346)">
<path opacity="0.25" d="M508.365 416.001C488.324 416.592 472.517 433.043 472.517 453.238C472.537 466.833 479.957 479.338 491.883 485.866L444.257 528.291L440.574 531.442L436.879 528.291L389.253 485.877C401.179 479.35 408.601 466.845 408.619 453.25C408.619 432.997 392.723 416.518 372.599 416.013H370.514C350.473 416.604 334.667 433.055 334.667 453.249C334.684 466.843 342.106 479.348 354.032 485.876L306.406 528.301L304.182 558.715L341.987 530.595L338.003 576.32L298.994 709.629H327.904L371.534 597.492L371.743 597.48L415.384 709.627H444.294L465.756 709.616L509.386 597.49H509.596L553.236 709.638H603.607L647.237 597.512H647.442L691.083 709.66H719.994L680.989 576.351L677.005 530.624L714.809 558.746L712.585 528.332L664.959 485.907C676.885 479.379 684.307 466.873 684.325 453.279C684.325 433.026 668.429 416.548 648.304 416.043H646.22C626.179 416.634 610.373 433.083 610.373 453.279C610.392 466.874 617.813 479.38 629.738 485.907L582.113 528.332L578.429 531.467L574.735 528.33L527.109 485.907C539.034 479.379 546.457 466.873 546.474 453.28C546.474 433.026 530.579 416.549 510.454 416.044L508.365 416.001ZM479.838 530.586L475.854 576.311L440.564 696.906L405.285 576.328L401.3 530.602L439.105 558.723L440.576 559.641L442.035 558.709L479.838 530.586ZM539.148 530.586L576.952 558.707L578.423 559.639L579.882 558.694L617.687 530.585L613.702 576.311L578.412 696.894L543.133 576.311L539.148 530.586Z" fill="black"/>
</g>
<defs>
<filter id="filter0_d_4_346" x="0" y="229" width="1020" height="699" filterUnits="userSpaceOnUse" color-interpolation-filters="sRGB">
<feFlood flood-opacity="0" result="BackgroundImageFix"/>
<feColorMatrix in="SourceAlpha" type="matrix" values="0 0 0 0 0 0 0 0 0 0 0 0 0 0 0 0 0 0 127 0" result="hardAlpha"/>
<feOffset dy="16"/>
<feGaussianBlur stdDeviation="30"/>
<feComposite in2="hardAlpha" operator="out"/>
<feColorMatrix type="matrix" values="0 0 0 0 0 0 0 0 0 0 0 0 0 0 0 0 0 0 0.55 0"/>
<feBlend mode="normal" in2="BackgroundImageFix" result="effect1_dropShadow_4_346"/>
<feBlend mode="normal" in="SourceGraphic" in2="effect1_dropShadow_4_346" result="shape"/>
</filter>
<linearGradient id="paint0_linear_4_346" x1="510" y1="169" x2="510" y2="329" gradientUnits="userSpaceOnUse">
<stop stop-color="#9B9B9B"/>
<stop offset="1" stop-color="#555555"/>
</linearGradient>
<linearGradient id="paint1_linear_4_346" x1="510" y1="273" x2="510" y2="852" gradientUnits="userSpaceOnUse">
<stop stop-color="#A0A0A0"/>
<stop offset="1" stop-color="#646464"/>
</linearGradient>
<clipPath id="clip0_4_346">
<rect width="421" height="293.659" fill="white" transform="translate(299 416)"/>
</clipPath>
</defs>
</svg>
