<svg width="1030" height="1000" viewBox="0 0 1030 1000" fill="none" xmlns="http://www.w3.org/2000/svg">
<path d="M33 230.683C33 202.692 55.6918 180 83.6835 180H336.771C352.565 180 367.457 187.363 377.045 199.914L392.443 220.068C402.032 232.619 416.924 239.982 432.718 239.982H946.316C974.308 239.982 997 262.674 997 290.666V879.552C997 896.347 983.385 909.962 966.59 909.962H63.4101C46.6151 909.962 33 896.347 33 879.552V230.683Z" fill="url(#paint0_linear_9_114)"/>
<g filter="url(#filter0_d_9_114)">
<path d="M33 340.683C33 312.692 55.6918 290 83.6835 290H946.317C974.308 290 997 312.692 997 340.683V914.59C997 931.385 983.385 945 966.59 945H63.4101C46.6151 945 33 931.385 33 914.59V340.683Z" fill="url(#paint1_linear_9_114)"/>
</g>
<path opacity="0.25" d="M620.174 436.153C651.865 454.451 678.228 480.709 696.653 512.327C715.077 543.945 724.925 579.826 725.22 616.419C725.516 653.012 716.249 689.048 698.338 720.96C680.427 752.871 654.491 779.551 623.1 798.358C591.709 817.166 555.95 827.449 519.363 828.19C482.776 828.93 446.63 820.102 414.503 802.58C382.377 785.058 355.383 759.449 336.195 728.289C317.007 697.128 306.29 661.497 305.105 624.922L305 618.114L305.105 611.306C306.282 575.019 316.841 539.656 335.753 508.664C354.666 477.673 381.286 452.111 413.018 434.47C444.751 416.829 480.513 407.712 516.818 408.007C553.123 408.302 588.733 417.999 620.174 436.153ZM515.116 513.056C509.544 513.056 504.199 515.27 500.259 519.21C496.318 523.15 494.105 528.495 494.105 534.067V651.417L445.925 603.259L443.95 601.515C439.727 598.249 434.419 596.714 429.105 597.22C423.79 597.726 418.868 600.236 415.337 604.24C411.807 608.245 409.932 613.442 410.095 618.778C410.258 624.114 412.446 629.188 416.215 632.969L500.261 717.016C500.849 717.604 501.459 718.15 502.236 718.76L504.169 720.104L506.228 721.197L507.93 721.911L510.305 722.626L512.658 723.046L515.116 723.172L517.533 723.025L519.928 722.605L522.912 721.68L525.286 720.546L527.618 719.054C528.455 718.438 529.242 717.756 529.971 717.016L614.018 632.969L615.762 630.994C619.027 626.771 620.563 621.463 620.057 616.149C619.55 610.835 617.04 605.912 613.036 602.381C609.032 598.851 603.834 596.977 598.498 597.14C593.163 597.303 588.089 599.49 584.308 603.259L536.128 651.396V534.067L535.981 531.609C535.379 526.498 532.922 521.786 529.076 518.366C525.23 514.946 520.263 513.057 515.116 513.056Z" fill="black"/>
<defs>
<filter id="filter0_d_9_114" x="0.866669" y="275.004" width="1028.27" height="719.267" filterUnits="userSpaceOnUse" color-interpolation-filters="sRGB">
<feFlood flood-opacity="0" result="BackgroundImageFix"/>
<feColorMatrix in="SourceAlpha" type="matrix" values="0 0 0 0 0 0 0 0 0 0 0 0 0 0 0 0 0 0 127 0" result="hardAlpha"/>
<feOffset dy="17.1378"/>
<feGaussianBlur stdDeviation="16.0667"/>
<feComposite in2="hardAlpha" operator="out"/>
<feColorMatrix type="matrix" values="0 0 0 0 0 0 0 0 0 0 0 0 0 0 0 0 0 0 0.25 0"/>
<feBlend mode="normal" in2="BackgroundImageFix" result="effect1_dropShadow_9_114"/>
<feBlend mode="normal" in="SourceGraphic" in2="effect1_dropShadow_9_114" result="shape"/>
</filter>
<linearGradient id="paint0_linear_9_114" x1="515" y1="180" x2="515" y2="351.378" gradientUnits="userSpaceOnUse">
<stop stop-color="#757575"/>
<stop offset="1" stop-color="#555555"/>
</linearGradient>
<linearGradient id="paint1_linear_9_114" x1="515" y1="290" x2="515" y2="945" gradientUnits="userSpaceOnUse">
<stop stop-color="#A0A0A0"/>
<stop offset="1" stop-color="#646464"/>
</linearGradient>
</defs>
</svg>
