<svg width="1030" height="1000" viewBox="0 0 1030 1000" fill="none" xmlns="http://www.w3.org/2000/svg">
<path d="M33 227.683C33 199.692 55.6918 177 83.6835 177H336.771C352.565 177 367.457 184.363 377.045 196.914L392.443 217.068C402.032 229.619 416.924 236.982 432.718 236.982H946.316C974.308 236.982 997 259.674 997 287.666V876.552C997 893.347 983.385 906.962 966.59 906.962H63.4101C46.6151 906.962 33 893.347 33 876.552V227.683Z" fill="url(#paint0_linear_9_130)"/>
<g filter="url(#filter0_d_9_130)">
<path d="M33 337.683C33 309.692 55.6918 287 83.6835 287H946.317C974.308 287 997 309.692 997 337.683V911.59C997 928.385 983.385 942 966.59 942H63.4101C46.6151 942 33 928.385 33 911.59V337.683Z" fill="url(#paint1_linear_9_130)"/>
</g>
<g clip-path="url(#clip0_9_130)">
<path opacity="0.25" d="M514.251 458.001C492.785 458.634 475.855 476.255 475.855 497.887C475.875 512.448 483.824 525.842 496.597 532.834L445.585 578.276L441.64 581.651L437.682 578.276L386.67 532.847C399.443 525.855 407.394 512.461 407.412 497.899C407.412 476.205 390.386 458.555 368.831 458.014H366.598C345.132 458.647 328.201 476.268 328.201 497.898C328.22 512.459 336.17 525.853 348.944 532.845L297.931 578.287L295.549 610.864L336.042 580.744L331.774 629.721L289.992 772.509H320.957L367.691 652.398L367.915 652.385L414.659 772.508H445.624L468.612 772.495L515.346 652.396H515.57L562.314 772.518H616.266L662.999 652.42H663.219L709.963 772.542H740.93L699.151 629.754L694.883 580.775L735.376 610.897L732.994 578.32L681.982 532.878C694.755 525.886 702.705 512.491 702.724 497.93C702.724 476.236 685.698 458.587 664.142 458.046H661.91C640.444 458.679 623.513 476.298 623.513 497.93C623.534 512.492 631.482 525.887 644.256 532.878L593.243 578.32L589.298 581.678L585.341 578.318L534.328 532.878C547.102 525.886 555.052 512.491 555.071 497.931C555.071 476.237 538.045 458.588 516.489 458.047L514.251 458.001ZM483.697 580.734L479.429 629.711L441.629 758.882L403.841 629.729L399.574 580.751L440.066 610.872L441.642 611.856L443.205 610.857L483.697 580.734ZM547.223 580.734L587.716 610.855L589.291 611.853L590.854 610.841L631.347 580.733L627.08 629.711L589.28 758.868L551.492 629.711L547.223 580.734Z" fill="black"/>
</g>
<defs>
<filter id="filter0_d_9_130" x="0.866669" y="272.004" width="1028.27" height="719.267" filterUnits="userSpaceOnUse" color-interpolation-filters="sRGB">
<feFlood flood-opacity="0" result="BackgroundImageFix"/>
<feColorMatrix in="SourceAlpha" type="matrix" values="0 0 0 0 0 0 0 0 0 0 0 0 0 0 0 0 0 0 127 0" result="hardAlpha"/>
<feOffset dy="17.1378"/>
<feGaussianBlur stdDeviation="16.0667"/>
<feComposite in2="hardAlpha" operator="out"/>
<feColorMatrix type="matrix" values="0 0 0 0 0 0 0 0 0 0 0 0 0 0 0 0 0 0 0.25 0"/>
<feBlend mode="normal" in2="BackgroundImageFix" result="effect1_dropShadow_9_130"/>
<feBlend mode="normal" in="SourceGraphic" in2="effect1_dropShadow_9_130" result="shape"/>
</filter>
<linearGradient id="paint0_linear_9_130" x1="515" y1="177" x2="515" y2="348.378" gradientUnits="userSpaceOnUse">
<stop stop-color="#757575"/>
<stop offset="1" stop-color="#555555"/>
</linearGradient>
<linearGradient id="paint1_linear_9_130" x1="515" y1="287" x2="515" y2="942" gradientUnits="userSpaceOnUse">
<stop stop-color="#A0A0A0"/>
<stop offset="1" stop-color="#646464"/>
</linearGradient>
<clipPath id="clip0_9_130">
<rect width="450.938" height="314.541" fill="white" transform="translate(290 458)"/>
</clipPath>
</defs>
</svg>
