<svg width="1030" height="1000" viewBox="0 0 1030 1000" fill="none" xmlns="http://www.w3.org/2000/svg">
<path d="M33 230.683C33 202.692 55.6918 180 83.6835 180H336.771C352.565 180 367.457 187.363 377.045 199.914L392.443 220.068C402.032 232.619 416.924 239.982 432.718 239.982H946.316C974.308 239.982 997 262.674 997 290.666V879.552C997 896.347 983.385 909.962 966.59 909.962H63.4101C46.6151 909.962 33 896.347 33 879.552V230.683Z" fill="url(#paint0_linear_9_110)"/>
<g filter="url(#filter0_d_9_110)">
<path d="M33 340.683C33 312.692 55.6918 290 83.6835 290H946.317C974.308 290 997 312.692 997 340.683V914.59C997 931.385 983.385 945 966.59 945H63.4101C46.6151 945 33 931.385 33 914.59V340.683Z" fill="url(#paint1_linear_9_110)"/>
</g>
<path opacity="0.25" d="M406.15 799.036C396.209 799.036 387.698 795.491 380.619 788.401C373.54 781.311 370 772.788 370 762.832V473.204C370 463.248 373.54 454.725 380.619 447.635C387.698 440.545 396.209 437 406.15 437H550.75L659.2 545.611V762.832C659.2 772.788 655.66 781.311 648.581 788.401C641.502 795.491 632.991 799.036 623.05 799.036H406.15ZM532.675 563.712V473.204H406.15V762.832H623.05V563.712H532.675Z" fill="black"/>
<defs>
<filter id="filter0_d_9_110" x="0.866669" y="275.004" width="1028.27" height="719.267" filterUnits="userSpaceOnUse" color-interpolation-filters="sRGB">
<feFlood flood-opacity="0" result="BackgroundImageFix"/>
<feColorMatrix in="SourceAlpha" type="matrix" values="0 0 0 0 0 0 0 0 0 0 0 0 0 0 0 0 0 0 127 0" result="hardAlpha"/>
<feOffset dy="17.1378"/>
<feGaussianBlur stdDeviation="16.0667"/>
<feComposite in2="hardAlpha" operator="out"/>
<feColorMatrix type="matrix" values="0 0 0 0 0 0 0 0 0 0 0 0 0 0 0 0 0 0 0.25 0"/>
<feBlend mode="normal" in2="BackgroundImageFix" result="effect1_dropShadow_9_110"/>
<feBlend mode="normal" in="SourceGraphic" in2="effect1_dropShadow_9_110" result="shape"/>
</filter>
<linearGradient id="paint0_linear_9_110" x1="515" y1="180" x2="515" y2="351.378" gradientUnits="userSpaceOnUse">
<stop stop-color="#757575"/>
<stop offset="1" stop-color="#555555"/>
</linearGradient>
<linearGradient id="paint1_linear_9_110" x1="515" y1="290" x2="515" y2="945" gradientUnits="userSpaceOnUse">
<stop stop-color="#A0A0A0"/>
<stop offset="1" stop-color="#646464"/>
</linearGradient>
</defs>
</svg>
