<svg width="1030" height="1000" viewBox="0 0 1030 1000" fill="none" xmlns="http://www.w3.org/2000/svg">
<path d="M33 227.683C33 199.692 55.6918 177 83.6835 177H336.771C352.565 177 367.457 184.363 377.045 196.914L392.443 217.068C402.032 229.619 416.924 236.982 432.718 236.982H946.316C974.308 236.982 997 259.674 997 287.666V876.552C997 893.347 983.385 906.962 966.59 906.962H63.4101C46.6151 906.962 33 893.347 33 876.552V227.683Z" fill="url(#paint0_linear_9_158)"/>
<g filter="url(#filter0_d_9_158)">
<path d="M33 337.683C33 309.692 55.6918 287 83.6835 287H946.317C974.308 287 997 309.692 997 337.683V911.59C997 928.385 983.385 942 966.59 942H63.4101C46.6151 942 33 928.385 33 911.59V337.683Z" fill="url(#paint1_linear_9_158)"/>
</g>
<g clip-path="url(#clip0_9_158)">
<path opacity="0.25" d="M515.25 410C511.751 410 508.253 411.328 505.572 414.008L312.012 607.501C306.65 612.859 306.65 621.486 312.012 626.845C317.374 632.204 326.006 632.204 331.368 626.845L350.992 607.233V765.516C350.992 795.83 375.411 820.236 405.745 820.236H624.756C655.089 820.236 679.509 795.831 679.509 765.516V607.233L699.133 626.845C704.495 632.204 713.127 632.204 718.489 626.845C723.851 621.486 723.851 612.86 718.489 607.501L524.929 414.008C522.247 411.328 518.749 410 515.25 410ZM515.25 443.078L652.13 579.873V765.517C652.13 780.674 639.92 792.876 624.754 792.876H570V710.795C570 680.48 545.581 656.076 515.247 656.076C484.914 656.076 460.494 680.48 460.494 710.795V792.876H405.741C390.575 792.876 378.364 780.674 378.364 765.517V579.873L515.25 443.078Z" fill="black"/>
</g>
<defs>
<filter id="filter0_d_9_158" x="0.866669" y="272.004" width="1028.27" height="719.267" filterUnits="userSpaceOnUse" color-interpolation-filters="sRGB">
<feFlood flood-opacity="0" result="BackgroundImageFix"/>
<feColorMatrix in="SourceAlpha" type="matrix" values="0 0 0 0 0 0 0 0 0 0 0 0 0 0 0 0 0 0 127 0" result="hardAlpha"/>
<feOffset dy="17.1378"/>
<feGaussianBlur stdDeviation="16.0667"/>
<feComposite in2="hardAlpha" operator="out"/>
<feColorMatrix type="matrix" values="0 0 0 0 0 0 0 0 0 0 0 0 0 0 0 0 0 0 0.25 0"/>
<feBlend mode="normal" in2="BackgroundImageFix" result="effect1_dropShadow_9_158"/>
<feBlend mode="normal" in="SourceGraphic" in2="effect1_dropShadow_9_158" result="shape"/>
</filter>
<linearGradient id="paint0_linear_9_158" x1="515" y1="177" x2="515" y2="348.378" gradientUnits="userSpaceOnUse">
<stop stop-color="#757575"/>
<stop offset="1" stop-color="#555555"/>
</linearGradient>
<linearGradient id="paint1_linear_9_158" x1="515" y1="287" x2="515" y2="942" gradientUnits="userSpaceOnUse">
<stop stop-color="#A0A0A0"/>
<stop offset="1" stop-color="#646464"/>
</linearGradient>
<clipPath id="clip0_9_158">
<rect width="414.52" height="410.236" fill="white" transform="translate(308 410)"/>
</clipPath>
</defs>
</svg>
