<?xml version="1.0" encoding="UTF-8" standalone="no"?>
<svg
   width="64"
   height="64"
   viewBox="0 0 16.933 16.933"
   version="1.1"
   id="svg34"
   sodipodi:docname="application-photoshop.svg"
   inkscape:version="1.3.2 (091e20ef0f, 2023-11-25, custom)"
   xmlns:inkscape="http://www.inkscape.org/namespaces/inkscape"
   xmlns:sodipodi="http://sodipodi.sourceforge.net/DTD/sodipodi-0.dtd"
   xmlns:xlink="http://www.w3.org/1999/xlink"
   xmlns="http://www.w3.org/2000/svg"
   xmlns:svg="http://www.w3.org/2000/svg">
  <sodipodi:namedview
     id="namedview34"
     pagecolor="#505050"
     bordercolor="#eeeeee"
     borderopacity="1"
     inkscape:showpageshadow="0"
     inkscape:pageopacity="0"
     inkscape:pagecheckerboard="0"
     inkscape:deskcolor="#505050"
     inkscape:zoom="17.854446"
     inkscape:cx="24.195654"
     inkscape:cy="34.949278"
     inkscape:window-width="1920"
     inkscape:window-height="1012"
     inkscape:window-x="0"
     inkscape:window-y="0"
     inkscape:window-maximized="1"
     inkscape:current-layer="svg34" />
  <defs
     id="defs6">
    <linearGradient
       id="b"
       x1="7.937"
       x2="7.937"
       y1="15.346"
       y2="16.933"
       gradientUnits="userSpaceOnUse"
       xlink:href="#a" />
    <linearGradient
       id="a">
      <stop
         offset="0"
         id="stop1" />
      <stop
         stop-opacity="0"
         offset="1"
         id="stop2" />
    </linearGradient>
    <linearGradient
       id="d"
       x1="43"
       x2="46.748"
       y1="12"
       y2="8.252"
       gradientUnits="userSpaceOnUse"
       xlink:href="#a" />
    <linearGradient
       id="f"
       x1="5.821"
       x2="5.821"
       y1="1.058"
       gradientUnits="userSpaceOnUse"
       xlink:href="#a" />
    <linearGradient
       id="h"
       x1="13.758"
       x2="15.081"
       y1="10.583"
       y2="10.583"
       gradientUnits="userSpaceOnUse"
       xlink:href="#a" />
    <linearGradient
       id="i"
       x1="3.175"
       x2="1.852"
       y1="8.466"
       y2="8.466"
       gradientUnits="userSpaceOnUse"
       xlink:href="#a" />
    <linearGradient
       id="l"
       x1="7.937"
       x2="7.937"
       y1="15.346"
       y2="16.668"
       gradientUnits="userSpaceOnUse"
       xlink:href="#a" />
    <linearGradient
       id="n"
       x1="43"
       x2="46.004"
       y1="12"
       y2="8.996"
       gradientUnits="userSpaceOnUse"
       xlink:href="#a" />
    <linearGradient
       id="p"
       x1="5.821"
       x2="5.821"
       y1="1.058"
       y2=".265"
       gradientUnits="userSpaceOnUse"
       xlink:href="#a" />
    <linearGradient
       id="r"
       x1="13.758"
       x2="14.816"
       y1="10.583"
       y2="10.583"
       gradientUnits="userSpaceOnUse"
       xlink:href="#a" />
    <linearGradient
       id="s"
       x1="3.175"
       x2="2.117"
       y1="8.466"
       y2="8.466"
       gradientUnits="userSpaceOnUse"
       xlink:href="#a" />
    <linearGradient
       id="v"
       x1="21.039"
       x2="21.039"
       y1="2"
       y2="62"
       gradientTransform="translate(45.221 -.507) scale(.26458)"
       gradientUnits="userSpaceOnUse">
      <stop
         stop-color="#2b3949"
         offset="0"
         id="stop3" />
      <stop
         stop-color="#10222e"
         offset="1"
         id="stop4" />
    </linearGradient>
    <linearGradient
       id="z"
       x1="10.583"
       x2="6.35"
       y1="3.175"
       y2="3.175"
       gradientTransform="matrix(1 0 0 .66667 45.221 1.169)"
       gradientUnits="userSpaceOnUse"
       xlink:href="#a" />
    <linearGradient
       id="A"
       x1="10.583"
       x2="8.731"
       y1="3.043"
       y2="3.043"
       gradientTransform="matrix(1 0 0 .66667 45.221 1.169)"
       gradientUnits="userSpaceOnUse"
       xlink:href="#a" />
    <linearGradient
       id="D"
       x1="10.583"
       x2="6.35"
       y1="3.175"
       y2="3.175"
       gradientTransform="matrix(1 0 0 .66667 -14.574 54.57)"
       gradientUnits="userSpaceOnUse"
       xlink:href="#a" />
    <linearGradient
       id="E"
       x1="10.583"
       x2="8.724"
       y1="3.043"
       y2="3.043"
       gradientTransform="matrix(1 0 0 .66667 -14.574 54.57)"
       gradientUnits="userSpaceOnUse"
       xlink:href="#a" />
    <linearGradient
       id="G"
       x1="40"
       x2="46"
       y1="17"
       y2="11"
       gradientTransform="translate(45.221 -.507) scale(.26458)"
       gradientUnits="userSpaceOnUse">
      <stop
         stop-color="#1dceff"
         offset="0"
         id="stop5" />
      <stop
         stop-color="#00a0cc"
         offset="1"
         id="stop6" />
    </linearGradient>
    <radialGradient
       id="c"
       cx="35"
       cy="4"
       r="3.728"
       gradientTransform="matrix(1.696 0 0 1.0731 -24.361 -.292)"
       gradientUnits="userSpaceOnUse"
       xlink:href="#a" />
    <radialGradient
       id="e"
       cx="52"
       cy="22"
       r="5.206"
       gradientTransform="matrix(.96042 0 0 1.3331 2.058 -7.328)"
       gradientUnits="userSpaceOnUse"
       xlink:href="#a" />
    <radialGradient
       id="g"
       cx="3.175"
       cy="1.323"
       r=".794"
       gradientTransform="matrix(0 -1.3333 1.6667 0 .97 5.292)"
       gradientUnits="userSpaceOnUse"
       xlink:href="#a" />
    <radialGradient
       id="j"
       cx="13.758"
       cy="15.346"
       r=".794"
       gradientTransform="matrix(0 2 -1.6667 0 39.334 -12.171)"
       gradientUnits="userSpaceOnUse"
       xlink:href="#a" />
    <radialGradient
       id="k"
       cx="3.175"
       cy="15.346"
       r=".794"
       gradientTransform="matrix(-1.6667 0 0 -2 8.466 46.037)"
       gradientUnits="userSpaceOnUse"
       xlink:href="#a" />
    <radialGradient
       id="m"
       cx="35"
       cy="4"
       r="3.728"
       gradientTransform="matrix(1.6115 0 0 .80482 -21.403 .78)"
       gradientUnits="userSpaceOnUse"
       xlink:href="#a" />
    <radialGradient
       id="o"
       cx="52"
       cy="22"
       r="5.206"
       gradientTransform="matrix(.76834 0 0 1.2272 12.047 -4.999)"
       gradientUnits="userSpaceOnUse"
       xlink:href="#a" />
    <radialGradient
       id="q"
       cx="3.175"
       cy="1.323"
       r=".794"
       gradientTransform="matrix(0 -1 1.3333 0 1.411 4.233)"
       gradientUnits="userSpaceOnUse"
       xlink:href="#a" />
    <radialGradient
       id="t"
       cx="13.758"
       cy="15.346"
       r=".794"
       gradientTransform="matrix(0 1.6667 -1.3333 0 34.219 -7.585)"
       gradientUnits="userSpaceOnUse"
       xlink:href="#a" />
    <radialGradient
       id="u"
       cx="3.175"
       cy="15.346"
       r=".794"
       gradientTransform="matrix(-1.3333 0 0 -1.6667 7.408 40.921)"
       gradientUnits="userSpaceOnUse"
       xlink:href="#a" />
    <radialGradient
       id="w"
       cx="40"
       cy="12"
       r="8"
       gradientTransform="matrix(.39687 0 0 -.52916 41.517 10.341)"
       gradientUnits="userSpaceOnUse"
       xlink:href="#a" />
    <radialGradient
       id="x"
       cx="10.583"
       cy="4.233"
       r="2.117"
       gradientTransform="matrix(-2 0 0 -2 76.971 12.457)"
       gradientUnits="userSpaceOnUse"
       xlink:href="#a" />
    <radialGradient
       id="y"
       cx="40"
       cy="12"
       r="8"
       gradientTransform="matrix(0 -.39687 .52916 0 49.455 18.278)"
       gradientUnits="userSpaceOnUse"
       xlink:href="#a" />
    <radialGradient
       id="B"
       cx="10.583"
       cy="4.233"
       r="2.117"
       gradientTransform="matrix(-.875 0 0 -.87849 65.065 7.71)"
       gradientUnits="userSpaceOnUse"
       xlink:href="#a" />
    <radialGradient
       id="C"
       cx="40"
       cy="12"
       r="8"
       gradientTransform="matrix(0 -.34601 .23278 0 53.011 16.244)"
       gradientUnits="userSpaceOnUse"
       xlink:href="#a" />
    <radialGradient
       id="F"
       cx="40"
       cy="12"
       r="8"
       gradientTransform="matrix(.3793 0 0 -.23243 42.22 6.78)"
       gradientUnits="userSpaceOnUse"
       xlink:href="#a" />
    <filter
       inkscape:collect="always"
       style="color-interpolation-filters:sRGB"
       id="filter35"
       x="-0.18356203"
       y="-0.20684093"
       width="1.3671241"
       height="1.4136819">
      <feGaussianBlur
         inkscape:collect="always"
         stdDeviation="0.46823614"
         id="feGaussianBlur35" />
    </filter>
    <filter
       inkscape:collect="always"
       style="color-interpolation-filters:sRGB"
       id="filter36"
       x="-0.0075854115"
       y="-0.0085473752"
       width="1.0151708"
       height="1.0170948">
      <feGaussianBlur
         inkscape:collect="always"
         stdDeviation="0.019349121"
         id="feGaussianBlur36" />
    </filter>
  </defs>
  <g
     transform="translate(-45.227,0.514)"
     id="g33"
     style="display:inline">
    <g
       opacity="0.15"
       id="g15"
       style="display:inline">
      <path
         fill="url(#b)"
         opacity="1"
         d="m 3.175,15.346 h 10.583 v 1.587 H 3.175 Z"
         transform="translate(45.221,-0.243)"
         id="path6" />
      <path
         transform="matrix(0.26458,0,0,0.26458,45.221,-0.243)"
         d="M 35,0 V 7 L 42,0 Z"
         fill="url(#c)"
         opacity="1"
         id="path7" />
      <path
         transform="matrix(0.26458,0,0,0.26458,45.221,-0.243)"
         d="m 42,0 -7,7 14,15 9,-9 V 3.545 L 54.455,0 Z"
         fill="url(#d)"
         opacity="1"
         id="path8" />
      <path
         transform="matrix(0.26458,0,0,0.26458,45.221,-0.243)"
         d="m 58,13 -9,9 h 9 z"
         fill="url(#e)"
         opacity="1"
         id="path9" />
      <path
         fill="url(#f)"
         opacity="1"
         d="M 3.175,0 H 9.26 V 1.058 H 3.175 Z"
         transform="translate(45.221,-0.243)"
         id="path10" />
      <path
         fill="url(#g)"
         opacity="1"
         d="M 1.587,0 H 3.174 V 1.058 H 1.587 Z"
         transform="translate(45.221,-0.243)"
         id="path11" />
      <path
         fill="url(#h)"
         opacity="1"
         d="m 13.758,5.821 h 1.587 v 9.525 h -1.587 z"
         transform="translate(45.221,-0.243)"
         id="path12" />
      <path
         fill="url(#i)"
         opacity="1"
         d="M 1.587,1.058 H 3.174 V 15.345 H 1.587 Z"
         transform="translate(45.221,-0.243)"
         id="path13" />
      <path
         fill="url(#j)"
         opacity="1"
         d="m 13.758,15.346 h 1.587 v 1.587 h -1.587 z"
         transform="translate(45.221,-0.243)"
         id="path14" />
      <path
         fill="url(#k)"
         opacity="1"
         d="m 1.587,15.346 h 1.587 v 1.587 H 1.587 Z"
         transform="translate(45.221,-0.243)"
         id="path15" />
    </g>
    <g
       transform="translate(45.221,-0.243)"
       opacity="0.25"
       id="g24"
       style="display:inline">
      <path
         fill="url(#l)"
         opacity="1"
         d="m 3.175,15.346 h 10.583 v 1.587 H 3.175 Z"
         id="path16" />
      <path
         transform="scale(0.26458)"
         d="M 35,0 V 7 L 42,0 Z"
         fill="url(#m)"
         opacity="1"
         id="path17" />
      <path
         transform="scale(0.26458)"
         d="m 42,0 -7,7 14,15 9,-9 V 3.545 L 54.455,0 Z"
         fill="url(#n)"
         opacity="1"
         id="path18" />
      <path
         transform="scale(0.26458)"
         d="m 58,13 -9,9 h 9 z"
         fill="url(#o)"
         opacity="1"
         id="path19" />
      <path
         fill="url(#p)"
         opacity="1"
         d="M 3.175,0 H 9.26 V 1.058 H 3.175 Z"
         id="path20" />
      <rect
         x="1.587"
         width="1.587"
         height="1.058"
         ry="0"
         fill="url(#q)"
         opacity="1"
         id="rect20"
         y="0" />
      <path
         fill="url(#r)"
         opacity="1"
         d="m 13.758,5.821 h 1.587 v 9.525 h -1.587 z"
         id="path21" />
      <path
         fill="url(#s)"
         opacity="1"
         d="M 1.587,1.058 H 3.174 V 15.345 H 1.587 Z"
         id="path22" />
      <path
         fill="url(#t)"
         opacity="1"
         d="m 13.758,15.346 h 1.587 v 1.587 h -1.587 z"
         id="path23" />
      <path
         fill="url(#u)"
         opacity="1"
         d="m 1.587,15.346 h 1.587 v 1.587 H 1.587 Z"
         id="path24" />
    </g>
    <path
       d="m 48.132,0.022 a 0.528,0.528 0 0 0 -0.53,0.53 v 14.815 c 0,0.293 0.237,0.53 0.53,0.53 h 11.112 c 0.293,0 0.53,-0.237 0.53,-0.53 V 5.048 c 0,-0.264 -0.162,-0.69 -0.53,-1.058 L 55.804,0.55 A 1.325,1.325 0 0 0 54.746,0.021 Z"
       fill="url(#v)"
       id="path25" />
    <path
       d="m 57.392,3.99 v 4.234 h 2.381 V 5.049 c 0,-0.035 -0.007,-0.08 -0.01,-0.12 -0.04,-0.263 -0.202,-0.621 -0.519,-0.938 z"
       fill="url(#w)"
       opacity="0.05"
       id="path26" />
    <path
       fill="none"
       d="m 53.942,-0.785 h 6.636 V 5.85 h -6.636 z"
       id="path27" />
    <rect
       x="51.570999"
       y="3.9909999"
       width="4.2329998"
       height="4.2329998"
       ry="0"
       fill="url(#x)"
       opacity="0.05"
       id="rect27"
       style="display:inline" />
    <path
       d="m 51.571,0.022 v 2.381 h 4.233 V 0.551 A 1.325,1.325 0 0 0 54.746,0.022 Z"
       fill="url(#y)"
       opacity="0.05"
       id="path28" />
    <rect
       x="51.570999"
       y="2.4030001"
       width="4.2329998"
       height="1.587"
       ry="0"
       fill="url(#z)"
       opacity="0.05"
       id="rect28" />
    <rect
       x="52.894001"
       y="2.4030001"
       width="2.9100001"
       height="1.587"
       ry="0"
       fill="url(#A)"
       opacity="0.2"
       id="rect29" />
    <rect
       x="52.894001"
       y="3.9909999"
       width="2.9100001"
       height="2.9100001"
       ry="0"
       fill="url(#B)"
       opacity="0.2"
       id="rect30" />
    <path
       d="m 52.894,0.022 v 2.381 h 2.91 V 0.551 A 1.4,1.4 0 0 0 55.36,0.176 L 54.746,0.022 Z"
       fill="url(#C)"
       opacity="0.2"
       id="path30" />
    <rect
       transform="rotate(-90)"
       x="-8.224"
       y="55.804001"
       width="4.2329998"
       height="1.587"
       ry="0"
       fill="url(#D)"
       opacity="0.05"
       id="rect31" />
    <rect
       transform="rotate(-90)"
       x="-6.901"
       y="55.804001"
       width="2.9100001"
       height="1.587"
       ry="0"
       fill="url(#E)"
       opacity="0.2"
       id="rect32" />
    <path
       d="m 57.392,3.99 v 2.911 h 2.381 V 5.05 L 59.657,4.584 c -0.086,-0.192 -0.22,-0.4 -0.413,-0.592 z"
       fill="url(#F)"
       opacity="0.2"
       id="path32" />
    <path
       d="m 55.275,0.133 v 3.856 c 0,0.293 0.236,0.53 0.53,0.53 h 3.826 a 2.017,2.017 0 0 0 -0.382,-0.53 l -3.44,-3.44 A 1.375,1.375 0 0 0 55.28,0.133 Z"
       fill="url(#G)"
       id="path33" />
  </g>
  <path
     class="st1"
     d="m 5.406,7.231 c 0,-0.034 0.068,-0.058 0.107,-0.058 0.31,-0.014 0.77,-0.024 1.251,-0.024 1.344,0 1.868,0.737 1.868,1.683 0,1.232 -0.893,1.76 -1.99,1.76 -0.184,0 -0.247,-0.009 -0.378,-0.009 v 1.863 c 0,0.039 -0.014,0.058 -0.058,0.058 H 5.464 c -0.039,0 -0.058,-0.015 -0.058,-0.058 z m 0.863,2.576 c 0.112,0.01 0.2,0.01 0.393,0.01 0.568,0 1.101,-0.2 1.101,-0.97 C 7.763,8.231 7.38,7.92 6.735,7.92 6.541,7.92 6.357,7.93 6.269,7.935 Z M 10.441,9.23 c -0.383,0 -0.514,0.194 -0.514,0.354 0,0.174 0.087,0.296 0.601,0.563 0.762,0.368 1,0.722 1,1.241 0,0.776 -0.593,1.194 -1.393,1.194 -0.422,0 -0.786,-0.088 -0.994,-0.209 C 9.107,12.358 9.102,12.334 9.102,12.295 v -0.713 c 0,-0.048 0.024,-0.063 0.058,-0.038 a 1.8,1.8 0 0 0 0.975,0.286 c 0.383,0 0.543,-0.16 0.543,-0.379 0,-0.174 -0.111,-0.33 -0.601,-0.582 -0.689,-0.33 -0.975,-0.664 -0.975,-1.222 0,-0.626 0.49,-1.145 1.339,-1.145 0.417,0 0.708,0.063 0.868,0.136 0.039,0.024 0.049,0.063 0.049,0.097 V 9.4 c 0,0.038 -0.025,0.063 -0.073,0.048 C 11.071,9.312 10.756,9.23 10.441,9.23 Z"
     fill="#00c8ff"
     id="path35"
     style="display:inline;opacity:0.30962171;fill:#000000;fill-opacity:1;filter:url(#filter35)" />
  <path
     class="st1"
     d="M5.406 7.231c0-.034.068-.058.107-.058.31-.014.77-.024 1.251-.024 1.344 0 1.868.737 1.868 1.683 0 1.232-.893 1.76-1.99 1.76-.184 0-.247-.009-.378-.009v1.863c0 .039-.014.058-.058.058h-.742c-.039 0-.058-.015-.058-.058zm.863 2.576c.112.01.2.01.393.01.568 0 1.101-.2 1.101-.97 0-.616-.383-.927-1.028-.927-.194 0-.378.01-.466.015zm4.172-.577c-.383 0-.514.194-.514.354 0 .174.087.296.601.563.762.368 1 .722 1 1.241 0 .776-.593 1.194-1.393 1.194-.422 0-.786-.088-.994-.209-.034-.015-.039-.039-.039-.078v-.713c0-.048.024-.063.058-.038a1.8 1.8 0 0 0 .975.286c.383 0 .543-.16.543-.379 0-.174-.111-.33-.601-.582-.689-.33-.975-.664-.975-1.222 0-.626.49-1.145 1.339-1.145.417 0 .708.063.868.136.039.024.049.063.049.097V9.4c0 .038-.025.063-.073.048-.214-.136-.529-.218-.844-.218z"
     fill="#00c8ff"
     id="path34"
     style="fill:#a2ebff;fill-opacity:1;filter:url(#filter36);opacity:0" />
  <path
     class="st1"
     d="m 5.406,7.231 c 0,-0.034 0.068,-0.058 0.107,-0.058 0.31,-0.014 0.77,-0.024 1.251,-0.024 1.344,0 1.868,0.737 1.868,1.683 0,1.232 -0.893,1.76 -1.99,1.76 -0.184,0 -0.247,-0.009 -0.378,-0.009 v 1.863 c 0,0.039 -0.014,0.058 -0.058,0.058 H 5.464 c -0.039,0 -0.058,-0.015 -0.058,-0.058 z m 0.863,2.576 c 0.112,0.01 0.2,0.01 0.393,0.01 0.568,0 1.101,-0.2 1.101,-0.97 C 7.763,8.231 7.38,7.92 6.735,7.92 6.541,7.92 6.357,7.93 6.269,7.935 Z M 10.441,9.23 c -0.383,0 -0.514,0.194 -0.514,0.354 0,0.174 0.087,0.296 0.601,0.563 0.762,0.368 1,0.722 1,1.241 0,0.776 -0.593,1.194 -1.393,1.194 -0.422,0 -0.786,-0.088 -0.994,-0.209 C 9.107,12.358 9.102,12.334 9.102,12.295 v -0.713 c 0,-0.048 0.024,-0.063 0.058,-0.038 a 1.8,1.8 0 0 0 0.975,0.286 c 0.383,0 0.543,-0.16 0.543,-0.379 0,-0.174 -0.111,-0.33 -0.601,-0.582 -0.689,-0.33 -0.975,-0.664 -0.975,-1.222 0,-0.626 0.49,-1.145 1.339,-1.145 0.417,0 0.708,0.063 0.868,0.136 0.039,0.024 0.049,0.063 0.049,0.097 V 9.4 c 0,0.038 -0.025,0.063 -0.073,0.048 C 11.071,9.312 10.756,9.23 10.441,9.23 Z"
     fill="#00c8ff"
     id="path36"
     style="display:inline" />
</svg>
