<?xml version="1.0" encoding="UTF-8" standalone="no"?>
<!-- Created with Inkscape (http://www.inkscape.org/) -->

<svg
   id="svg7384"
   sodipodi:docname="drive-harddisk-root.svg"
   version="1.1"
   inkscape:version="1.3.2 (091e20ef0f, 2023-11-25, custom)"
   height="36"
   width="36"
   xmlns:inkscape="http://www.inkscape.org/namespaces/inkscape"
   xmlns:sodipodi="http://sodipodi.sourceforge.net/DTD/sodipodi-0.dtd"
   xmlns="http://www.w3.org/2000/svg"
   xmlns:svg="http://www.w3.org/2000/svg"
   xmlns:rdf="http://www.w3.org/1999/02/22-rdf-syntax-ns#"
   xmlns:cc="http://creativecommons.org/ns#"
   xmlns:dc="http://purl.org/dc/elements/1.1/">
  <metadata
     id="metadata90">
    <rdf:RDF>
      <cc:Work
         rdf:about="">
        <dc:format>image/svg+xml</dc:format>
        <dc:type
           rdf:resource="http://purl.org/dc/dcmitype/StillImage" />
        <dc:title>Gnome Symbolic Icon Theme</dc:title>
      </cc:Work>
    </rdf:RDF>
  </metadata>
  <sodipodi:namedview
     inkscape:cy="16.705398"
     pagecolor="#252525"
     borderopacity="1"
     showborder="true"
     inkscape:bbox-paths="false"
     guidetolerance="10"
     inkscape:window-width="1920"
     showguides="true"
     inkscape:object-nodes="true"
     inkscape:snap-bbox="true"
     inkscape:pageshadow="2"
     inkscape:guide-bbox="true"
     inkscape:snap-nodes="true"
     bordercolor="#666666"
     objecttolerance="10"
     id="namedview88"
     showgrid="false"
     inkscape:window-maximized="1"
     inkscape:window-x="0"
     inkscape:snap-global="true"
     inkscape:window-y="0"
     gridtolerance="10"
     inkscape:window-height="1015"
     inkscape:snap-to-guides="true"
     inkscape:current-layer="layer13"
     inkscape:zoom="22.627416"
     inkscape:cx="9.7227187"
     inkscape:snap-grids="true"
     inkscape:pageopacity="1"
     inkscape:showpageshadow="0"
     inkscape:pagecheckerboard="0"
     inkscape:deskcolor="#505050">
    <inkscape:grid
       spacingx="1"
       spacingy="1"
       id="grid4866"
       empspacing="2"
       enabled="true"
       type="xygrid"
       snapvisiblegridlinesonly="true"
       visible="false"
       originx="0"
       originy="0"
       units="px" />
  </sodipodi:namedview>
  <title
     id="title9167">Gnome Symbolic Icon Theme</title>
  <defs
     id="defs7386" />
  <g
     inkscape:label="status"
     transform="translate(-442,-156)"
     inkscape:groupmode="layer"
     id="layer9"
     style="display:inline" />
  <g
     inkscape:label="devices"
     transform="translate(-442,-156)"
     inkscape:groupmode="layer"
     id="layer10" />
  <g
     inkscape:label="apps"
     transform="translate(-442,-156)"
     inkscape:groupmode="layer"
     id="layer11" />
  <g
     inkscape:label="actions"
     transform="translate(-442,-156)"
     inkscape:groupmode="layer"
     id="layer12" />
  <g
     inkscape:label="places"
     transform="matrix(0.81636759,0,0,0.81636759,-357.52913,-124.04796)"
     inkscape:groupmode="layer"
     id="layer13">
    <path
       inkscape:connector-curvature="0"
       style="opacity:0.05;fill:#000000;fill-opacity:0.901961"
       d="m 445.98242,183.42187 v 4.5918 c 0,1.10029 0.88604,1.98633 1.98633,1.98633 h 24.02734 c 1.10029,0 1.98633,-0.88604 1.98633,-1.98633 v -4.57226 C 473.35592,183.78775 472.64243,184 471.89648,184 h -23.79296 c -0.75993,0 -1.48656,-0.21966 -2.1211,-0.57813 z"
       id="rect4169" />
    <path
       style="opacity:0.12;fill:#e8f1f5;fill-opacity:0.604563"
       d="M 7.9863281,2 C 6.8860381,2 6.10933,2.8914781 6,3.9863281 L 4,24.013672 C 3.89067,25.108522 4.8860381,26 5.9863281,26 H 11.257812 28 h 2 0.01367 C 31.113962,26 32.10933,25.108522 32,24.013672 L 30,3.9863281 C 29.89064,2.8914781 29.113972,2 28.013672,2 H 28 26 13.257812 Z"
       transform="translate(442,156)"
       id="path4250" />
    <path
       inkscape:connector-curvature="0"
       style="opacity:1;fill:#e8f1f5;fill-opacity:1"
       d="m 450.10352,156 c -2.27338,0 -3.87497,1.84165 -4.10352,4.10352 l -2,19.79296 c -0.006,0.0568 -0.003,0.11172 -0.006,0.16797 -0.002,-0.0564 -0.0117,-0.11098 -0.0117,-0.16797 v 8 c 0,2.27338 1.83014,4.10352 4.10352,4.10352 h 23.79297 c 2.27338,0 4.10351,-1.83014 4.10351,-4.10352 v -7.17382 c 0.0389,-0.26683 0.0462,-0.54344 0.0176,-0.82618 l -2,-19.79296 C 473.77145,157.84165 472.16986,156 469.89648,156 Z m -0.11719,2 H 455.25781 468 h 2 0.0137 c 1.10029,0 1.877,0.89148 1.98633,1.98633 l 2,20.02734 C 474.10933,181.10852 473.11396,182 472.01367,182 h -0.0137 -2 -16.74219 -5.27148 c -1.10029,0 -2.09566,-0.89148 -1.98633,-1.98633 l 2,-20.02734 C 448.10933,158.89148 448.88604,158 449.98633,158 Z m -4.00391,25.42187 c 0.63454,0.35847 1.36117,0.57813 2.1211,0.57813 h 23.79296 c 0.74595,0 1.45944,-0.21225 2.08594,-0.55859 v 4.57226 c 0,1.10029 -0.88604,1.98633 -1.98633,1.98633 h -0.0137 -2 -16.74218 -5.27149 c -1.10029,0 -1.98633,-0.88604 -1.98633,-1.98633 v -4.5918 z"
       id="rect4156" />
    <path
       style="opacity:0.15;fill:#e8f1f5;fill-opacity:0.634981"
       d="m 6.0683594,30.009766 c -0.74595,0 -1.4594375,0.212253 -2.0859375,0.558593 v 1.445313 C 3.9824219,33.113962 4.86846,34 5.96875,34 h 24.027344 c 1.10029,0 1.986328,-0.886038 1.986328,-1.986328 v -1.425781 c -0.63454,-0.35847 -1.361164,-0.578125 -2.121094,-0.578125 z"
       id="path4172"
       transform="translate(442,156)" />
    <rect
       y="-471.87677"
       x="185.48123"
       height="3.0719707"
       width="3.0719707"
       id="rect4328"
       style="opacity:0.75;fill:#92ff70;fill-opacity:1;stroke:none;stroke-width:1.53599"
       transform="rotate(90)" />
    <text
       xml:space="preserve"
       style="font-weight:bold;font-size:19.0272px;font-family:'Fira Sans';-inkscape-font-specification:'Fira Sans, Bold';opacity:1;fill:#e8f1f5;fill-opacity:1;stroke-width:1.74415;stroke-linecap:round;stroke-linejoin:round;stroke-miterlimit:1.8"
       x="378.93564"
       y="209.71336"
       id="text1"
       transform="scale(1.2009269,0.83269015)"><tspan
         sodipodi:role="line"
         id="tspan1"
         style="font-style:normal;font-variant:normal;font-weight:bold;font-stretch:normal;font-family:'Segoe UI';-inkscape-font-specification:'Segoe UI Bold';fill:#e8f1f5;fill-opacity:1;stroke-width:1.74415"
         x="378.93564"
         y="209.71336">/</tspan></text>
  </g>
  <g
     inkscape:label="mimetypes"
     transform="translate(-442,-156)"
     inkscape:groupmode="layer"
     id="layer14" />
  <g
     inkscape:label="emblems"
     transform="translate(-442,-156)"
     inkscape:groupmode="layer"
     id="layer15"
     style="display:inline" />
</svg>
