<?xml version="1.0" encoding="UTF-8"?>
<svg width="19.201" height="18" version="1.1" viewBox="0 0 19.201 18" xmlns="http://www.w3.org/2000/svg">
 <g transform="matrix(1.5 0 0 1.5 -2.3994 -2.9999)" fill="#dadada" stroke-linecap="round" stroke-linejoin="round">
  <path d="m3.1992 2c-0.8864 0-1.5996 0.71321-1.5996 1.5996v5.5996c0 0.8864 3.2012 1.2008 3.2012 0.80078v-2.0605c-2.7e-5 -0.62888 0.50979-1.1387 1.1387-1.1387h1.3984l0.33008-0.33203c0.1502-0.15022 0.35398-0.23454 0.56641-0.23438h4.5664v-2.6348c0-0.8864-0.71516-1.5996-1.6016-1.5996z" fill-rule="evenodd" opacity=".16" stop-color="#000000" stroke-width="2"/>
  <g transform="matrix(.8 0 0 .8 1.6 1.2)">
   <path d="m9 7a1.0001 1.0001 0 0 0-0.70703 0.29297l-0.70703 0.70703h-1.5859a1.0001 1.0001 0 0 0-1 1v6a1.0001 1.0001 0 0 0 1 1h9a1.0001 1.0001 0 0 0 1-1v-6a1.0001 1.0001 0 0 0-1-1h-1.5859l-0.70703-0.70703a1.0001 1.0001 0 0 0-0.70703-0.29297h-3zm0 1h3l1 1h2v6h-9v-6h2z" color="#000000"/>
   <path d="m10.5 9a2.5 2.5 0 0 0-2.5 2.5 2.5 2.5 0 0 0 2.5 2.5 2.5 2.5 0 0 0 2.5-2.5 2.5 2.5 0 0 0-2.5-2.5zm0 1a1.5 1.5 0 0 1 1.5 1.5 1.5 1.5 0 0 1-1.5 1.5 1.5 1.5 0 0 1-1.5-1.5 1.5 1.5 0 0 1 1.5-1.5z" fill-rule="evenodd" stop-color="#000000" stroke-width="2"/>
   <path d="m2 1c-1.108 0-2 0.892-2 2v7c0 1.108 0.892 2 2 2h2v-1h-2c-0.554 0-1-0.446-1-1v-7c0-0.554 0.446-1 1-1h10c0.554 0 1 0.446 1 1l-0.01726 3.293h1.0183l-9.96e-4 -3.293c-3.35e-4 -1.108-0.892-2-2-2z" fill-rule="evenodd" stop-color="#000000" stroke-width="2"/>
  </g>
 </g>
</svg>
