<?xml version="1.0" encoding="UTF-8" standalone="no"?>
<!-- Created with Inkscape (http://www.inkscape.org/) -->

<svg
   version="1.1"
   width="36"
   height="36"
   id="svg3079"
   inkscape:version="1.3.2 (091e20ef0f, 2023-11-25, custom)"
   sodipodi:docname="folder-music.svg"
   xmlns:inkscape="http://www.inkscape.org/namespaces/inkscape"
   xmlns:sodipodi="http://sodipodi.sourceforge.net/DTD/sodipodi-0.dtd"
   xmlns="http://www.w3.org/2000/svg"
   xmlns:svg="http://www.w3.org/2000/svg"
   xmlns:rdf="http://www.w3.org/1999/02/22-rdf-syntax-ns#"
   xmlns:cc="http://creativecommons.org/ns#"
   xmlns:dc="http://purl.org/dc/elements/1.1/">
  <sodipodi:namedview
     pagecolor="#000000"
     bordercolor="#666666"
     borderopacity="1"
     objecttolerance="10"
     gridtolerance="10"
     guidetolerance="10"
     inkscape:pageopacity="0"
     inkscape:pageshadow="2"
     inkscape:window-width="1920"
     inkscape:window-height="1015"
     id="namedview7"
     showgrid="false"
     inkscape:zoom="10.429825"
     inkscape:cx="21.333052"
     inkscape:cy="29.051302"
     inkscape:window-x="0"
     inkscape:window-y="0"
     inkscape:window-maximized="1"
     inkscape:current-layer="svg3079"
     inkscape:showpageshadow="0"
     inkscape:pagecheckerboard="0"
     inkscape:deskcolor="#505050" />
  <defs
     id="defs3081" />
  <metadata
     id="metadata3084">
    <rdf:RDF>
      <cc:Work
         rdf:about="">
        <dc:format>image/svg+xml</dc:format>
        <dc:type
           rdf:resource="http://purl.org/dc/dcmitype/StillImage" />
      </cc:Work>
    </rdf:RDF>
  </metadata>
  <path
     style="color:#bebebe;display:inline;overflow:visible;visibility:visible;opacity:1;fill:#ced0d6;fill-opacity:1;fill-rule:nonzero;stroke:none;stroke-width:0.944422;marker:none;enable-background:accumulate"
     d="M 30.471423,0.99999984 14.809133,5.0488429 c -1.176619,0.3152742 -2.12495,1.5690278 -2.12495,2.7871538 V 27.150545 C 11.491059,26.5258 9.9583557,26.272935 8.3697197,26.685712 5.5030093,27.430574 3.7063701,29.83876 4.3208762,32.06265 c 0.6145062,2.223891 3.4398935,3.46561 6.3066038,2.72075 2.287044,-0.594246 3.863819,-2.275841 4.115249,-4.048845 l 0.0664,-18.252072 14.865433,-3.9824403 V 22.902489 c -1.193122,-0.624746 -2.723982,-0.877612 -4.312617,-0.464835 -2.86671,0.744863 -4.663349,3.153049 -4.048843,5.376939 0.614507,2.223891 3.438048,3.465609 6.30476,2.720748 2.287044,-0.594245 3.863817,-2.275839 4.115246,-4.048843 l 0.06641,-23.7599757 c 0,-0.913594 -0.565299,-1.5980042 -1.328095,-1.72652246 z"
     id="rect2996"
     inkscape:connector-curvature="0" />
</svg>
