<?xml version="1.0" encoding="UTF-8"?>
<!-- Created with Inkscape (http://www.inkscape.org/) -->
<svg width="93.954" height="70.483" version="1.1" viewBox="0 0 24.859 18.649" xmlns="http://www.w3.org/2000/svg" xmlns:cc="http://creativecommons.org/ns#" xmlns:dc="http://purl.org/dc/elements/1.1/" xmlns:rdf="http://www.w3.org/1999/02/22-rdf-syntax-ns#">
 <metadata>
  <rdf:RDF>
   <cc:Work rdf:about="">
    <dc:format>image/svg+xml</dc:format>
    <dc:type rdf:resource="http://purl.org/dc/dcmitype/StillImage"/>
   </cc:Work>
  </rdf:RDF>
 </metadata>
 <g transform="matrix(.75931 0 0 .75931 8.7431 -213.27)" display="none">
  <path d="m0.57048 289.77c-0.16579 0-0.29982 0.13413-0.29982 0.29982v1.7438c0-0.1658 0.13403-0.29982 0.29982-0.29982h8.3233c0.16579 0 0.2989 0.13402 0.2989 0.29982v-0.93075c0-0.16576-0.13312-0.29889-0.2989-0.29889h-4.5608l-0.97672-0.81394z" fill="none"/>
  <path d="m0.56956 289.57c-0.27145 0-0.49572 0.22426-0.49572 0.49571v6.1813c0 0.27143 0.22427 0.49571 0.49572 0.49571h8.3242c0.27145 0 0.49664-0.22428 0.49664-0.49571v-5.3683c0-0.27143-0.22519-0.49571-0.49664-0.49571h-4.489l-0.92246-0.76887a0.19689 0.19689 0 0 0-0.12692-0.0442zm0 0.39363h2.7149l0.92246 0.76703a0.19689 0.19689 0 0 0 0.12508 0.0469h4.5617c0.060137 0 0.10209 0.041 0.10209 0.10111v0.45526c-0.033955-7e-3 -0.066064-0.0203-0.10209-0.0203h-8.3242c-0.036023 0-0.06813 0.0128-0.10209 0.0203v-1.2683c0-0.0601 0.041956-0.10215 0.10209-0.10215zm0 1.7438h8.3242c0.060138 0 0.10209 0.0419 0.10209 0.10215v4.4376c0 0.0602-0.041946 0.10112-0.10209 0.10112h-8.3242c-0.060133 0-0.10209-0.041-0.10209-0.10112v-4.4376c0-0.0602 0.041956-0.10215 0.10209-0.10215z" color="#000000" color-rendering="auto" display="inline" dominant-baseline="auto" fill="#f6f9fb" image-rendering="auto" shape-rendering="auto" solid-color="#000000" style="font-feature-settings:normal;font-variant-alternates:normal;font-variant-caps:normal;font-variant-ligatures:normal;font-variant-numeric:normal;font-variant-position:normal;isolation:auto;mix-blend-mode:normal;shape-padding:0;text-decoration-color:#000000;text-decoration-line:none;text-decoration-style:solid;text-indent:0;text-orientation:mixed;text-transform:none;white-space:normal"/>
  <path d="m0.57213 291.71c-0.0601 0-0.10203 0.0419-0.10203 0.10221v4.4375c0 0.0602 0.041932 0.10108 0.10203 0.10108h8.32c0.060108 0 0.10203-0.0411 0.10203-0.10108v-4.4375c0-0.0602-0.041925-0.10221-0.10203-0.10221z" fill="#e8f1f5" opacity=".22"/>
 </g>
 <g transform="matrix(.75931 0 0 .75931 8.7431 -213.27)">
  <path d="m-8.7866 282.36c-0.52789 0-0.95467 0.42706-0.95467 0.95466v5.5523c0-0.52793 0.42677-0.95467 0.95467-0.95467h26.502c0.5279 0 0.95174 0.42674 0.95174 0.95467v-2.9636c0-0.52781-0.42387-0.9517-0.95174-0.9517h-14.522l-3.11-2.5917z" fill="none"/>
  <g stroke-linecap="round" stroke-linejoin="round">
   <path d="m-8.7889 281.74c-0.86432 0-1.5798 0.71545-1.5798 1.5798v19.681c0 0.86425 0.71542 1.5797 1.5798 1.5797h18.387a7.5478 7.5478 0 0 1-1.3869-1.2569h-16.994c-0.00232 0-0.0042 4e-5 -0.0065 0-0.19147 0-0.32505-0.13141-0.32505-0.32285v-14.129c0-0.19178 0.13359-0.32505 0.32505-0.32505 0.0023-6e-5 0.00418 0 0.0065 0h26.494c0.04784 0 0.09059 0.0112 0.13002 0.0212 0.12162 0.0452 0.19937 0.15489 0.19937 0.30122v3.2028a7.5478 7.5478 0 0 1 1.2569 1.0764v-7.2421c0-0.86427-0.71761-1.5776-1.5819-1.5776h-14.294l-2.9385-2.4477a0.62692 0.62692 0 0 0-0.40306-0.14084zm0 1.2547h8.6442l2.9363 2.4422a0.62692 0.62692 0 0 0 0.39873 0.14962h14.525c0.19148 0 0.32505 0.12935 0.32505 0.32078v1.4497c-0.10812-0.0212-0.21036-0.065-0.32505-0.065h-26.505c-0.1147 0-0.21693 0.041-0.32505 0.065v-4.0372c0-0.19124 0.13359-0.32505 0.32505-0.32505z" fill="#f6f9fb" stroke-width="1.2537"/>
   <path d="m8.2113 303.32a7.5478 7.5478 0 0 1-1.9113-4.9733 7.5478 7.5478 0 0 1 7.5477-7.5477 7.5478 7.5478 0 0 1 4.1867 1.2677v-3.1985c0-0.19178-0.1315-0.32505-0.32288-0.32505h-26.494c-0.19137 0-0.32288 0.13318-0.32288 0.32505v14.129c0 0.19177 0.13151 0.32285 0.32288 0.32285z" fill="#e8f1f5" opacity=".22" stroke-width="1.2534"/>
   <path d="m13.848 292.11a6.2308 6.2308 0 0 0-6.2302 6.2324 6.2308 6.2308 0 0 0 6.2302 6.2302 6.2308 6.2308 0 0 0 6.2302-6.2302 6.2308 6.2308 0 0 0-6.2302-6.2324zm-0.94482 1.3891c0.52101 6e-4 0.94414 0.38525 0.94482 0.85813v4.7956c0.99094-0.0127 1.9813-0.0267 2.9753-0.0367a0.94508 0.94508 0 0 1 0.95349 0.93394 0.94508 0.94508 0 0 1-0.93398 0.96219c-1.3208 0.0161-2.6423 0.035-3.9678 0.0497a0.94508 0.94508 0 0 1-0.0065 0c-0.0044 3e-5 -0.0086 3e-5 -0.01307 0-0.09415-9.3e-4 -0.18318-0.0187-0.26871-0.0432a0.94508 0.94508 0 0 1-0.0043 0 0.94508 0.94508 0 0 0-0.0021-3e-3c-0.38436-0.11146-0.66258-0.436-0.65877-0.82129v-0.0652a0.94508 0.94508 0 0 0 0-3e-3 0.94508 0.94508 0 0 0 0-3e-3l0.02818-5.7772c6e-3 -0.47271 0.43245-0.85254 0.95348-0.84947z" fill="#f6f9fb" opacity=".71458" stroke-miterlimit="1.8" stroke-width="1.425"/>
  </g>
 </g>
</svg>
