<svg width="36" height="36" version="1.1" viewBox="0 0 307.19 307.19" xmlns="http://www.w3.org/2000/svg">
 <g transform="matrix(1.1667 0 0 1.1667 25.599 14.222)" fill="#fff" stroke-width=".85714">
  <path d="m29.256 57.294v109.71h65.827c0 4.0375 3.2766 7.3141 7.3141 7.3141h21.942c4.0375 0 7.3141-3.2766 7.3141-7.3141h58.527l-0.0143-109.71z" fill-opacity=".12" stroke-miterlimit="10"/>
  <path d="m29.256 42.666c-8.0677 0-14.628 6.5605-14.628 14.628v109.71c0 2.677 0.77046 5.1564 2.0285 7.3141h-16.657v7.3141c0 8.0823 6.5459 14.628 14.628 14.628h190.17c8.0823 0 14.628-6.5459 14.628-14.628v-7.3141h-16.657c1.2581-2.1577 2.0285-4.6371 2.0285-7.3141v-109.71c0-8.0677-6.5605-14.628-14.628-14.628zm0 14.628h160.91l0.0143 109.71h-58.527c0 4.0375-3.2766 7.3141-7.3141 7.3141h-21.942c-4.0375 0-7.3141-3.2766-7.3141-7.3141h-65.827z" fill-opacity=".8"/>
 </g>
</svg>
