<svg width="97" height="97" version="1.1" xml:space="preserve" xmlns="http://www.w3.org/2000/svg">
  <path d="m84.587 45.159-32.746-32.744c-1.8855-1.8862-4.9438-1.8862-6.8309 0l-6.7991 6.8006 8.6248 8.6248c2.0046-0.67746 4.303-0.22282 5.9003 1.3754 1.6071 1.608 2.0577 3.9259 1.3631 5.9378l8.314 8.313c2.012-0.69378 4.3316-0.24486 5.9378 1.3639 2.2445 2.2445 2.2445 5.8817 0 8.1278-2.2461 2.2455-5.8832 2.2455-8.1302 0-1.688-1.6896-2.1058-4.1707-1.2496-6.2505l-7.754-7.7532v20.404c0.54686 0.27098 1.0635 0.63175 1.5189 1.0872 2.2445 2.2445 2.2445 5.8817 0 8.1286-2.2445 2.2437-5.8841 2.2437-8.127 0-2.2445-2.2479-2.2445-5.8849 0-8.1286 0.55503-0.55421 1.1974-0.97368 1.8831-1.2545v-20.593c-0.68562-0.28078-1.3263-0.69622-1.8831-1.2545-1.7002-1.6993-2.1091-4.1954-1.2374-6.2831l-8.5024-8.5041-22.455 22.452c-1.8862 1.8879-1.8862 4.9462 0 6.8325l32.748 32.745c1.8855 1.8862 4.9428 1.8862 6.8309 0l32.593-32.593c1.8862-1.8862 1.8862-4.9462 0-6.8325z" fill="#e8554a" stroke-width=".81622"/>
</svg>
