<!-- Uploaded to: SVG Repo, www.svgrepo.com, Generator: SVG Repo Mixer Tools -->
<svg width="800px" height="800px" data-name="Layer 1" version="1.1" viewBox="0 0 24 24" xmlns="http://www.w3.org/2000/svg">
 <defs>
  <style>.cls-1{fill:none;stroke:#020202;stroke-miterlimit:10;stroke-width:1.91px;}</style>
 </defs>
 <g transform="matrix(.93621 0 0 .93621 1.6596 1.066)" fill="#969696">
  <g transform="matrix(.85765 0 0 .85765 1.5723 1.6625)" stroke-miterlimit="10">
   <path d="m0.54489 0.54494v20.051h10.494v-1.9102h-8.584v-10.5h-0.95504v-1.9102h1.332e-4v-1.332e-4h0.9549v-3.8202h17.18v3.8202h0.95504v1.332e-4h-0.95504v-1.332e-4h-17.18v1.332e-4h-0.9549v1.9101h19.09v1.332e-4h-0.95504v0.9551h1.9102v-8.5957z"/>
   <path d="m4.3594 3.4043v1.9102h1.9102v-1.9102z"/>
   <path d="m8.1797 3.4043v1.9102h1.9102v-1.9102z"/>
  </g>
  <path d="m16.765 11.646c-0.69515 0-1.2935 0.12759-1.7951 0.38278-0.49276 0.25518-0.88432 0.60715-1.1747 1.0559-0.29038 0.44877-0.46195 0.96357-0.51474 1.5443l1.7686 0.07916c0.0616-0.52796 0.23316-0.92832 0.51474-1.201 0.28158-0.27273 0.68198-0.40916 1.2011-0.40916 0.44877 0 0.79194 0.11876 1.0295 0.35634 0.24638 0.23758 0.36956 0.54116 0.36956 0.91074 0 0.22879-0.03077 0.42238-0.09237 0.58077-0.05279 0.14959-0.16282 0.2948-0.33001 0.43559-0.16719 0.13199-0.41354 0.28599-0.73912 0.46197-0.46636 0.25518-0.80076 0.57196-1.0031 0.95036-0.19359 0.36958-0.29036 0.89307-0.29036 1.5706h1.6895c0-0.43117 0.06159-0.76115 0.18478-0.9899 0.13198-0.22879 0.36077-0.43996 0.68635-0.63354 0.38717-0.23759 0.69958-0.46196 0.93715-0.67313 0.24638-0.21999 0.42673-0.46197 0.54112-0.72595 0.11439-0.26398 0.17162-0.58959 0.17162-0.97678 0-0.51916-0.12759-0.98106-0.38278-1.3859-0.24639-0.41358-0.60276-0.73914-1.0691-0.97669-0.46637-0.23759-1.0339-0.3564-1.7027-0.3564zm-1.1747 7.7347v1.8479h1.9271v-1.8479z" stop-color="#000000" stroke-width=".85765"/>
 </g>
</svg>
