<svg width="24" height="24" fill="none" version="1.1" viewBox="0 0 24 24" xmlns="http://www.w3.org/2000/svg">
 <path d="m8.3826 7.3182h2.1278v7.0994c0 0.6563-0.1475 1.2263-0.4425 1.7102-0.29165 0.4839-0.69766 0.8568-1.218 1.1186-0.52036 0.2619-1.1252 0.3928-1.8146 0.3928-0.61317 0-1.17-0.1077-1.6705-0.3231-0.49716-0.2188-0.89157-0.5502-1.1832-0.9944-0.29166-0.4474-0.43584-1.0092-0.43253-1.6853h2.1428c0.00663 0.2684 0.06132 0.4988 0.16406 0.691 0.10606 0.1889 0.25024 0.3348 0.43253 0.4375 0.18561 0.0994 0.40436 0.1492 0.65625 0.1492 0.26515 0 0.48887-0.0564 0.67116-0.1691 0.18561-0.116 0.32647-0.285 0.42259-0.5071 0.09612-0.222 0.14418-0.4955 0.14418-0.8203v-7.0994zm9.4312 2.9282c-0.0398-0.40099-0.2105-0.71255-0.5121-0.93461-0.3016-0.22207-0.711-0.3331-1.228-0.3331-0.3513 0-0.648 0.04972-0.8899 0.14915-0.242 0.09612-0.4276 0.23035-0.5568 0.4027-0.126 0.17235-0.189 0.3679-0.189 0.58666-0.0066 0.1823 0.0315 0.3414 0.1144 0.4773 0.0862 0.1359 0.2038 0.2535 0.353 0.3529 0.1491 0.0962 0.3215 0.1807 0.517 0.2536 0.1956 0.0696 0.4044 0.1293 0.6264 0.179l0.9148 0.2187c0.4441 0.0995 0.8518 0.232 1.223 0.3977 0.3712 0.1658 0.6927 0.3696 0.9645 0.6116 0.2718 0.2419 0.4823 0.5269 0.6314 0.8551 0.1525 0.3281 0.2304 0.7043 0.2337 1.1285-0.0033 0.6231-0.1624 1.1634-0.4773 1.6208-0.3116 0.454-0.7623 0.807-1.3523 1.0589-0.5866 0.2486-1.2942 0.3729-2.1228 0.3729-0.822 0-1.5379-0.126-2.1478-0.3779-0.6065-0.2519-1.0805-0.6247-1.4218-1.1186-0.3381-0.4971-0.5154-1.112-0.532-1.8444h2.0831c0.0232 0.3413 0.121 0.6264 0.2933 0.8551 0.1757 0.2254 0.4093 0.3961 0.701 0.5121 0.295 0.1126 0.6281 0.169 0.9993 0.169 0.3646 0 0.6811-0.053 0.9496-0.1591 0.2718-0.1061 0.4822-0.2536 0.6314-0.4425 0.1491-0.1889 0.2237-0.406 0.2237-0.6513 0-0.2286-0.068-0.4209-0.2039-0.5767-0.1325-0.1557-0.3281-0.2883-0.5866-0.3977-0.2552-0.1094-0.5684-0.2088-0.9396-0.2983l-1.1087-0.2784c-0.8584-0.2088-1.5362-0.5353-2.0334-0.9794-0.4971-0.4441-0.7441-1.0424-0.7407-1.7947-0.0034-0.61651 0.1607-1.1551 0.4921-1.6158 0.3348-0.4607 0.7938-0.82032 1.3772-1.0788 0.5833-0.25852 1.2462-0.38778 1.9886-0.38778 0.7557 0 1.4153 0.12926 1.9787 0.38778 0.5668 0.25852 1.0076 0.61814 1.3224 1.0788 0.3149 0.4607 0.4773 0.99431 0.4873 1.6008z" fill="#ffc347"/>
</svg>
