<!-- Uploaded to: SVG Repo, www.svgrepo.com, Generator: SVG Repo Mixer Tools -->
<svg width="800px" height="800px" version="1.1" viewBox="0 0 512 512" xmlns="http://www.w3.org/2000/svg" xmlns:cc="http://creativecommons.org/ns#" xmlns:dc="http://purl.org/dc/elements/1.1/" xmlns:rdf="http://www.w3.org/1999/02/22-rdf-syntax-ns#">
 <title>database-filled</title>
 <g fill="#ff7e82" fill-rule="evenodd">
  <g id="icon" transform="translate(85.333 64)" fill="#ff7e82">
   <path id="Combined-Shape" d="m341.33 234.67v64c0 47.128-76.41 85.333-170.67 85.333-92.162 0-167.26-36.526-170.55-82.205l-0.11256-3.1283v-64l0.11256 3.1283c3.2923 45.679 78.392 82.205 170.55 82.205 94.257 0 170.67-38.205 170.67-85.333zm-341.22-103.54c3.2923 45.679 78.392 82.205 170.55 82.205 94.257 0 170.67-38.205 170.67-85.333v64l-0.022864 1.4111c-1.5071 46.477-77.33 83.922-170.64 83.922-92.162 0-167.26-36.526-170.55-82.205l-0.11256-3.1283v-64zm170.55-131.13c92.162 0 167.26 36.526 170.55 82.205l0.11256 3.1283-0.022864 1.4111c-1.5071 46.477-77.33 83.922-170.64 83.922-92.162 0-167.26-36.526-170.55-82.205l-0.11256-3.1283c0-47.128 76.41-85.333 170.67-85.333z" fill="#ff7e82"/>
  </g>
 </g>
 <metadata>
  <rdf:RDF>
   <cc:Work rdf:about="">
    <dc:title>database-filled</dc:title>
   </cc:Work>
  </rdf:RDF>
 </metadata>
</svg>
