<!-- Uploaded to: SVG Repo, www.svgrepo.com, Generator: SVG Repo Mixer Tools -->
<svg width="800px" height="800px" version="1.1" viewBox="0 0 100 100" xmlns="http://www.w3.org/2000/svg">
 <path d="m84.747 82.835c-5.0515 0-5.7732-0.72165-9.3814-9.3814l-24.536-58.454h-2.1649l-20.928 51.237c-6.4948 15.155-7.7217 16.598-12.485 16.598v2.1649h19.701v-2.1649c-4.3299 0-6.4948-0.72165-6.4948-3.6082 0-1.4433 0-3.6082 0.72165-5.0515l4.3299-11.546h26.701l3.6082 9.3814c1.4433 3.6082 2.1649 6.4948 2.1649 7.9381 0 2.1649-1.4433 2.8866-7.2165 2.8866v2.1649h25.979v-2.1649m-49.072-24.536 11.546-28.866 11.546 28.866h-23.093" fill="#dadada" stroke-width=".72165"/>
</svg>
