<svg width="24" height="24" fill="none" version="1.1" viewBox="0 0 24 24" xmlns="http://www.w3.org/2000/svg">
 <path d="m7.2639 4.2501h1.7222v1.7222h-1.7222v4.3055c-2.4e-6 0.95116-0.77106 1.7222-1.7222 1.7222 0.95116 2e-6 1.7222 0.77106 1.7222 1.7222v4.3056h1.7222v1.7222h-1.7222c-0.92138-0.2325-1.7222-0.775-1.7222-1.7222v-3.4445c-2.4e-6 -0.95116-0.77106-1.7222-1.7222-1.7222h-0.86112v-1.7222h0.86112c0.95116-2e-6 1.7222-0.77106 1.7222-1.7222v-3.4445c2.2e-6 -0.95116 0.77106-1.7222 1.7222-1.7222m9.4722 0c0.95116 2.3e-6 1.7222 0.77106 1.7222 1.7222v3.4445c3e-6 0.95116 0.77106 1.7222 1.7222 1.7222h0.86112v1.7222h-0.86112c-0.95116 0-1.7222 0.77106-1.7222 1.7222v3.4445c-2e-6 0.95116-0.77106 1.7222-1.7222 1.7222h-1.7222v-1.7222h1.7222v-4.3056c2e-6 -0.95116 0.77106-1.7222 1.7222-1.7222-0.95116-4e-6 -1.7222-0.77106-1.7222-1.7222v-4.3055h-1.7222v-1.7222h1.7222" fill="#f59e0b" stroke-width=".86111"/>
</svg>
