<?xml version="1.0" encoding="UTF-8" standalone="no"?>
<svg
   width="287"
   height="107"
   version="1.1"
   id="svg2"
   sodipodi:docname="wordmark.svg"
   inkscape:version="1.4 (e7c3feb100, 2024-10-09)"
   xmlns:inkscape="http://www.inkscape.org/namespaces/inkscape"
   xmlns:sodipodi="http://sodipodi.sourceforge.net/DTD/sodipodi-0.dtd"
   xmlns="http://www.w3.org/2000/svg"
   xmlns:svg="http://www.w3.org/2000/svg">
  <sodipodi:namedview
     id="namedview2"
     pagecolor="#505050"
     bordercolor="#eeeeee"
     borderopacity="1"
     inkscape:showpageshadow="0"
     inkscape:pageopacity="0"
     inkscape:pagecheckerboard="0"
     inkscape:deskcolor="#505050"
     inkscape:zoom="3.9756098"
     inkscape:cx="143.5"
     inkscape:cy="53.45092"
     inkscape:window-width="1920"
     inkscape:window-height="1015"
     inkscape:window-x="0"
     inkscape:window-y="0"
     inkscape:window-maximized="1"
     inkscape:current-layer="svg2" />
  <g
     clip-path="url(#a)"
     id="g1">
    <path
       d="M68.014 97.942c-26.4 0-40.947-3.678-41.6-4.495a1050.447 1050.447 0 0 1 0-68.081c.653-.735 15.12-3.433 41.6-3.433 24.6 0 33.999 9.072 33.999 19.943 0 7.028-4.25 13.403-12.75 17.081v1.226c10.217.736 15.202 7.437 15.202 15.038 0 11.688-11.85 22.721-36.451 22.721ZM51.259 55.606l15.937.082c5.231-.817 8.746-3.678 8.746-8.091 0-5.558-4.169-8.582-11.606-8.582-6.375 0-11.197 1.062-12.995 2.452-.082 4.659-.082 9.48-.082 14.14Zm13.159 23.457c7.437 0 11.932-3.351 11.932-9.072 0-4.659-3.678-7.438-9.154-7.601l-15.937-.082c0 4.74 0 9.48.082 14.14 1.716 1.47 6.62 2.615 13.077 2.615Zm116.861-42.909c.654 19.86.654 38.74 0 58.192-7.519 1.226-15.528 1.226-23.047 0l-2.289-13.812h-1.471c-2.942 12.014-9.317 15.774-19.207 15.774-20.023 0-23.701-16.346-23.701-36.452 0-5.067.163-12.014.163-23.702a90.967 90.967 0 0 1 26.644 0V65.25c0 8.337 4.25 11.442 9.317 11.442 3.596 0 7.356-1.798 9.236-4.822V36.154a76.09 76.09 0 0 1 24.355 0Zm10.109 58.192c-.654-19.86-.654-38.74 0-58.192 7.519-1.226 15.528-1.226 23.048 0l2.288 13.813h1.471c2.942-12.014 9.317-15.774 19.207-15.774 20.024 0 23.701 16.346 23.701 36.451 0 5.068-.163 12.015-.163 23.702a90.974 90.974 0 0 1-26.644 0V65.25c0-8.336-4.25-11.442-9.317-11.442-3.596 0-7.356 1.798-9.236 4.822v35.716a76.095 76.095 0 0 1-24.355 0Z"
       id="path1"
       style="fill:#fbf0df;fill-opacity:1" />
  </g>
  <defs
     id="defs2">
    <clipPath
       id="a">
      <path
         d="M0 0h287v107H0z"
         id="path2" />
    </clipPath>
  </defs>
</svg>
