<svg width="435" height="435" fill="none" version="1.1" viewBox="0 0 435 435" xmlns="http://www.w3.org/2000/svg">
 <g transform="matrix(.94928 0 0 .94765 4.0017 10.289)">
  <path d="m384.17 143.03c-0.819-0.894-1.69-1.787-2.561-2.628-0.871-0.842-1.69-1.788-2.561-2.629s-1.691-1.787-2.562-2.629c-0.87-0.841-1.69-1.787-2.561-2.628s-1.69-1.788-2.561-2.629-1.691-1.787-2.562-2.628c-0.87-0.841-1.69-1.788-2.561-2.629 25.409 25.627 39.966 60.49 40.52 97.047 0 87.111-86.162 157.98-192.1 157.98-59.32 0-112.39-22.238-147.69-57.092l2.5613 2.628 2.5613 2.629 2.5613 2.628 2.5613 2.629 2.5613 2.628 2.5614 2.629 2.5613 2.629c35.243 36.326 89.492 59.721 150.25 59.721 105.94 0 192.1-70.867 192.1-157.72 0-37.115-15.573-72.285-43.082-99.938z" fill="#000"/>
  <path d="m393.95 221.68c0 79.961-80.271 144.78-179.29 144.78-99.021 0-179.29-64.821-179.29-144.78 0-49.575 30.736-93.367 77.966-119.34 47.231-25.97 76.635-52.572 101.33-52.572s45.796 21.712 101.32 52.572c47.231 25.97 77.966 69.762 77.966 119.34z" fill="#fbf0df"/>
  <path d="m393.95 221.68c-0.025-10.272-1.403-20.493-4.098-30.386-13.985 175.06-222.06 183.47-303.87 131.11 36.776 29.252 82.157 44.789 128.68 44.055 98.866 0 179.29-64.926 179.29-144.78z" fill="#f6dece"/>
  <path d="m145.66 92.722c22.898-14.089 53.326-40.533 83.243-40.585-4.603-1.5267-9.405-2.3245-14.241-2.3658-12.397 0-25.613 6.5715-42.262 16.455-5.789 3.4697-11.782 7.3074-18.134 11.303-11.936 7.5702-25.613 16.139-40.981 24.709-48.768 27.074-77.915 71.707-77.915 119.44v6.256c31.043-112.56 87.443-121.12 110.29-135.21z" fill="#fffefc"/>
  <path d="m199.91 63.072c0.072 12.413-2.467 24.696-7.445 36.01-4.977 11.314-12.275 21.392-21.395 29.547-1.434 1.314-0.307 3.837 1.537 3.101 17.263-6.887 40.571-27.495 30.736-69.079-0.41-2.3657-3.433-1.7348-3.433 0.4206zm11.629 0c6.268 10.496 10.25 22.258 11.673 34.481 1.424 12.223 0.255 24.617-3.426 36.333-0.615 1.84 1.588 3.417 2.818 1.892 11.218-14.72 21.002-43.949-8.299-75.492-1.486-1.3668-3.791 0.736-2.766 2.576zm14.138-0.8937c9.816 7.1316 18.027 16.34 24.08 27.005 6.054 10.665 9.808 22.538 11.01 34.818-0.052 0.443 0.064 0.889 0.324 1.246s0.644 0.598 1.072 0.672c0.429 0.074 0.868-0.023 1.228-0.273 0.36-0.249 0.613-0.631 0.706-1.066 4.713-18.348 2.049-49.628-36.729-65.872-2.049-0.8412-3.381 1.9977-1.691 3.2594zm-94.563 54.675c11.675-3.58 22.486-9.644 31.727-17.796 9.241-8.152 16.705-18.21 21.906-29.519 0.923-1.8926 3.842-1.1566 3.381 0.9463-8.862 42.057-38.522 50.836-56.963 49.68-1.947 0.052-1.895-2.734-0.051-3.312z" clip-rule="evenodd" fill="#ccbea7" fill-rule="evenodd"/>
  <path d="m214.66 379.66c-105.94 0-192.1-70.866-192.1-157.98 0-52.571 31.658-101.62 84.677-131.01 15.368-8.4114 28.533-16.875 40.264-24.288 6.455-4.1006 12.55-7.9383 18.442-11.513 17.98-10.935 33.348-18.242 48.716-18.242s28.789 6.3085 45.591 16.507c5.123 2.9966 10.245 6.256 15.726 9.8309 12.756 8.096 27.15 17.243 46.104 27.705 53.019 29.387 84.677 78.384 84.677 131.01 0 87.111-86.162 157.98-192.1 157.98zm0-329.89c-12.397 0-25.613 6.5715-42.262 16.455-5.789 3.4697-11.782 7.3074-18.134 11.303-11.936 7.5703-25.613 16.139-40.981 24.709-48.767 27.074-77.915 71.707-77.915 119.44 0 79.856 80.425 144.84 179.29 144.84 98.866 0 179.29-64.979 179.29-144.84 0-47.735-29.147-92.368-77.966-119.34-19.363-10.514-34.475-20.398-46.718-28.178-5.584-3.5223-10.706-6.7817-15.368-9.6732-15.522-9.4628-26.843-14.72-39.239-14.72z" fill="#000"/>
  <path d="m250.77 260.06c-2.301 9.673-7.54 18.344-14.958 24.761-5.57 5.541-12.78 9.019-20.491 9.884-7.942-0.728-15.405-4.215-21.156-9.884-7.343-6.447-12.507-15.115-14.753-24.761-0.075-0.572-0.02-1.155 0.159-1.703 0.178-0.548 0.477-1.046 0.873-1.457 0.395-0.411 0.877-0.724 1.409-0.914 0.531-0.19 1.098-0.253 1.657-0.184h63.213c0.555-0.061 1.116 9e-3 1.641 0.203s1 0.508 1.39 0.918c0.389 0.41 0.683 0.905 0.859 1.449 0.176 0.543 0.23 1.12 0.157 1.688z" fill="#b71422"/>
  <path d="m194.17 285.24c5.739 5.672 13.175 9.192 21.105 9.988 7.912-0.808 15.329-4.326 21.054-9.988 1.832-1.752 3.543-3.632 5.123-5.625-3.156-3.674-7.011-6.647-11.327-8.735-4.317-2.089-9.004-3.249-13.774-3.409-5.104 0.124-10.101 1.519-14.563 4.065s-8.254 6.166-11.05 10.55c1.178 1.104 2.203 2.155 3.432 3.154z" fill="#ff6164"/>
  <path d="m194.99 281.09c2.539-3.369 5.79-6.104 9.508-7.998 3.718-1.893 7.805-2.898 11.956-2.937 7.671 0.232 14.98 3.401 20.49 8.884 1.178-1.314 2.305-2.681 3.381-4.048-6.517-6.369-15.129-9.991-24.128-10.146-4.808 0.043-9.548 1.177-13.879 3.322s-8.146 5.248-11.17 9.085c1.211 1.35 2.494 2.632 3.842 3.838z" fill="#000"/>
  <path d="m215.12 297.86c-8.536-0.767-16.569-4.473-22.796-10.514-7.93-6.883-13.511-16.184-15.931-26.549-0.174-0.922-0.144-1.873 0.086-2.783 0.23-0.909 0.656-1.755 1.246-2.474 0.702-0.87 1.588-1.564 2.591-2.028 1.004-0.465 2.097-0.688 3.197-0.653h63.213c1.099-0.024 2.189 0.205 3.19 0.669 1.002 0.463 1.889 1.151 2.599 2.012 0.584 0.722 1.002 1.569 1.224 2.479 0.221 0.91 0.241 1.86 0.056 2.778-2.42 10.365-8.001 19.666-15.931 26.549-6.213 6.031-14.226 9.735-22.744 10.514zm-31.607-38.903c-0.82 0-1.024 0.368-1.076 0.473 2.166 8.988 7.064 17.035 13.985 22.974 5.061 5.117 11.641 8.355 18.698 9.2 7.038-0.836 13.611-4.033 18.697-9.095 6.9-5.949 11.779-13.994 13.934-22.973-0.112-0.169-0.267-0.302-0.448-0.385-0.18-0.084-0.38-0.114-0.577-0.089z" fill="#000"/>
  <path d="m292.63 263.32c16.551 0 29.967-8.097 29.967-18.085s-13.416-18.085-29.967-18.085c-16.55 0-29.967 8.097-29.967 18.085s13.417 18.085 29.967 18.085z" fill="#febbd0"/>
  <path d="m137.56 263.32c16.551 0 29.968-8.097 29.968-18.085s-13.417-18.085-29.968-18.085c-16.55 0-29.967 8.097-29.967 18.085s13.417 18.085 29.967 18.085z" fill="#febbd0"/>
  <path d="m151.65 237.98c5.585 0.011 11.047-1.679 15.696-4.856 4.648-3.177 8.274-7.697 10.418-12.989s2.711-11.118 1.627-16.741c-1.083-5.622-3.767-10.788-7.713-14.845-3.945-4.056-8.974-6.82-14.451-7.942s-11.154-0.551-16.315 1.639c-5.16 2.191-9.572 5.904-12.675 10.669-3.104 4.764-4.761 10.367-4.761 16.098 0 7.674 2.967 15.034 8.249 20.464 5.282 5.431 12.448 8.489 19.925 8.503zm126.89 0c5.591 0.042 11.068-1.622 15.737-4.779 4.668-3.158 8.318-7.667 10.486-12.956 2.167-5.289 2.756-11.12 1.69-16.753s-3.738-10.814-7.677-14.886-8.968-6.852-14.449-7.987c-5.481-1.134-11.166-0.573-16.336 1.613-5.169 2.186-9.59 5.899-12.7 10.667-3.111 4.768-4.772 10.376-4.772 16.114-0.014 7.651 2.928 14.995 8.18 20.424 5.252 5.43 12.386 8.501 19.841 8.543z" clip-rule="evenodd" fill="#000" fill-rule="evenodd"/>
  <path d="m142.94 210.85c2.099 0.011 4.155-0.619 5.905-1.808 1.751-1.19 3.118-2.885 3.928-4.873 0.811-1.987 1.028-4.177 0.625-6.292-0.404-2.114-1.41-4.058-2.891-5.585s-3.37-2.569-5.428-2.993c-2.059-0.424-4.193-0.212-6.134 0.61-1.94 0.822-3.599 2.217-4.767 4.008-1.167 1.79-1.791 3.896-1.791 6.051 0 2.877 1.11 5.637 3.088 7.676 1.978 2.04 4.662 3.192 7.465 3.206zm126.89 0c2.1 0.011 4.155-0.619 5.905-1.808 1.751-1.19 3.118-2.885 3.929-4.873 0.81-1.987 1.027-4.177 0.624-6.292-0.403-2.114-1.409-4.058-2.89-5.585s-3.37-2.569-5.429-2.993c-2.058-0.424-4.193-0.212-6.133 0.61-1.941 0.822-3.6 2.217-4.768 4.008-1.167 1.79-1.79 3.896-1.79 6.051 0 2.859 1.096 5.603 3.051 7.64 1.956 2.036 4.613 3.201 7.399 3.242z" clip-rule="evenodd" fill="#fff" fill-rule="evenodd"/>
 </g>
</svg>
