<svg width="24px" height="24px" version="1.1" viewBox="0 0 256 256" xmlns="http://www.w3.org/2000/svg">
 <g transform="matrix(.96664 0 0 .96664 4.2667 4.2667)" fill="#f46262" font-family="none" font-size="none" font-weight="none" stroke-miterlimit="10" text-anchor="none" style="mix-blend-mode:normal">
  <g transform="scale(10.667)" fill="#f46262">
   <path d="m12 3c-4.971 0-9 1-9 2.606v2.394c0 2 4.029 3 9 3s9-1 9-3v-2.394c0-1.606-4.029-2.606-9-2.606z"/>
   <path d="m12 13c-3.712 0-6.899-0.749-8.275-1.462-0.334-0.173-0.725 0.065-0.725 0.442v1.02c0 2 4.029 3 9 3s9-1 9-3v-1.02c0-0.376-0.391-0.615-0.725-0.442-1.376 0.713-4.563 1.462-8.275 1.462z"/>
   <path d="m12 18c-3.712 0-6.899-0.749-8.275-1.462-0.334-0.173-0.725 0.065-0.725 0.442v1.02c0 2 4.029 3 9 3s9-1 9-3v-1.02c0-0.376-0.391-0.615-0.725-0.442-1.376 0.713-4.563 1.462-8.275 1.462z"/>
  </g>
 </g>
</svg>
