<?xml version="1.0" encoding="UTF-8"?>
<svg width="22" height="22" version="1.1" xmlns="http://www.w3.org/2000/svg">
 <path d="m17.778 2.1284c0.07875 0.059478 0.14259 0.13643 0.18658 0.22479 0.04393 0.088361 0.06683 0.18572 0.06671 0.28441v11.946c-1.13e-4 0.55412-0.18068 1.0932-0.51446 1.5355-0.33373 0.44235-0.80246 0.76393-1.3353 0.91614l-1.1221 0.32051c-0.27529 0.08258-0.56424 0.10974-0.8501 0.07976-0.28586-0.02998-0.56289-0.11638-0.81506-0.25431-0.25217-0.13787-0.47447-0.32451-0.65391-0.549-0.17949-0.22449-0.31258-0.4824-0.39156-0.75876-0.07897-0.27636-0.10226-0.56565-0.06857-0.85106 0.03375-0.28541 0.12381-0.56132 0.26505-0.81163 0.14119-0.25037 0.33075-0.47014 0.55761-0.64665 0.22686-0.17646 0.48645-0.30611 0.76388-0.38149l1.9645-0.56104c0.2664-0.07611 0.50079-0.23692 0.66763-0.45804 0.16689-0.22118 0.25718-0.49072 0.25723-0.76776v-4.7256l-7.6507 2.1864v8.2773c-1.69e-4 0.55412-0.18073 1.0932-0.51449 1.5355-0.33375 0.44235-0.80251 0.76393-1.3353 0.91614l-1.1221 0.32046c-0.27563 0.083757-0.56517 0.11182-0.85175 0.082519-0.28658-0.029306-0.56445-0.11537-0.81742-0.25318-0.25297-0.13781-0.47597-0.32462-0.656-0.54951-0.18004-0.22489-0.3135-0.48336-0.39261-0.76033-0.07911-0.27703-0.10228-0.567-0.068164-0.85303s0.12484-0.56244 0.26687-0.81304c0.14204-0.25065 0.33254-0.47047 0.56042-0.6467 0.22787-0.17623 0.48855-0.30532 0.76684-0.3798l1.9637-0.56104c0.26641-0.07611 0.50078-0.23692 0.66766-0.4581 0.16688-0.22112 0.25718-0.49067 0.25723-0.7677v-8.7585c2.81e-5 -0.13853 0.04518-0.27329 0.12862-0.38387 0.083441-0.11059 0.20063-0.19099 0.33383-0.22904l8.9259-2.5503c0.09489-0.027199 0.19479-0.031988 0.29188-0.01399 0.09703 0.017998 0.18861 0.05829 0.26747 0.1177z" clip-rule="evenodd" fill="#ff4765" fill-rule="evenodd" stroke-width=".5625"/>
</svg>
