<!-- Uploaded to: SVG Repo, www.svgrepo.com, Generator: SVG Repo Mixer Tools -->
<svg width="800px" height="800px" preserveAspectRatio="xMidYMid" version="1.1" viewBox="0 0 256 256" xmlns="http://www.w3.org/2000/svg">
 <g transform="matrix(.8633 0 0 .8633 17.603 17.404)">
  <path d="m245.24 153.52c14.011-14.011 14.011-36.811-4.5e-4 -50.823-6.7872-6.7876-15.812-10.525-25.411-10.525-2.2792 0-4.5233 0.20777-6.7119 0.61746 9.5383-6.5244 15.719-17.495 15.719-29.695 0-19.816-16.121-35.937-35.937-35.937-12.224 0-23.214 6.2057-29.733 15.776 2.1571-11.377-1.2264-23.537-9.8695-32.18-6.7872-6.7876-15.812-10.526-25.411-10.526-9.5991 0-18.624 3.7381-25.411 10.526-8.6436 8.6432-12.027 20.803-9.8695 32.18-6.5194-9.5703-17.51-15.776-29.733-15.776-19.816 0-35.937 16.121-35.937 35.937 0 12.2 6.1805 23.17 15.719 29.694-2.1886-0.40924-4.4318-0.61701-6.7114-0.61701-9.5991 0-18.624 3.7381-25.411 10.526-6.7876 6.7876-10.526 15.813-10.526 25.411 0 9.5991 3.7381 18.624 10.526 25.412 6.7876 6.7872 15.813 10.525 25.411 10.525 2.2792 0 4.5224-0.20777 6.7114-0.61746-9.5383 6.5244-15.719 17.495-15.719 29.695 0 19.816 16.121 35.936 35.937 35.936 12.224 0 23.214-6.2057 29.733-15.776-2.1571 11.378 1.2264 23.538 9.8695 32.181 6.7876 6.7872 15.813 10.525 25.411 10.525 9.5991 0 18.624-3.7381 25.411-10.526 8.6432-8.6432 12.026-20.804 9.8691-32.181 6.5194 9.5703 17.51 15.776 29.733 15.776 19.816 0 35.937-16.121 35.937-35.936 0-12.199-6.181-23.17-15.719-29.695 2.1886 0.40969 4.4322 0.61746 6.7114 0.61746 9.5991 0 18.624-3.7381 25.412-10.526"/>
  <path d="m234.39 113.54c-8.0491-8.0487-21.099-8.0487-29.148 0h-42.184l29.829-29.829c11.383 0 20.611-9.2277 20.611-20.611 0-11.383-9.2277-20.611-20.611-20.611-11.383 0-20.611 9.2282-20.611 20.611l-29.829 29.829v-42.184c8.0487-8.0491 8.0487-21.099-4.5e-4 -29.148-8.0491-8.0491-21.099-8.0491-29.148 0-8.0491 8.0491-8.0491 21.099 0 29.148v42.184l-29.829-29.829c0-11.383-9.2277-20.611-20.611-20.611-11.383 0-20.611 9.2282-20.611 20.611 0 11.383 9.2282 20.611 20.611 20.611l29.829 29.829h-42.184c-8.0496-8.0491-21.1-8.0487-29.149 4.5e-4s-8.0491 21.099 0 29.148c8.0491 8.0491 21.1 8.0491 29.149 0h42.184l-29.829 29.829c-11.383 0-20.611 9.2277-20.611 20.611 0 11.383 9.2282 20.611 20.611 20.611 11.383 0 20.611-9.2282 20.611-20.611l29.829-29.829v42.184c-8.0491 8.0491-8.0491 21.1 0 29.149 8.0491 8.0491 21.1 8.0491 29.149 0 8.0487-8.0491 8.0487-21.1 0-29.149v-42.184l29.829 29.829c0 11.383 9.2277 20.611 20.611 20.611 11.383 0 20.611-9.2282 20.611-20.611 0-11.383-9.2277-20.611-20.611-20.611l-29.829-29.829h42.184c8.0491 8.0491 21.099 8.0491 29.148 0 8.0491-8.0491 8.0491-21.1 0-29.149" fill="#18e79e"/>
 </g>
</svg>
