<svg width="128" height="128" version="1.1" viewBox="0 0 128 128" xmlns="http://www.w3.org/2000/svg" xmlns:cc="http://creativecommons.org/ns#" xmlns:dc="http://purl.org/dc/elements/1.1/" xmlns:rdf="http://www.w3.org/1999/02/22-rdf-syntax-ns#">
 <title>svelte-logo</title>
 <path d="m74.317 14.005c-5.1845 0.09994-10.343 1.5409-14.901 4.4451l-23.288 14.842a26.717 26.717 0 0 0-12.071 17.896 28.138 28.138 0 0 0 2.7745 18.064 26.791 26.791 0 0 0-3.997 9.984 28.472 28.472 0 0 0 4.8637 21.533c9.2875 13.291 27.629 17.229 40.887 8.7804l23.288-14.842a26.713 26.713 0 0 0 12.07-17.896 28.148 28.148 0 0 0-2.771-18.064 26.786 26.786 0 0 0 3.9935-9.984 28.464 28.464 0 0 0-4.8637-21.533c-6.0938-8.7217-16.086-13.416-25.984-13.225zm0.25112 11.404a18.498 18.498 0 0 1 16.146 7.9294 17.12 17.12 0 0 1 2.9262 12.95 16.429 16.429 0 0 1-0.5563 2.1746l-0.43946 1.3375-1.1928-0.87542a30.016 30.016 0 0 0-9.1098-4.5532l-0.86496-0.26332 0.07847-0.86322a5.2311 5.2311 0 0 0-0.93822-3.4633 5.5705 5.5705 0 0 0-5.978-2.2182 5.1294 5.1294 0 0 0-1.4317 0.62779l-23.288 14.842a4.8409 4.8409 0 0 0-2.1868 3.2419 5.1663 5.1663 0 0 0 0.88065 3.9028 5.5747 5.5747 0 0 0 5.9797 2.2199 5.1475 5.1475 0 0 0 1.43-0.62779l8.885-5.6641a16.945 16.945 0 0 1 4.7294-2.0787 18.498 18.498 0 0 1 19.854 7.3608 17.118 17.118 0 0 1 2.9262 12.948 16.07 16.07 0 0 1-7.2598 10.762l-23.286 14.84a16.968 16.968 0 0 1-4.7329 2.0804 18.498 18.498 0 0 1-19.854-7.3591 17.12 17.12 0 0 1-2.9262-12.95 16.24 16.24 0 0 1 0.5563-2.1746l0.43946-1.3375 1.1928 0.87716a30.039 30.039 0 0 0 9.1098 4.5515l0.86496 0.26158-0.07847 0.86496a5.2209 5.2209 0 0 0 0.93822 3.4616 5.5705 5.5705 0 0 0 5.978 2.2199 5.1294 5.1294 0 0 0 1.4317-0.62954l23.288-14.84a4.8488 4.8488 0 0 0 2.1886-3.2419 5.1739 5.1739 0 0 0-0.8824-3.9028 5.5747 5.5747 0 0 0-5.9797-2.2199 5.1274 5.1274 0 0 0-1.4282 0.62779l-8.8867 5.6658a16.994 16.994 0 0 1-4.7294 2.0752 18.498 18.498 0 0 1-19.854-7.3591 17.118 17.118 0 0 1-2.9262-12.948 16.061 16.061 0 0 1 7.2598-10.76l23.286-14.842a16.968 16.968 0 0 1 4.7329-2.0805 18.498 18.498 0 0 1 3.7074-0.57024z" fill="#a3a3a3" stroke-width=".89286"/>
 <metadata>
  <rdf:RDF>
   <cc:Work rdf:about="">
    <dc:title>svelte-logo</dc:title>
   </cc:Work>
  </rdf:RDF>
 </metadata>
</svg>
