<?xml version="1.0" encoding="UTF-8" standalone="no"?>
<svg
   width="64"
   height="64"
   fill="none"
   version="1.1"
   id="svg2"
   sodipodi:docname="text-eslint-config.svg"
   inkscape:version="1.4 (e7c3feb100, 2024-10-09)"
   xmlns:inkscape="http://www.inkscape.org/namespaces/inkscape"
   xmlns:sodipodi="http://sodipodi.sourceforge.net/DTD/sodipodi-0.dtd"
   xmlns="http://www.w3.org/2000/svg"
   xmlns:svg="http://www.w3.org/2000/svg">
  <defs
     id="defs2" />
  <sodipodi:namedview
     id="namedview2"
     pagecolor="#505050"
     bordercolor="#eeeeee"
     borderopacity="1"
     inkscape:showpageshadow="0"
     inkscape:pageopacity="0"
     inkscape:pagecheckerboard="0"
     inkscape:deskcolor="#505050"
     inkscape:zoom="10.03125"
     inkscape:cx="16.94704"
     inkscape:cy="24.772586"
     inkscape:window-width="1920"
     inkscape:window-height="1015"
     inkscape:window-x="0"
     inkscape:window-y="0"
     inkscape:window-maximized="1"
     inkscape:current-layer="svg2" />
  <g
     transform="matrix(.82759 0 0 .82759 4.2678 8)"
     id="g2">
    <path
       d="m46.557 21.11-12.54-7.24a1.014 1.014 0 0 0-1.015 0l-12.54 7.24a1.015 1.015 0 0 0-0.508 0.878v14.48c0 0.362 0.194 0.697 0.508 0.879l12.54 7.24c0.314 0.181 0.7 0.181 1.015 0l12.54-7.24c0.314-0.181 0.507-0.516 0.507-0.879v-14.48c0-0.363-0.193-0.697-0.507-0.879z"
       fill="#a0a0f5"
       id="path1"
       style="fill:#ffffff;fill-opacity:0.49859157" />
    <path
       d="m0.904 27.705 14.984-26.067c0.544-0.943 1.55-1.638 2.638-1.638h29.967c1.089 0 2.094 0.695 2.639 1.638l14.983 26.01a3.1 3.1 0 0 1 0 3.074l-14.983 25.854c-0.545 0.942-1.55 1.424-2.639 1.424h-29.967c-1.088 0-2.094-0.467-2.638-1.41l-14.983-25.896a2.94 2.94 0 0 1 0-2.99zm12.407 12.534c0 0.384 0.231 0.738 0.563 0.93l19.086 11.011c0.332 0.192 0.748 0.192 1.08 0l19.1-11.011c0.332-0.192 0.564-0.546 0.564-0.93v-22.023c0-0.383-0.229-0.738-0.56-0.93l-19.087-11.009a1.084 1.084 0 0 0-1.079 0l-19.102 11.01c-0.332 0.192-0.566 0.547-0.566 0.93v22.023z"
       fill="#6358d4"
       id="path2"
       style="fill:#ffffff;fill-opacity:0.7976687" />
  </g>
</svg>
