<?xml version="1.0" encoding="UTF-8" standalone="no"?>
<svg
   width="22"
   height="22"
   version="1.1"
   id="svg1"
   sodipodi:docname="text-x-c++src.svg"
   inkscape:version="1.3.2 (091e20ef0f, 2023-11-25, custom)"
   xmlns:inkscape="http://www.inkscape.org/namespaces/inkscape"
   xmlns:sodipodi="http://sodipodi.sourceforge.net/DTD/sodipodi-0.dtd"
   xmlns="http://www.w3.org/2000/svg"
   xmlns:svg="http://www.w3.org/2000/svg">
  <defs
     id="defs1" />
  <sodipodi:namedview
     id="namedview1"
     pagecolor="#505050"
     bordercolor="#eeeeee"
     borderopacity="1"
     inkscape:showpageshadow="0"
     inkscape:pageopacity="0"
     inkscape:pagecheckerboard="0"
     inkscape:deskcolor="#505050"
     inkscape:zoom="33.454545"
     inkscape:cx="11"
     inkscape:cy="11"
     inkscape:window-width="1920"
     inkscape:window-height="1015"
     inkscape:window-x="0"
     inkscape:window-y="0"
     inkscape:window-maximized="1"
     inkscape:current-layer="svg1" />
  <g
     fill="#1d70f7"
     stroke-width="2"
     id="g1"
     style="fill:#4aabff;fill-opacity:1">
    <path
       d="M16 3v2h-2v1h2v2h1V6h2V5h-2V3h-1zM10 3v2H8v1h2v2h1V6h2V5h-2V3h-1zM4 10c-.554 0-1 .446-1 1v7c0 .554.446 1 1 1h7c.554 0 1-.446 1-1v-1l-1-.555V17c0 .554-.446 1-1 1H5c-.554 0-1-.446-1-1v-5c0-.554.446-1 1-1h5c.554 0 1 .446 1 1v.555L12 12v-1c0-.554-.446-1-1-1H4z"
       id="path1"
       style="fill:#4aabff;fill-opacity:1" />
  </g>
</svg>
