<svg width="24" height="24" fill="none" version="1.1" viewBox="0 0 24 24" xmlns="http://www.w3.org/2000/svg">
 <g transform="matrix(.83332 0 0 .83332 2.2384 2)">
  <path d="m9.5714 20.143h-5.1429c-0.23669 0-0.42857 0.1919-0.42857 0.4286s0.19188 0.4286 0.42857 0.4286h5.1429c0.23669 0 0.42857-0.1919 0.42857-0.4286s-0.19188-0.4286-0.42857-0.4286z" fill="#f87171"/>
  <path d="m9.5714 18.429h-1.7143c-0.23669 0-0.42857 0.1919-0.42857 0.4286s0.19188 0.4285 0.42857 0.4285h1.7143c0.23669 0 0.42857-0.1918 0.42857-0.4285s-0.19188-0.4286-0.42857-0.4286z" fill="#fbbf24"/>
  <path d="m6.1429 18.429h-1.7143c-0.23669 0-0.42857 0.1919-0.42857 0.4286s0.19188 0.4285 0.42857 0.4285h1.7143c0.23669 0 0.42857-0.1918 0.42857-0.4285s-0.19188-0.4286-0.42857-0.4286z" fill="#2dd4bf"/>
  <path d="m9.5714 16.714h-5.1429c-0.23669 0-0.42857 0.1919-0.42857 0.4286s0.19188 0.4286 0.42857 0.4286h5.1429c0.23669 0 0.42857-0.1919 0.42857-0.4286s-0.19188-0.4286-0.42857-0.4286z" fill="#c084fc"/>
  <path d="m14.714 15h-7.7143c-0.23669 0-0.42857 0.1919-0.42857 0.4286s0.19188 0.4285 0.42857 0.4285h7.7143c0.2367 0 0.4286-0.1918 0.4286-0.4285s-0.1919-0.4286-0.4286-0.4286z" fill="#fbbf24"/>
  <path d="m5.2857 15h-0.85714c-0.23669 0-0.42857 0.1919-0.42857 0.4286s0.19188 0.4285 0.42857 0.4285h0.85714c0.2367 0 0.42858-0.1918 0.42858-0.4285s-0.19188-0.4286-0.42858-0.4286z" fill="#c084fc"/>
  <path d="m17.286 13.286h-2.5714c-0.2367 0-0.4286 0.1918-0.4286 0.4285s0.1919 0.4286 0.4286 0.4286h2.5714c0.2367 0 0.4286-0.1919 0.4286-0.4286s-0.1919-0.4285-0.4286-0.4285z" fill="#c084fc"/>
  <path d="m13 13.286h-3.4286c-0.23669 0-0.42857 0.1918-0.42857 0.4285s0.19188 0.4286 0.42857 0.4286h3.4286c0.2367 0 0.4286-0.1919 0.4286-0.4286s-0.1919-0.4285-0.4286-0.4285z" fill="#f87171"/>
  <path d="m7.8571 13.286h-3.4286c-0.23669 0-0.42857 0.1918-0.42857 0.4285s0.19188 0.4286 0.42857 0.4286h3.4286c0.2367 0 0.42857-0.1919 0.42857-0.4286s-0.19187-0.4285-0.42857-0.4285z" fill="#2dd4bf"/>
  <path d="m18.143 11.571h-6.8572c-0.2367 0-0.4286 0.1919-0.4286 0.4286s0.1919 0.4286 0.4286 0.4286h6.8572c0.2367 0 0.4285-0.1919 0.4285-0.4286s-0.1918-0.4286-0.4285-0.4286z" fill="#2dd4bf"/>
  <path d="m9.5714 11.571h-2.5714c-0.23669 0-0.42857 0.1919-0.42857 0.4286s0.19188 0.4286 0.42857 0.4286h2.5714c0.2367 0 0.42856-0.1919 0.42856-0.4286s-0.19186-0.4286-0.42856-0.4286z" fill="#fbbf24"/>
  <path d="m5.2857 11.571h-0.85714c-0.23669 0-0.42857 0.1919-0.42857 0.4286s0.19188 0.4286 0.42857 0.4286h0.85714c0.2367 0 0.42858-0.1919 0.42858-0.4286s-0.19188-0.4286-0.42858-0.4286z" fill="#f87171"/>
  <path d="m19 9.8572h-4.2857c-0.2367 0-0.4286 0.19192-0.4286 0.42852 0 0.2367 0.1919 0.4286 0.4286 0.4286h4.2857c0.2367 0 0.4286-0.1919 0.4286-0.4286 0-0.2366-0.1919-0.42852-0.4286-0.42852z" fill="#fbbf24"/>
  <path d="m7.8571 9.8572h-3.4286c-0.23669 0-0.42857 0.19192-0.42857 0.42852 0 0.2367 0.19188 0.4286 0.42857 0.4286h3.4286c0.2367 0 0.42857-0.1919 0.42857-0.4286 0-0.2366-0.19187-0.42852-0.42857-0.42852z" fill="#c084fc"/>
  <path d="m19 8.1428h-4.2857c-0.2367 0-0.4286 0.19188-0.4286 0.42857 0 0.2367 0.1919 0.42858 0.4286 0.42858h4.2857c0.2367 0 0.4286-0.19188 0.4286-0.42858 0-0.23669-0.1919-0.42857-0.4286-0.42857z" fill="#f87171"/>
  <path d="m7.8571 8.1428h-3.4286c-0.23669 0-0.42857 0.19188-0.42857 0.42857 0 0.2367 0.19188 0.42858 0.42857 0.42858h3.4286c0.2367 0 0.42857-0.19188 0.42857-0.42858 0-0.23669-0.19187-0.42857-0.42857-0.42857z" fill="#fbbf24"/>
  <path d="m18.143 6.4286h-0.8572c-0.2367 0-0.4286 0.19188-0.4286 0.42857s0.1919 0.42857 0.4286 0.42857h0.8572c0.2367 0 0.4285-0.19188 0.4285-0.42857s-0.1918-0.42857-0.4285-0.42857z" fill="#2dd4bf"/>
  <path d="m15.571 6.4286h-3.4285c-0.2367 0-0.4286 0.19188-0.4286 0.42857s0.1919 0.42857 0.4286 0.42857h3.4285c0.2367 0 0.4286-0.19188 0.4286-0.42857s-0.1919-0.42857-0.4286-0.42857z" fill="#c084fc"/>
  <path d="m10.429 6.4286h-6c-0.23669 0-0.42857 0.19188-0.42857 0.42857s0.19188 0.42857 0.42857 0.42857h6c0.2367 0 0.4285-0.19188 0.4285-0.42857s-0.1918-0.42857-0.4285-0.42857z" fill="#2dd4bf"/>
  <path d="m17.286 4.7144h-8.5714c-0.2367 0-0.42857 0.19187-0.42857 0.42857 0 0.23669 0.19187 0.42857 0.42857 0.42857h8.5714c0.2367 0 0.4286-0.19188 0.4286-0.42857 0-0.2367-0.1919-0.42857-0.4286-0.42857z" fill="#fbbf24"/>
  <path d="m7 4.7144h-2.5714c-0.23669 0-0.42857 0.19187-0.42857 0.42857 0 0.23669 0.19188 0.42857 0.42857 0.42857h2.5714c0.23669 0 0.42857-0.19188 0.42857-0.42857 0-0.2367-0.19188-0.42857-0.42857-0.42857z" fill="#f87171"/>
  <path d="m14.714 3h-10.286c-0.23669 0-0.42857 0.19188-0.42857 0.42857s0.19188 0.42857 0.42857 0.42857h10.286c0.2367 0 0.4286-0.19188 0.4286-0.42857s-0.1919-0.42857-0.4286-0.42857z" fill="#2dd4bf"/>
 </g>
</svg>
