<svg width="64" height="64" version="1.1" viewBox="0 0 34.701 34.239" xmlns="http://www.w3.org/2000/svg">
 <path d="m8.5516 16.426c-0.033981 0.05955-0.067963 0.11068-0.10194 0.17055l-0.051134-0.02589c-0.033982 0.1958-0.1534 0.36635-0.2725 0.40034 0.033982 0.01715 0.067963 0.0343 0.093854 0.02589 0.025243-0.0087 0.042072-0.05178 0.059225-0.07702l0.22978-0.3327 0.077025-0.12816-0.033982-0.03398zm-2.8357 3.7438c0.04272 0 0.085439 0.0084 0.13593 0.0084 0-0.03398 0.043043-0.02589 0.043043-0.05955h0.025891c0 0.04272 0.00841 0.0767 0.00841 0.11974h-0.17864c-0.00874-0.0087-0.04272-0.0602-0.034305-0.06861zm-0.067963-0.39224c-0.025891-0.02589-0.067963-0.05113-0.067963-0.0767-0.00874-0.03366 0.016829-0.07605 0.042072-0.11877 0.017476 0.05955 0.025891 0.11068 0.04272 0.17056-0.00874 0.0081-0.017153 0.01683-0.017153 0.02524zm0.21295-0.54597c0.033982 0.08609 0.067963 0.17994 0.10227 0.26538a0.267 0.267 0 0 0-0.067963 0.03398c-0.033982-0.08544-0.076701-0.17929-0.11068-0.26441a0.21101 0.21101 0 0 1 0.076701-0.0343zm18.958 8.1536c0.04207-0.01683 0.09321-0.02589 0.16182-0.04207-0.07702 0.05923-0.13657 0.10194-0.18771 0.15308-0.0087-0.0084-0.01715-0.01715-0.02589-0.01715 0.01715-0.03398 0.0343-0.05955 0.05178-0.09385zm-10.468-18.02c0.05081-0.034305 0.09385-0.059872 0.14466-0.093854l0.01683 0.016829c-0.05178 0.067963-0.09385 0.13593-0.15373 0.22169-0.0084-0.059225-0.0084-0.093854-0.01715-0.13593-0.0084 0 0 0 0.0087-0.00841zm2.4952 4.315c0.0767-0.0343 0.1534-0.06796 0.24693-0.11101-0.0084 0.05113-0.0084 0.08544-0.0084 0.11974a0.30001 0.30001 0 0 0-0.08544-0.01748c-0.05113 0.0087-0.14499 0.07703-0.18771 0.08544-0.0081 0 0.03431-0.06796 0.03431-0.0767zm6.3885 7.2319c0.01683 0.08511 0.17865 0.12784 0.01683 0.21295 0.02589 0.0178 0.05081 0.02589 0.07638 0.04337 0 0.0087-0.0084 0.02589-0.01683 0.0343-0.01715 0.0081-0.05113 0.02524-0.06796 0.01618-0.0087 0-0.02589-0.03366-0.02589-0.05081 0-0.0767 0.0087-0.1534 0.01715-0.25567zm0-1.7059c0.0081 0 0.01683 0.0087 0.01683 0.0087l-0.0087-0.0097c0-0.0081 0-0.0081-0.0084 0zm1.3453 8.4261c-0.09385 0.06796-0.18771 0.12784-0.3068 0.1534-0.0091-0.0084-0.0091-0.01715-0.01748-0.02589 0.09385-0.05955 0.1958-0.1191 0.28965-0.17897 0.0087 0.01618 0.02589 0.03366 0.0343 0.05081zm-15.969-11.556c0.093854-0.11877 0.18771-0.2382 0.28933-0.35762 0.00809 0.0084 0.076054 0.02589 0.084792 0.03398-0.093854 0.11974-0.22169 0.28156-0.31522 0.4094-0.017476-0.01715-0.043043-0.0767-0.059872-0.08544zm-2.4192 4.1797c-0.067963-0.14499-0.13593-0.29871-0.20389-0.44338a0.29451 0.29451 0 0 1 0.076378-0.0343c0.093854 0.13593 0.13593 0.29774 0.20454 0.44338 0 0-0.067963 0.03398-0.076701 0.03398zm2.1722-4.094c-0.051134 0.07702-0.10227 0.16246-0.1534 0.23949-0.00841-0.0091-0.10227 0.03366-0.11068 0.02524 0.051134-0.0767 0.17865-0.2136 0.22978-0.28998 0.00874 0.0084 0.017153 0.01715 0.034305 0.02589zm15.305 11.821c0.0081 0 0.0081-0.0084 0.01683-0.0084 0.05955 0.0084 0.12751 0.01683 0.1958 0.01683-0.11133 0.0767-0.17962 0.06796-0.2136-0.0084zm-15.288-11.462c0.00906-0.02589 0.025891-0.05113 0.043043-0.0767 0.016829 0 0.042072-0.0087 0.042072-0.0087 0.034629-0.05955 0.034629-0.10227 0.06861-0.1534-0.00841-0.0084-0.017153-0.0084-0.025891-0.01715-0.05081 0.03495-0.10194 0.07767-0.15308 0.11165 0.017152 0.01683 0.017152 0.02589 0.017152 0.04272-0.067963-0.0087-0.093854 0.02589-0.12784 0.1191-0.00841 0.02589-0.051134 0.0343-0.093854 0.06796-0.00841 0.01748-0.016829 0.06019-0.033982 0.10259l0.00874 0.0091c-0.017153 0.01715-0.04272 0.02589-0.04272 0.02589-0.051134 0.05081-0.11068 0.09385-0.16182 0.14466-0.00841 0.02589-0.016829 0.05113-0.016829 0.0767 0.059872-0.05955 0.16182-0.17056 0.23852-0.23884l0.00874 0.0087c0.033982-0.05113 0.059549-0.10227 0.093854-0.1534 0.00809 0.0084 0.00809 0.01683 0.016829 0.02589-0.025891 0.06796-0.051134 0.14434-0.076701 0.21263-0.0178 0.0084-0.043367 0.02589-0.043367 0.01715-0.033982 0.02589-0.059549 0.05955-0.093854 0.08512l-0.15308 0.10223c-0.085116 0.0767-0.17023 0.14466-0.26409 0.22169-0.059549 0.09385-0.1191 0.17897-0.18771 0.28998 0.10259-0.02589 0.12816 0.01715 0.11974 0.10259 0.1191 0.01683 0.12784-0.0767 0.16182-0.14499 0.00841-0.01748 0.017153-0.05178 0.033982-0.0602 0.076701-0.06796 0.16182-0.12751 0.24693-0.1958 0.017153-0.01715 0.017153-0.05178 0.017153-0.07703 0-0.0084-0.043043-0.0084-0.06861-0.01715 0.076701-0.08544 0.18771-0.22978 0.26409-0.32363 0.04272-0.02589 0.085116-0.0602 0.085116-0.08576-0.00841-0.09385 0.051134-0.1191 0.11974-0.1534-0.034305-0.02589-0.043043-0.05081-0.043043-0.05922zm21.531-1.0405c-0.01683-0.3327-0.02524-0.66539-0.05955-0.99776-0.05955-0.45212-0.1191-0.91265-0.22136-1.356-0.0767-0.36668-0.20389-0.71652-0.33205-1.066-0.16182-0.4094-0.32363-0.82721-0.52817-1.2195-0.33205-0.63109-0.76636-1.1942-1.1667-1.7826-0.26473-0.37542-0.6052-0.68222-0.86087-1.066-0.14466-0.22169-0.35762-0.40907-0.57057-0.5793-0.34079-0.27347-0.6984-0.52105-1.056-0.75957a10.526 10.526 0 0 0-0.83498-0.52882c-0.22978-0.12848-0.47671-0.23075-0.71523-0.34176-0.2725-0.12784-0.53658-0.28156-0.84306-0.34111-0.077025-0.016182-0.14499-0.042072-0.22169-0.067963-0.1958-0.067963-0.38318-0.14466-0.5793-0.20454-0.29774-0.093854-0.5874-0.20454-0.8942-0.28156-0.2971-0.076701-0.6039-0.12751-0.9107-0.17056-0.34046-0.050163-0.68934-0.067963-1.0304-0.1013a8.6831 8.6831 0 0 0-0.65568-0.059549c-0.32363-0.016829-0.65568-0.016829-0.97932-0.025243-0.16182-0.00874-0.33205-0.025891-0.49386-0.017153-0.24693 0.00841-0.49386 0.033982-0.74112 0.067963-0.23819 0.025891-0.47671 0.067963-0.70649 0.10259-0.28059 0.033982-0.5615 0.051134-0.84274 0.085439-0.26408 0.034305-0.53658 0.085439-0.80035 0.12816-0.09385 0.017153-0.18771 0.051134-0.28156 0.067963-0.20389 0.04272-0.41684 0.059872-0.62138 0.12816-0.36571 0.11133-0.73238 0.23949-1.09 0.37542-0.33237 0.13657-0.65601 0.28156-0.9709 0.45212-0.32363 0.17865-0.63044 0.3916-0.93692 0.59678a14.669 14.669 0 0 0-0.86087 0.62235c-0.27185 0.2136-0.52752 0.45212-0.77478 0.69096-0.13593 0.13593-0.24693 0.29839-0.37477 0.45179-0.21263 0.24758-0.42558 0.4861-0.63011 0.74209-0.16958 0.2136-0.32363 0.43496-0.48545 0.65698-0.289 0.3916-0.53594 0.80973-0.76572 1.2279-0.093854 0.17056-0.17897 0.34111-0.26409 0.51134-0.12784 0.25567-0.26409 0.50325-0.38318 0.76766-0.085439 0.17929-0.1534 0.37542-0.20454 0.57154-0.11877 0.41814-0.23819 0.84468-0.34888 1.2622-0.10227 0.37542-0.12784 0.76766-0.13593 1.1515-0.00874 0.34111 0.025243 0.6738 0.059225 1.0149 0.00874 0.08544-0.042072 0.18771 0.059549 0.25567-0.033982 0.09385-0.00841 0.14564 0.042072 0.16182-0.058901 0.09385 0.025891 0.15405-0.00777 0.23949-0.00874 0.01683 0.025891 0.05081 0.042072 0.07638 0 0.02589-0.00809 0.05987 0 0.08544 0.00906 0.0767 0.043043 0.1534 0.043043 0.23884 0 0.05955 0.050811 0.12784 0.067963 0.18771 0.00841 0.02524 0 0.06796-0.017153 0.08511-0.051134 0.05955-0.04272 0.11068 0.033981 0.14499 0.043043 0.11068 0.025891 0.16182 0.017476 0.2136 0.016829 0.07638-0.00874 0.10194 0 0.1191 0.067963 0.13657 0.093854 0.28998 0.10194 0.44338 0 0.0343 0.017153 0.06861 0.034305 0.11101 0.00841 0 0 0.16182 0 0.16182 0.042072-0.02524 0.076701-0.03366 0.1191-0.05081 0.025891 0.11068 0.051134 0.2136 0.085116 0.30745 0.04272 0.06796 0.04272 0.10162 0.025891 0.11004 0.033981 0.1534 0.05081 0.29839 0.11004 0.44338 0-0.16182-0.016182-0.32363-0.042072-0.47736 0.1191 0.04272 0.22137 0.08512 0.28965 0.08512 0.00874-0.02589 0.017153-0.05955 0.025891-0.0767-0.051134-0.05081-0.093854-0.12751-0.14499-0.17865 0.017153 0.06796 0 0.09385 0 0.11974-0.033982-0.01748-0.076701-0.03463-0.1191-0.05178 0.033982-0.04207 0.067963-0.08511 0.1191-0.13593 0-0.07703-0.042072-0.14564-0.16182-0.1369 0.051134-0.01683 0.10227-0.04207 0.16182-0.05955 0.093854-0.05081-0.00841-0.14466-0.00841-0.26408 0.00841-0.14466-0.076701-0.28965-0.10227-0.44338-0.04272-0.23852-0.033982-0.59678-0.059549-0.83562-0.051134-0.04272-0.093854 0.06796-0.10227 0.0767 0.025891 0.20454 0.051134 0.40907 0.067963 0.61393-0.05081-0.17056-0.085116-0.35826-0.12751-0.56312-0.00874 0.05987-0.017153 0.08544-0.017153 0.11974-0.042072 0.04207-0.00841 0.09385 0.017153 0.1534-0.059549-0.02589-0.12784-0.01683-0.12784-0.01683v0.23884c-0.084792-0.08544-0.11004-0.1534-0.15308-0.2136-0.016829-0.06796-0.025891-0.13593-0.042072-0.20389 0.016182-0.04304 0-0.06861 0-0.09385a5.1678 5.1678 0 0 1-0.025891-0.20518c0.00841-0.0084-0.00841-0.13593-0.00841-0.13593 0.067963 0.0081 0.11101 0.01618 0.1534 0.01618-0.085116-0.11004-0.025891-0.17865 0.00874-0.24693 0.017152-0.0343 0.076701-0.04207 0.093854-0.07703 0.067963-0.12784 0.17897-0.22978 0.17897-0.39224 0-0.0767 0.025891-0.16182 0.033981-0.23884 0.017153-0.14499 0.033982-0.28998 0.042072-0.43496 0.017476-0.18771 0-0.37542 0.043043-0.55438 0.06861-0.29774 0.15373-0.59646 0.24726-0.89517 0.067957-0.2136 0.14498-0.41749 0.22977-0.63109 0.12784-0.3327 0.24726-0.66539 0.40907-0.98061 0.22978-0.46085 0.49387-0.90423 0.74954-1.356 0.16182-0.28156 0.33205-0.54597 0.51134-0.81879 0.16991-0.26441 0.33982-0.53723 0.53626-0.78481a6.9426 6.9426 0 0 1 0.90294-0.96378c0.34079-0.3068 0.66442-0.62235 1.0304-0.90391a10.351 10.351 0 0 1 1.5153-0.97284c0.43464-0.22978 0.88579-0.40972 1.3373-0.58028 0.28965-0.11068 0.60455-0.16182 0.90294-0.25567 0.34046-0.11101 0.68125-0.16182 1.0389-0.17056 0.22978-0.00874 0.45147-0.034305 0.68125-0.059872 0.20454-0.016182 0.40875-0.033658 0.63044-0.059225-0.02589 0.033982-0.0343 0.051134-0.04272 0.067963-0.09321 0.13657-0.19548 0.27315-0.28933 0.4094-0.0767 0.11101-0.16182 0.23043-0.23852 0.34111-0.13657 0.17962-0.28156 0.35859-0.40907 0.54629-0.1958 0.28156-0.37477 0.57154-0.5793 0.85277-0.20389 0.27282-0.42558 0.52882-0.63853 0.7929-0.28091 0.367-0.545 0.74209-0.82591 1.1088-0.25567 0.34952-0.52752 0.68287-0.77478 1.0324-0.22136 0.30648-0.41749 0.63109-0.63044 0.94598-0.3149 0.46927-0.63012 0.92948-0.94501 1.3987a88.006 88.006 0 0 1-0.74954 1.066c-0.01715 0.02589-0.04272 0.03366-0.06796 0.05081-0.06796 0.11068-0.06796 0.17056-0.093854 0.22169-0.067963 0.12784-0.13593 0.25567-0.21295 0.37542-0.04272 0.06796-0.10227 0.12751-0.1534 0.1958-0.00841-0.10227 0.13593-0.1534 0.067963-0.28156-0.042072 0.06861-0.085116 0.12816-0.12751 0.19644l-0.10227 0.20389c0.033982 0.02589 0.093854 0.04304 0.033982 0.09385-0.025891 0.04304-0.051134 0.09385-0.076701 0.1369a0.30875 0.30875 0 0 0 0.093854-0.08544c0 0.09385-0.051134 0.17023-0.093854 0.24693-0.033982 0.06796-0.1191 0.11974-0.17865 0.17056 0.00841 0.0087 0.067963 0.0343 0.076701 0.04272 0.076701-0.02589 0.10227-0.06796 0.11101-0.04272 0.025891-0.03398 0.051134-0.05955 0.059549-0.08512 0.033658-0.08544 0.084792-0.1534 0.16991-0.18771 0.034305-0.01715 0.059549-0.04272 0.085116-0.06796 0.25567-0.26473 0.51976-0.5204 0.74954-0.80196 0.35794-0.43529 0.68157-0.88676 1.0227-1.3301 0.14434-0.18771 0.3149-0.37542 0.46797-0.55471 0.02524 0.19612 0.0084 0.38351 0 0.56312-0.02589 0.31522-0.04272 0.63109-0.06796 0.95472-0.0087 0.12784 0 0.25567-0.0087 0.38383 0 0.03398-0.02589 0.05955-0.02589 0.09385 0 0.08512 0.02589 0.17897 0.02589 0.26441-0.02589 0.31554-0.0602 0.62235-0.08576 0.93789-0.0087 0.06796 0.02524 0.13657 0.04207 0.19645-0.04207 0.46021 0.05178 0.94663-0.02524 1.4327 0.05955-0.09385 0.0767-0.1534 0.0767-0.21295 0.0081-0.05113 0-0.10227 0-0.16182v-0.08544c0.0081-0.15373 0.04207-0.31554 0.02524-0.46927-0.01715-0.17056-0.01715-0.33237 0.01715-0.49451 0.01715-0.06796-0.0084-0.1534 0.0343-0.23884v0.12784c-0.0084 0.48545 0.0087 0.97187-0.05922 1.458-0.0087 0.04272 0.02589 0.11974-0.06796 0.11101-0.07702 0.1534 0.01683 0.26441-0.06796 0.34952-0.01748 0.01715 0.01618 0.09385 0.02492 0.14499-0.03431 0.10259-0.03431 0.10259 0.01683 0.11101 0.0084 0.18771 0.02589 0.35794 0.03398 0.53723 0.13593-0.32363 0.06796-0.65698 0.12816-0.98967 0.0084 0.13657 0.01715 0.27315 0.0084 0.41749 0 0.22234-0.0084 0.43529-0.01683 0.65698 0 0.04272-0.0087 0.08544-0.01715 0.12816-0.02589 0.11974-0.03398 0.23884-0.0767 0.34952-0.03398 0.08544-0.01683 0.2136-0.01683 0.31554v0.3246c0.03398 0.14499-0.0087 0.22169 0.01683 0.3068-0.02589 0.08576-0.03398 0.11133-0.02589 0.1369l0.02589 0.12784c0.17056-0.01715 0.09385 0.11101 0.16182 0.17897-0.05113 0.06861-0.03398 0.09385-0.03398 0.12848 0 0.0767-0.0081 0.14499-0.01683 0.22169 0 0.19612-0.0084 0.39224-0.0084 0.57995 0 0.02589 0.0084 0.05081 0.0084 0.07638 0 0.01748-0.0084 0.23949-0.0084 0.23949 0.01715 0.02524 0 0.05081-0.02589 0.07638-0.0081 0-0.03366-1.0832-0.03366-1.0832h-0.12784c-0.01683 0.51134 0.02589 0.97187-0.06796 1.4499-0.10227 0.0081-0.13593 0.02524-0.24726 0.02524-0.26408 0-0.52817 0-0.79226 0.0084-0.31522 0-0.62138 0.0084-0.93692 0.0084-0.15276 0-0.31457 0.01748-0.46797 0.01748-0.20454 0-0.41749-0.02589-0.62138-0.02589-0.31554 0-0.62202 0.02589-0.93724 0.0343-0.22978 0.0084-0.45956 0.0084-0.68934 0.01715-0.15373 0.0081-0.30745 0.01618-0.46021 0.03366-0.067963 0.0084-0.12784 0.03398-0.21295 0.05955-0.025891 0-0.085116-0.0084-0.13593 0-0.085763 0.01715-0.16182 0.06796-0.24758 0.08544-0.12784 0.02589-0.16182 0.05955-0.14499 0.18771v0.08512c-0.00841 0.01683 0.18771-0.02589 0.18771-0.02589-0.017476 0-0.025891 0.05113-0.051781 0.09385 0.06861-0.02589 0.11101-0.04272 0.15373-0.05955 0.12784 0.05987 0.23852 0.02589 0.34046 0.05178 0.33205 0.08479 0.67251 0.11974 1.013 0.15308 0.22169 0.01715 0.43464 0.02589 0.65601 0.03398 0.3149 0.01715 0.63011 0.0343 0.94501 0.0343 0.26409 0 0.51976-0.02589 0.78319-0.02589 0.36571 0 0.73271 0.01683 1.0987 0.02589 0.0767 0 0.16182-0.0091 0.24693-0.0091h0.62138c0.55406-0.01683 1.1075-0.02589 1.6612-0.04207 0.31554-0.0091 0.63918-0.02589 0.95407-0.03463l0.9709-0.02589c0.37477-0.0084 0.74954-0.0084 1.1159-0.01618 0.28091 0 0.55341-0.0097 0.83498-0.0178 0.31457-0.0084 0.63821-0.03398 0.95342-0.05081 0.17056-0.0087 0.34111-0.02589 0.51134-0.04272 0.20454-0.01683 0.41749-0.04207 0.62138-0.05081 0.3068-0.01748 0.62202-0.02589 0.92883-0.04304 0.38318-0.02524 0.76636-0.05923 1.158-0.06796 0.35794-0.01683 0.72397-0.0084 1.0819-0.01683 0.31522-0.0087 0.63044-0.02589 0.95407-0.03431l0.53723-0.02589s0.35729-0.0084 0.53626-0.02589c0.30648-0.01683 0.61296-0.05081 0.91977-0.05922 0.19547-0.0087 0.3916 0 0.5874-0.0087 0.3149-0.0084 0.63853-0.02589 0.95375-0.02589 0.11877 0 0.24661 0.01748 0.40001 0.02589-0.06796 0.05987-0.11068 0.09385-0.16182 0.13657 0.03398 0.0084 0.06796 0.02589 0.10227 0.04272a0.22978 0.22978 0 0 1-0.13593 0.04207c-0.01748 0.04304-0.03463 0.0602-0.05178 0.14564h0.1534c-0.05955 0-0.11068 0.0767-0.17023 0.12784-0.06796-0.01748-0.12784 0-0.16182 0.09385 0.05955 0.03366 0.05113 0.05923 0.04272 0.09385-0.10227 0.03366-0.17897 0.06796-0.13593 0.17865-0.03463 0.01683-0.07702 0.03398-0.11974 0.05955-0.04207 0.06796-0.1191 0.08512-0.10227 0.17897 0.03431 0.0081 0.06796 0.02589 0.09385 0.03366-0.04272 0.01715-0.08511 0.04272-0.12784 0.05955-0.15308 0.09385-0.08479 0.13657-0.05081 0.17929-0.02589 0.01715-0.05113 0.03398-0.0767 0.04272 0.01683 0.0767 0.04207 0.09385 0.05081 0.09385a3.0101 3.0101 0 0 0-0.12784 0.10227c-0.02589 0.0767-0.05987 0.11068-0.09385 0.16182-0.03398 0.05113-0.05113 0.11974-0.09385 0.17055-0.17865 0.19645-0.30648 0.4272-0.53626 0.58028-0.08544 0.05987-0.16182 0.13657-0.23852 0.2136-0.1534 0.14466-0.28965 0.3068-0.45147 0.44338a9.5779 9.5779 0 0 1-0.6641 0.50293c-0.28059 0.19612-0.5615 0.39224-0.84274 0.57995-0.1534 0.10194-0.32363 0.17865-0.48545 0.2725-0.16182 0.09385-0.31522 0.17929-0.47704 0.27282-0.10227 0.06796-0.19612 0.16182-0.3068 0.2136-0.28091 0.11974-0.5793 0.22169-0.86863 0.3327-0.28156 0.11974-0.48545 0.22169-0.6984 0.29839-0.1958 0.06796-0.40034 0.11974-0.60455 0.16182-0.06796 0.01748-0.14499 0-0.22169 0.0087-0.14499 0.02589-0.28965 0.0602-0.43464 0.07702-0.37477 0.05113-0.74954 0.08544-1.124 0.13657-0.22169 0.02589-0.43464 0.06796-0.65601 0.09385-0.15308 0.0084-0.3149-0.0084-0.4683-0.0084-0.11068 0-0.22978 0.02589-0.34079 0.0087-0.17865-0.02589-0.35762-0.06796-0.53658-0.10227-0.04207-0.0084-0.10227-0.02589-0.13593-0.0084-0.06796 0.0343-0.12816-0.01683-0.19645 0-0.04207 0.0087-0.08479-0.02589-0.12751-0.02589-0.0343-0.0081-0.07703 0.0091-0.11974 0-0.09385-0.02524-0.17865-0.05923-0.28156-0.05081-0.1013 0.0084-0.20389-0.04272-0.31392-0.06796-0.15373-0.0343-0.29774-0.06796-0.45179-0.10259a0.77057 0.77057 0 0 1-0.16991-0.0767c-0.22169 0-0.36668-0.0084-0.50293-0.05987-0.1191-0.04207-0.22978-0.10194-0.35762-0.08479-0.03366 0.0084-0.05922-0.0084-0.09385-0.0084-0.02589-0.0343-0.05081-0.10259-0.07605-0.10259-0.17023 0.0087-0.2725-0.13593-0.41749-0.17897-0.07638-0.02589-0.13593-0.11101-0.21263-0.13657-0.18771-0.0767-0.34046-0.23852-0.55341-0.26408-0.06796-0.0087-0.13593-0.04272-0.21295-0.06796 0.02589 0.03366 0.04207 0.05923 0.06796 0.08479-0.24693-0.11974-0.47671-0.25567-0.70682-0.38383-0.03366-0.0084-0.05923-0.04207-0.08479-0.05955l-0.22978-0.1534c-0.12784 0.02589-0.17897-0.02589-0.2136-0.04272-0.22984-0.16175-0.4936-0.26434-0.71529-0.44331-0.09385-0.07702-0.20389-0.12816-0.27185-0.22201-0.11974-0.14499-0.26441-0.24726-0.42623-0.33237-0.12751-0.067963-0.24661-0.14499-0.36571-0.22169-0.059872-0.04272-0.11974-0.09385-0.11974-0.18771 0-0.05987-0.025243-0.11974-0.10194-0.08544-0.033982-0.051134-0.067963-0.11068-0.11068-0.12784-0.10227-0.042072-0.17023-0.11974-0.24693-0.18771-0.076701-0.067964-0.13593-0.16182-0.22978-0.1958-0.17055-0.067963-0.27282-0.21295-0.37477-0.33237-0.23884-0.28156-0.45179-0.58901-0.67316-0.88676-0.017153-0.02589-0.051134-0.04304-0.076701-0.06861 0.033982 0.09385 0.076701 0.17056 0.1191 0.25567-0.084792-0.03398-0.14434-0.09385-0.19547-0.1534-0.00874 0.0087 0.5874 0.98935 0.5874 0.98935 0.051781 0.0767 0.093854 0.15373 0.14499 0.23043a0.26311 0.26311 0 0 1-0.25567-0.13657c-0.076378-0.13593-0.16182-0.22137-0.33205-0.20389a1.4848 1.4848 0 0 1-0.042072-0.18771c-0.034629 0-0.059872 0-0.11974-0.0087 0.11974 0.18771 0.22169 0.34952 0.33237 0.53723-0.043043-0.02589-0.067963-0.04272-0.085763-0.05113 0.15308 0.16182 0.26376 0.36668 0.45956 0.46927 0.04272 0.1958 0.26409 0.28965 0.31522 0.47736-0.042072-0.0087-0.077025-0.01715-0.11974-0.02589-0.067963-0.08512-0.14466-0.17023-0.22104-0.26408 0.016829 0.05955 0.042072 0.11068 0.076378 0.1534 0.10227 0.12784 0.19612 0.25567 0.31522 0.36668 0.04272 0.04337 0.10227 0.06052 0.10227 0.13722 0.067963 0.03398 0.093854 0.04207 0.1191 0.04207 0.017476 0.05178-0.00809 0.12848 0.093854 0.11133 0.067963 0.12784 0.13593 0.12784 0.22978 0.08544 0.11101 0.11101 0.17088 0.11974 0.24726 0.05178 0 0.04207 0.00841 0.08479 0.00841 0.1191 0.033982-0.01715 0.025891-0.04272 0.025891-0.08544 0.042072 0.03398 0.067963 0.05113 0.084792 0.06796 0.085116 0.11974 0.16182 0.23043 0.28091 0.32428 0.16182 0.13657 0.3068 0.28156 0.45956 0.4094 0.29839 0.24758 0.63109 0.45244 0.96281 0.63982 0.40907 0.23043 0.80099 0.47768 1.2182 0.69905 0.50228 0.26473 1.0389 0.44403 1.5923 0.57186 0.20454 0.04272 0.40034 0.08512 0.6052 0.13593 0.178 0.05178 0.35729 0.12848 0.53626 0.17088 0.2725 0.05987 0.55341 0.11101 0.82591 0.16182 0.05923 0.0087 0.11974 0.01748 0.18771 0.02589 0.07605 0.01715 0.16958-0.01715 0.18674 0.0087 0.04272 0.06796 0.0767 0.03366 0.12784 0.02524 0.05955-0.01715 0.12784-0.01715 0.1958-0.01715 0.23852 0.0084 0.4683 0.05955 0.70682 0.04272 0.05178 0 0.12816-0.04304 0.17088 0.04207 0.07638-0.03398 0.1191-0.03398 0.15308-0.04207 0.0091 0.07638 0 0.07638-0.01618 0.08479-0.01748 0.0084-0.04304 0.01715-0.07702 0.04272 0.30648 0.05955 0.59613 0.06796 0.85116 0 0.44338 0.03398 0.82656-0.01715 1.1929-0.14499 0.03398 0.04272 0.05955 0.10227 0.11068 0.01715 0.01683-0.02589 0.05955-0.03463 0.09385-0.04304 0.07638-0.01715 0.17023-0.05113 0.2382-0.02589 0.07702 0.02589 0.10259-0.04207 0.16182-0.04207 0.10259 0 0.19612-0.0087 0.28998-0.02589 0.05113-0.0084 0.10227-0.03398 0.16182-0.05113a0.41263 0.41263 0 0 0-0.18771-0.04304c0.10259-0.05113 0.19612-0.09385 0.28998-0.13593-0.01715 0.02524-0.0343 0.05922-0.06796 0.05922h0.11877c-0.02589 0-0.05987 0.0767-0.10227 0.12784 0.30616-0.0767 0.58707-0.14499 0.85989-0.2136-0.09385-0.17865 0.10194-0.11877 0.17023-0.22137-0.08512 0.02589-0.17023 0.05113-0.25567 0.06796 0.28965-0.14466 0.58772-0.2725 0.87705-0.40034-0.04207 0.05113-0.09385 0.0767-0.16991 0.11974 0.05113 0.0081 0.08512 0.0081 0.11068 0.01618 0.13593 0.04304 0.10227-0.08479 0.14466-0.16182 0.16182 0 0.22978-0.02524 0.30648-0.05113 0.08512-0.02589 0.17023-0.05113 0.25567-0.08512 0.13593-0.05955 0.26376-0.13593 0.40001-0.20389 0.02589-0.0091 0.06796 0 0.10227 0 0.09385-0.0602 0.12751-0.11133 0.15308-0.10292 0.11974 0.01715 0.20389-0.02589 0.23819-0.13593 0.05955-0.04304 0.10227-0.07702 0.14466-0.10292 0.18706-0.10227 0.36571-0.20454 0.55341-0.3068 0.06796 0 0.10227 0 0.1191-0.0087 0.11133-0.05178 0.2136-0.11068 0.31554-0.17056a0.73076 0.73076 0 0 1-0.08512-0.04207c0.08479-0.01748 0.11004-0.02589 0.16182-0.04304 0.20389-0.23949 0.48545-0.40131 0.69808-0.58901 0.09385-0.0084 0.09385-0.03398 0.09385-0.05081 0.03366-0.04272 0.06796-0.09385 0.11004-0.12816 0.18771-0.17056 0.3916-0.31554 0.56215-0.49451 0.24693-0.2479 0.48545-0.5039 0.70682-0.76831 0.20389-0.23884 0.40907-0.47736 0.5793-0.74177 0.23852-0.36668 0.44273-0.74209 0.65568-1.1262 0.1534-0.2725 0.28965-0.54532 0.44338-0.81815 0.01618-0.02589 0.05081-0.05987 0.07638-0.05987 0.22978-0.02589 0.46021-0.04207 0.68157-0.06796 0.05113-0.0084 0.11068-0.04207 0.16182-0.06796-0.02589-0.04272-0.04272-0.09385-0.06796-0.13657-0.0343-0.05178-0.08544-0.09385-0.11974-0.14564-0.03366-0.04207-0.05922-0.09385-0.08479-0.14466-0.02589-0.04207-0.05113-0.07638-0.0767-0.11974-0.05178-0.09385-0.10259-0.18771-0.14564-0.28933-0.0084-0.02589-0.02589-0.06796-0.01683-0.09385 0.1534-0.33237 0.21295-0.69063 0.35762-1.0233 0.14466-0.34111 0.18771-0.72494 0.25567-1.0916 0.05955-0.34952 0.09385-0.69905 0.13593-1.0486 0.02589-0.24726 0.05987-0.4861 0.06796-0.73335 0.05178-0.39224 0.0343-0.75924 0.02589-1.1262-0.0084-0.32363-0.02589-0.65633-0.04207-0.98061zm-21.368 10.498c-0.059549-0.067963-0.11068-0.14499-0.17023-0.21295l0.025891-0.02589c0.092883 0.10259 0.18674 0.20486 0.28027 0.31587-0.051134-0.02589-0.11068-0.04272-0.13593-0.07703zm0.13593 0.07703c0.025891-0.0087 0.051781-0.0087 0.077025-0.01715 0.025891 0.04272 0.04272 0.09385 0.067963 0.14499-0.1191-0.0087-0.17865-0.05987-0.14466-0.12784zm8.8579 3.5221v-0.02589c0.16182-0.01683 0.3149-0.03398 0.47671-0.05081v0.02492c-0.16182 0.02589-0.3149 0.04207-0.47671 0.05113zm2.1457-0.22169c-0.11877 0.02589-0.24661 0.04304-0.36571 0.0602-0.04272 0.0084-0.09385 0.05113-0.11068-0.02589-0.01715 0.0087-0.0343 0.0087-0.05113 0.01748 0.04207 0.12751 0.14466 0.02524 0.22978 0.07638-0.18771 0.02589-0.36571 0.04272-0.545 0.06796v-0.01683c0.05178-0.0084 0.11101-0.01715 0.16182-0.02589v-0.02524a2.4936 2.4936 0 0 0-0.25567-0.01715c-0.02492 0-0.05923 0.0343-0.08479 0.04272-0.03398 0.0084-0.06796 0.01715-0.11068 0.01715-0.14466 0.0084-0.28933 0.0084-0.4259 0.01683-0.0087 0-0.02589-0.0084-0.0343-0.0084v-0.02589c0.57057-0.07638 1.1327-0.15308 1.7033-0.22978 0.0087 0.01683 0.0087 0.03398 0.01715 0.05081-0.05113 0-0.08512 0.0178-0.12784 0.02589zm0.12816-0.08479c0.19612-0.02589 0.37542-0.04272 0.56248-0.06796-0.3916 0.11068-0.51943 0.12751-0.56215 0.06796zm-7.418-17.219c0.27185-0.37542 0.55341-0.75083 0.82591-1.1343 0.08512-0.11165 0.15308-0.23107 0.2382-0.34176 0.02589-0.0343 0.05987-0.05113 0.10227-0.08544l-0.0084-0.01618c0.03398-0.04304 0.06796-0.07767 0.08512-0.11133 0.04337-0.06796 0.06893-0.14499 0.10292-0.22169a0.1246 0.1246 0 0 1 0.03398-0.03333c0.11974 0.05955 0.11974-0.06796 0.16182-0.11101 0.0767-0.085439 0.1534-0.17897 0.22137-0.26441 0.05113-0.067963 0.10227-0.12784 0.14499-0.20454 0.0084-0.025891-0.01715-0.067963-0.02589-0.10259h-0.02524c0.02589-0.016829 0.05113-0.042072 0.0767-0.059549 0.0084 0 0.0084 0 0.01683-0.00841 0.05113-0.077025 0.10227-0.15373 0.1534-0.22201 0.10194-0.13593 0.21263-0.2725 0.33172-0.3916-0.01683 0.042072-0.03398 0.085116-0.05114 0.1191 0.0087 0 0.0087 0.00874 0.01715 0.00874 0.10227-0.13657 0.21295-0.26441 0.31522-0.40131-0.0087-0.00809-0.01715-0.016829-0.02589-0.016829-0.04207 0.04272-0.07638 0.085439-0.1191 0.12816-0.0084-0.00874-0.01683-0.017153-0.02589-0.017153 0.08576-0.11101 0.17088-0.22169 0.25567-0.34952 0.01715 0.025891 0.0343 0.059549 0.06796 0.12784 0.03463-0.085116 0.06861-0.14466 0.09385-0.20454-0.02524 0.025891-0.05922 0.051134-0.08479 0.077025l-0.02589-0.025891 0.1534-0.22978c0.16182-0.23043 0.32363-0.46927 0.48545-0.6997 0.05987-0.085116 0.13593-0.1534 0.18771-0.23884 0.16182-0.32363 0.41749-0.57995 0.61296-0.87834 0.04272-0.059549 0.10227-0.11068 0.1534-0.16182 0.04207-0.051781 0.0767-0.034305 0.11068 0.00841 0.22978 0.28998 0.45956 0.58837 0.68934 0.87834 0.17088 0.2136 0.34111 0.41749 0.50293 0.6395 0.1958 0.27315 0.38318 0.54597 0.5793 0.81879 0.22137 0.31554 0.44273 0.63109 0.65568 0.95472 0.32363 0.47801 0.63012 0.95569 0.95375 1.4331 0.23852 0.34952 0.47704 0.69096 0.70682 1.0405h-0.43496c-0.40001-0.0081-0.80908-0.04207-1.2091-0.02524-0.545 0.02589-1.0984 0.08544-1.6434 0.12816-0.68999 0.05987-1.3884 0.06796-2.0777 0.06796-0.24758 0-0.49451 0.03463-0.74112 0.05178-0.29839 0.01683-0.58804 0.03398-0.88611 0.04207-0.34952 0.01748-0.68934 0.02589-1.0389 0.03463-0.19612 0.0084-0.40034 0-0.61329 0zm9.7682 3.9224v0.07702c-0.0084 0-0.01683 0.0087-0.03398 0.0087-0.03398-0.11974-0.06796-0.2479-0.11068-0.36732-0.08512-0.24758-0.17897-0.49516-0.33237-0.71652-0.17088-0.23852-0.32363-0.48545-0.49451-0.73303-0.04207-0.05987-0.10227-0.11101-0.1534-0.16182-0.17897-0.19645-0.35794-0.40131-0.58772-0.54597a6.9533 6.9533 0 0 0-1.0648-0.54625 2.3865 2.3865 0 0 1-0.29774-0.1534h0.20389l1.4564-0.02589c0.31522-0.0081 0.62202-0.0081 0.93692-0.02524 0.07638 0 0.1191 0.02589 0.16182 0.09385 0.07638 0.12784 0.15308 0.25567 0.23819 0.38383 0.0087 0.01683 0.02589 0.04207 0.02589 0.06796 0 0.18771 0 0.38383 0.0084 0.57154 0.0081 0.19612 0.02589 0.38383 0.03366 0.57995 0 0.19612-0.01715 0.40066-0.0084 0.6052 0.0087 0.2903 0.01715 0.58901 0.01715 0.88676zm-9.164-2.8557c0.40034-0.01715 0.78319-0.04272 1.1754-0.05987 0.30583-0.01715 0.62138-0.02589 0.92753-0.04272 0.12784-0.0081 0.24726-0.01618 0.37477 0-0.13593 0.06861-0.2725 0.1369-0.3916 0.22201-0.1534 0.10227-0.29774 0.23852-0.45147 0.34952-0.15373 0.11068-0.28998 0.24726-0.41749 0.39224-0.16182 0.1958-0.34079 0.36635-0.51134 0.55406-0.11974 0.13657-0.25567 0.26441-0.35762 0.4094-0.14466 0.18771-0.2725 0.3916-0.40875 0.6052 0.04272-0.81038 0.09385-1.6117 0.05955-2.4305zm5.5616 8.2041c-0.27282 0.06796-0.55341 0.14499-0.83498 0.17897-0.2382 0.0343-0.48545 0.02589-0.73238 0.02589a8.2268 8.2268 0 0 1-0.65633-0.02589c-0.24693-0.02524-0.49387-0.05081-0.73238-0.16182-0.20486-0.09385-0.41749-0.17897-0.62138-0.28156-0.20518-0.10227-0.4094-0.22137-0.56312-0.40907-0.11004-0.1369-0.26376-0.24758-0.40001-0.367 0.02589 0.10227 0.08512 0.18771 0.17897 0.24726-0.04272 0.05113-0.10227 0.02589-0.18771-0.11101-0.02524 0.01715-0.05081 0.02589-0.06796 0.0343 0.02589-0.05987 0.05114-0.11974 0.0767-0.17056-0.03398-0.06796-0.0767-0.14499-0.11068-0.2136-0.06796-0.11068-0.13593-0.22978-0.1958-0.34079-0.01715-0.02589-0.01715-0.05113-0.03398-0.0767a1.9072 1.9072 0 0 1-0.11974-0.15373c-0.06796-0.10194-0.12751-0.21263-0.21263-0.31522 0 0.02589 0.0087 0.05113 0.0087 0.08544-0.0087 0-0.01715 0.0084-0.01715 0.0084l-0.17929-0.43496c-0.0084 0-0.0084 0-0.01683 0.0084l0.15308 0.56312c-0.0084 0-0.01683 0.0081-0.02589 0.0081-0.02492-0.03366-0.05049-0.06796-0.06796-0.11004-0.01683-0.06861-0.06796-0.06861-0.11004-0.04304-0.02589 0.01715-0.04304 0.0767-0.03431 0.10227 0.05987 0.14499 0.12784 0.28998 0.19612 0.43496 0.01683 0.05113 0.03398 0.09385 0.05955 0.14499 0.0087 0.01715 0.0343 0.03398 0.0343 0.05955 0.0343 0.06796 0.05987 0.13593 0.10227 0.19612 0.0767 0.10227 0.16182 0.20454 0.23852 0.3068 0.07605 0.10227 0.14402 0.2136 0.2123 0.31554 0.0084 0.01715 0.03398 0.01715 0.04207 0.02589 0.04304 0.12784 0.18771 0.22137 0.28998 0.17023 0.02589 0.19612 0.23852 0.26441 0.32363 0.45212a3.8697 3.8697 0 0 1-0.24693-0.11101c-0.0087 0.0084-0.0087 0.01683-0.01748 0.03398 0.10227 0.05113 0.20454 0.10227 0.29774 0.16182 0.08576 0.05178 0.17088 0.10259 0.24758 0.16182 0.10227 0.09385 0.22169 0.14564 0.36571 0.17929a0.091265 0.091265 0 0 0-0.01618-0.03463c0.2382 0.11101 0.48545 0.23043 0.67251 0.32363-0.88578 0.01748-1.8311 0.03463-2.8108 0.05178 0-0.16182-0.0084-0.31554-0.0084-0.47768 0-0.06796 0.01683-0.12784 0.0081-0.19612-0.02589-0.3916-0.02589-0.78449-0.0767-1.1683-0.05081-0.40907-0.05081-0.81006-0.04207-1.2201 0.0081-0.22104-0.0087-0.45114-0.01748-0.67316 0-0.29839 0-0.58901 0.0091-0.88676 0-0.04272 0.01715-0.0767 0.03431-0.11974h0.02589c0.0081 0.01748 0 0.04304 0.01618 0.05178 0.02589 0.02589 0.06861 0.06796 0.08576 0.05955 0.05081-0.03431 0.12751-0.06796 0.14466-0.11974 0.04207-0.10194 0.05955-0.21295 0.05955-0.31522 0-0.07638 0.0343-0.12751 0.06796-0.17897 0.01748-0.02589 0.02589-0.05113 0.04304-0.08512-0.03398-0.02589-0.06796-0.04272-0.11068-0.0767 0.0343-0.09385 0.02589-0.20486 0.15373-0.25567 0.01683-0.0087 0.01683-0.05178 0.02589-0.07703 0.0081-0.06893 0.01618-0.14564 0.02524-0.2136 0.01683 0.02589 0.02589 0.03398 0.04207 0.05081a0.13593 0.13593 0 0 1 0.01748-0.02589c0-0.03366-0.0084-0.10194 0-0.10194 0.10227-0.01715 0.05955-0.12784 0.11068-0.17897 0.0081-0.0091-0.0087-0.03463-0.0087-0.05178 0-0.01683 0-0.04207 0.0084-0.04207 0.11877-0.02589 0.10194-0.15373 0.17865-0.2136 0.02589-0.01715 0.03398-0.04207 0.06796-0.08512 0.06796 0.1191-0.05113 0.17897-0.05955 0.26408 0.14434-0.08512 0.18706-0.28965 0.10194-0.34952 0.03398-0.02589 0.06796-0.05955 0.09385-0.09385 0.09385-0.10227 0.19548-0.19612 0.28091-0.29839 0.05987-0.07638 0.09385-0.17023 0.1534-0.24693 0.0343-0.04272 0.10227-0.0767 0.1534-0.10259 0.1534-0.08479 0.29774-0.17865 0.3916-0.32363 0.01715-0.01715 0.04272-0.03398 0.06796-0.05114 0.02589-0.01715 0.07703-0.01715 0.08544-0.04272 0.0087-0.01683-0.01683-0.05955-0.03398-0.08512 0.03366-0.01715 0.06796-0.05113 0.13593-0.08544-0.02589 0.05113-0.03398 0.08544-0.05113 0.11974l0.04207 0.04207c0.07703-0.05955 0.19612-0.12751 0.27282-0.17865 0-0.0081-0.04272-0.04207-0.04272-0.04207-0.05081 0.02589-0.12751 0.06796-0.20389 0.10227 0.01618-0.02589 0.01618-0.04272 0.02589-0.05113 0.11877-0.0767 0.23787-0.1534 0.36571-0.2136 0.29774-0.13593 0.59613-0.2725 0.8942-0.40034 0.05113-0.02589 0.11974-0.0084 0.17897-0.0084 0.02524 0 0.04207 0 0.06796-0.0084 0.13593-0.04272 0.2725-0.08544 0.40875-0.11974 0.05923-0.01683 0.12719-0.02524 0.18771-0.02524 0.2547 0.0081 0.51037 0.0081 0.76572 0.02524 0.11068 0.0084 0.21295 0.03398 0.31522 0.06796a3.1975 3.1975 0 0 1 0.38318 0.16182c0.14466 0.07767 0.28091 0.16246 0.41749 0.25632 0.24693 0.16182 0.47671 0.34111 0.72364 0.4861 0.23852 0.14499 0.4259 0.34111 0.5793 0.56312 0.18771 0.26408 0.40034 0.50293 0.48545 0.82688l0.12751 0.56312c0.02589 0.10227 0.08544 0.20454 0.05987 0.32363-0.04304 0.2136-0.07702 0.43529-0.11101 0.64856-0.01683 0.08576-0.03398 0.17153-0.02524 0.25567 0.01618 0.26538-0.08576 0.49516-0.18771 0.734-0.0343 0.0767-0.08544 0.15373-0.12784 0.23884a0.25826 0.25826 0 0 0 0.06796 0.0343l0.0767-0.1534c0.0087 0 0.0087 0 0.01715 0.0087-0.04272 0.1191-0.0767 0.24726-0.11974 0.36668-0.10162 0.26441-0.20389 0.53723-0.33172 0.7929-0.06796 0.14499-0.18771 0.26441-0.2725 0.40131-0.08479 0.1191-0.15308 0.24693-0.2382 0.35794-0.0767 0.09385-0.15308 0.18771-0.25567 0.25567-0.22978 0.17056-0.4683 0.34111-0.71523 0.47768-0.15308 0.09385-0.33205 0.14499-0.50228 0.18771zm-4.5396-0.45309-0.0084 0.0087c-0.0178-0.0084-0.04337-0.01683-0.0602-0.03398l-0.20454-0.30745c-0.01683-0.02524-0.02589-0.05081-0.01683-0.08479 0.09385 0.14499 0.18771 0.28156 0.28965 0.41749zm5.2979 1.1683c0.38286-0.16182 0.69808-0.3916 0.98708-0.65633 0.04304-0.04272 0.08544-0.08512 0.13657-0.11974 0.35794-0.22137 0.62138-0.52849 0.86022-0.8696 0.2725-0.39224 0.45147-0.83562 0.67316-1.2534a0.88352 0.88352 0 0 1 0.05081-0.09385c-0.01715 0.9722 0.09385 1.9272 0.22137 2.891-0.96216 0.03398-1.9418 0.06796-2.9295 0.10227zm8.6355-0.25567c-0.0084 0.01715-0.02589 0.0343-0.03398 0.05178-0.0087-0.01748-0.0087-0.04304-0.01715-0.07767-0.05113 0.1369-0.16182 0.06861-0.23852 0.06861-0.45956 0.0087-0.92818 0.0087-1.3884 0.0087-0.44273 0-0.89388 0-1.3366 0.0078-0.14499 0-0.29839 0.03398-0.44338 0.04272-0.34888 0.01683-0.69808 0.02589-1.0473 0.03398-0.02589 0-0.05113-0.04207-0.09385-0.07638a0.58578 0.58578 0 0 1-0.05113 0.0767c-0.0091-0.01683-0.02589-0.03366-0.04304-0.05922-0.0084 0.02589-0.01715 0.05113-0.02589 0.06796h-0.0246c-0.01715-0.1191-0.05113-0.22978-0.05113-0.34952 0-0.25567 0.02589-0.51134 0.03398-0.76766 0.0087-0.1191 0-0.22978 0-0.34111 0.0343 0.02589 0.05987 0.04304 0.09385 0.06796 0.01683-0.03333 0.03398-0.0589 0.05113-0.08414 0 0-0.01715-0.0091-0.0343-0.02589 0.01618-0.0087 0.03366-0.02589 0.03366-0.0343 0.0084-0.02589 0.02589-0.05113 0.02589-0.06796 0-0.05987-0.01748-0.11101-0.02589-0.16182 0.0084 0 0.01683 0 0.02589-0.0091l0.05081 0.25567h0.02589c-0.0343-0.05922 0.07638-0.11068-0.01715-0.17865-0.0084-0.0087 0.0084-0.05987 0.0084-0.08544-0.02589-0.05081-0.04207-0.10194-0.06796-0.17023 0.0084-0.0084 0.03398-0.01715 0.05955-0.02589-0.03398-0.01683-0.05955-0.03366-0.08512-0.04207 0.08512-0.07703 0.08512-0.11974 0.0084-0.20486 0.01748-0.0081 0.0343-0.0081 0.0343-0.01618 0-0.07702 0-0.15373-0.01683-0.22978-0.01715-0.08609 0.02589-0.18771-0.10227-0.23949 0.0084 0.02589 0.01715 0.04272 0.03398 0.06796 0 0-0.02589 0.0087-0.05113 0.02589-0.11068-0.10259-0.04207-0.23949-0.06796-0.39257 0.05955 0.01715 0.10227 0.0343 0.14466 0.05178-0.01715-0.0602-0.05955-0.12848-0.08511-0.20518h-0.03463v-0.56312c0 0.0087 0.05955 0.0087 0.09385 0.01748 0-0.0087 0.0081-0.01715 0.0081-0.02589-0.02589-0.03398-0.05987-0.06796-0.09385-0.11068l0.01715-0.01715c-0.06796-0.08479-0.03398-0.20389-0.03398-0.22978v-0.5971c0.08544 0.08544-0.04207 0.19612 0.08544 0.24726v-0.08512h-0.0087c-0.0084-0.12784-0.0084-0.25567-0.01683-0.38383h-0.01683c-0.0087 0.01748-0.0087 0.02589-0.01748 0.04304h-0.01683l0.05113-2.0382c0.08512 0.11068 0.17865 0.2136 0.23819 0.32363 0.19612 0.35859 0.45147 0.66571 0.68999 0.98967 0.20454 0.28156 0.3916 0.58837 0.5793 0.87834 0.22978 0.34952 0.45114 0.69905 0.68125 1.0486 0.17023 0.26473 0.34952 0.52914 0.52752 0.78514 0.16182 0.22978 0.3327 0.45179 0.50293 0.67381 0.14434 0.19612 0.29774 0.39224 0.44241 0.58837 0.17056 0.23884 0.34079 0.47736 0.51134 0.70779 0.08479 0.1191 0.17865 0.23852 0.27185 0.35794 0.05178 0.06796 0.12816 0.11974 0.17929 0.16182-0.0081 0-0.01683 0-0.03366-0.0084 0.02589 0.03398 0.04207 0.05955 0.05955 0.0767 0.09385 0.05113 0.10227 0.10227 0.05113 0.17929zm0.43432-2.1315v-0.05987c0 0.01683 0.0084 0.04207 0 0.05955zm0.28965-3.7606c-0.0087 0-0.05955-0.05178-0.06796-0.0602-0.0087 0.02589 0 0.05113-0.01715 0.08544-0.0087-0.02524-0.06796-0.01683-0.06796-0.04207-0.0087 0.1191 0.05081 0.23852 0.04207 0.35794 0.02589-0.01715 0.12784-0.02589 0.1534-0.05113 0.0087 0.0084 0.02589 0.01683 0.03431 0.01683-0.17056 0.12816-0.12784 0.25567-0.05114 0.4013 0.01683 0.03366 0.06796 0.10194 0.01683 0.17023-0.01683 0.01715 0.0087 0.06796 0.01715 0.11101h0.02492v0.01618l-0.0767 0.02589c-0.01683-0.02589-0.11877-0.07638-0.11877-0.11974v0.43561c0.08512 0.02589 0.08512 0.14499 0.1191 0.20486a0.25502 0.25502 0 0 0 0.03463-0.06796l0.0087 0.0078c-0.0087 0.05113-0.01715 0.10227-0.0343 0.15373-0.01683 0.07638-0.03398 0.14466-0.04207 0.22137 0 0.0084 0.01618 0.02589 0.01618 0.03398-0.09321 0.2136-0.04207 0.45179-0.07605 0.67316-0.02589 0.16182 0 0.33334-0.01715 0.50358-0.01748 0.14499-0.05178 0.29839-0.08544 0.44338-0.0087 0.02589-0.02589 0.03398-0.06796 0.05113 0.01683-0.10227 0.0084-0.17056-0.0087-0.26441-0.0091 0-0.11974-0.05955-0.12848-0.05955 0 0.11974 0.06796 0.28156 0.09385 0.41749-0.02589-0.0084-0.12784-0.06796-0.13593-0.06796-0.01748 0.10227-0.01748 0.23884-0.02589 0.34952-0.0087 0.08544-0.08512 0.16182-0.09385 0.25567 0 0.05178 0.05955 0.08544 0.05113 0.17088h0.06796c0-0.17023 0.07702-0.32363 0.07702-0.50293h0.02524c0.0087 0.01715 0.0343 0.0343 0.02589 0.04272-0.01715 0.09385-0.05178 0.19612-0.04272 0.28998 0 0.05113 0.04207 0.10227 0.02589 0.16182-0.01748 0.05178-0.02589 0.10259-0.03463 0.17929-0.0087-0.04272-0.01715-0.05955-0.01715-0.08512-0.0084 0-0.08512-0.0087-0.09385-0.0087-0.0084 0.05113 0.05987 0.10227 0.05113 0.14499-0.0084 0.0084-0.01683 0.0084-0.03398 0.01715l-0.28091-0.40972c-0.22202-0.3237-0.44338-0.6483-0.66475-0.98067a2.0428 2.0428 0 0 1-0.15373-0.25567 11.957 11.957 0 0 0-0.87705-1.3052c-0.24661-0.31522-0.44338-0.65698-0.67316-0.9887-0.2123-0.31554-0.42526-0.62267-0.63821-0.93854-0.0767-0.10194-0.17023-0.1958-0.23852-0.3068-0.22104-0.34952-0.41749-0.70779-0.6382-1.0573-0.18771-0.2903-0.3916-0.57186-0.58772-0.8531-0.06796-0.09385-0.13593-0.19644-0.20454-0.29871a0.11845 0.11845 0 0 1-0.01683-0.0589c-0.01715-0.18771-0.0343-0.37542-0.04272-0.55438 0-0.17056 0.01715-0.34111 0.01715-0.5204v-0.1534c0-0.04272 0.0081-0.0767 0.0081-0.11974 0.0081-0.0081 0.01683-0.02524 0.02524-0.03366-0.24693 0-0.5026-0.0091-0.74954 0-0.16182 0.0081-0.24693-0.0602-0.35762-0.17962-0.32364-0.36668-0.56215-0.78449-0.84307-1.1767a52.584 52.584 0 0 0-0.80908-1.1091c-0.22169-0.29839-0.44338-0.58837-0.66442-0.88676-0.24726-0.34111-0.48545-0.68222-0.74112-1.0233a123.62 123.62 0 0 0-0.93692-1.2279c-0.14564-0.18771-0.30745-0.36668-0.46927-0.56312 0.11101 0.017476 0.2136 0.034305 0.31554 0.043043l0.40907 0.025891c0.30648 0.02492 0.61296 0.042072 0.91912 0.084145 0.25567 0.034629 0.51134 0.085763 0.77543 0.12816 0.56248 0.093854 1.1159 0.24758 1.6525 0.42655 0.31522 0.10227 0.62138 0.23884 0.92883 0.36668 0.68934 0.28156 1.3453 0.62267 1.9926 0.98061 0.20389 0.11101 0.32363 0.28998 0.47639 0.45212 0.22169 0.23043 0.44338 0.46053 0.656 0.69905 0.24661 0.28156 0.47639 0.57154 0.71523 0.86151 0.21263 0.25567 0.43367 0.51134 0.64727 0.76766 0.06796 0.0767 0.11974 0.17056 0.17865 0.25567 0.13593 0.20486 0.28965 0.40131 0.40875 0.62267 0.08479 0.16246 0.13593 0.35017 0.19547 0.52914 0.08479 0.26441 0.17023 0.52008 0.25567 0.78449 0.05923 0.19612 0.11004 0.40131 0.15276 0.6052 0.0343 0.1369 0.02589 0.28156 0.06796 0.41749 0.05178 0.17994 0 0.37542 0.05178 0.55503 0.0081 0.01715 0.01618 0.04272 0.02524 0.05987 0.03398 0.03366 0.05955 0.06796 0.0084 0.1191-0.0081 0.0084-0.0081 0.04207 0 0.06796 0.01748-0.01683 0.02589-0.03398 0.04304-0.05955 0 0.01715 0.0081 0.02589 0.0081 0.03398 0 0.03366-0.0087 0.06796 0 0.10194 0 0.01683 0.01683 0.04207 0.02524 0.05955 0.01715-0.01748 0.03398-0.02589 0.06796-0.05178 0.0767 0.2903 0.08544 0.58028 0.08544 0.87867 0 0.28156 0.05081 0.56312-0.06796 0.83595 0.02524-0.09385-0.03431-0.17962-0.0087-0.26473zm-19.239-0.84501c0.034305 0.02589 0.093854 0.04272 0.034305 0.09385-0.04272 0.05955-0.093854 0.11068-0.12784 0.17897-0.033982 0.05987-0.059549 0.0767-0.11068 0.03431 0.067963-0.11101 0.13593-0.2136 0.20389-0.30745zm17.119 8.9378c0 0.02524 0.0084 0.04207 0.0084 0.06796 0.01715-0.03398 0.01715-0.05113 0.02589-0.06796zm0 0.07638v-0.0084zm-1.7373 3.326-1.4822-8.2209c-0.02524-0.0081-0.05923-0.02492-0.1191-0.04207 0.01715 0.03398 0.02589 0.05955 0.0343 0.08512 0.04207-0.0084 0.05955-0.0084 0.07638-0.01683 0-0.0084 0-0.01683 0.0087-0.02589l1.4822 8.2216zm-1.5331-10.071c-0.0084 0.02524-0.0084 0.05113-0.0084 0.0767 0-0.02589 0-0.05178 0.0091-0.07702zm0.0084 0.17023c-0.0084 0-0.0084 0-0.01683-0.0091v0.0084c0.0091 0.0084 0.0091 0.0084 0.01748 0zm-0.01683 0.06796v-0.05987c-0.02492 0.0084-0.05049 0.0084-0.08479 0.01715 0.04272 0.01618 0.08544 0.02524 0.08544 0.04207z" fill="#f45e52" stroke="#f45e52" stroke-width=".80698"/>
</svg>
