<!-- Created with Inkscape (http://www.inkscape.org/) -->
<svg width="30.002" height="29.999" version="1.1" xml:space="preserve" xmlns="http://www.w3.org/2000/svg"><g transform="matrix(3.1497 0 0 3.1497 -11.666 -17.527)"><path class="ColorScheme-Text" d="m8.459 6.359c-0.189 0.016-0.189 0.174-0.256 0.565a3.429 3.412 0 0 0-0.379 0.053c-0.167-0.402-0.225-0.543-0.383-0.49-0.181 0.062-0.139 0.217-0.11 0.624a3.429 3.412 0 0 0-0.353 0.145c-0.281-0.34-0.378-0.458-0.513-0.36-0.154 0.11-0.072 0.247 0.072 0.616a3.429 3.412 0 0 0-0.306 0.234c-0.355-0.261-0.477-0.352-0.586-0.224-0.123 0.144-8e-3 0.255 0.223 0.583a3.429 3.412 0 0 0-0.23 0.298c-0.372-0.138-0.51-0.218-0.618-0.064-0.096 0.136 0.023 0.232 0.365 0.507a3.429 3.412 0 0 0-0.147 0.353c-0.391-0.037-0.545-0.078-0.609 0.099-0.057 0.155 0.081 0.217 0.475 0.39a3.429 3.412 0 0 0-0.049 0.375c-0.386 0.075-0.545 0.077-0.557 0.265-0.01 0.162 0.139 0.185 0.553 0.239a3.429 3.412 0 0 0 0.054 0.398c-0.354 0.155-0.507 0.195-0.477 0.38 0.026 0.163 0.178 0.149 0.611 0.109a3.429 3.412 0 0 0 0.154 0.367c-0.302 0.234-0.44 0.31-0.367 0.481 0.066 0.153 0.21 0.102 0.625-0.044a3.429 3.412 0 0 0 0.224 0.289c-0.228 0.334-0.343 0.447-0.217 0.59 0.109 0.125 0.23 0.033 0.576-0.23a3.429 3.412 0 0 0 0.307 0.237c-0.139 0.385-0.222 0.524-0.064 0.632 0.138 0.095 0.232-0.026 0.508-0.374l-0.067-0.04a3.429 3.412 0 0 0 0.403 0.171c-0.027 0.396-0.066 0.55 0.114 0.61 0.155 0.052 0.214-0.085 0.373-0.472a3.429 3.412 0 0 0 0.388 0.052c0.074 0.438 0.098 0.588 0.265 0.571 0.188-0.018 0.184-0.177 0.246-0.567a3.429 3.412 0 0 0 0.392-0.05c0.161 0.392 0.22 0.53 0.376 0.479 0.18-0.06 0.141-0.214 0.114-0.61a3.429 3.412 0 0 0 0.356-0.146c0.268 0.339 0.362 0.457 0.499 0.364 0.155-0.107 0.077-0.244-0.058-0.614a3.429 3.412 0 0 0 0.317-0.241c0.332 0.251 0.453 0.339 0.56 0.216 0.122-0.14 0.015-0.255-0.201-0.57a3.429 3.412 0 0 0 0.231-0.294c0.405 0.143 0.548 0.193 0.614 0.041 0.073-0.17-0.063-0.246-0.361-0.476a3.429 3.412 0 0 0 0.156-0.372c0.426 0.04 0.577 0.053 0.603-0.11 0.03-0.182-0.121-0.224-0.468-0.375a3.429 3.412 0 0 0 0.05-0.402c0.41-0.054 0.558-0.078 0.548-0.24-0.012-0.185-0.17-0.19-0.546-0.262a3.429 3.412 0 0 0-0.052-0.38c0.387-0.171 0.523-0.233 0.467-0.387-0.064-0.175-0.216-0.137-0.6-0.1a3.429 3.412 0 0 0-0.148-0.359c0.335-0.27 0.452-0.365 0.357-0.5-0.108-0.154-0.245-0.074-0.613 0.063a3.429 3.412 0 0 0-0.237-0.305c0.249-0.35 0.335-0.474 0.207-0.579-0.144-0.117-0.255-6e-3 -0.564 0.22a3.429 3.412 0 0 0-0.313-0.238c0.165-0.402 0.222-0.541 0.073-0.614-0.172-0.084-0.251 0.055-0.518 0.363a3.429 3.412 0 0 0-0.355-0.145c0.036-0.439 0.051-0.59-0.114-0.616-0.186-0.028-0.224 0.126-0.378 0.484a3.429 3.412 0 0 0-0.389-0.047c-0.065-0.43-0.087-0.58-0.253-0.566zm-0.139 1.049c0.38-7e-3 0.83 0.06 0.977 0.124 0.637 0.193 1.226 0.55 1.728 1.38 0.094 0.154 0.162 0.303 0.192 0.44a0.57 0.57 0 0 1-0.074 0.444c-0.08 0.105-0.18 0.203-0.317 0.216-0.43 0.04-1.012 0.017-1.471 0.012-0.078 0-0.15-0.032-0.173-0.056-0.136-0.086-0.228-0.271-0.38-0.324-0.242-0.111-0.34-0.018-0.477-0.186a23.72 23.72 0 0 1-0.719-1.228c-0.162-0.281-0.056-0.563 0.189-0.715 0.095-0.074 0.298-0.104 0.525-0.107zm-1.691 0.867c0.02 0 0.04 0 0.06 2e-3 0.13 0.018 0.265 0.056 0.344 0.17 0.245 0.353 0.512 0.87 0.733 1.272 0.037 0.067 0.045 0.147 0.035 0.178-8e-3 0.16-0.125 0.33-0.096 0.488 0.02 0.266 0.151 0.305 0.072 0.506-0.229 0.417-0.472 0.832-0.721 1.228-0.166 0.28-0.464 0.324-0.716 0.186-0.298-0.124-0.697-1.06-0.723-1.313-0.144-0.649-0.122-1.337 0.356-2.18 0.09-0.157 0.187-0.289 0.291-0.382a0.597 0.597 0 0 1 0.365-0.155zm1.836 1.768a0.283 0.283 0 0 1 0.284 0.284 0.283 0.283 0 0 1-0.284 0.283 0.283 0.283 0 0 1-0.283-0.283 0.283 0.283 0 0 1 0.283-0.284zm1.56 0.594c0.238 0 0.476 5e-3 0.71 0.014 0.325 4e-3 0.514 0.24 0.52 0.527 0.04 0.32-0.572 1.132-0.779 1.281-0.492 0.449-1.1 0.773-2.07 0.782a1.52 1.52 0 0 1-0.478-0.06 0.57 0.57 0 0 1-0.344-0.29c-0.05-0.122-0.085-0.258-0.025-0.383 0.184-0.389 0.499-0.877 0.737-1.269 0.04-0.066 0.105-0.113 0.137-0.12 0.143-0.073 0.35-0.056 0.473-0.16 0.22-0.151 0.189-0.284 0.403-0.316 0.238-5e-3 0.477-8e-3 0.715-6e-3z" fill="#b3b3b3"/></g></svg>
