<svg width="32" height="32" fill="none" version="1.1" viewBox="0 0 32 32" xmlns="http://www.w3.org/2000/svg">
 <path d="m7.3571 5c-1.3018 0-2.3571 1.0553-2.3571 2.3571v17.286c0 1.3018 1.0553 2.3571 2.3571 2.3571h17.286c1.3018 0 2.3571-1.0553 2.3571-2.3571v-17.286c0-1.3018-1.0553-2.3571-2.3571-2.3571zm5.5 14.706v3.3658c1.2546 0 2.4142-0.30038 3.4787-0.90106 1.0646-0.60076 1.9295-1.4223 2.5947-2.4647 0.66534-1.0425 0.99801-2.1997 0.99801-3.4718v-6.3075c0-0.14134-0.07606-0.21202-0.22809-0.21202h-6.6152c-0.15204 0-0.22809 0.070675-0.22809 0.21202v6.0955c0 0.14135 0.07606 0.21199 0.22809 0.21199h3.2791c0 0.93641-0.34218 1.7492-1.0265 2.4382-0.68436 0.68907-1.5112 1.0336-2.4807 1.0336z" clip-rule="evenodd" fill="#2b9c60" fill-rule="evenodd" stroke-width=".78571"/>
</svg>
