<svg width="200" height="200" viewBox="0 0 200 200" fill="none" xmlns="http://www.w3.org/2000/svg">
<path d="M7 165V35H34.2784V44.9531H17.3216V155.047H34.2784V165H7Z" fill="#A0D9FF"/>
<path d="M192 165V35H164.722V44.9531H181.678V155.047H164.722V165H192Z" fill="#A0D9FF"/>
<path d="M43.7748 78.2901H60.8549V129.435C60.8549 130.992 61.245 132.422 62.2761 133.453C63.3071 134.484 64.7374 134.874 66.2939 134.874C67.8421 134.874 69.2545 134.455 70.2756 133.394C71.3061 132.356 71.7328 130.968 71.7328 129.435V78.2901H88.813C90.3695 78.2901 91.7997 77.9 92.8308 76.869L91.8187 75.8569L92.8308 76.869C93.8618 75.8379 94.2519 74.4076 94.2519 72.8511C94.2519 71.2946 93.8618 69.8644 92.8308 68.8333C91.7997 67.8023 90.3695 67.4122 88.813 67.4122H43.7748C42.2183 67.4122 40.788 67.8023 39.757 68.8333C38.7259 69.8644 38.3359 71.2946 38.3359 72.8511C38.3359 74.4077 38.7259 75.8379 39.757 76.869L39.757 76.869C40.788 77.9 42.2183 78.2901 43.7748 78.2901ZM108.13 131.309L108.136 131.313C111.519 133.745 116.099 134.874 121.71 134.874H135.45C141.946 134.874 147.054 133.334 150.478 129.981L150.484 129.975C153.915 126.58 155.488 121.463 155.488 114.931C155.488 108.367 153.898 103.22 150.438 99.7942C147.016 96.3735 141.922 94.7977 135.45 94.7977H123.618C119.858 94.7977 117.824 94.0837 116.924 93.1415C115.994 92.1671 115.317 90.0887 115.317 86.4008C115.317 82.7315 115.983 80.7184 116.866 79.8147L116.871 79.8087L116.877 79.8026C117.741 78.8971 119.75 78.1947 123.523 78.1947H134.878C137.669 78.1947 139.554 78.5433 140.69 79.0988L140.701 79.1045L140.713 79.11C141.661 79.5521 142.397 80.4045 142.827 81.9305C143.051 83.3461 143.546 84.5963 144.433 85.5272C145.429 86.5731 146.821 86.9733 148.332 86.9733C149.952 86.9733 151.43 86.5673 152.493 85.5044L152.504 85.4932L152.515 85.4817C153.618 84.3287 153.889 82.7787 153.662 81.1457L153.658 81.1184L153.653 81.0912C152.839 76.5476 150.853 73.0168 147.592 70.6867C144.401 68.3833 140.109 67.3168 134.878 67.3168H123.523C117.309 67.3168 112.418 68.8111 109.152 72.0776L109.146 72.0832C105.916 75.3489 104.439 80.22 104.439 86.4008C104.439 92.6175 105.934 97.5301 109.189 100.856L109.194 100.862L109.2 100.867C112.495 104.163 117.399 105.676 123.618 105.676H135.45C139.371 105.676 141.634 106.441 142.74 107.546L142.745 107.552L142.75 107.557C143.838 108.622 144.61 110.899 144.61 114.931C144.61 118.898 143.855 121.153 142.787 122.221C141.758 123.25 139.499 123.996 135.45 123.996H121.71C118.546 123.996 116.404 123.602 115.114 122.962C114.038 122.386 113.224 121.306 112.81 119.43C112.561 117.962 112.055 116.666 111.141 115.745C110.153 114.715 108.724 114.359 107.206 114.359C105.627 114.359 104.192 114.776 103.14 115.828C102.03 116.938 101.719 118.48 101.868 120.118L101.873 120.171L101.882 120.224C102.691 125.079 104.734 128.843 108.13 131.309Z" fill="#3BA9F2" stroke="#3BA9F2" stroke-width="2.8626"/>
</svg>
