<svg width="512" height="512" fill="none" version="1.1" viewBox="0 0 512 512" xmlns="http://www.w3.org/2000/svg">
 <g transform="matrix(.91111 0 0 .91111 51 51)" stroke-width=".87891">
  <rect width="450" height="450" rx="43.945" fill="#2e6eb8"/>
  <path d="m278.56 358.09v43.999c7.1525 3.6668 15.612 6.416 25.378 8.2494 9.7664 1.8334 20.059 2.7501 30.88 2.7501 10.546 0 20.564-1.0081 30.055-3.0252 9.4913-2.0162 17.814-5.3394 24.966-9.9686 7.1525-4.6283 12.815-10.679 16.988-18.149 4.1722-7.4707 6.2587-16.705 6.2587-27.705 0-7.9752-1.1918-14.964-3.5763-20.968-2.3845-6.0038-5.8228-11.343-10.317-16.018-4.493-4.6749-9.8807-8.869-16.162-12.582s-13.366-7.2184-21.252-10.518c-5.777-2.3836-10.958-4.6978-15.543-6.9434-4.5852-2.2465-8.4823-4.5378-11.692-6.8748-3.2098-2.3379-5.6856-4.8129-7.4276-7.425-1.742-2.613-2.6139-5.5688-2.6139-8.869 0-3.0243 0.77959-5.7516 2.3388-8.1809 1.5592-2.4293 3.76-4.5141 6.6024-6.2561 2.8433-1.7411 6.3272-3.0938 10.454-4.0562 4.1273-0.9624 8.7117-1.4432 13.756-1.4432 3.6677 0 7.5419 0.27509 11.623 0.82441 4.0808 0.5502 8.1844 1.3983 12.312 2.5436 4.1265 1.1461 8.1378 2.5901 12.036 4.3312 3.8971 1.742 7.4962 3.7582 10.797 6.0504v-41.112c-6.6938-2.5664-14.007-4.4684-21.939-5.7059-7.9321-1.2375-17.034-1.8562-27.304-1.8562-10.455 0-20.358 1.1232-29.711 3.3688-9.3533 2.2456-17.583 5.7516-24.691 10.518-7.1068 4.7672-12.723 10.84-16.85 18.219-4.1265 7.3784-6.1901 16.201-6.1901 26.467 0 13.108 3.7828 24.291 11.348 33.55 7.5648 9.2575 19.05 17.095 34.457 23.512 6.0522 2.475 11.692 4.9034 16.919 7.287 5.2268 2.3836 9.7436 4.8586 13.548 7.425 3.8057 2.5664 6.8089 5.3622 9.0106 8.3874 2.2008 3.0243 3.3012 6.4617 3.3012 10.312 0 2.8415-0.68819 5.4765-2.0637 7.9058-1.3755 2.4293-3.462 4.5369-6.2587 6.3246s-6.2815 3.1852-10.454 4.1933c-4.173 1.009-9.0554 1.5126-14.65 1.5126-9.537 0-18.982-1.6726-28.336-5.0186-9.3533-3.3451-18.019-8.3637-25.997-15.056zm-73.968-108.41h56.443v-36.107h-157.32v36.107h56.167v160.77h44.713z" clip-rule="evenodd" fill="#fff" fill-rule="evenodd"/>
 </g>
</svg>
