<!-- Generator: Adobe Illustrator 11 Build 196, SVG Export Plug-In . SVG Version: 6.0.0 Build 78)  -->
<svg width="24" height="24" enable-background="new 0 0 582.92 235.27" overflow="visible" version="1.0" viewBox="0 0 19.986 20.166" xml:space="preserve" xmlns="http://www.w3.org/2000/svg" xmlns:xlink="http://www.w3.org/1999/xlink"><defs><linearGradient id="linearGradient4671"><stop stop-color="#ffc836" offset="0"/><stop stop-color="#ffe873" offset="1"/></linearGradient>
			
			
		
					
					
					
					
					
					
				
					
					
					
						 
					
						 
					
				
						
						
						
						
						
						
					
			
			
		
				
				
				
			
					
					
					
					
					
					
				<linearGradient id="linearGradient4695" x1="172.94" x2="26.67" y1="77.476" y2="76.313" gradientUnits="userSpaceOnUse" xlink:href="#linearGradient4689"/><linearGradient id="linearGradient4689"><stop stop-color="#3582c0" offset="0"/><stop stop-color="#3381c2" offset="1"/></linearGradient><linearGradient id="linearGradient4677" x1="224.24" x2="-65.309" y1="144.76" y2="144.76" gradientUnits="userSpaceOnUse" xlink:href="#linearGradient4671"/></defs>
	<style type="text/css"/>
	<metadata>
		
		
<xpacket/>
                                                                                                                                                                                                                                                                                                                                                                                                                                                                                                                                                                                                                                                                                                                                                                                                                                                                                                                                                                                                                                                                                                                                                                                                                                                                                                                                                                                                                                                                                                                                                                                                                                                                                                                                                                                                                                                                                                                                                                                                                                                                                                                                <xpacket/>
			</metadata>
		
		
	<g transform="matrix(.076553 0 0 .076435 .38898 .94691)"><path d="m77.67 47.068c0-13.623 3.6528-21.034 23.822-24.563 13.693-2.3999 31.251-2.6999 47.627 0 12.935 2.1352 23.822 11.77 23.822 24.563v44.945c0 13.182-10.57 23.981-23.822 23.981h-47.627c-16.164 0-29.787 13.782-29.787 29.363v21.564h-16.376c-13.852 0-21.917-9.9877-25.305-23.964-4.5704-18.776-4.3763-29.963 0-47.945 3.7939-15.687 15.917-23.964 29.769-23.964h65.52v-5.9997h-47.645z" fill="url(#linearGradient4695)"/><path d="m172.94 190.9c0 13.623-11.823 20.523-23.822 23.964-18.052 5.188-32.54 4.3939-47.627 0-12.599-3.6704-23.822-11.17-23.822-23.964v-44.945c0-12.935 10.782-23.981 23.822-23.981h47.627c15.864 0 29.787-13.711 29.787-29.963v-20.964h17.858c13.87 0 20.399 10.305 23.822 23.964 4.7645 18.97 4.9762 33.157 0 47.945-4.8174 14.364-9.9701 23.964-23.822 23.964h-71.449v5.9997h47.627z" fill="url(#linearGradient4677)"/></g></svg>
