<svg width="22" height="22" version="1.1" xmlns="http://www.w3.org/2000/svg">
 <style id="current-color-scheme" type="text/css">.ColorScheme-Highlight {
            color:#3daee9;
        }
        .ColorScheme-Text {
            color:#232629;
        }</style>
 <rect transform="matrix(0,-4.7957,-4.7957,0,-2.9577,-1399.4)" x="-296.39" y="-5.2042" width="4.5875" height="4.5875" rx=".62557" ry=".62557" fill="#cdcdcd" stroke-width="1.0837"/>
 <path d="m15.948 4.8085c-0.09962 7.54e-4 -0.1981 0.011108-0.2956 0.030513-0.38998 0.077621-0.75038 0.30356-0.98597 0.65604l-5.1492 7.7237-2.3896-2.3896-0.00953-0.0076c-0.33075-0.30822-0.76208-0.4558-1.1557-0.42722-0.39362 0.02858-0.73885 0.20868-0.9955 0.46533-0.25665 0.25665-0.43484 0.60188-0.46342 0.9955-0.028581 0.39362 0.11709 0.82496 0.42528 1.1557l0.00763 0.0076 3.7265 3.7265c0.68176 0.68151 1.8486 0.56716 2.3839-0.23457v-2e-3l6.1962-9.2932c0.47042-0.70573 0.27657-1.6788-0.4291-2.1493-0.26445-0.17656-0.56697-0.25972-0.86582-0.25746zm2e-3 1.2339c0.05888 2.613e-4 0.11982 0.018162 0.17545 0.055306 0.14846 0.098985 0.18479 0.28063 0.08582 0.4291l-6.1962 9.2952c-0.11575 0.17338-0.32933 0.19316-0.47677 0.04577l-3.7017-3.7017c-0.099589-0.10688-0.10178-0.15905-0.097262-0.22122 0.00452-0.06217 0.040591-0.14357 0.10489-0.20787 0.064299-0.0643 0.1457-0.10038 0.20787-0.10489 0.062174-0.0045 0.11435-0.0024 0.22122 0.09726l3.4366 3.4347 5.9864-8.9805c0.06195-0.092691 0.1555-0.14156 0.25364-0.14113zm-4.6e-5 0c-0.09814-4.352e-4 -0.19169 0.048434-0.25364 0.14113l-5.9864 8.9805-3.4366-3.4347c-0.10688-0.09961-0.15905-0.10175-0.22122-0.09726-0.062173 0.0045-0.14357 0.04059-0.20787 0.10489-0.064299 0.0643-0.10038 0.1457-0.10489 0.20787-0.00452 0.06217-0.00232 0.11434 0.097262 0.22122l3.7017 3.7017c0.14744 0.14739 0.36102 0.12761 0.47677-0.04576l6.1962-9.2952c0.09897-0.14847 0.06264-0.33011-0.08582-0.4291-0.05564-0.037144-0.11657-0.055044-0.17545-0.055306z" clip-rule="evenodd" fill-rule="evenodd" stop-color="#000000" stroke-width=".97643"/>
</svg>
