<svg width="16" height="16" version="1.1" xmlns="http://www.w3.org/2000/svg">
 <style id="current-color-scheme" type="text/css">.ColorScheme-Text {
            color:#232629;
        }</style>
 <path d="m2 0c-1.108 0-2 0.892-2 2v12c0 1.108 0.892 2 2 2h12c1.108 0 2-0.892 2-2v-12c0-1.108-0.892-2-2-2zm6 3c1.3753 0 2.5 1.1247 2.5 2.5v2.084h1.25v5.416h-7.5v-5.416h1.25v-2.084c0-1.3753 1.1247-2.5 2.5-2.5zm0 0.83398c-0.92448 0-1.666 0.74154-1.666 1.666v2.084h3.332v-2.084c0-0.92448-0.74154-1.666-1.666-1.666z" fill="#e0e0e0" fill-opacity=".63826"/>
</svg>
