<?xml version="1.0" encoding="UTF-8" standalone="no"?>
<!-- Created with Inkscape (http://www.inkscape.org/) -->

<svg
   id="svg7384"
   sodipodi:docname="drive-removable-media-usb.svg"
   version="1.1"
   inkscape:version="1.3.2 (091e20ef0f, 2023-11-25, custom)"
   height="36"
   width="36"
   xmlns:inkscape="http://www.inkscape.org/namespaces/inkscape"
   xmlns:sodipodi="http://sodipodi.sourceforge.net/DTD/sodipodi-0.dtd"
   xmlns="http://www.w3.org/2000/svg"
   xmlns:svg="http://www.w3.org/2000/svg"
   xmlns:rdf="http://www.w3.org/1999/02/22-rdf-syntax-ns#"
   xmlns:cc="http://creativecommons.org/ns#"
   xmlns:dc="http://purl.org/dc/elements/1.1/">
  <metadata
     id="metadata90">
    <rdf:RDF>
      <cc:Work
         rdf:about="">
        <dc:format>image/svg+xml</dc:format>
        <dc:type
           rdf:resource="http://purl.org/dc/dcmitype/StillImage" />
        <dc:title>Gnome Symbolic Icon Theme</dc:title>
      </cc:Work>
    </rdf:RDF>
  </metadata>
  <sodipodi:namedview
     inkscape:cy="19.887377"
     pagecolor="#000000"
     borderopacity="1"
     showborder="true"
     inkscape:bbox-paths="false"
     guidetolerance="10"
     inkscape:window-width="1920"
     showguides="true"
     inkscape:object-nodes="true"
     inkscape:snap-bbox="true"
     inkscape:pageshadow="2"
     inkscape:guide-bbox="true"
     inkscape:snap-nodes="true"
     bordercolor="#666666"
     objecttolerance="10"
     id="namedview88"
     showgrid="false"
     inkscape:window-maximized="1"
     inkscape:window-x="0"
     inkscape:snap-global="true"
     inkscape:window-y="0"
     gridtolerance="10"
     inkscape:window-height="1015"
     inkscape:snap-to-guides="true"
     inkscape:current-layer="layer13"
     inkscape:zoom="11.313709"
     inkscape:cx="27.267804"
     inkscape:snap-grids="true"
     inkscape:pageopacity="1"
     inkscape:showpageshadow="0"
     inkscape:pagecheckerboard="0"
     inkscape:deskcolor="#505050">
    <inkscape:grid
       spacingx="1"
       spacingy="1"
       id="grid4866"
       empspacing="2"
       enabled="true"
       type="xygrid"
       snapvisiblegridlinesonly="true"
       visible="false"
       originx="0"
       originy="0"
       units="px" />
  </sodipodi:namedview>
  <title
     id="title9167">Gnome Symbolic Icon Theme</title>
  <defs
     id="defs7386" />
  <g
     inkscape:label="status"
     transform="translate(-442,-156)"
     inkscape:groupmode="layer"
     id="layer9"
     style="display:inline" />
  <g
     inkscape:label="devices"
     transform="translate(-442,-156)"
     inkscape:groupmode="layer"
     id="layer10" />
  <g
     inkscape:label="apps"
     transform="translate(-442,-156)"
     inkscape:groupmode="layer"
     id="layer11" />
  <g
     inkscape:label="actions"
     transform="translate(-442,-156)"
     inkscape:groupmode="layer"
     id="layer12" />
  <g
     inkscape:label="places"
     transform="translate(-442,-156)"
     inkscape:groupmode="layer"
     id="layer13">
    <path
       style="display:inline;opacity:0.12;fill:#e8f1f5;fill-opacity:1;stroke-width:0.811613"
       d="m 451.87277,161.56273 c -0.89301,0 -1.5234,0.72353 -1.61213,1.61213 l -1.62323,16.25445 c -0.0887,0.88859 0.71912,1.61213 1.61213,1.61213 h 4.27841 13.58817 1.62323 0.0111 c 0.89301,0 1.70086,-0.72354 1.61213,-1.61213 l -1.62323,-16.25445 c -0.0888,-0.8886 -0.71911,-1.61213 -1.61213,-1.61213 h -0.0111 -1.62322 -10.34173 z m 8.44743,1.16986 c 0.0326,-10e-4 0.0652,0.003 0.0967,0.0111 0.0953,0.0262 0.17354,0.0945 0.21241,0.18546 0.002,0.003 0.003,0.006 0.005,0.01 l 0.003,0.008 1.005,2.32705 c 0.0925,0.21431 -0.0646,0.45331 -0.29801,0.45336 h -0.54689 v 5.83188 c 0.072,-0.064 0.12953,-0.15166 0.2029,-0.21083 0.58662,-0.47288 1.18714,-0.85835 1.55982,-1.33631 0.006,-0.0448 0.0126,-0.10507 0.0174,-0.18388 0.01,-0.19041 0.0135,-0.44001 0.0111,-0.68638 -0.002,-0.19811 -0.009,-0.38267 -0.0143,-0.55481 h -0.39947 c -0.17953,1.5e-4 -0.32511,-0.14543 -0.32496,-0.32497 v -1.99574 c -1.5e-4,-0.17954 0.14543,-0.32512 0.32496,-0.32496 h 1.99258 c 0.17953,-1.6e-4 0.32511,0.14542 0.32496,0.32496 v 1.99574 c 1.5e-4,0.17954 -0.14543,0.32512 -0.32496,0.32497 h -0.57859 c 0.005,0.16997 0.009,0.347 0.0111,0.5453 0.003,0.25872 0.004,0.5204 -0.008,0.7482 -0.006,0.11185 -0.0138,0.21579 -0.0285,0.31387 -0.01,0.066 -0.0296,0.21572 -0.12206,0.35508 -0.004,0.005 -0.007,0.011 -0.0111,0.0159 l -0.002,0.003 c -0.009,0.0123 -0.0192,0.024 -0.0301,0.0349 l 0.0285,-0.0349 c -0.53132,0.7215 -1.26638,1.14623 -1.79126,1.56933 -0.52984,0.42711 -0.83222,0.75691 -0.83222,1.40447 0,0.0208 -0.002,0.0414 -0.006,0.0618 v 1.66761 c 8.1e-4,0.006 7.7e-4,0.003 0.002,0.0159 0.002,0.0217 8.5e-4,0.0434 -0.002,0.065 v 0.95428 c 0.64626,0.22109 1.15401,0.75905 1.15401,1.47739 0,0.9034 -0.73885,1.64225 -1.64225,1.64225 -0.90339,0 -1.64383,-0.73802 -1.64383,-1.64225 0,-0.7054 0.48972,-1.23677 1.11755,-1.46788 v -0.95903 c -0.0778,-0.59259 -0.59009,-1.13247 -1.19522,-1.64859 -0.30854,-0.26315 -0.63029,-0.51683 -0.8988,-0.79576 -0.26747,-0.27787 -0.5262,-0.62227 -0.52945,-1.07 -0.003,-0.40555 0.008,-0.67915 0.0143,-1.00501 -0.53311,-0.23986 -0.94319,-0.71553 -0.94319,-1.33472 0,-0.84183 0.69038,-1.52811 1.53129,-1.52811 0.8409,0 1.5297,0.68721 1.5297,1.52811 0,0.67879 -0.48944,1.18102 -1.10487,1.37911 -0.006,0.3153 -0.0151,0.57878 -0.0127,0.95269 1.6e-4,0.0233 0.0513,0.17383 0.24411,0.37411 0.19503,0.20258 0.50238,0.44874 0.82747,0.72601 0.18422,0.15712 0.35112,0.38569 0.53737,0.57225 v -7.78007 h -0.51518 c -0.23519,-8.3e-4 -0.39151,-0.2437 -0.29484,-0.45812 l 1.05256,-2.31912 c 0.003,-0.009 0.007,-0.0181 0.0111,-0.0269 0.0509,-0.11206 0.16076,-0.18535 0.28375,-0.19022 z"
       id="path4250"
       sodipodi:insensitive="true" />
    <path
       inkscape:connector-curvature="0"
       style="opacity:1;fill:#e8f1f5;fill-opacity:1;stroke-width:0.811613"
       d="m 451.96788,159.9395 c -1.8451,0 -3.14497,1.49471 -3.33047,3.33047 l -1.62322,16.06423 c -0.005,0.0461 -0.002,0.0907 -0.005,0.13632 -0.002,-0.0458 -0.01,-0.0901 -0.01,-0.13632 v 6.4929 c 0,1.8451 1.48537,3.33047 3.33047,3.33047 h 19.31069 c 1.8451,0 3.33046,-1.48537 3.33046,-3.33047 v -5.82237 c 0.0316,-0.21656 0.0375,-0.44106 0.0143,-0.67053 l -1.62322,-16.06423 c -0.18481,-1.83576 -1.48468,-3.33047 -3.32978,-3.33047 z m -0.0951,1.62323 h 4.2784 10.34173 1.62322 0.0111 c 0.89301,0 1.5234,0.72353 1.61214,1.61213 l 1.62322,16.25445 c 0.0887,0.88859 -0.71914,1.61213 -1.61215,1.61213 h -0.0111 -1.62323 -13.58818 -4.2784 c -0.89301,0 -1.70087,-0.72354 -1.61213,-1.61213 l 1.62322,-16.25445 c 0.0888,-0.8886 0.71915,-1.61213 1.61216,-1.61213 z m -3.24963,20.63272 c 0.515,0.29094 1.10475,0.46922 1.72152,0.46922 h 19.31067 c 0.60543,0 1.1845,-0.17227 1.69298,-0.45336 v 3.7109 c 0,0.89301 -0.71912,1.61213 -1.61213,1.61213 h -0.0111 -1.62323 -13.58817 -4.27841 c -0.89301,0 -1.61213,-0.71912 -1.61213,-1.61213 z"
       id="rect4156"
       sodipodi:insensitive="true" />
    <rect
       y="-469.73935"
       x="184.28789"
       height="1.623226"
       width="1.623226"
       id="rect4328"
       style="opacity:0.75;fill:#f5f7f8;fill-opacity:0.95;stroke:none;stroke-width:0.811613"
       transform="rotate(90)"
       sodipodi:insensitive="true" />
    <path
       style="opacity:0.2;fill:#e8f1f5;fill-opacity:0.917098;stroke-width:0.811613"
       d="m 450.31612,184.29582 c -0.60542,0 -1.1845,0.17227 -1.69297,0.45336 v 1.17303 c 0,0.89301 0.71912,1.61213 1.61212,1.61213 h 19.50091 c 0.89301,0 1.61213,-0.71912 1.61213,-1.61213 v -1.15718 c -0.515,-0.29094 -1.10474,-0.46921 -1.72151,-0.46921 z"
       id="path4172"
       sodipodi:insensitive="true" />
    <path
       d="m 460.32031,162.73242 c -0.12299,0.005 -0.2323,0.0794 -0.2832,0.19141 -0.004,0.009 -0.009,0.0183 -0.0117,0.0273 l -1.05273,2.31836 c -0.0967,0.21442 0.0597,0.4562 0.29492,0.45703 h 0.51562 v 7.78125 c -0.18625,-0.18656 -0.35289,-0.41514 -0.53711,-0.57226 -0.32509,-0.27727 -0.63309,-0.52399 -0.82812,-0.72657 -0.19281,-0.20028 -0.24398,-0.34974 -0.24414,-0.37304 -0.002,-0.37391 0.006,-0.63783 0.0117,-0.95313 0.61543,-0.19809 1.10547,-0.70011 1.10547,-1.3789 0,-0.8409 -0.6884,-1.5293 -1.5293,-1.5293 -0.84091,0 -1.53125,0.68747 -1.53125,1.5293 0,0.61919 0.41025,1.09412 0.94336,1.33398 -0.006,0.32586 -0.0167,0.60031 -0.0137,1.00586 0.003,0.44773 0.26182,0.79244 0.52929,1.07031 0.26851,0.27893 0.5899,0.53177 0.89844,0.79492 0.60513,0.51612 1.11751,1.05585 1.19531,1.64844 v 0.95899 c -0.62783,0.23111 -1.11718,0.76335 -1.11718,1.46875 0,0.90423 0.73918,1.64062 1.64257,1.64062 0.9034,0 1.64258,-0.73722 1.64258,-1.64062 0,-0.71834 -0.50804,-1.25743 -1.1543,-1.47852 v -0.95312 c 0.003,-0.0216 0.004,-0.0447 0.002,-0.0664 -0.001,-0.0129 -0.001,-0.01 -0.002,-0.0156 v -1.66796 c 0.004,-0.0204 0.006,-0.0397 0.006,-0.0606 0,-0.64756 0.3022,-0.97719 0.83204,-1.4043 0.51604,-0.41597 1.23466,-0.83554 1.76367,-1.53515 v 0 c 0.0109,-0.0109 0.0203,-0.0229 0.0293,-0.0352 l 0.002,-0.002 c 0.004,-0.005 0.008,-0.0126 0.0117,-0.0176 0.0925,-0.13936 0.11109,-0.28752 0.12109,-0.35352 0.0147,-0.0981 0.0233,-0.2026 0.0293,-0.31445 0.012,-0.2278 0.0108,-0.48933 0.008,-0.74805 -0.002,-0.1983 -0.007,-0.37495 -0.0117,-0.54492 h 0.58008 c 0.17953,1.5e-4 0.32437,-0.14663 0.32422,-0.32617 v -1.9961 c 1.5e-4,-0.17953 -0.14469,-0.32437 -0.32422,-0.32421 h -1.99219 c -0.17953,-1.6e-4 -0.32632,0.14468 -0.32617,0.32421 v 1.9961 c -1.5e-4,0.17954 0.14664,0.32632 0.32617,0.32617 h 0.39844 c 0.005,0.17214 0.0117,0.35658 0.0137,0.55469 0.002,0.24637 2.3e-4,0.49514 -0.01,0.68554 -0.005,0.0788 -0.0116,0.1388 -0.0176,0.1836 -0.37268,0.47796 -0.97393,0.86306 -1.56055,1.33594 -0.0734,0.0592 -0.13113,0.14693 -0.20313,0.21093 v -5.83007 h 0.54688 c 0.23341,-5e-5 0.39133,-0.24077 0.29883,-0.45508 l -1.00586,-2.32617 -0.002,-0.008 c -0.002,-0.004 -0.004,-0.007 -0.006,-0.01 -0.0389,-0.091 -0.11759,-0.15935 -0.21289,-0.18555 -0.0315,-0.008 -0.0631,-0.0127 -0.0957,-0.0117 z"
       style="display:inline;opacity:1;fill:#e8f1f5;stroke-width:0.811613"
       id="path2" />
  </g>
  <g
     inkscape:label="mimetypes"
     transform="translate(-442,-156)"
     inkscape:groupmode="layer"
     id="layer14" />
  <g
     inkscape:label="emblems"
     transform="translate(-442,-156)"
     inkscape:groupmode="layer"
     id="layer15"
     style="display:inline" />
</svg>
