<?xml version="1.0" encoding="UTF-8" standalone="no"?>
<svg
   style="clip-rule:evenodd;fill-rule:evenodd;stroke-linejoin:round;stroke-miterlimit:1.41421"
   version="1.1"
   viewBox="0 0 36 36"
   id="svg10"
   sodipodi:docname="files-recent.svg"
   inkscape:version="1.3.2 (091e20ef0f, 2023-11-25, custom)"
   xmlns:inkscape="http://www.inkscape.org/namespaces/inkscape"
   xmlns:sodipodi="http://sodipodi.sourceforge.net/DTD/sodipodi-0.dtd"
   xmlns="http://www.w3.org/2000/svg"
   xmlns:svg="http://www.w3.org/2000/svg"
   xmlns:rdf="http://www.w3.org/1999/02/22-rdf-syntax-ns#"
   xmlns:cc="http://creativecommons.org/ns#"
   xmlns:dc="http://purl.org/dc/elements/1.1/">
  <metadata
     id="metadata16">
    <rdf:RDF>
      <cc:Work
         rdf:about="">
        <dc:format>image/svg+xml</dc:format>
        <dc:type
           rdf:resource="http://purl.org/dc/dcmitype/StillImage" />
        <dc:title />
      </cc:Work>
    </rdf:RDF>
  </metadata>
  <defs
     id="defs14" />
  <sodipodi:namedview
     pagecolor="#1e1e1e"
     bordercolor="#666666"
     borderopacity="1"
     objecttolerance="10"
     gridtolerance="10"
     guidetolerance="10"
     inkscape:pageopacity="0"
     inkscape:pageshadow="2"
     inkscape:window-width="1920"
     inkscape:window-height="1015"
     id="namedview12"
     showgrid="false"
     inkscape:zoom="6.5555555"
     inkscape:cx="-8.0847458"
     inkscape:cy="44.237288"
     inkscape:window-x="0"
     inkscape:window-y="0"
     inkscape:window-maximized="1"
     inkscape:current-layer="svg10"
     inkscape:showpageshadow="0"
     inkscape:pagecheckerboard="0"
     inkscape:deskcolor="#505050"
     showguides="false" />
  <g
     id="g1"
     transform="matrix(0.75557583,0,0,0.75368775,1.1061031,5.8697118)">
    <path
       d="M 11.409125,2.3341158 V 28.84439 h 15.426976 c -0.683773,-1.269102 -1.072754,-2.720093 -1.072754,-4.260302 0,-3.73591 2.284663,-6.948178 5.526621,-8.308108 V 13.378768 H 20.244481 V 2.3341158 Z"
       style="opacity:0.12;fill:#ffffff;stroke-width:1.10458"
       id="path18" />
  </g>
  <path
     d="M 8.0566406,5.9628906 V 29.273437 H 22.652344 c -0.503253,-0.48552 -0.934637,-1.044042 -1.269532,-1.664062 H 9.7265625 V 7.6289062 h 6.6757815 v 8.3242188 h 8.345703 v 2.183594 c 0.52587,-0.22004 1.087365,-0.369872 1.669922,-0.451172 V 14.455078 L 17.902344,5.9628906 Z"
     style="display:inline;fill:#f6f9fb;fill-rule:nonzero;stroke-width:1.10458;fill-opacity:1;opacity:0.6999067"
     id="path16" />
  <path
     d="m 27.270139,18.781542 a 5.6166006,5.6158352 0 0 0 -5.616,5.617206 5.6166006,5.6158352 0 0 0 5.616,5.615227 5.6166006,5.6158352 0 0 0 5.616,-5.615227 5.6166006,5.6158352 0 0 0 -5.616,-5.617206 z m -0.851679,1.25197 c 0.469653,5.46e-4 0.851071,0.347223 0.851679,0.773424 v 4.322274 c 0.893253,-0.01148 1.78602,-0.02296 2.682006,-0.03329 a 0.85191529,0.85179919 0 0 1 0.859492,0.841783 0.85191529,0.85179919 0 0 1 -0.841912,0.86721 c -1.190636,0.01435 -2.381789,0.03157 -3.576658,0.04477 a 0.85191529,0.85179919 0 0 1 -0.0059,0 c -0.004,2.8e-5 -0.0077,2.8e-5 -0.01171,0 -0.08487,-8.9e-4 -0.165121,-0.01722 -0.242219,-0.03903 a 0.85191529,0.85179919 0 0 1 -0.0039,0 0.85191529,0.85179919 0 0 0 -0.002,-0.002 C 25.780866,26.708209 25.53007,26.415657 25.533504,26.068405 v -0.05854 a 0.85191529,0.85179919 0 0 0 0,-0.002 0.85191529,0.85179919 0 0 0 0,-0.002 l 0.0254,-5.20702 c 0.0054,-0.426057 0.389821,-0.768372 0.859492,-0.765617 z"
     style="opacity:0.714585;fill:#f6f9fb;stroke-width:1.28443;stroke-linecap:round;stroke-linejoin:round;stroke-miterlimit:1.8"
     id="path26"
     inkscape:label="clock" />
  <path
     d="m 18.072266,8.6289063 v 5.6601567 h 5.673828 z"
     style="clip-rule:nonzero;opacity:0.714585;fill-rule:nonzero;stroke-linecap:round;stroke-miterlimit:1.8"
     id="path17" />
</svg>
