<?xml version="1.0" encoding="UTF-8" standalone="no"?>
<svg
   width="16px"
   height="16px"
   version="1.1"
   viewBox="0 0 16 16"
   id="svg3"
   sodipodi:docname="screenshot-recorded-symbolic.svg"
   inkscape:version="1.3.2 (091e20ef0f, 2023-11-25, custom)"
   xmlns:inkscape="http://www.inkscape.org/namespaces/inkscape"
   xmlns:sodipodi="http://sodipodi.sourceforge.net/DTD/sodipodi-0.dtd"
   xmlns="http://www.w3.org/2000/svg"
   xmlns:svg="http://www.w3.org/2000/svg">
  <defs
     id="defs3">
    <inkscape:path-effect
       effect="fillet_chamfer"
       id="path-effect8"
       is_visible="true"
       lpeversion="1"
       nodesatellites_param="F,0,0,1,0,0,0,1 @ F,0,0,1,0,0,0,1 @ F,0,0,1,0,0,0,1 @ F,0,0,1,0,0,0,1 @ F,0,0,1,0,0,0,1 @ F,0,0,1,0,1.4232787,0,1 @ F,0,0,1,0,0,0,1 @ F,0,0,1,0,0,0,1 @ F,0,0,1,0,0,0,1"
       radius="0"
       unit="px"
       method="auto"
       mode="F"
       chamfer_steps="1"
       flexible="false"
       use_knot_distance="true"
       apply_no_radius="true"
       apply_with_radius="true"
       only_selected="false"
       hide_knots="false" />
  </defs>
  <sodipodi:namedview
     id="namedview3"
     pagecolor="#505050"
     bordercolor="#eeeeee"
     borderopacity="1"
     inkscape:showpageshadow="0"
     inkscape:pageopacity="0"
     inkscape:pagecheckerboard="0"
     inkscape:deskcolor="#505050"
     inkscape:zoom="11.313709"
     inkscape:cx="-5.4800775"
     inkscape:cy="9.0156114"
     inkscape:window-width="1920"
     inkscape:window-height="1015"
     inkscape:window-x="0"
     inkscape:window-y="0"
     inkscape:window-maximized="1"
     inkscape:current-layer="svg3" />
  <g
     id="g3"
     transform="matrix(0.8,0,0,0.8,1.599984,1.2)"
     style="display:inline">
    <path
       d="M 9,7 A 1.0001,1.0001 0 0 0 8.29297,7.29297 L 7.58594,8 h -1.5859 a 1.0001,1.0001 0 0 0 -1,1 v 6 a 1.0001,1.0001 0 0 0 1,1 h 9 a 1.0001,1.0001 0 0 0 1,-1 V 9 a 1.0001,1.0001 0 0 0 -1,-1 h -1.5859 L 12.70711,7.29297 A 1.0001,1.0001 0 0 0 12.00008,7 h -3 z m 0,1 h 3 l 1,1 h 2 v 6 H 6 V 9 h 2 z"
       color="#000000"
       fill="#dadada"
       stroke-linecap="round"
       stroke-linejoin="round"
       id="path1" />
    <path
       d="M 10.5,9 A 2.5,2.5 0 0 0 8,11.5 2.5,2.5 0 0 0 10.5,14 2.5,2.5 0 0 0 13,11.5 2.5,2.5 0 0 0 10.5,9 Z m 0,1 A 1.5,1.5 0 0 1 12,11.5 1.5,1.5 0 0 1 10.5,13 1.5,1.5 0 0 1 9,11.5 1.5,1.5 0 0 1 10.5,10 Z"
       fill="#dadada"
       fill-rule="evenodd"
       stop-color="#000000"
       stroke-linecap="round"
       stroke-linejoin="round"
       stroke-width="2"
       id="path2" />
    <path
       d="M 2,1 C 0.892,1 0,1.892 0,3 v 7 c 0,1.108 0.892,2 2,2 H 4 V 11 H 2 C 1.446,11 1,10.554 1,10 V 3 C 1,2.446 1.446,2 2,2 h 10 c 0.554,0 1,0.446 1,1 l -0.01726,3.2929687 h 1.018256 L 14,3 C 13.999665,1.8920001 13.108,1 12,1 Z"
       fill="#dadada"
       fill-rule="evenodd"
       stop-color="#000000"
       stroke-linecap="round"
       stroke-linejoin="round"
       stroke-width="2"
       id="path3"
       sodipodi:nodetypes="ssssccssssssccsss" />
  </g>
  <path
     d="M 8.234375,7.0351562 7.4335937,7.8339844 H 5.8339844 V 12.634766 H 13.035156 V 7.8339844 H 11.433594 L 10.634766,7.0351562 Z"
     style="display:none;fill:#dadada;stroke:#ffffff;stroke-width:0.8;stroke-linecap:round;stroke-linejoin:round"
     id="path12" />
  <path
     d="M 11.53125,6.8007812 H 7.3378906 l -0.234375,0.234375 H 5.8339844 A 0.80008,0.80008 0 0 0 5.0351562,7.8339844 v 4.8007816 a 0.80008,0.80008 0 0 0 0.7988282,0.798828 h 7.2011716 a 0.80008,0.80008 0 0 0 0.798828,-0.798828 V 7.8339844 A 0.80008,0.80008 0 0 0 13.035156,7.0351562 h -1.269531 z m -3.296875,0.234375 h 2.400391 l 0.798828,0.7988282 h 1.601562 V 12.634766 H 5.8339844 V 7.8339844 h 1.5996093 z"
     style="display:none;fill:#dadada;stroke:#ffffff;stroke-width:0.8;stroke-linecap:round;stroke-linejoin:round"
     id="path11" />
  <path
     d="M 3.1992188,2 C 2.3128196,2 1.5996094,2.7132103 1.5996094,3.5996094 V 9.1992188 C 1.5996094,10.085618 4.8007812,10.4 4.8007812,10 V 7.9394531 C 4.8007542,7.3105708 5.3105708,6.8007542 5.9394531,6.8007812 H 7.3378906 L 7.6679687,6.46875 C 7.8181695,6.3185294 8.0219451,6.2342085 8.234375,6.234375 h 3.751801 0.814605 V 3.5996094 C 12.800781,2.7132103 12.085618,2 11.199219,2 Z"
     style="display:inline;opacity:0.16;fill:#dadada;fill-rule:evenodd;stroke-width:2;stroke-linecap:round;stroke-linejoin:round;stop-color:#000000"
     id="path10"
     sodipodi:nodetypes="ssssccccccccss"
     sodipodi:insensitive="true" />
</svg>
