<?xml version="1.0" encoding="UTF-8" standalone="no"?>
<!-- Created with Inkscape (http://www.inkscape.org/) -->

<svg
   version="1.1"
   width="36"
   height="36"
   id="svg3079"
   inkscape:version="1.3.2 (091e20ef0f, 2023-11-25, custom)"
   sodipodi:docname="folder-music-symbolic.svg"
   xmlns:inkscape="http://www.inkscape.org/namespaces/inkscape"
   xmlns:sodipodi="http://sodipodi.sourceforge.net/DTD/sodipodi-0.dtd"
   xmlns="http://www.w3.org/2000/svg"
   xmlns:svg="http://www.w3.org/2000/svg"
   xmlns:rdf="http://www.w3.org/1999/02/22-rdf-syntax-ns#"
   xmlns:cc="http://creativecommons.org/ns#"
   xmlns:dc="http://purl.org/dc/elements/1.1/">
  <sodipodi:namedview
     pagecolor="#000000"
     bordercolor="#666666"
     borderopacity="1"
     objecttolerance="10"
     gridtolerance="10"
     guidetolerance="10"
     inkscape:pageopacity="0"
     inkscape:pageshadow="2"
     inkscape:window-width="1920"
     inkscape:window-height="1015"
     id="namedview7"
     showgrid="false"
     inkscape:zoom="10.429825"
     inkscape:cx="21.380992"
     inkscape:cy="29.051302"
     inkscape:window-x="0"
     inkscape:window-y="0"
     inkscape:window-maximized="1"
     inkscape:current-layer="svg3079"
     inkscape:showpageshadow="0"
     inkscape:pagecheckerboard="0"
     inkscape:deskcolor="#505050" />
  <defs
     id="defs3081" />
  <metadata
     id="metadata3084">
    <rdf:RDF>
      <cc:Work
         rdf:about="">
        <dc:format>image/svg+xml</dc:format>
        <dc:type
           rdf:resource="http://purl.org/dc/dcmitype/StillImage" />
      </cc:Work>
    </rdf:RDF>
  </metadata>
  <path
     style="color:#bebebe;display:inline;overflow:visible;visibility:visible;opacity:1;fill:#ffffff;fill-opacity:043137;fill-rule:nonzero;stroke:none;stroke-width:0.722205;marker:none;enable-background:accumulate"
     d="M 27.536972,5.0000001 15.559927,8.0961742 c -0.899768,0.241092 -1.624962,1.199845 -1.624962,2.1313528 v 14.769948 c -0.912389,-0.477746 -2.084456,-0.671113 -3.299295,-0.35546 -2.1921904,0.5696 -3.5660909,2.411154 -3.0961745,4.111776 0.4699165,1.700622 2.6305065,2.650172 4.8226965,2.080573 1.748916,-0.454423 2.954685,-1.740349 3.146955,-3.096175 l 0.05078,-13.957467 11.367684,-3.045395 v 11.013635 c -0.912388,-0.477747 -2.083045,-0.671115 -3.297884,-0.355462 -2.19219,0.569601 -3.56609,2.411155 -3.096174,4.111777 0.469917,1.700622 2.629096,2.650171 4.821287,2.080572 1.748916,-0.454423 2.954684,-1.740348 3.146953,-3.096174 l 0.05078,-18.169393 c 0,-0.6986307 -0.432287,-1.2220032 -1.015602,-1.3202819 z"
     id="rect2996"
     inkscape:connector-curvature="0" />
</svg>
