<svg width="36" height="36" version="1.1" viewBox="0 0 184.31 184.31" xmlns="http://www.w3.org/2000/svg">
 <g transform="matrix(.60928 0 0 .60928 14.163 14.166)" fill="#fff" fill-opacity=".85098" font-family="none" font-size="none" font-weight="none" stroke-miterlimit="10" text-anchor="none" style="mix-blend-mode:normal">
  <g transform="scale(5.12)">
   <path d="m7.0001 10.437c-0.56503 0-0.99997 0.48932-0.99997 1.125v27h38.001v-27c0-0.63568-0.43494-1.125-0.99997-1.125z" fill="#fff" fill-opacity=".12" stroke-width="1.0607"/>
   <g transform="translate(3.2362e-4,1.5627)">
    <path d="m7 6.4373c-1.8853 0-3.4375 1.5523-3.4375 3.4375v26.686h-4v1.3477c0 0.84024 0.59768 1.5707 1.4219 1.7363l3.375 0.67383c0.39676 0.07978 0.80204 0.11914 1.207 0.11914h38.867c0.40496 0 0.80963-0.03946 1.207-0.11914l3.377-0.67383c0.82468-0.16441 1.4219-0.89541 1.4219-1.7363v-1.3477h-4.002v-26.686c0-1.8853-1.5523-3.4375-3.4375-3.4375zm0 0.875h36c1.4046 0 2.5625 1.1578 2.5625 2.5625v27.561h4.002v0.47266c0 0.42906-0.29748 0.79531-0.7168 0.87891l-3.3789 0.67383c-0.34068 0.0683-0.68812 0.10156-1.0352 0.10156h-38.867c-0.34709 0-0.69591-0.03334-1.0352-0.10156l-3.375-0.67383c-0.41985-0.084372-0.71875-0.45114-0.71875-0.87891v-0.47266h4v-27.561c0-1.4046 1.1578-2.5625 2.5625-2.5625zm0 1.125c-0.78956 0-1.4375 0.64794-1.4375 1.4375v27.561h38.875v-27.561c0-0.78956-0.64794-1.4375-1.4375-1.4375zm0 0.875h36c0.3405 0 0.5625 0.222 0.5625 0.5625v26.686h-37.125v-26.686c0-0.3405 0.222-0.5625 0.5625-0.5625zm-2e-4 -2.4378c-1.645 0-2.9999 1.355-2.9999 2.9999v27.124h-3.9999v0.91013c0 0.634 0.44828 1.1816 1.0703 1.3066l3.3749 0.67381c0.368 0.074 0.74506 0.11132 1.1211 0.11132h38.868c0.376 0 0.75206-0.03733 1.1211-0.11132l3.3769-0.67381c0.622-0.124 1.0703-0.67161 1.0703-1.3066v-0.91013h-4.0018v-27.124c0-1.645-1.355-2.9999-2.9999-2.9999zm0 1.9999h36.001c0.56503 0 0.99997 0.43494 0.99997 0.99997v27.124h-38.001v-27.124c0-0.56503 0.43494-0.99997 0.99997-0.99997z" fill="#fff" fill-opacity=".8" stop-color="#000000"/>
   </g>
  </g>
 </g>
</svg>
