<?xml version="1.0" encoding="UTF-8" standalone="no"?>
<svg
   version="1.1"
   width="50px"
   height="50px"
   viewBox="0,0,255.99783,255.99783"
   id="svg2"
   sodipodi:docname="recents1.svg"
   inkscape:version="1.4 (e7c3feb100, 2024-10-09)"
   xmlns:inkscape="http://www.inkscape.org/namespaces/inkscape"
   xmlns:sodipodi="http://sodipodi.sourceforge.net/DTD/sodipodi-0.dtd"
   xmlns="http://www.w3.org/2000/svg"
   xmlns:svg="http://www.w3.org/2000/svg">
  <defs
     id="defs2" />
  <sodipodi:namedview
     id="namedview2"
     pagecolor="#505050"
     bordercolor="#eeeeee"
     borderopacity="1"
     inkscape:showpageshadow="0"
     inkscape:pageopacity="0"
     inkscape:pagecheckerboard="0"
     inkscape:deskcolor="#505050"
     inkscape:zoom="20.88"
     inkscape:cx="22.413793"
     inkscape:cy="28.35249"
     inkscape:window-width="2057"
     inkscape:window-height="1255"
     inkscape:window-x="0"
     inkscape:window-y="0"
     inkscape:window-maximized="1"
     inkscape:current-layer="svg2" />
  <g
     fill="#ffffff"
     fill-rule="nonzero"
     stroke="none"
     stroke-width="1"
     stroke-linecap="butt"
     stroke-linejoin="miter"
     stroke-miterlimit="10"
     stroke-dasharray="none"
     stroke-dashoffset="0"
     font-family="none"
     font-weight="none"
     font-size="none"
     text-anchor="none"
     style="mix-blend-mode:normal"
     id="g2"
     transform="matrix(0.85406447,0,0,0.85406447,18.679714,19.424845)">
    <g
       transform="scale(5.12)"
       id="g1">
      <path
         d="m 28.983974,7.4045697 c -0.12388,0.0015 -0.24639,0.026919 -0.36132,0.073179 L 2.6235742,17.478098 c -0.3861,0.14872 -0.6404551,0.519281 -0.6403151,0.933031 v 21.000048 c -0.0051,0.36064 0.1847542,0.696336 0.4962442,0.878146 0.3115,0.18181 0.6947194,0.18181 1.0062094,0 0.3115,-0.18181 0.5013442,-0.517506 0.4962442,-0.878146 V 19.099468 L 29.343008,9.3438097 c 0.45831,-0.16731 0.728745,-0.6407414 0.640315,-1.1205514 -0.08842,-0.47981 -0.511509,-0.8257486 -0.999349,-0.8186886 z"
         id="path2" />
      <path
         d="m 37.227111,12.133935 c -0.12388,0.0015 -0.24639,0.02692 -0.36132,0.07318 l -25.99908,10.000349 c -0.3861,0.14872 -0.640455,0.519281 -0.640315,0.933031 v 21.000048 c -0.0051,0.36064 0.184754,0.696336 0.496244,0.878146 0.3115,0.18181 0.69472,0.18181 1.00621,0 0.3115,-0.18181 0.501344,-0.517506 0.496244,-0.878146 v -20.31171 l 25.361051,-9.755658 c 0.45831,-0.16731 0.728745,-0.640741 0.640315,-1.120551 -0.08842,-0.47981 -0.511509,-0.825749 -0.999349,-0.818689 z"
         id="path17" />
    </g>
  </g>
  <g
     id="g19"
     style="display:inline">
    <path
       d="m 45.413275,17.081372 c -0.12388,0.0015 -0.24639,0.02692 -0.36132,0.07318 l -25.99908,10.000349 c -0.3861,0.14872 -0.640455,0.519281 -0.640315,0.933031 V 49.08798 c -0.0051,0.36064 0.184754,0.696336 0.496244,0.878146 0.3115,0.18181 0.69472,0.18181 1.00621,0 0.3115,-0.18181 0.501344,-0.517506 0.496244,-0.878146 V 28.77627 l 25.361051,-9.755658 c 0.45831,-0.16731 0.728745,-0.640741 0.640315,-1.120551 -0.08842,-0.47981 -0.511509,-0.825749 -0.999349,-0.818689 z"
       id="path18"
       style="mix-blend-mode:normal;fill:#ffffff;fill-opacity:1"
       transform="matrix(4.3728101,0,0,4.3728101,18.679714,19.424845)" />
    <path
       d="m 19.428486,50.102377 c 0.12388,-0.0015 0.24639,-0.02692 0.36132,-0.07318 l 25.99908,-10.000349 c 0.3861,-0.14872 0.640455,-0.519281 0.640315,-0.933031 V 18.095769 c 0.0051,-0.36064 -0.184754,-0.696336 -0.496244,-0.878146 -0.3115,-0.18181 -0.69472,-0.18181 -1.00621,0 -0.3115,0.18181 -0.501344,0.517506 -0.496244,0.878146 v 20.31171 l -25.361051,9.755658 c -0.45831,0.16731 -0.728745,0.640741 -0.640315,1.120551 0.08842,0.47981 0.511509,0.825749 0.999349,0.818689 z"
       id="path19"
       style="mix-blend-mode:normal;fill:#ffffff;fill-opacity:1"
       transform="matrix(4.3728101,0,0,4.3728101,18.679714,19.424845)" />
    <path
       style="display:inline;opacity:1;fill:#ffffff;fill-opacity:0.32;fill-rule:evenodd;stroke:none;stroke-width:13.1183;stroke-linecap:round;stroke-linejoin:bevel;paint-order:stroke markers fill"
       d="m 107.97635,143.08517 104.94744,-40.36309 v 86.8242 l -104.94744,40.3631 z"
       id="path4"
       inkscape:label="fill" />
  </g>
</svg>
