<svg width="16" height="16" version="1.1" viewBox="0 0 81.918 81.918" xmlns="http://www.w3.org/2000/svg">
 <g transform="matrix(.86941 0 0 .76538 5.3492 9.6097)" fill="#fff">
  <path d="m23.894-0.84921c-3.2765 0-5.9807 2.6926-5.9807 5.9691v71.678c0 3.2765 2.7042 5.9691 5.9807 5.9691h34.14c3.2765 0 5.9699-2.6926 5.9699-5.9691v-71.678c0-3.2765-2.6934-5.9691-5.9699-5.9691zm0 5.1076h34.14c0.52387 0 0.8451 0.33174 0.8451 0.86152v71.678c0 0.52978-0.32124 0.86152-0.8451 0.86152h-34.14c-0.52387 0-0.85594-0.33174-0.85594-0.86152v-71.678c0-0.52978 0.33207-0.86152 0.85594-0.86152z" fill-opacity=".8" stop-color="#000000"/>
  <path transform="matrix(1.7066 0 0 1.7066 -1.7066 -1.7066)" d="m14.998 2.998c-0.56503 0-0.99609 0.43692-0.99609 1.002v42c0 0.56503 0.43106 1.002 0.99609 1.002h20.004c0.56503 0 0.99609-0.43692 0.99609-1.002v-42c0-0.56503-0.43106-1.002-0.99609-1.002z" fill-opacity=".12" style="mix-blend-mode:normal"/>
 </g>
 <circle cx="40.96" cy="18.5" r="2.5681" fill="#fff" fill-opacity=".8" fill-rule="evenodd" style="paint-order:stroke markers fill"/>
</svg>
