<!-- Created with Inkscape (http://www.inkscape.org/) -->
<svg width="32" height="32" version="1.1" viewBox="0 0 8.4667 8.4667" xmlns="http://www.w3.org/2000/svg" xmlns:cc="http://creativecommons.org/ns#" xmlns:dc="http://purl.org/dc/elements/1.1/" xmlns:rdf="http://www.w3.org/1999/02/22-rdf-syntax-ns#">
 <metadata>
  <rdf:RDF>
   <cc:Work rdf:about="">
    <dc:format>image/svg+xml</dc:format>
    <dc:type rdf:resource="http://purl.org/dc/dcmitype/StillImage"/>
   </cc:Work>
  </rdf:RDF>
 </metadata>
 <g transform="matrix(.90862 0 0 .90862 -.067019 -262.14)">
  <path d="m0.97262 290.09c-0.14957 0-0.27048 0.121-0.27048 0.27048v1.5731c0-0.14959 0.12092-0.27049 0.27048-0.27049h7.5088c0.14957 0 0.26965 0.1209 0.26965 0.27049v-0.83968c0-0.14955-0.12009-0.26964-0.26965-0.26964h-4.1145l-0.88115-0.7343z" fill="none"/>
  <path d="m0.52458 289.92v4.5543l0.001459 1.9166h8.4034l2e-7 -0.4472v-5.2902h-4.4978l-0.83219-0.69363c-0.032309-0.0264-0.072838-0.0404-0.1145-0.0398zm0.35511 0.35516h2.5414l0.83219 0.69198c0.031534 0.0269 0.071447 0.0418 0.11284 0.0423h4.2074v0.48362h-7.6018c-0.032498 0-0.061464-6e-3 -0.092097 0l1.9e-7 -1.1258zm0.002364 1.5731h7.6915s1.99e-5 -0.0543 0 0l-0.00154 4.1867h-7.6899v-4.1867c0-0.0543-0.054247 0-3.3e-7 0z" color="#000000" color-rendering="auto" dominant-baseline="auto" fill="#f6f9fb" image-rendering="auto" shape-rendering="auto" solid-color="#000000" style="font-feature-settings:normal;font-variant-alternates:normal;font-variant-caps:normal;font-variant-ligatures:normal;font-variant-numeric:normal;font-variant-position:normal;isolation:auto;mix-blend-mode:normal;shape-padding:0;text-decoration-color:#000000;text-decoration-line:none;text-decoration-style:solid;text-indent:0;text-orientation:mixed;text-transform:none;white-space:normal"/>
  <path d="m0.88205 291.85c-0.05422 0 0-0.0922 0 0v4.1867c0 0.0542-0.054221 0 0 0h7.69c0.054225 0 0 0.0541 0 0l1e-7 -4.0945c0-0.0543 0.055761-0.0922 0.00154-0.0922z" fill="#e8f1f5" opacity=".22"/>
 </g>
</svg>
