<!-- Created with Inkscape (http://www.inkscape.org/) -->
<svg width="32" height="32" version="1.1" viewBox="0 0 8.4667 8.4667" xmlns="http://www.w3.org/2000/svg" xmlns:cc="http://creativecommons.org/ns#" xmlns:dc="http://purl.org/dc/elements/1.1/" xmlns:rdf="http://www.w3.org/1999/02/22-rdf-syntax-ns#">
 <metadata>
  <rdf:RDF>
   <cc:Work rdf:about="">
    <dc:format>image/svg+xml</dc:format>
    <dc:type rdf:resource="http://purl.org/dc/dcmitype/StillImage"/>
   </cc:Work>
  </rdf:RDF>
 </metadata>
 <g transform="matrix(1.0005 0 0 1.0005 -.0020129 -.00076729)" stroke-linecap="round" stroke-linejoin="round">
  <path d="m1.1625 1.8779c-0.044361 0-0.074931 0.031147-0.074931 0.075449v0.93534c0.025051-0.00546 0.048355-0.014959 0.074931-0.014959h6.1412c0.026575 0 0.050397 0.00949 0.075448 0.014959v-0.3359c0-0.04433-0.031082-0.074411-0.075448-0.074411h-3.3652c-0.033931-3.823e-4 -0.066658-0.012636-0.092501-0.03463l-0.68058-0.56586z" fill="none" stroke-width=".29048"/>
  <path d="m1.0872 1.5875c-0.20026 0-0.29037 0.090194-0.29037 0.29046v4.7103c0 0.20025 0.091712 0.28839 0.29197 0.28835l6.289-0.00107c0.20026-3.01e-5 0.28986-0.087035 0.29014-0.28728l0.00183-1.2764v-2.8334c0-0.20025-0.091718-0.29094-0.29197-0.29094h-3.3858l-0.68058-0.56741c-0.026539-0.021584-0.059845-0.033128-0.094051-0.032581zm0.07498 0.29046h2.003l0.68058 0.56586c0.025843 0.021994 0.058569 0.034221 0.092501 0.034631h3.3652c0.044365 0 0.075448 0.030054 0.075448 0.074411v0.4236c-0.02505-0.0054643-0.048874-0.014959-0.075448-0.014959h-6.1412c-0.026576 0-0.04988 0.00943-0.074931 0.014959v-1.023c0-0.04433 0.03057-0.075449 0.074931-0.075449zm0 1.3739h6.1412c0.010671 1.229e-4 0.020603 0.00205 0.029456 0.00546 0.027978 0.010587 0.045992 0.036065 0.045992 0.069767v3.186c0 0.033674-0.018014 0.05881-0.045992 0.069247-0.00885 0.00342-0.018785 0.00546-0.029456 0.00546h-6.1412c-0.044362 0-0.074931-0.0306-0.074931-0.07493v-3.186c0-0.044398 0.03057-0.075449 0.074931-0.075449z" fill="#f6f9fb" stop-color="#000000" stroke-width=".68305"/>
  <path d="m1.1643 3.1641c-0.044339 0-0.075448 0.03101-0.075448 0.075449v3.2737c0 0.044398 0.031107 0.07493 0.075448 0.07493h6.1381c0.044344 0 0.075448-0.030669 0.075448-0.07493v-3.2737c0-0.044398-0.031103-0.075449-0.075448-0.075449z" fill="#e8f1f5" opacity=".22" stop-color="#000000" stroke-width=".68305"/>
 </g>
</svg>
