<?xml version="1.0" encoding="UTF-8" standalone="no"?>
<!-- Created with Inkscape (http://www.inkscape.org/) -->

<svg
   version="1.1"
   width="36"
   height="36"
   id="svg3021"
   inkscape:version="1.3.2 (091e20ef0f, 2023-11-25, custom)"
   sodipodi:docname="user-images.svg"
   xmlns:inkscape="http://www.inkscape.org/namespaces/inkscape"
   xmlns:sodipodi="http://sodipodi.sourceforge.net/DTD/sodipodi-0.dtd"
   xmlns="http://www.w3.org/2000/svg"
   xmlns:svg="http://www.w3.org/2000/svg"
   xmlns:rdf="http://www.w3.org/1999/02/22-rdf-syntax-ns#"
   xmlns:cc="http://creativecommons.org/ns#"
   xmlns:dc="http://purl.org/dc/elements/1.1/">
  <sodipodi:namedview
     pagecolor="#1c1c1c"
     bordercolor="#666666"
     borderopacity="1"
     objecttolerance="10"
     gridtolerance="10"
     guidetolerance="10"
     inkscape:pageopacity="0"
     inkscape:pageshadow="2"
     inkscape:window-width="1920"
     inkscape:window-height="1015"
     id="namedview7"
     showgrid="false"
     inkscape:zoom="5.2149125"
     inkscape:cx="-0.76703109"
     inkscape:cy="-2.3010933"
     inkscape:window-x="0"
     inkscape:window-y="0"
     inkscape:window-maximized="1"
     inkscape:current-layer="svg3021"
     inkscape:showpageshadow="0"
     inkscape:pagecheckerboard="0"
     inkscape:deskcolor="#505050" />
  <defs
     id="defs3023" />
  <metadata
     id="metadata3026">
    <rdf:RDF>
      <cc:Work
         rdf:about="">
        <dc:format>image/svg+xml</dc:format>
        <dc:type
           rdf:resource="http://purl.org/dc/dcmitype/StillImage" />
        <dc:title />
      </cc:Work>
    </rdf:RDF>
  </metadata>
  <g
     id="g1"
     transform="matrix(0.76285658,0,0,0.76285658,4.2685816,4.2399503)">
    <path
       style="opacity:1;fill:#ffffff;fill-opacity:1;stroke:none;stroke-width:0.946734"
       d="m 13.702716,4.1915474 c -1.894813,0 -3.003365,0.2057001 -4.1197725,1.3220992 C 8.4665397,6.6300485 7.8226829,8.4518502 6.2675256,8.4518502 H 5.0027482 c -2.2402007,0 -4.04395934,1.8037588 -4.04395934,4.0439598 v 15.343747 c 0,2.240201 1.80375864,4.043959 4.04395934,4.043959 H 30.997252 c 2.240191,0 4.043959,-1.80376 4.043959,-4.043959 V 12.49581 c 0,-2.240201 -1.803768,-4.0439598 -4.043959,-4.0439598 h -1.264778 c -1.555162,0 -2.199019,-1.8218017 -3.315417,-2.9382036 -1.116408,-1.1164095 -2.22495,-1.3220992 -4.119773,-1.3220992 z m 0.09985,2.1301514 h 8.394868 c 1.214669,0 2.549474,0.509928 3.594631,1.5550844 1.045156,1.0451593 1.558367,2.7052188 3.258095,2.7052188 h 1.776976 c 1.154012,0 2.083924,0.929917 2.083924,2.083924 V 27.66944 c 0,1.154007 -0.929912,2.083925 -2.083924,2.083925 H 5.1728645 c -1.1540072,0 -2.0839242,-0.929918 -2.0839242,-2.083925 V 12.665926 c 0,-1.154007 0.929917,-2.083924 2.0839242,-2.083924 h 1.7769752 c 1.6997245,0 2.2129435,-1.6600595 3.2580963,-2.7052188 1.045156,-1.0451564 2.37998,-1.5550844 3.59463,-1.5550844 z M 12.674622,19.008304 c -18.2701451,-24.5662954 -18.2701451,-24.5662954 0,0 z"
       id="path8213"
       inkscape:connector-curvature="0"
       sodipodi:nodetypes="scsssssssssssssssssssssssssscsss" />
    <path
       style="opacity:1;fill:#ffffff;fill-opacity:0.07684261;stroke:none;stroke-width:0.946734"
       d="m 13.802566,6.3216988 c -1.21465,0 -2.549474,0.509928 -3.59463,1.5550844 C 9.1627832,8.9219425 8.6495642,10.582002 6.9498397,10.582002 H 5.1728645 c -1.1540072,0 -2.0839242,0.929917 -2.0839242,2.083924 V 27.66944 c 0,1.154007 0.929917,2.083925 2.0839242,2.083925 H 30.827136 c 1.154012,0 2.083924,-0.929918 2.083924,-2.083925 V 12.665926 c 0,-1.154007 -0.929912,-2.083924 -2.083924,-2.083924 H 29.05016 c -1.699728,0 -2.212939,-1.6600595 -3.258095,-2.7052188 C 24.746908,6.8316268 23.412103,6.3216988 22.197434,6.3216988 Z M 18,8.3575466 c 5.882251,0 10.650757,4.7685064 10.650757,10.6507574 0,5.882251 -4.768506,10.650757 -10.650757,10.650757 -5.882251,0 -10.6507569,-4.768506 -10.6507569,-10.650757 C 7.3492429,13.126053 12.117749,8.3575467 18,8.3575466 Z"
       id="rect8180"
       inkscape:connector-curvature="0"
       sodipodi:nodetypes="scssssssssssssssssss" />
    <path
       inkscape:connector-curvature="0"
       style="opacity:1;fill:#ffffff;fill-opacity:043137;stroke:none;stroke-width:0.946734"
       d="M 18,8.357546 A 10.650757,10.650757 0 0 0 7.349244,19.008303 10.650757,10.650757 0 0 0 18,29.65906 10.650757,10.650757 0 0 0 28.650757,19.008303 10.650757,10.650757 0 0 0 18,8.357546 Z m 0,2.130152 A 8.5206056,8.5206056 0 0 1 26.520606,19.008303 8.5206056,8.5206056 0 0 1 18,27.528909 8.5206056,8.5206056 0 0 1 9.4793945,19.008303 8.5206056,8.5206056 0 0 1 18,10.487698 Z"
       id="circle8202" />
    <circle
       style="fill:#ffffff;fill-opacity:0.15916492;stroke:none;stroke-width:2.6715;stroke-linecap:round;stroke-linejoin:round;stroke-miterlimit:1.8"
       id="path1"
       cx="18"
       cy="19.008303"
       r="8.520606" />
  </g>
</svg>
