<?xml version="1.0" encoding="UTF-8" standalone="no"?>
<svg
   width="16"
   height="16"
   version="1.1"
   id="svg3"
   sodipodi:docname="terminal-app-symbolic.svg"
   inkscape:version="1.3.2 (091e20ef0f, 2023-11-25, custom)"
   xmlns:inkscape="http://www.inkscape.org/namespaces/inkscape"
   xmlns:sodipodi="http://sodipodi.sourceforge.net/DTD/sodipodi-0.dtd"
   xmlns="http://www.w3.org/2000/svg"
   xmlns:svg="http://www.w3.org/2000/svg">
  <defs
     id="defs3" />
  <sodipodi:namedview
     id="namedview3"
     pagecolor="#505050"
     bordercolor="#eeeeee"
     borderopacity="1"
     inkscape:showpageshadow="0"
     inkscape:pageopacity="0"
     inkscape:pagecheckerboard="0"
     inkscape:deskcolor="#505050"
     inkscape:zoom="46"
     inkscape:cx="8"
     inkscape:cy="7.9891304"
     inkscape:window-width="1920"
     inkscape:window-height="1014"
     inkscape:window-x="0"
     inkscape:window-y="0"
     inkscape:window-maximized="1"
     inkscape:current-layer="svg3" />
  <path
     d="m2 1c-1.108 0-2 0.892-2 2v10c0 1.108 0.892 2 2 2h12c1.108 0 2-0.892 2-2v-10c0-1.108-0.892-2-2-2zm0 1h12c0.554 0 1 0.446 1 1v10c0 0.554-0.446 1-1 1h-12c-0.554 0-1-0.446-1-1v-10c0-0.554 0.446-1 1-1z"
     fill="#dadada"
     id="path1"
     style="fill:#ced0d6;fill-opacity:1" />
  <rect
     x="7"
     y="10"
     width="4"
     height="1"
     fill="#dadada"
     id="rect1"
     style="fill:#ced0d6;fill-opacity:1" />
  <rect
     transform="matrix(.70711 -.70711 -.70711 -.70711 0 0)"
     x="-4.7071"
     y="-10.607"
     width="4"
     height="1"
     fill="#dadada"
     id="rect2"
     style="fill:#ced0d6;fill-opacity:1" />
  <rect
     transform="rotate(45)"
     x="6.6066"
     y=".70711"
     width="4"
     height="1"
     fill="#dadada"
     id="rect3"
     style="fill:#ced0d6;fill-opacity:1" />
</svg>
