<?xml version="1.0" encoding="UTF-8" standalone="no"?>
<svg
   width="22"
   height="22"
   version="1.1"
   id="svg1"
   sodipodi:docname="emblem-added.svg"
   inkscape:version="1.4.2 (ebf0e940d0, 2025-05-08)"
   xmlns:inkscape="http://www.inkscape.org/namespaces/inkscape"
   xmlns:sodipodi="http://sodipodi.sourceforge.net/DTD/sodipodi-0.dtd"
   xmlns:xlink="http://www.w3.org/1999/xlink"
   xmlns="http://www.w3.org/2000/svg"
   xmlns:svg="http://www.w3.org/2000/svg">
  <defs
     id="defs1">
    <linearGradient
       id="linearGradient4"
       inkscape:collect="always">
      <stop
         style="stop-color:#cfcfcf;stop-opacity:0.81501484;"
         offset="0"
         id="stop5" />
      <stop
         style="stop-color:#e7e7e7;stop-opacity:1;"
         offset="1"
         id="stop4" />
    </linearGradient>
    <linearGradient
       id="linearGradient1"
       inkscape:collect="always">
      <stop
         style="stop-color:#939393;stop-opacity:1;"
         offset="0"
         id="stop1" />
      <stop
         style="stop-color:#ffffff;stop-opacity:1;"
         offset="1"
         id="stop2" />
    </linearGradient>
    <linearGradient
       inkscape:collect="always"
       xlink:href="#linearGradient1"
       id="linearGradient3"
       gradientUnits="userSpaceOnUse"
       x1="-296.45999"
       y1="-2.9105003"
       x2="-291.73439"
       y2="-2.9105003"
       gradientTransform="matrix(0.96100787,0,0,0.96100787,-11.485616,-0.12257184)" />
    <linearGradient
       inkscape:collect="always"
       xlink:href="#linearGradient4"
       id="linearGradient5"
       x1="-296.45999"
       y1="-2.9105003"
       x2="-291.73439"
       y2="-2.9105003"
       gradientUnits="userSpaceOnUse" />
  </defs>
  <sodipodi:namedview
     id="namedview1"
     pagecolor="#505050"
     bordercolor="#eeeeee"
     borderopacity="1"
     inkscape:showpageshadow="0"
     inkscape:pageopacity="0"
     inkscape:pagecheckerboard="0"
     inkscape:deskcolor="#505050"
     inkscape:zoom="2"
     inkscape:cx="-75.75"
     inkscape:cy="36.25"
     inkscape:window-width="2057"
     inkscape:window-height="1255"
     inkscape:window-x="0"
     inkscape:window-y="0"
     inkscape:window-maximized="1"
     inkscape:current-layer="svg1" />
  <style
     id="current-color-scheme"
     type="text/css">.ColorScheme-Highlight {
            color:#3daee9;
        }
        .ColorScheme-Text {
            color:#232629;
        }</style>
  <g
     transform="matrix(2.8568 0 0 2.8568 2.6854 -829.16)"
     id="g1">
    <rect
       transform="matrix(0,-1,-1,0,0,0)"
       x="-296.46"
       y="-5.2733"
       width="4.7256"
       height="4.7256"
       rx="2.3634"
       ry="2.3634"
       fill="#dadada"
       stroke-width="1.1164"
       id="rect1"
       style="stroke:none;fill:url(#linearGradient5);fill-opacity:1" />
    <path
       d="m3.9532 292.87c-0.078939 3.8e-4 -0.15638 0.0386-0.20333 0.10884l-1.1398 1.71-0.57154-0.57219-6.517e-4 -6.5e-4c-0.055155-0.0514-0.12171-0.0729-0.18313-0.0684-0.061414 5e-3 -0.11742 0.0327-0.15901 0.0743-0.041589 0.0415-0.069834 0.0969-0.074294 0.15837-0.00446 0.0614 0.017034 0.12797 0.068427 0.18312l6.517e-4 9.5e-4 0.78399 0.78399c0.10896 0.10893 0.29309 0.091 0.37863-0.0372l1.306-1.9591c0.075002-0.11252 0.044079-0.26583-0.068427-0.34084-0.042163-0.0281-0.090143-0.0419-0.13751-0.0417zm6.515e-4 0.0997c0.028047-3e-5 0.056166 9e-3 0.081462 0.0255 0.0675 0.0449 0.085403 0.13387 0.040405 0.20137l-1.306 1.959c-0.051657 0.0774-0.15838 0.0879-0.22418 0.0221l-0.78203-0.78202c-0.034545-0.0371-0.044875-0.0729-0.042359-0.10753 0.00252-0.0346 0.019567-0.0691 0.045619-0.0951 0.026053-0.026 0.060505-0.043 0.095147-0.0456 0.034644-3e-3 0.069805 8e-3 0.10688 0.0423l0.65691 0.65626 1.2076-1.8111c0.028169-0.0422 0.073817-0.0651 0.12056-0.0652zm0 0c-0.046746 6e-5 -0.092395 0.0231-0.12056 0.0652l-1.2076 1.8111-0.65691-0.65626c-0.037074-0.0345-0.072235-0.0448-0.10688-0.0423-0.034644 3e-3 -0.069095 0.0196-0.095147 0.0457-0.026052 0.026-0.043102 0.0605-0.045618 0.0951-0.00252 0.0346 0.00782 0.0704 0.042359 0.10753l0.78203 0.78203c0.065798 0.0657 0.17253 0.0552 0.22418-0.0221l1.306-1.959c0.044998-0.0675 0.027095-0.15637-0.040405-0.20137-0.025295-0.0168-0.053415-0.0255-0.081462-0.0255z"
       clip-rule="evenodd"
       fill-rule="evenodd"
       stop-color="#000000"
       stroke-width=".95321"
       id="path1" />
    <rect
       transform="matrix(0,-1,-1,0,0,0)"
       x="-296.38602"
       y="-5.1902547"
       width="4.5413389"
       height="4.5413389"
       rx="2.2712462"
       ry="2.2712462"
       fill="#dadada"
       stroke-width="0.905132"
       id="rect2"
       style="fill:none;stroke:url(#linearGradient3);stroke-width:0.166091;stroke-dasharray:none" />
  </g>
</svg>
