<?xml version="1.0" encoding="UTF-8" standalone="no"?>
<svg
   width="22"
   height="22"
   version="1.1"
   id="svg1"
   sodipodi:docname="emblem-added.svg"
   inkscape:version="1.4.2 (ebf0e940d0, 2025-05-08)"
   xmlns:inkscape="http://www.inkscape.org/namespaces/inkscape"
   xmlns:sodipodi="http://sodipodi.sourceforge.net/DTD/sodipodi-0.dtd"
   xmlns:xlink="http://www.w3.org/1999/xlink"
   xmlns="http://www.w3.org/2000/svg"
   xmlns:svg="http://www.w3.org/2000/svg">
  <defs
     id="defs1">
    <linearGradient
       id="linearGradient4"
       inkscape:collect="always">
      <stop
         style="stop-color:#003165;stop-opacity:1;"
         offset="0"
         id="stop5" />
      <stop
         style="stop-color:#0057c0;stop-opacity:1;"
         offset="1"
         id="stop4" />
    </linearGradient>
    <linearGradient
       id="linearGradient1"
       inkscape:collect="always">
      <stop
         style="stop-color:#000000;stop-opacity:0.21739426;"
         offset="0"
         id="stop1" />
      <stop
         style="stop-color:#ffffff;stop-opacity:0.16006339;"
         offset="1"
         id="stop2" />
    </linearGradient>
    <linearGradient
       inkscape:collect="always"
       xlink:href="#linearGradient1"
       id="linearGradient3"
       gradientUnits="userSpaceOnUse"
       x1="-296.45999"
       y1="-2.9105003"
       x2="-291.73439"
       y2="-2.9105003"
       gradientTransform="matrix(0.92875553,0,0,0.92875553,-20.951407,-0.20733248)" />
    <linearGradient
       inkscape:collect="always"
       xlink:href="#linearGradient4"
       id="linearGradient5"
       x1="-296.45999"
       y1="-2.9105003"
       x2="-291.73439"
       y2="-2.9105003"
       gradientUnits="userSpaceOnUse" />
  </defs>
  <sodipodi:namedview
     id="namedview1"
     pagecolor="#505050"
     bordercolor="#eeeeee"
     borderopacity="1"
     inkscape:showpageshadow="0"
     inkscape:pageopacity="0"
     inkscape:pagecheckerboard="0"
     inkscape:deskcolor="#505050"
     inkscape:zoom="22.627417"
     inkscape:cx="4.1984465"
     inkscape:cy="10.54031"
     inkscape:window-width="2057"
     inkscape:window-height="1255"
     inkscape:window-x="0"
     inkscape:window-y="0"
     inkscape:window-maximized="1"
     inkscape:current-layer="svg1" />
  <style
     id="current-color-scheme"
     type="text/css">.ColorScheme-Highlight {
            color:#3daee9;
        }
        .ColorScheme-Text {
            color:#232629;
        }</style>
  <g
     id="g7"
     transform="matrix(1.1111109,0,0,1.1129299,3.3610739,3.5000004)">
    <g
       transform="matrix(2.8567802,0,0,2.8513018,-1.4395892,-831.81897)"
       id="g1">
      <rect
         transform="matrix(0,-1,-1,0,0,0)"
         x="-296.45999"
         y="-5.2733002"
         width="4.7255998"
         height="4.7255998"
         rx="2.3634"
         ry="2.3634"
         fill="#dadada"
         stroke-width="1.1164"
         id="rect1"
         style="fill:url(#linearGradient5);fill-opacity:1;stroke:none" />
      <rect
         transform="matrix(0,-1,-1,0,0,0)"
         x="-296.29031"
         y="-5.1049395"
         width="4.3889275"
         height="4.3889275"
         rx="2.1950209"
         ry="2.1950209"
         fill="#dadada"
         stroke-width="0.905132"
         id="rect2"
         style="fill:none;stroke:url(#linearGradient3);stroke-width:0.336673;stroke-dasharray:none" />
    </g>
    <path
       d="m 9.7675781,3.4804688 c -0.1750856,0.0012 -0.3476399,0.085337 -0.4511718,0.2402343 L 6.0644531,8.5996094 4.3613281,6.8964844 c 0,0 -0.00195,-0.00195 -0.00195,-0.00195 C 4.2359103,6.7805786 4.0855356,6.7349506 3.9589844,6.7441406 3.8238271,6.753955 3.7036413,6.81589 3.609375,6.9101562 3.5151087,7.0044226 3.451112,7.1300118 3.4414063,7.2636719 c -0.00913,0.1256798 0.038175,0.2757675 0.1542968,0.4003906 l 0.023437,0.027344 2.1464844,2.1445313 C 6.005488,10.075707 6.413094,10.034267 6.6015625,9.7519531 L 10.21875,4.3242187 C 10.384063,4.0762247 10.317769,3.7372581 10.070313,3.5722656 9.9771563,3.5100696 9.8721867,3.4797524 9.7675781,3.4804688 Z"
       style="baseline-shift:baseline;clip-rule:evenodd;display:inline;overflow:visible;vector-effect:none;fill:#ffffff;fill-rule:evenodd;enable-background:accumulate;stop-color:#000000;stop-opacity:1"
       id="path7" />
  </g>
</svg>
