<svg width="18" height="17" viewBox="0 0 18 17" fill="none" xmlns="http://www.w3.org/2000/svg">
<path fill-rule="evenodd" clip-rule="evenodd" d="M8.55753 1.19147C8.8461 1.19147 9.08003 1.4254 9.08003 1.71396V7.46137H14.8274C15.116 7.46137 15.3499 7.6953 15.3499 7.98386C15.3499 8.27243 15.116 8.50636 14.8274 8.50636H9.08003V14.2538C9.08003 14.5423 8.8461 14.7763 8.55753 14.7763C8.26897 14.7763 8.03504 14.5423 8.03504 14.2538V8.50636H2.28763C1.99907 8.50636 1.76514 8.27243 1.76514 7.98386C1.76514 7.6953 1.99907 7.46137 2.28763 7.46137H8.03504V1.71396C8.03504 1.4254 8.26897 1.19147 8.55753 1.19147Z" fill="#CED0D6"/>
</svg>
