<svg width="19" height="19" viewBox="0 0 19 19" fill="none" xmlns="http://www.w3.org/2000/svg">
<path fill-rule="evenodd" clip-rule="evenodd" d="M13.981 2.59872H12.7711C12.5416 1.94932 11.9223 1.48407 11.1943 1.48407H7.8504C7.12241 1.48407 6.50309 1.94932 6.27356 2.59872H5.06377C3.83256 2.59872 2.83447 3.59681 2.83447 4.82802V14.8599C2.83447 16.0911 3.83256 17.0892 5.06377 17.0892H13.981C15.2122 17.0892 16.2103 16.0911 16.2103 14.8599V4.82802C16.2103 3.59681 15.2122 2.59872 13.981 2.59872ZM5.06377 3.71337H6.27356C6.50309 4.36276 7.12241 4.82802 7.8504 4.82802H11.1943C11.9223 4.82802 12.5416 4.36276 12.7711 3.71337H13.981C14.5966 3.71337 15.0956 4.21242 15.0956 4.82802V14.8599C15.0956 15.4755 14.5966 15.9745 13.981 15.9745H5.06377C4.44817 15.9745 3.94912 15.4755 3.94912 14.8599V4.82802C3.94912 4.21242 4.44817 3.71337 5.06377 3.71337ZM7.8504 2.59872C7.5426 2.59872 7.29307 2.84824 7.29307 3.15604C7.29307 3.46384 7.5426 3.71337 7.8504 3.71337H11.1943C11.5021 3.71337 11.7517 3.46384 11.7517 3.15604C11.7517 2.84824 11.5021 2.59872 11.1943 2.59872H7.8504Z" fill="#CED0D6"/>
</svg>
