<?xml version="1.0" encoding="UTF-8" standalone="no"?>
<svg
   viewBox="0 0 16 16"
   fill="none"
   id="Desktop--Streamline-Radix.svg"
   height="16"
   width="16"
   version="1.1"
   sodipodi:docname="virtual-desktops.svg"
   inkscape:version="1.4 (e7c3feb100, 2024-10-09)"
   xmlns:inkscape="http://www.inkscape.org/namespaces/inkscape"
   xmlns:sodipodi="http://sodipodi.sourceforge.net/DTD/sodipodi-0.dtd"
   xmlns="http://www.w3.org/2000/svg"
   xmlns:svg="http://www.w3.org/2000/svg">
  <defs
     id="defs1">
    <inkscape:path-effect
       effect="fillet_chamfer"
       id="path-effect3"
       is_visible="true"
       lpeversion="1"
       nodesatellites_param="F,0,0,1,0,0,0,1 @ F,0,0,1,0,0.46476595,0,1 @ F,0,0,1,0,0,0,1 @ F,0,0,1,0,0,0,1"
       radius="0"
       unit="px"
       method="auto"
       mode="F"
       chamfer_steps="1"
       flexible="false"
       use_knot_distance="true"
       apply_no_radius="true"
       apply_with_radius="true"
       only_selected="false"
       hide_knots="false" />
    <inkscape:path-effect
       effect="fillet_chamfer"
       id="path-effect2"
       is_visible="true"
       lpeversion="1"
       nodesatellites_param="F,0,0,1,0,0,0,1 @ F,0,0,1,0,0,0,1 @ F,0,0,1,0,0,0,1 @ F,0,0,1,0,0,0,1"
       radius="0"
       unit="px"
       method="auto"
       mode="F"
       chamfer_steps="1"
       flexible="false"
       use_knot_distance="true"
       apply_no_radius="true"
       apply_with_radius="true"
       only_selected="false"
       hide_knots="false" />
  </defs>
  <sodipodi:namedview
     id="namedview1"
     pagecolor="#505050"
     bordercolor="#eeeeee"
     borderopacity="1"
     inkscape:showpageshadow="0"
     inkscape:pageopacity="0"
     inkscape:pagecheckerboard="0"
     inkscape:deskcolor="#505050"
     inkscape:zoom="22.627417"
     inkscape:cx="10.407728"
     inkscape:cy="2.9389126"
     inkscape:window-width="1920"
     inkscape:window-height="1015"
     inkscape:window-x="0"
     inkscape:window-y="0"
     inkscape:window-maximized="1"
     inkscape:current-layer="Desktop--Streamline-Radix.svg"
     showguides="true" />
  <desc
     id="desc1">Desktop Streamline Icon: https://streamlinehq.com</desc>
  <path
     id="path18"
     style="display:inline;opacity:1;fill:#dadada;paint-order:fill markers stroke"
     d="M 1.3339844,2.2136183 C 0.59760352,2.2136183 0,2.8112187 0,3.5476027 V 4.600337 6.0632277 12.672603 c 0,0.736426 0.5976046,1.333984 1.3339844,1.333984 H 14.666016 C 15.402442,14.006587 16,13.409029 16,12.672603 V 6.0163527 5.7604933 4.5866652 4.2331496 3.5476027 C 16,2.8112187 15.402442,2.2136183 14.666016,2.2136183 Z m 0,1.0664063 H 14.666016 c 0.147306,0 0.267578,0.1203034 0.267578,0.2675781 v 0.6855469 0.3554687 1.1796875 0.2480469 6.6562503 c 0,0.147306 -0.120272,0.265625 -0.267578,0.265625 h -1.458985 -0.0098 l -0.722657,-1.25 C 12.330749,11.439184 12.064952,11.28581 11.777344,11.285884 H 9.7421875 6.2578125 4.2226562 c -0.2876077,-7.4e-5 -0.5534062,0.1533 -0.6972656,0.402344 l -0.7226562,1.25 h -0.00977 -1.4589844 c -0.1472746,0 -0.267578,-0.118319 -0.2675782,-0.265625 V 5.7897902 4.5983839 3.5476027 c 0,-0.1472747 0.1203036,-0.2675782 0.2675782,-0.2675781 z" />
</svg>
