<?xml version="1.0" encoding="UTF-8" standalone="no"?>
<svg
   width="16"
   height="16"
   version="1.1"
   id="svg4"
   sodipodi:docname="audio-volume-muted-blocking-symbolic.svg"
   inkscape:version="1.3.2 (091e20ef0f, 2023-11-25, custom)"
   xmlns:inkscape="http://www.inkscape.org/namespaces/inkscape"
   xmlns:sodipodi="http://sodipodi.sourceforge.net/DTD/sodipodi-0.dtd"
   xmlns="http://www.w3.org/2000/svg"
   xmlns:svg="http://www.w3.org/2000/svg">
  <defs
     id="defs4" />
  <sodipodi:namedview
     id="namedview4"
     pagecolor="#505050"
     bordercolor="#eeeeee"
     borderopacity="1"
     inkscape:showpageshadow="0"
     inkscape:pageopacity="0"
     inkscape:pagecheckerboard="0"
     inkscape:deskcolor="#505050"
     inkscape:zoom="49.625"
     inkscape:cx="7.9899244"
     inkscape:cy="8"
     inkscape:window-width="1920"
     inkscape:window-height="1008"
     inkscape:window-x="0"
     inkscape:window-y="0"
     inkscape:window-maximized="1"
     inkscape:current-layer="svg4" />
  <g
     transform="translate(0,-4.7914e-4)"
     fill="#dadada"
     opacity=".35"
     id="g4"
     style="fill:#ffffff;fill-opacity:1;opacity:1">
    <path
       d="m6 3.0005-3 3h-2c-0.554 0-1 0.446-1 1v2c0 0.554 0.446 1 1 1h2l3 3v-10z"
       id="path1"
       style="fill:#ffffff;fill-opacity:1" />
    <path
       d="M 13.139,1.428 C 12.594,1 12,1.652 12.455,2.16 A 8,8 0 0 1 15,8 8,8 0 0 1 12.446,13.852 C 12,14.323 12.626,15 13.123,14.58 A 9,9 0 0 0 16,8 9,9 0 0 0 13.139,1.428 Z"
       fill-rule="evenodd"
       id="path2"
       style="fill:#ffffff;fill-opacity:1" />
    <path
       d="m10.775 2.889c-0.587-0.535-1.199 0.225-0.684 0.732a6 6 0 0 1 1.909 4.379 6 6 0 0 1-1.916 4.389c-0.469 0.446 0.173 1.146 0.68 0.728a7 7 0 0 0 2.236-5.117 7 7 0 0 0-2.225-5.111z"
       fill-rule="evenodd"
       id="path3"
       style="fill:#ffffff;fill-opacity:1" />
    <path
       d="M 8.41,4.35 C 7.89,3.856 7.255,4.57 7.727,5.08 A 4,4 0 0 1 9,8 4,4 0 0 1 7.723,10.926 c -0.473,0.43 0.14,1.152 0.68,0.73 A 5,5 0 0 0 10,8 5,5 0 0 0 8.41,4.35 Z"
       fill-rule="evenodd"
       id="path4"
       style="fill:#ffffff;fill-opacity:1" />
  </g>
  <rect
     transform="rotate(45)"
     x="1.3137"
     y="-.5"
     width="20"
     height="1"
     rx=".5"
     ry=".5"
     fill="#dadada"
     stroke-linecap="round"
     stroke-linejoin="round"
     stroke-width=".48307"
     style="paint-order:markers stroke fill;fill:#ffffff;fill-opacity:1"
     id="rect4" />
</svg>
