<?xml version="1.0" encoding="UTF-8" standalone="no"?>
<svg
   width="16"
   height="16"
   version="1.1"
   id="svg2"
   sodipodi:docname="audio-input-microphone-muted-symbolic.svg"
   inkscape:version="1.3.2 (091e20ef0f, 2023-11-25, custom)"
   xmlns:inkscape="http://www.inkscape.org/namespaces/inkscape"
   xmlns:sodipodi="http://sodipodi.sourceforge.net/DTD/sodipodi-0.dtd"
   xmlns="http://www.w3.org/2000/svg"
   xmlns:svg="http://www.w3.org/2000/svg">
  <defs
     id="defs2" />
  <sodipodi:namedview
     id="namedview2"
     pagecolor="#505050"
     bordercolor="#eeeeee"
     borderopacity="1"
     inkscape:showpageshadow="0"
     inkscape:pageopacity="0"
     inkscape:pagecheckerboard="0"
     inkscape:deskcolor="#505050"
     inkscape:zoom="49.625"
     inkscape:cx="7.9899244"
     inkscape:cy="8"
     inkscape:window-width="1920"
     inkscape:window-height="1008"
     inkscape:window-x="0"
     inkscape:window-y="0"
     inkscape:window-maximized="1"
     inkscape:current-layer="svg2" />
  <g
     fill="#dadada"
     id="g2"
     style="fill:#ffffff;fill-opacity:1">
    <path
       d="m8 0c-1.662 0-3 1.338-3 3v6.0254c0 1.662 1.338 3 3 3s3-1.338 3-3v-6.0254c0-1.662-1.338-3-3-3zm0 1c1.108 0 2 0.892 2 2v6.0254c0 1.108-0.892 2-2 2s-2-0.892-2-2v-6.0254c0-1.108 0.892-2 2-2z"
       fill-opacity=".99216"
       opacity=".35"
       id="path1"
       style="opacity:1;fill:#ffffff;fill-opacity:1" />
    <path
       d="m3.5 7.025c-0.277 0-0.5 0.223-0.5 0.5v1.5c0 2.6 1.967 4.725 4.5 4.975v1.024h-2a0.5 0.5 0 1 0 0 1h5a0.5 0.5 0 1 0 0-1h-2v-1.025a4.988 4.988 0 0 0 4.5-4.975v-1.5a0.5 0.5 0 1 0-1 0v1.5c0 2.216-1.784 4-4 4s-4-1.784-4-4v-1.5c0-0.277-0.223-0.5-0.5-0.5z"
       fill-rule="evenodd"
       opacity=".35"
       id="path2"
       style="opacity:1;fill:#ffffff;fill-opacity:1" />
    <rect
       transform="rotate(45)"
       x="1.3137"
       y="-.5"
       width="20"
       height="1"
       rx=".5"
       ry=".5"
       stroke-linecap="round"
       stroke-linejoin="round"
       stroke-width=".48307"
       style="paint-order:markers stroke fill;fill:#ffffff;fill-opacity:1"
       id="rect2" />
  </g>
</svg>
