<?xml version="1.0" encoding="UTF-8" standalone="no"?>
<svg
   width="16"
   height="16"
   version="1.1"
   id="svg1"
   sodipodi:docname="bluetooth-disabled-symbolic.svg"
   inkscape:version="1.3.2 (091e20ef0f, 2023-11-25, custom)"
   xmlns:inkscape="http://www.inkscape.org/namespaces/inkscape"
   xmlns:sodipodi="http://sodipodi.sourceforge.net/DTD/sodipodi-0.dtd"
   xmlns="http://www.w3.org/2000/svg"
   xmlns:svg="http://www.w3.org/2000/svg">
  <defs
     id="defs1" />
  <sodipodi:namedview
     id="namedview1"
     pagecolor="#505050"
     bordercolor="#eeeeee"
     borderopacity="1"
     inkscape:showpageshadow="0"
     inkscape:pageopacity="0"
     inkscape:pagecheckerboard="0"
     inkscape:deskcolor="#505050"
     inkscape:zoom="49.625"
     inkscape:cx="7.9899244"
     inkscape:cy="8"
     inkscape:window-width="1920"
     inkscape:window-height="1008"
     inkscape:window-x="0"
     inkscape:window-y="0"
     inkscape:window-maximized="1"
     inkscape:current-layer="svg1" />
  <path
     d="m7.2949 1.0449a0.50005 0.50005 0 0 0-0.29492 0.45508v5.2852l-2.7344-1.709a0.5 0.5 0 0 0-0.68945 0.1582 0.5 0.5 0 0 0 0.1582 0.68945l3.2656 2.041v0.070313l-3.2656 2.041a0.5 0.5 0 0 0-0.1582 0.68945 0.5 0.5 0 0 0 0.68945 0.1582l2.7344-1.709v5.2852a0.50005 0.50005 0 0 0 0.83203 0.37305l4.5-4a0.50005 0.50005 0 0 0-0.06641-0.79688l-3.3223-2.0762 3.3223-2.0762a0.50005 0.50005 0 0 0 0.06641-0.79688l-4.5-4a0.50005 0.50005 0 0 0-0.53711-0.082031zm0.70508 1.5684 3.1699 2.8164-3.1699 1.9805zm0 5.9766 3.1699 1.9805-3.1699 2.8164z"
     fill="#dadada"
     opacity=".35"
     id="path1"
     style="opacity:1" />
  <rect
     transform="rotate(45)"
     x="1.5135"
     y="-.69975"
     width="20"
     height="1"
     rx=".5"
     ry=".5"
     fill="#dadada"
     stroke-linecap="round"
     stroke-linejoin="round"
     stroke-width=".48307"
     style="paint-order:markers stroke fill"
     id="rect1" />
</svg>
