<svg width="19" height="19" fill="none" version="1.1" viewBox="0 0 19 19" xmlns="http://www.w3.org/2000/svg">
 <path d="m9.5 4.7907c-0.17201 0-0.34394 0.062213-0.47909 0.18677l-3.061 2.8256c-0.28633 0.26513-0.30437 0.71157-0.040183 0.99837 0.26513 0.2868 0.71251 0.30373 0.99837 0.04001l1.8753-1.7315v6.3929c0 0.38993 0.31646 0.70639 0.70639 0.70639s0.70639-0.31646 0.70639-0.70639v-6.3924l1.8752 1.7315c0.1361 0.1248 0.30802 0.18695 0.47944 0.18695 0.18978 0 0.38005-0.076259 0.51945-0.22696 0.26419-0.28727 0.24632-0.73375-0.04001-0.99889l-3.061-2.8256c-0.13516-0.12456-0.30726-0.18677-0.47926-0.18677zm-0.70113 4.7093v8.8008h1.4023v-8.8008zm0.70117-9.5c-0.42531 0-0.85008 0.11046-1.2305 0.33008l-6.1602 3.5195c-0.76 0.43879-1.2315 1.2513-1.2324 2.1289v7.043c8.9883e-4 0.87758 0.47242 1.6901 1.2324 2.1289l6.1602 3.5195c0.76078 0.43923 1.7002 0.43923 2.4609 0l6.1602-3.5195c0.76-0.43879 1.2315-1.2513 1.2324-2.1289v-7.043c-9e-4 -0.87757-0.47242-1.6901-1.2324-2.1289l-6.1602-3.5195c-0.38039-0.21962-0.80516-0.33008-1.2305-0.33008zm-0.5293 1.5449c0.32835-0.18957 0.73025-0.18957 1.0586 0l2e-3 0.00195 6.1602 3.5195c0.32654 0.18969 0.52696 0.53627 0.52734 0.91406v7.0391c-3.87e-4 0.37779-0.20081 0.72437-0.52734 0.91406l-6.1602 3.5195-2e-3 2e-3c-0.32835 0.18957-0.73025 0.18957-1.0586 0l-0.00195-2e-3 -6.1582-3.5176-0.00195-2e-3c-0.32654-0.18964-0.52696-0.53622-0.52735-0.91401v-7.0391c3.884e-4 -0.37875 0.20129-0.72664 0.5293-0.91602l6.1582-3.5176z" fill="#fff" fill-opacity=".8" stroke-miterlimit="10" stroke-width=".088"/>
</svg>
