<!-- Copyright 2000-2022 JetBrains s.r.o. and contributors. Use of this source code is governed by the Apache 2.0 license. -->
<svg width="20" height="20" fill="none" version="1.1" viewBox="0 0 20 20" xmlns="http://www.w3.org/2000/svg">
 <g transform="matrix(.95474 0 0 .95474 -.91146 .1188)" fill="#ced0d6">
  <path d="m5.0586 0.69922c-1.2058 0-2.2012 0.99544-2.2012 2.2012v15.318c0 0.86461 1.1019 1.4013 1.7832 0.86914l4.0664-3.1758v-2.1035l-4.1914 3.2734v-14.182c0-0.31035 0.23257-0.54297 0.54297-0.54297h9.8828c0.31041 0 0.54492 0.23254 0.54492 0.54297v5.8145h1.6562v-5.8145c0-1.2058-0.99542-2.2012-2.2012-2.2012z"/>
  <path id="close" d="m11.906 18.914c-0.1244 0.12442-0.1244 0.32611 0 0.45052 0.12439 0.12435 0.32607 0.12435 0.45046 0l3.2786-3.2786 3.2787 3.2787c0.12435 0.12435 0.32604 0.12435 0.45046 0 0.12435-0.12442 0.12435-0.32611 0-0.45046l-3.2787-3.2787 3.2786-3.2786c0.12435-0.12439 0.12435-0.32607 0-0.45046-0.12442-0.12439-0.32611-0.12439-0.45052 0l-3.2785 3.2786-3.2785-3.2785c-0.12439-0.12439-0.32607-0.12439-0.45046 0-0.12439 0.1244-0.12439 0.32607 0 0.45046l3.2785 3.2785z" stroke="#ced0d6" stroke-width="1.091"/>
 </g>
</svg>
