<?xml version="1.0" encoding="UTF-8" standalone="no"?>
<svg
   width="14.48963"
   height="14.490468"
   viewBox="0 0 14.48963 14.490468"
   fill="none"
   version="1.1"
   id="svg4"
   sodipodi:docname="bookmarksList.svg"
   inkscape:version="1.3.2 (091e20ef0f, 2023-11-25, custom)"
   xmlns:inkscape="http://www.inkscape.org/namespaces/inkscape"
   xmlns:sodipodi="http://sodipodi.sourceforge.net/DTD/sodipodi-0.dtd"
   xmlns="http://www.w3.org/2000/svg"
   xmlns:svg="http://www.w3.org/2000/svg">
  <defs
     id="defs4" />
  <sodipodi:namedview
     id="namedview4"
     pagecolor="#505050"
     bordercolor="#eeeeee"
     borderopacity="1"
     inkscape:showpageshadow="0"
     inkscape:pageopacity="0"
     inkscape:pagecheckerboard="0"
     inkscape:deskcolor="#505050"
     inkscape:zoom="19.368421"
     inkscape:cx="12.184783"
     inkscape:cy="12.752717"
     inkscape:window-width="1920"
     inkscape:window-height="1015"
     inkscape:window-x="0"
     inkscape:window-y="0"
     inkscape:window-maximized="1"
     inkscape:current-layer="svg4" />
  <g
     id="g4"
     transform="translate(-2.83447,-3.4649701)">
    <rect
       x="2.83447"
       y="13.4968"
       width="6.6879001"
       height="1.11465"
       rx="0.55732501"
       fill="#ced0d6"
       id="rect1"
       ry="0.55732501" />
    <rect
       x="2.83447"
       y="6.80896"
       width="13.3758"
       height="1.11465"
       rx="0.55732501"
       fill="#ced0d6"
       id="rect2"
       ry="0.55732501" />
    <rect
       x="2.83447"
       y="10.1529"
       width="6.6879001"
       height="1.11465"
       rx="0.55732501"
       fill="#ced0d6"
       id="rect3"
       ry="0.55732501" />
    <rect
       x="2.83447"
       y="3.4649701"
       width="13.3758"
       height="1.11465"
       rx="0.55732501"
       fill="#ced0d6"
       id="rect4"
       ry="0.55732501" />
    <path
       d="m 11.7515,11.2687 c 0,-0.6162 0.499,-1.1158 1.1146,-1.1158 h 3.3433 c 0.6156,0 1.1147,0.4996 1.1147,1.1158 v 6.4073 c 0,0.234 -0.2706,0.364 -0.453,0.2176 l -2.3333,-1.9092 -2.3334,1.9092 C 12.022,18.04 11.7515,17.91 11.7515,17.676 Z"
       fill="#24a8f2"
       id="path4" />
  </g>
</svg>
