<svg version="1.1" viewBox="0 0 16 16" xmlns="http://www.w3.org/2000/svg">
 <defs>
  <style id="current-color-scheme" type="text/css">.ColorScheme-Text {
        color:#dadada;
      }</style>
 </defs>
 <g transform="matrix(.074996 0 0 .074996 -1.5995 -1.5995)" fill="#fff" fill-opacity=".85098" font-family="none" font-size="none" font-weight="none" stroke-miterlimit="10" text-anchor="none" style="mix-blend-mode:normal">
  <g transform="scale(10.667)">
   <path d="m12 2c-5.523 0-10 4.477-10 10s4.477 10 10 10 10-4.477 10-10-4.477-10-10-10zm0 2c4.418 0 8 3.582 8 8s-3.582 8-8 8-8-3.582-8-8 3.582-8 8-8zm5 3-6.8242 3.1758-3.1758 6.8242 6.8242-3.1758zm-5 3.9004c0.61 0 1.0996 0.48961 1.0996 1.0996s-0.48961 1.0996-1.0996 1.0996-1.0996-0.48961-1.0996-1.0996 0.48961-1.0996 1.0996-1.0996z"/>
  </g>
 </g>
</svg>
