<!-- Uploaded to: SVG Repo, www.svgrepo.com, Generator: SVG Repo Mixer Tools -->
<svg width="800px" height="800px" fill="#000000" version="1.1" viewBox="0 0 56 56" xmlns="http://www.w3.org/2000/svg">
 <path d="m28 50.947c0.61255 0 1.178-0.07066 1.814-0.1177l1.3664 2.5914c0.25913 0.51826 0.7774 0.80092 1.4136 0.70673 0.58893-0.1178 1.013-0.54178 1.0837-1.178l0.42408-2.8506c1.1543-0.30627 2.3087-0.75388 3.4395-1.2486l2.1203 1.9082c0.4476 0.42408 1.013 0.51836 1.6019 0.18847 0.51836-0.28265 0.73035-0.84806 0.61255-1.4606l-0.58893-2.827c0.96586-0.68321 1.9318-1.4606 2.8034-2.3323l2.6386 1.1073c0.58913 0.23551 1.1309 0.11781 1.5787-0.42408 0.40046-0.42408 0.4472-1.0366 0.1177-1.5549l-1.5314-2.4501c0.70683-0.98939 1.2722-2.0496 1.8141-3.1803l2.8741 0.14133c0.61235 0.02352 1.1305-0.30628 1.3428-0.8952 0.18817-0.58903 0-1.1544-0.49504-1.5314l-2.2377-1.7904c0.30638-1.1309 0.54178-2.3559 0.63587-3.628l2.7327-0.84806c0.58913-0.21209 0.96596-0.65969 0.96596-1.2958 0-0.61255-0.37684-1.0601-0.96596-1.2721l-2.7327-0.87178c-0.09408-1.2721-0.32949-2.45-0.63587-3.6044l2.2377-1.8139c0.49504-0.35342 0.68321-0.8953 0.49504-1.4842-0.21229-0.58903-0.73046-0.91882-1.3428-0.8953l-2.8741 0.11791c-0.54189-1.1309-1.1073-2.191-1.8141-3.1804l1.5314-2.4501c0.32949-0.49474 0.28275-1.1073-0.1177-1.5314-0.4478-0.54178-0.98959-0.68321-1.5787-0.42398l-2.6386 1.0602c-0.87158-0.82464-1.8375-1.6257-2.8034-2.3088l0.58893-2.8035c0.1178-0.63607-0.094185-1.2015-0.61255-1.4842-0.58893-0.30627-1.1543-0.25913-1.6019 0.21209l-2.1203 1.8612c-1.1308-0.49474-2.2851-0.8953-3.4395-1.2251l-0.42408-2.8506c-0.070663-0.61255-0.49474-1.0601-1.0837-1.1544-0.63617-0.094184-1.1544 0.16495-1.4136 0.68321l-1.3664 2.5915c-0.63607-0.047142-1.2015-0.094285-1.814-0.094285-0.63607 0-1.2015 0.047142-1.8611 0.094285l-1.3428-2.5915c-0.25923-0.51826-0.7775-0.7774-1.4371-0.68321-0.58903 0.094285-0.98949 0.54189-1.0838 1.1544l-0.40046 2.827c-1.178 0.35332-2.3323 0.75388-3.4396 1.2486l-2.1202-1.8612c-0.47122-0.47122-1.0366-0.51836-1.602-0.21209-0.51826 0.28275-0.73035 0.84816-0.61255 1.4842l0.58893 2.8035c-0.98939 0.68311-1.9553 1.4841-2.827 2.3088l-2.6149-1.0602c-0.58903-0.25923-1.1544-0.1178-1.602 0.42398-0.37684 0.42408-0.42398 1.0366-0.11771 1.5078l1.5548 2.4737c-0.70673 0.98949-1.2721 2.0495-1.8139 3.1804l-2.8978-0.11791c-0.61245-0.02352-1.1308 0.30628-1.3193 0.8953-0.18847 0.58893-0.023521 1.1308 0.47122 1.4842l2.2616 1.8139c-0.30627 1.1544-0.56541 2.3323-0.63607 3.6044l-2.7328 0.87178c-0.61255 0.18837-0.94234 0.63597-0.94234 1.2721 0 0.63607 0.3298 1.0837 0.94234 1.2958l2.7328 0.87158c0.070663 1.2486 0.3298 2.4736 0.63607 3.6045l-2.2616 1.7904c-0.49474 0.37694-0.65969 0.94234-0.47122 1.5314 0.18847 0.58893 0.70683 0.91872 1.3193 0.8952l2.8978-0.14133c0.54178 1.1307 1.1072 2.191 1.7904 3.1803l-1.5078 2.4501c-0.35342 0.51826-0.30627 1.1308 0.094184 1.5549 0.4476 0.54189 1.013 0.65959 1.602 0.42408l2.6149-1.1073c0.87178 0.87168 1.8376 1.6491 2.827 2.3323l-0.58893 2.827c-0.11781 0.61255 0.09428 1.178 0.61255 1.4606 0.58893 0.3299 1.1543 0.23561 1.602-0.18847l2.0967-1.9082c1.1308 0.49474 2.2851 0.94234 3.4631 1.2486l0.40046 2.8506c0.09428 0.63617 0.49474 1.0602 1.0838 1.178 0.65959 0.09418 1.1779-0.18847 1.4371-0.70673l1.3428-2.5914c0.63607 0.04704 1.225 0.1177 1.8611 0.1177zm5.9133-24.454c-1.1073-2.9684-3.2746-4.5939-5.984-4.5939-0.40046 0-0.87158 0.04714-1.6255 0.21199l-6.7614-11.544c2.5208-1.2486 5.3948-1.9318 8.4575-1.9318 10.272 0 18.329 7.7979 19.059 17.857zm-25.043 1.5078c0-6.5493 3.0862-12.321 7.9628-15.808l6.8084 11.614c-1.2721 1.3193-1.8611 2.7564-1.8611 4.2876 0 1.4842 0.56541 2.8507 1.8611 4.2171l-6.9733 11.402c-4.7589-3.5102-7.7979-9.2114-7.7979-15.714zm16.232 0.07066c0-1.6019 1.3664-2.8506 2.8742-2.8506 1.602 0 2.9213 1.2486 2.9213 2.8506 0 1.5784-1.3193 2.8742-2.9213 2.8742-1.5078 0-2.8742-1.2958-2.8742-2.8742zm2.8977 19.294c-3.1332 0-6.0545-0.73025-8.6224-2.0024l6.9263-11.332c0.73025 0.18847 1.225 0.23561 1.6255 0.23561 2.7328 0 4.9002-1.6727 5.984-4.7117h13.146c-0.75408 10.012-8.8111 17.81-19.059 17.81z" fill="#dadada" stroke-width="1.0052"/>
</svg>
