<!-- Copyright 2000-2023 JetBrains s.r.o. and contributors. Use of this source code is governed by the Apache 2.0 license. -->
<svg width="16" height="16" version="1.1" viewBox="0 0 16 16" xmlns="http://www.w3.org/2000/svg">
 <path d="m8 5.1602c-1.5687 1e-7 -2.8398 1.2711-2.8398 2.8398 1e-7 1.5686 1.2711 2.8398 2.8398 2.8398s2.8398-1.2711 2.8398-2.8398c0-1.5686-1.2711-2.8398-2.8398-2.8398z" clip-rule="evenodd" fill="#ced0d6" fill-rule="evenodd" stroke-width="1.0714"/>
 <path d="m8 0.5c-0.3787 0-0.75159 0.027859-1.1152 0.082031-0.23975 0.03572-0.4436 0.1872-0.5625 0.39844l-0.92969 1.6523c-0.14923 0.26513-0.43209 0.42911-0.73633 0.42578l-1.8945-0.021484c-0.24193-0.00265-0.47602 0.098009-0.62695 0.28711-0.46273 0.5797-0.84129 1.2301-1.1172 1.9316-0.088595 0.22528-0.058877 0.47724 0.064453 0.68555l0.9668 1.6348c0.15501 0.26181 0.15501 0.58585 0 0.84766l-0.9668 1.6348c-0.12333 0.20832-0.15305 0.46033-0.064453 0.68555 0.2759 0.7015 0.65446 1.3519 1.1172 1.9316 0.15093 0.1891 0.38502 0.28981 0.62695 0.28711l1.8945-0.021485c0.30424-0.0033 0.5871 0.15876 0.73633 0.42383l0.92969 1.6543c0.1189 0.21129 0.32275 0.36276 0.5625 0.39844 0.36363 0.054215 0.73652 0.082031 1.1152 0.082031s0.75165-0.02792 1.1152-0.08203c0.23976-0.03579 0.4436-0.18726 0.5625-0.39844l0.92969-1.6543c0.14914-0.26507 0.43204-0.42713 0.73633-0.42383l1.8945 0.02149c0.24193 0.0027 0.47599-0.098 0.62695-0.28711 0.46267-0.5797 0.8413-1.2303 1.1172-1.9316 0.08861-0.22532 0.05887-0.47725-0.06445-0.68555l-0.9668-1.6348c-0.15504-0.26182-0.15504-0.58586 0-0.84766l0.9668-1.6348c0.12332-0.20831 0.15306-0.46027 0.06445-0.68555-0.27592-0.7015-0.65455-1.3519-1.1172-1.9316-0.15097-0.18909-0.38502-0.28976-0.62695-0.28711l-1.8945 0.021484c-0.30428 0.0033399-0.58719-0.16064-0.73633-0.42578l-0.92969-1.6523c-0.11889-0.21124-0.32274-0.36273-0.5625-0.39844-0.36363-0.05416-0.73657-0.082031-1.1152-0.082031zm0 1.0723c0.27442 0 0.54405 0.015678 0.80859 0.048828l0.86523 1.5391c0.3411 0.60604 0.98628 0.97637 1.6816 0.96875l1.7637-0.019531c0.32593 0.4281 0.59959 0.89853 0.81055 1.4004l-0.90039 1.5195c-0.35432 0.5984-0.35432 1.343 0 1.9414l0.90039 1.5195c-0.21097 0.50184-0.48462 0.97225-0.81055 1.4004l-1.7637-0.01953c-0.69532-0.0076-1.3405 0.36264-1.6816 0.96875l-0.86523 1.5391c-0.26454 0.03311-0.53418 0.048828-0.80859 0.048828-0.27445 0-0.54401-0.01561-0.80859-0.04883l-0.86523-1.5391c-0.3411-0.60611-0.98624-0.97635-1.6816-0.96875l-1.7637 0.01953c-0.32596-0.42811-0.59949-0.89843-0.81055-1.4004l0.90039-1.5195c0.3543-0.5984 0.3543-1.343 0-1.9414l-0.90039-1.5195c0.21105-0.50193 0.4846-0.97221 0.81055-1.4004l1.7637 0.019531c0.69543 0.00762 1.3405-0.36271 1.6816-0.96875l0.86523-1.5391c0.26458-0.033161 0.53413-0.048828 0.80859-0.048828z" clip-rule="evenodd" fill="#ced0d6" fill-rule="evenodd" stroke-width="1.0714"/>
</svg>
