<?xml version="1.0" encoding="UTF-8" standalone="no"?>
<svg
   width="16"
   height="16"
   viewBox="0 0 16 16"
   fill="none"
   version="1.1"
   id="svg1"
   sodipodi:docname="delete.svg"
   inkscape:version="1.3.2 (091e20ef0f, 2023-11-25, custom)"
   xmlns:inkscape="http://www.inkscape.org/namespaces/inkscape"
   xmlns:sodipodi="http://sodipodi.sourceforge.net/DTD/sodipodi-0.dtd"
   xmlns="http://www.w3.org/2000/svg"
   xmlns:svg="http://www.w3.org/2000/svg">
  <defs
     id="defs1" />
  <sodipodi:namedview
     id="namedview1"
     pagecolor="#505050"
     bordercolor="#eeeeee"
     borderopacity="1"
     inkscape:showpageshadow="0"
     inkscape:pageopacity="0"
     inkscape:pagecheckerboard="0"
     inkscape:deskcolor="#505050"
     inkscape:zoom="32.526912"
     inkscape:cx="6.7636301"
     inkscape:cy="9.8226355"
     inkscape:window-width="1920"
     inkscape:window-height="1014"
     inkscape:window-x="0"
     inkscape:window-y="0"
     inkscape:window-maximized="1"
     inkscape:current-layer="svg1" />
  <path
     fill-rule="evenodd"
     clip-rule="evenodd"
     d="M7 2H9C9.55228 2 10 2.44772 10 3H6C6 2.44772 6.44772 2 7 2ZM5 3C5 1.89543 5.89543 1 7 1H9C10.1046 1 11 1.89543 11 3H13C13.5523 3 14 3.44772 14 4V5V6H13V13C13 14.1046 12.1046 15 11 15H5C3.89543 15 3 14.1046 3 13V6H2V5V4C2 3.44772 2.44772 3 3 3H5ZM11 4H10H6H5H3V5H4H12H13V4H11ZM4 6H12V13C12 13.5523 11.5523 14 11 14H5C4.44772 14 4 13.5523 4 13V6ZM6.5 7C6.22386 7 6 7.22386 6 7.5V11.5C6 11.7761 6.22386 12 6.5 12C6.77614 12 7 11.7761 7 11.5V7.5C7 7.22386 6.77614 7 6.5 7ZM9 7.5C9 7.22386 9.22386 7 9.5 7C9.77614 7 10 7.22386 10 7.5V11.5C10 11.7761 9.77614 12 9.5 12C9.22386 12 9 11.7761 9 11.5V7.5Z"
     fill="#CED0D6"
     id="path2"
     style="fill:#ea4646;fill-opacity:1" />
</svg>
