<svg width="16" height="16" enable-background="new" version="1.1" xmlns="http://www.w3.org/2000/svg">
 <g fill="#fff" fill-opacity=".8" stroke-width="1.0178">
  <path d="m11.929 8.875v0.57305a3.1177 3.1177 0 0 0-1.2723 0.50893l-0.15878-0.19136a0.46312 0.46312 0 0 0-0.35014-0.12723h-0.50893v0.50893c0 0.13028 0.059035 0.28194 0.15878 0.3817l0.1598 0.12723c-0.26464 0.36846-0.43157 0.8041-0.50893 1.2723h-0.57305v1.0179h0.57305c0.077357 0.46821 0.24428 0.90385 0.50893 1.2723l-0.1598 0.12723a0.56898 0.56898 0 0 0-0.15878 0.3817v0.50893h0.50893c0.13028 0 0.28194-0.02748 0.3817-0.12723l0.15878-0.19136c0.36541 0.25752 0.77968 0.43259 1.2408 0.50893v0.57305h1.0179v-0.57305c0.46109-0.07634 0.87535-0.25141 1.2408-0.50893l0.15878 0.19136c0.09975 0.09975 0.25446 0.09975 0.3817 0.12723h0.50893v-0.50893a0.56898 0.56898 0 0 0-0.15878-0.3817l-0.15878-0.12723c0.26261-0.36846 0.43055-0.8041 0.50893-1.2723h0.57203v-1.0179h-0.57203a3.0352 3.0352 0 0 0-0.50893-1.2723l0.15878-0.12723c0.09975-0.09975 0.1425-0.25243 0.15878-0.3817v-0.50893h-0.50893c-0.13028 0-0.28195 0.027482-0.3817 0.12723l-0.15878 0.19136a2.9843 2.9843 0 0 0-1.2408-0.50893v-0.57305zm0.50893 1.5268a2.0357 2.0357 0 1 1 0 4.0714 2.0357 2.0357 0 0 1 0-4.0714z" color="#000000" enable-background="accumulate" overflow="visible"/>
  <path d="m3.7852 0.63086c-1.1824 0-2.1367 0.9543-2.1367 2.1367v10.18c0 1.1824 0.9543 2.1367 2.1367 2.1367h3.4277v-1.2207h-3.4277c-0.50926 0-0.91602-0.40674-0.91602-0.91602v-10.18c0-0.50926 0.40675-0.91602 0.91602-0.91602h8.1426c0.50926 0 0.91797 0.40675 0.91797 0.91602v4.4453h1.2207v-4.4453c0-1.1824-0.95625-2.1367-2.1387-2.1367z" style=""/>
 </g>
</svg>
