<svg version="1.1" viewBox="0 0 16 16" xmlns="http://www.w3.org/2000/svg">
 <defs>
  <style id="current-color-scheme" type="text/css">.ColorScheme-Text {
        color:#dadada;
      }
      .ColorScheme-NegativeText {
        color:#da4453;
      }</style>
  <style type="text/css">.ColorScheme-Text {
        color:#dadada;
      }
      .ColorScheme-NegativeText {
        color:#da4453;
      }</style>
 </defs>
 <path d="m4.0596 0.95135c-1.1704 0-2.1182 0.94592-2.1182 2.1163v9.8647c0 1.1704 0.9478 2.1163 2.1182 2.1163h2.394v-1.2739h-2.394c-0.46918 0-0.84239-0.3732-0.84239-0.84239v-9.8647c0-0.46918 0.3732-0.84239 0.84239-0.84239h7.891c0.46918 0 0.84239 0.3732 0.84239 0.84239v3.8855h1.2758v-3.8855c0-1.1704-0.9478-2.1163-2.1182-2.1163z" color="#da4453" opacity="0" stop-color="#000000" stroke-width=".96058"/>
 <path d="m9.8823 9.7092-0.90242 0.90055 1.7692 1.7692-1.7692 1.7692 0.90242 0.90055 1.7673-1.7692 1.7692 1.7692 0.90055-0.90055-1.7673-1.7692 1.7673-1.7692-0.90055-0.90055-1.7692 1.7692z" opacity="0" stroke-width=".92354"/>
 <path d="m12.507 2.5-4.5068 4.5004-4.5068-4.4983-0.99114 1.0078 4.4967 4.4922-4.4987 4.4861 0.98911 1.0118 4.5109-4.5024 4.5068 4.5024 0.99317-1.0118-4.4987-4.4861 4.4967-4.4922z" color="#da4453" fill="#dadada" stroke-width="1.0401"/>
</svg>
