<svg width="24px" height="24px" version="1.1" viewBox="0 0 256 256" xmlns="http://www.w3.org/2000/svg">
 <path transform="matrix(12.734 0 0 12.734 -38.018 -20.185)" d="m14 5.7227v1.5h5.877c0.15147 0 0.25 0.098527 0.25 0.25v12.047c0 0.15147-0.09853 0.25-0.25 0.25h-9.1211c-0.15147 0-0.25-0.09853-0.25-0.25v-2.4727h-1.5v2.4727c0 0.95653 0.79347 1.75 1.75 1.75h9.1211c0.95653 0 1.75-0.79347 1.75-1.75v-12.047c0-0.95653-0.79347-1.75-1.75-1.75z" fill="#dadada" fill-rule="evenodd" style="mix-blend-mode:normal"/>
 <path transform="matrix(12.734 0 0 12.734 -5.2111 -26.527)" d="m3.3688 2.502c-0.82155 0-1.4969 0.67704-1.4969 1.4986v12.046c0 0.82155 0.6754 1.4986 1.4969 1.4986h9.1207c0.82154 0 1.4986-0.67704 1.4986-1.4986v-12.046c0-0.82155-0.67704-1.4986-1.4986-1.4986z" fill="#dadada" fill-rule="evenodd" style="mix-blend-mode:normal"/>
</svg>
