<!-- Copyright 2000-2022 JetBrains s.r.o. and contributors. Use of this source code is governed by the Apache 2.0 license. -->
<svg width="16" height="13.275" fill="none" version="1.1" viewBox="0 0 16 13.275" xmlns="http://www.w3.org/2000/svg">
 <path d="m2.2762 1.0836e-6c-0.88073 0-1.7419 0.74036-1.7419 1.8099v8.7492c0 1.1206 0.79501 1.9909 1.7419 1.9909h11.448c0.947 0 1.7419-0.87032 1.7419-1.9909v-6.5404c0-1.1718-0.96104-2.1347-2.1328-2.1347l-4.8684-0.061755-0.0077769-0.006172-1.7323-1.5425c-0.21002-0.18706-0.46473-0.27354-0.72714-0.27354zm0 1.1291h3.7212c0.028166 0 0.049714 0.016142 0.04083 0.00823l1.7304 1.5404 0.30718 0.27354h5.2572c0.59533 0 1.0654 0.47201 1.0654 1.0674v6.5404c0 0.62777-0.41579 0.92545-0.67465 0.92545h-11.448c-0.25884 0-0.67464-0.29769-0.67464-0.92545v-8.7492c0-0.42398 0.34959-0.68076 0.67464-0.68076z" fill="#fff" fill-opacity=".85185" stroke-width="1.2028"/>
</svg>
