<?xml version="1.0" encoding="UTF-8" standalone="no"?>
<svg
   width="16"
   height="16"
   viewBox="0 0 16 16"
   fill="none"
   version="1.1"
   id="svg4"
   sodipodi:docname="edit-copy-path.svg"
   inkscape:version="1.3.2 (091e20ef0f, 2023-11-25, custom)"
   xmlns:inkscape="http://www.inkscape.org/namespaces/inkscape"
   xmlns:sodipodi="http://sodipodi.sourceforge.net/DTD/sodipodi-0.dtd"
   xmlns="http://www.w3.org/2000/svg"
   xmlns:svg="http://www.w3.org/2000/svg">
  <defs
     id="defs4" />
  <sodipodi:namedview
     id="namedview4"
     pagecolor="#505050"
     bordercolor="#eeeeee"
     borderopacity="1"
     inkscape:showpageshadow="0"
     inkscape:pageopacity="0"
     inkscape:pagecheckerboard="0"
     inkscape:deskcolor="#505050"
     inkscape:zoom="32.526912"
     inkscape:cx="9.5613134"
     inkscape:cy="6.3485891"
     inkscape:window-width="1920"
     inkscape:window-height="1014"
     inkscape:window-x="0"
     inkscape:window-y="0"
     inkscape:window-maximized="1"
     inkscape:current-layer="svg4" />
  <g
     id="g4"
     transform="matrix(1.297867,0,0,1.297867,-0.44236295,-2.3829357)">
    <path
       d="M 1.00085,9.07015 C 0.992456,8.69386 1.046,8.38499 1.16147,8.14356 1.27905,7.90212 1.43652,7.72376 1.63388,7.60848 1.83124,7.49103 2.04855,7.4323 2.2858,7.4323 c 0.20996,0 0.40417,0.04676 0.58263,0.14029 C 3.0469,7.66395 3.25056,7.81403 3.47941,8.02284 3.62218,8.15117 3.73871,8.2447 3.82899,8.30343 3.91927,8.35998 4.02005,8.38825 4.13133,8.38825 4.3014,8.38825 4.43682,8.323 4.5376,8.1925 4.64048,8.05982 4.68982,7.86406 4.68562,7.60522 H 5.48241 C 5.49081,7.98369 5.43622,8.29364 5.31864,8.53507 5.20317,8.77651 5.0457,8.95487 4.84624,9.07015 4.64888,9.18543 4.43262,9.24307 4.19747,9.24307 3.98541,9.24307 3.79015,9.1963 3.61168,9.10277 3.43322,9.00707 3.23061,8.85699 3.00385,8.65253 2.85688,8.51985 2.73931,8.42632 2.65113,8.37194 2.56294,8.31539 2.46321,8.28711 2.35193,8.28711 2.19027,8.28711 2.05589,8.34802 1.94881,8.46982 1.84384,8.58945 1.79345,8.78956 1.79765,9.07015 Z"
       fill="#ffffff"
       id="path1" />
    <path
       d="M 9.01922,4 6.94063,12 H 6.09975 L 8.17834,4 Z"
       fill="#ffffff"
       id="path2" />
    <path
       d="M 12.0096,4 9.93102,12 H 9.09014 L 11.1687,4 Z"
       fill="#ffffff"
       id="path3" />
  </g>
</svg>
