<svg width="16" height="16" fill="none" version="1.1" viewBox="0 0 16 16" xmlns="http://www.w3.org/2000/svg">
 <rect x="1.6849" y="4.5" width="9" height="10" rx="1.5" stroke="#ced0d6" stroke-width="1.1"/>
 <g fill="#ced0d6" stroke="#ced0d6" stroke-width=".5">
  <rect x="4.4349" y="7.25" width="3.5" height=".5" rx=".25" opacity="0"/>
  <rect x="4.4349" y="9.25" width="3.5" height=".5" rx=".25" opacity="0"/>
  <rect x="4.4349" y="11.25" width="3.5" height=".5" rx=".25" opacity="0"/>
 </g>
 <mask id="path-5-inside-1_60_209" fill="white">
  <path d="m11.002 3h0.5981c0.7732 0 1.4 0.6268 1.4 1.4v0.51081c0.0013 0.02957 0.0019 0.0593 0.0019 0.08919v7.5482c0.6046-0.4358 0.9981-1.1461 0.9981-1.9482v-6.2c0-1.3255-1.0745-2.4-2.4-2.4h-5.2c-0.80301 0-1.5139 0.39437-1.9496 1h6.5515z" clip-rule="evenodd" fill-rule="evenodd"/>
 </mask>
 <path transform="translate(-.085286 -.76559)" d="m13 4.9108h-1v0.02194l9e-4 0.02192zm0.0019 7.6374h-1v1.9536l1.5848-1.1424zm-8.5515-9.5482-0.81178-0.58397-1.1395 1.584h1.9512zm7.1496-1h-0.5981v2h0.5981zm2.4 2.4c0-1.3255-1.0745-2.4-2.4-2.4v2c0.2209 0 0.4 0.17909 0.4 0.4zm0 0.51081v-0.51081h-2v0.51081zm-1.9991 0.04386c7e-4 0.01495 1e-3 0.03006 1e-3 0.04533h2c0-0.0445-9e-4 -0.08886-0.0029-0.13304zm1e-3 0.04533v7.5482h2v-7.5482zm1.5848 8.3594c0.854-0.6157 1.4133-1.6223 1.4133-2.7594h-2c0 0.4672-0.2278 0.8811-0.5829 1.137zm1.4133-2.7594v-6.2h-2v6.2zm0-6.2c0-1.8778-1.5223-3.4-3.4-3.4v2c0.7732 0 1.4 0.6268 1.4 1.4zm-3.4-3.4h-5.2v2h5.2zm-5.2 0c-1.1384 0-2.1459 0.56043-2.7614 1.416l1.6236 1.1679c0.25585-0.35566 0.67015-0.58397 1.1378-0.58397zm-1.9496 3h1.9496v-2h-1.9496zm1.9496 0h4.6019v-2h-4.6019z" fill="#ced0d6" mask="url(#path-5-inside-1_60_209)" stroke="#ced0d6" stroke-width="1.1"/>
</svg>
