<svg version="1.1" viewBox="0 0 16 16" xmlns="http://www.w3.org/2000/svg">
 <defs>
  <style id="current-color-scheme" type="text/css">.ColorScheme-Text {
        color:#dadada;
      }</style>
 </defs>
 <path d="m3 0.84961c-1.1885 0-2.1504 0.96189-2.1504 2.1504v2.1504h1.3008v-2.1504c0-0.47349 0.37611-0.84961 0.84961-0.84961h2.1504v-1.3008zm7.8496 0v1.3008h2.1504c0.4735 0 0.84961 0.37611 0.84961 0.84961v2.1504h1.3008v-2.1504c0-1.1885-0.96189-2.1504-2.1504-2.1504zm-7.8496 0.30078h1.8496v0.69922h-1.8496c-0.63451 0-1.1504 0.51589-1.1504 1.1504v1.8496h-0.69922v-1.8496c0-1.0275 0.82211-1.8496 1.8496-1.8496zm8.1504 0h1.8496c1.0275 0 1.8496 0.82211 1.8496 1.8496v1.8496h-0.69922v-1.8496c0-0.63451-0.51589-1.1504-1.1504-1.1504h-1.8496zm-10.301 9.6992v2.1504c0 1.1885 0.96189 2.1504 2.1504 2.1504h2.1504v-1.3008h-2.1504c-0.47349 0-0.84961-0.37611-0.84961-0.84961v-2.1504zm13 0v2.1504c0 0.4735-0.37611 0.84961-0.84961 0.84961h-2.1504v1.3008h2.1504c1.1885 0 2.1504-0.96189 2.1504-2.1504v-2.1504zm-12.699 0.30078h0.69922v1.8496c0 0.6345 0.51589 1.1504 1.1504 1.1504h1.8496v0.69922h-1.8496c-1.0275 0-1.8496-0.82211-1.8496-1.8496zm13 0h0.69922v1.8496c0 1.0275-0.82211 1.8496-1.8496 1.8496h-1.8496v-0.69922h1.8496c0.6345 0 1.1504-0.51589 1.1504-1.1504zm-11.15-10.15c-1.108 0-2 0.892-2 2v2h1v-2c0-0.554 0.446-1 1-1h2v-1zm8 0v1h2c0.554 0 1 0.446 1 1v2h1v-2c0-1.108-0.892-2-2-2zm-10 10v2c0 1.108 0.892 2 2 2h2v-1h-2c-0.554 0-1-0.446-1-1v-2zm13 0v2c0 0.554-0.446 1-1 1h-2v1h2c1.108 0 2-0.892 2-2v-2zm-10.15-7.1504v3.3008h3.3008v-3.3008zm5 0v3.3008h3.3008v-3.3008zm-4.6992 0.30078h2.6992v2.6992h-2.6992zm5 0h2.6992v2.6992h-2.6992zm-5.3008 4.6992v3.3008h3.3008v-3.3008zm5 0v3.3008h3.3008v-3.3008zm-4.6992 0.30078h2.6992v2.6992h-2.6992zm5 0h2.6992v2.6992h-2.6992zm-5.1504-5.1504v3h3v-3zm5 0v3h3v-3zm-5 5v3h3v-3zm5 0v3h3v-3z" color="#dadada" fill="#fff" fill-opacity=".85"/>
</svg>
