<svg width="24px" height="24px" version="1.1" viewBox="0 0 256 256" xmlns="http://www.w3.org/2000/svg">
 <g transform="matrix(.87705 0 0 .87705 15.738 13.253)" fill="#dadada" font-family="none" font-size="none" font-weight="none" stroke-miterlimit="10" text-anchor="none" style="mix-blend-mode:normal">
  <g transform="scale(10.667)">
   <path d="m22.188 0.5-4.125 7.9688c-0.08594-0.03516-0.34375-0.14453-0.375-0.15625-1.3984-0.60156-3.082-0.02344-3.7812 1.375l8.6875 3.9062c0.69922-1.5-0.0078-3.1797-1.4062-3.7812-0.03125-0.01172-0.26953-0.125-0.34375-0.15625l3.1562-8.3438zm-20.688 1.0169c-0.82812 0-1.5 0.67188-1.5 1.5 0 0.82813 0.67188 1.5 1.5 1.5 0.82813 0 1.5-0.67187 1.5-1.5 0-0.82812-0.67187-1.5-1.5-1.5zm4.5 1c-0.55078 0-1 0.44922-1 1s0.44922 1 1 1 1-0.44922 1-1-0.44922-1-1-1zm-0.5 4c-1.3789 0-2.5 1.1211-2.5 2.5 0 1.3789 1.1211 2.5 2.5 2.5s2.5-1.1211 2.5-2.5c0-1.3789-1.1211-2.5-2.5-2.5zm7.625 4.5144c-0.97266 1.8633-2.9766 3.0156-4.9375 3.6562-0.98047 0.32031-1.9219 0.51953-2.6875 0.625-0.76562 0.10547-1.4062 0.10156-1.5 0.09375l-1.0938-0.09375v1.5625l0.21875 0.28125c5.5156 6.5742 13.938 6.8438 13.938 6.8438l0.5 0.03125 0.3125-0.40625s2.4336-2.957 4.2812-8.5l-1.9062-0.65625c-1.543 4.6289-3.2031 6.8867-3.625 7.4375-0.26953-0.01562-1.1992-0.12109-2.5-0.46875 0.42578-0.5 1.1133-1.4727 1.875-3.25-2.043 1.8633-3.3633 2.375-4.0938 2.5-0.75781-0.30078-1.5508-0.66016-2.375-1.125 0.36719-0.36328 0.875-0.98437 1.4688-2.0625-0.78906 0.85156-1.8672 1.2148-2.625 1.375-0.72656-0.48047-1.4453-1.043-2.1562-1.6875 0.78516-0.125 1.6445-0.28125 2.5938-0.59375 2.2383-0.73437 4.7383-2.0898 6.0625-4.625z"/>
  </g>
 </g>
</svg>
