<?xml version="1.0" encoding="UTF-8"?>
<svg version="1.1" viewBox="0 0 22 22" xmlns="http://www.w3.org/2000/svg">
 <defs>
  <style id="current-color-scheme" type="text/css">.ColorScheme-Text {
        color:#dadada;
      }</style>
 </defs>
 <path class="ColorScheme-Text" d="m18.332 1.8477-3.6252 6.4591-2.6821-1.5936-1.134 1.908 6.2726 3.7293 1.134-1.9102-2.6365-1.5676 3.6382-6.4829zm-11.728 3.6014a1.1101 1.1101 0 0 0-1.1101 1.1101 1.1101 1.1101 0 0 0 1.1101 1.1101 1.1101 1.1101 0 0 0 1.1101-1.1101 1.1101 1.1101 0 0 0-1.1101-1.1101zm-3.8854 1.1101a0.55506 0.55506 0 0 0-0.55506 0.55506 0.55506 0.55506 0 0 0 0.55506 0.55506 0.55506 0.55506 0 0 0 0.55506-0.55506 0.55506 0.55506 0 0 0-0.55506-0.55506zm1.6652 2.2202a1.1101 1.1101 0 0 0-1.1101 1.1101 1.1101 1.1101 0 0 0 1.1101 1.1101 1.1101 1.1101 0 0 0 1.1101-1.1101 1.1101 1.1101 0 0 0-1.1101-1.1101zm5.5506 1.1101c-1.2417 1.7365-3.513 3.1204-7.7708 3.3304v1.1101c2.3465 3.743 5.5506 5.5506 9.9911 5.5506h1.1101c1.4556-1.762 2.6171-3.3663 3.3304-5.5506v-1.1101l-5.5506-3.3304zm0.58758 1.2229 4.8047 2.8837c-0.63591 1.717-1.6341 3.2234-2.8685 4.7397-3.6339 0.03469-6.9057-1.5855-8.8224-4.5944 3.4616-0.34482 5.5723-1.4262 6.8862-3.029z" fill="currentColor" stroke="#dadada" stroke-width=".6"/>
</svg>
