<svg width="30px" height="30px" version="1.1" viewBox="0 0 256 256" xmlns="http://www.w3.org/2000/svg">
 <g fill="#dadada" font-family="none" font-size="none" font-weight="none" stroke-dasharray="" stroke-miterlimit="10" text-anchor="none" style="mix-blend-mode:normal">
  <g transform="scale(8.5333)">
   <path d="m25.944 3.0121c-0.44377-0.06352-0.90203 0.12036-1.1758 0.50586l-4.3867 6.1738-1.2324-0.68945c-0.858-0.48-1.9359-0.29655-2.5879 0.43945l-1.1719 1.3242 9.8379 5.5606 0.53516-1.7285c0.293-0.944-0.11552-1.9633-0.97852-2.4453l-0.9082-0.50781 3.0215-6.9219c0.252-0.578 0.02752-1.2525-0.52148-1.5625-0.137-0.07775-0.28372-0.12727-0.43164-0.14844zm-11.931 9.5137c-4.945 5.036-11.012 5.2324-11.012 5.2324l4.9043 2.9668s2.3079 0.24162 3.4219 0.01563c-1.049 0.711-1.7051 1.0703-1.7051 1.0703l2.6641 1.6309s2.8543-0.13286 6.4043-2.2559c-0.697 1.526-3.1348 4.0586-3.1348 4.0586l3.7949 1.7559s3.1261-2.2657 5.2461-8.5117z"/>
  </g>
 </g>
</svg>
