<svg width="16" height="16" version="1.1" viewBox="0 0 16 16" xmlns="http://www.w3.org/2000/svg">
 <g transform="matrix(1.0669 0 0 1.0669 -1.0409 -1.2342)" fill="#ced0d6">
  <path d="m12.22 9.5519c-0.1709-0.1612-0.4479-0.1612-0.6188 0l-2.625 2.4766c-0.1708 0.16123-0.1708 0.4226 0 0.58383l2.625 2.4766c0.1709 0.16115 0.4479 0.16115 0.6188 0 0.1708-0.16123 0.1708-0.4226 0-0.58383l-1.8782-1.772h5.0688c0.24162 0 0.4375-0.18484 0.4375-0.41277 0-0.22802-0.19588-0.41277-0.4375-0.41277h-5.0688l1.8782-1.772c0.1708-0.1612 0.1708-0.42255 0-0.58374z" clip-rule="evenodd" fill-rule="evenodd" stroke="#ced0d6" stroke-width=".2"/>
  <path d="m3.0002 3h3.1216l1.9185 2h4.9598c0.5523 0 1 0.44773 1 1v2l1 1.1428v-3.1428c0-1.1046-0.8954-2-2-2h-4.5334l-1.6233-1.6922c-0.1886-0.1966-0.44923-0.30775-0.72166-0.30775h-3.1216c-1.1046 0-2 0.8954-2 2l-1.9e-4 8c-2.7e-5 1.1045 0.89542 2 2 2h4.0893l1.7e-4 -1h-4.0895c-0.5523 0-1-0.4477-1-1l1.9e-4 -8c2e-5 -0.55228 0.44773-0.99998 1-0.99998z"/>
 </g>
</svg>
