<?xml version="1.0" encoding="UTF-8" standalone="no"?>
<svg
   width="19"
   height="19"
   viewBox="0 0 19 19"
   fill="none"
   version="1.1"
   id="svg1"
   sodipodi:docname="edit-paste.svg"
   inkscape:version="1.3.2 (091e20ef0f, 2023-11-25, custom)"
   xmlns:inkscape="http://www.inkscape.org/namespaces/inkscape"
   xmlns:sodipodi="http://sodipodi.sourceforge.net/DTD/sodipodi-0.dtd"
   xmlns="http://www.w3.org/2000/svg"
   xmlns:svg="http://www.w3.org/2000/svg">
  <defs
     id="defs1" />
  <sodipodi:namedview
     id="namedview1"
     pagecolor="#505050"
     bordercolor="#eeeeee"
     borderopacity="1"
     inkscape:showpageshadow="0"
     inkscape:pageopacity="0"
     inkscape:pagecheckerboard="0"
     inkscape:deskcolor="#505050"
     inkscape:zoom="19.368421"
     inkscape:cx="5.4728261"
     inkscape:cy="12.004076"
     inkscape:window-width="1920"
     inkscape:window-height="1014"
     inkscape:window-x="0"
     inkscape:window-y="0"
     inkscape:window-maximized="1"
     inkscape:current-layer="svg1" />
  <path
     fill-rule="evenodd"
     clip-rule="evenodd"
     d="M 14.266672,2.3500001 H 12.973177 C 12.72782,1.6557314 12.065731,1.1583361 11.287432,1.1583361 H 7.7124933 c -0.7782886,0 -1.4403991,0.4973953 -1.6857879,1.191664 H 4.7333281 c -1.3162775,0 -2.383328,1.0670505 -2.383328,2.383328 V 15.458335 c 0,1.316267 1.0670505,2.383329 2.383328,2.383329 h 9.5333439 c 1.316266,0 2.383328,-1.067062 2.383328,-2.383329 V 4.7333281 c 0,-1.3162775 -1.067062,-2.383328 -2.383328,-2.383328 z m -9.5333439,1.191664 h 1.2933773 c 0.2453888,0.694258 0.9074993,1.191664 1.6857879,1.191664 h 3.5749387 c 0.778299,0 1.440388,-0.497406 1.685745,-1.191664 h 1.293495 c 0.658133,0 1.191611,0.5335305 1.191611,1.191664 V 15.458335 c 0,0.658134 -0.533478,1.191611 -1.191611,1.191611 H 4.7333281 c -0.6581334,0 -1.191664,-0.533477 -1.191664,-1.191611 V 4.7333281 c 0,-0.6581335 0.5335306,-1.191664 1.191664,-1.191664 z m 2.9791652,-1.191664 c -0.3290667,0 -0.5958374,0.26676 -0.5958374,0.5958266 0,0.3290667 0.2667707,0.5958374 0.5958374,0.5958374 h 3.5749387 c 0.329066,0 0.595912,-0.2667707 0.595912,-0.5958374 0,-0.3290666 -0.266846,-0.5958266 -0.595912,-0.5958266 z"
     fill="#ced0d6"
     id="path1"
     style="stroke-width:1.06909" />
</svg>
