<svg width="16" height="16" fill="none" version="1.1" viewBox="0 0 16 16" xmlns="http://www.w3.org/2000/svg">
 <g transform="matrix(1.3401 0 0 1.3401 -1.4005 -1.4005)" fill="#ced0d6" stroke="#ced0d6" stroke-width=".074024">
  <path d="m6.2599 3.002c1.3165-1.3164 3.4508-1.3165 4.7674-4.17e-5 1.3165 1.3165 1.3165 3.4509 8.3e-5 4.7675l-0.79418 0.79422c-0.16315 0.16311-0.42762 0.16311-0.59068 8.4e-6 -0.16315-0.1631-0.16315-0.42757 0-0.59068l0.79418-0.79422c0.99024-0.99029 0.99024-2.5958-8.3e-5 -3.5861-0.99024-0.9902-2.5958-0.99019-3.586 3.34e-5l-0.79425 0.79423c-0.16311 0.16311-0.42757 0.16311-0.59068-8.3e-6 -0.16311-0.16311-0.16311-0.42757 0-0.59068z"/>
  <path d="m4.3856 5.4669c0.16311 0.16312 0.16311 0.42758-8.4e-6 0.59069l-0.79285 0.79283c-0.99031 0.9903-0.9903 2.5959 1.67e-5 3.5862 0.9903 0.99024 2.5959 0.99024 3.5861-8.3e-5l0.79353-0.79351c0.16311-0.16315 0.42758-0.16315 0.59069 0 0.16313 0.16306 0.16313 0.42754 8.4e-6 0.59068l-0.79353 0.79351c-1.3165 1.3165-3.451 1.3166-4.7675 8.3e-5 -1.3166-1.3165-1.3166-3.4511-2.5e-5 -4.7676l0.79285-0.79283c0.16312-0.16311 0.42758-0.16311 0.59069 0z"/>
  <path d="m8.9807 5.6392c0.16306-0.16311 0.16306-0.42757 0-0.59068-0.16315-0.16312-0.42761-0.16312-0.59073 0l-3.3414 3.3414c-0.16312 0.16311-0.16312 0.42758 0 0.59073 0.16311 0.16306 0.42757 0.16306 0.59068 0z"/>
 </g>
</svg>
