<svg width="24px" height="24px" version="1.1" viewBox="0 0 256 256" xmlns="http://www.w3.org/2000/svg">
 <g transform="matrix(-1.1111 0 0 1.1111 270.22 -14.222)" fill="#ff7f7f" font-family="none" font-size="none" font-weight="none" stroke-miterlimit="10" text-anchor="none" style="mix-blend-mode:normal">
  <g transform="scale(10.667)" fill="#ff7f7f">
   <path d="m19 3h-14c-1.105 0-2 0.895-2 2v14c0 1.105 0.895 2 2 2h14c1.105 0 2-0.895 2-2v-14c0-1.105-0.895-2-2-2zm0.707 9.707-3.3 3.3c-0.195 0.195-0.451 0.293-0.707 0.293s-0.512-0.098-0.707-0.293c-0.391-0.391-0.391-1.023 0-1.414l1.593-1.593h-7.586c-0.553 0-1-0.447-1-1s0.447-1 1-1h7.586l-1.593-1.593c-0.391-0.391-0.391-1.023 0-1.414s1.023-0.391 1.414 0l3.3 3.3c0.391 0.391 0.391 1.023 0 1.414z" fill="#ff7f7f"/>
  </g>
 </g>
</svg>
