<?xml version="1.0" encoding="UTF-8" standalone="no"?>
<svg
   version="1.1"
   width="64px"
   height="64px"
   viewBox="0,0,256,256"
   id="svg2"
   sodipodi:docname="exit.svg"
   inkscape:version="1.4 (e7c3feb100, 2024-10-09)"
   xmlns:inkscape="http://www.inkscape.org/namespaces/inkscape"
   xmlns:sodipodi="http://sodipodi.sourceforge.net/DTD/sodipodi-0.dtd"
   xmlns="http://www.w3.org/2000/svg"
   xmlns:svg="http://www.w3.org/2000/svg">
  <defs
     id="defs2" />
  <sodipodi:namedview
     id="namedview2"
     pagecolor="#505050"
     bordercolor="#eeeeee"
     borderopacity="1"
     inkscape:showpageshadow="0"
     inkscape:pageopacity="0"
     inkscape:pagecheckerboard="0"
     inkscape:deskcolor="#505050"
     inkscape:zoom="10.03125"
     inkscape:cx="21.931464"
     inkscape:cy="35.538941"
     inkscape:window-width="1920"
     inkscape:window-height="1015"
     inkscape:window-x="0"
     inkscape:window-y="0"
     inkscape:window-maximized="1"
     inkscape:current-layer="svg2" />
  <path
     d="M 28.9375,32.472403 C 17.339631,32.472403 8,41.812034 8,53.409903 V 202.5901 c 0,11.59787 9.339631,20.9375 20.9375,20.9375 h 198.125 c 11.59787,0 20.9375,-9.33963 20.9375,-20.9375 V 53.409903 c 0,-11.597869 -9.33963,-20.9375 -20.9375,-20.9375 z m 62.796875,85.853247 h 72.531245 c 6.33389,3e-4 11.46845,5.13486 11.46875,11.46875 -3e-4,6.33388 -5.13486,11.46844 -11.46875,11.46875 H 91.734375 c -6.33389,-3.1e-4 -11.468446,-5.13487 -11.46875,-11.46875 3.04e-4,-6.33389 5.13486,-11.46845 11.46875,-11.46875 z"
     style="fill:#ff5d5d;fill-rule:evenodd;stroke-width:4.18696"
     id="path6"
     sodipodi:nodetypes="sssssssssccccccc" />
</svg>
