<?xml version="1.0" encoding="UTF-8" standalone="no"?>
<svg
   version="1.1"
   width="64px"
   height="64px"
   viewBox="0,0,256,256"
   id="svg2"
   sodipodi:docname="exit.svg"
   inkscape:version="1.4 (e7c3feb100, 2024-10-09)"
   xmlns:inkscape="http://www.inkscape.org/namespaces/inkscape"
   xmlns:sodipodi="http://sodipodi.sourceforge.net/DTD/sodipodi-0.dtd"
   xmlns="http://www.w3.org/2000/svg"
   xmlns:svg="http://www.w3.org/2000/svg">
  <defs
     id="defs2" />
  <sodipodi:namedview
     id="namedview2"
     pagecolor="#505050"
     bordercolor="#eeeeee"
     borderopacity="1"
     inkscape:showpageshadow="0"
     inkscape:pageopacity="0"
     inkscape:pagecheckerboard="0"
     inkscape:deskcolor="#505050"
     inkscape:zoom="10.03125"
     inkscape:cx="27.514019"
     inkscape:cy="29.856698"
     inkscape:window-width="1920"
     inkscape:window-height="1015"
     inkscape:window-x="0"
     inkscape:window-y="0"
     inkscape:window-maximized="1"
     inkscape:current-layer="svg2" />
  <path
     d="M 31.125,28.8 C 16.09775,28.8 4,40.991244 4,56.134896 V 199.8651 C 4,215.00875 16.09775,227.2 31.125,227.2 h 193.75 C 239.90225,227.2 252,215.00875 252,199.8651 V 56.134896 C 252,40.991244 239.90225,28.8 224.875,28.8 Z M 90.8,114.15495 h 74.4 c 7.67105,0 13.84505,6.174 13.84505,13.84505 0,7.67105 -6.174,13.84505 -13.84505,13.84505 H 90.8 c -7.671053,0 -13.845053,-6.174 -13.845053,-13.84505 0,-7.67105 6.174,-13.84505 13.845053,-13.84505 z"
     style="display:inline;fill:#da4453;fill-opacity:1;fill-rule:evenodd;stroke-width:4.14353"
     id="path9" />
  <g
     id="g9"
     style="display:none">
    <rect
       style="display:none;fill:#fb5050;fill-opacity:1;fill-rule:evenodd;stroke-width:4.26073"
       id="rect8"
       width="256"
       height="203.2258"
       x="1.4210855e-14"
       y="26.387096"
       rx="21.333334"
       ry="21.274042" />
    <rect
       style="fill:#0000ff;fill-rule:evenodd;stroke-width:6.23331"
       id="rect9"
       width="96"
       height="24"
       x="80"
       y="116"
       ry="12" />
  </g>
</svg>
