<!-- Copyright 2000-2023 JetBrains s.r.o. and contributors. Use of this source code is governed by the Apache 2.0 license. -->
<svg width="16" height="16" version="1.1" viewBox="0 0 16 16" xmlns="http://www.w3.org/2000/svg">
 <path d="m12.656 9.4115c0.25592 0 0.46346 0.2075 0.46346 0.46346v2.3173h2.3173c0.25592 0 0.46346 0.20754 0.46346 0.46346 0 0.25592-0.20754 0.46346-0.46346 0.46346h-2.3173v2.3173c0 0.25592-0.20754 0.46346-0.46346 0.46346-0.25592 0-0.46346-0.20754-0.46346-0.46346v-2.3173h-2.3173c-0.25596 0-0.46346-0.20754-0.46346-0.46346 0-0.25592 0.2075-0.46346 0.46346-0.46346h2.3173v-2.3173c0-0.25596 0.20754-0.46346 0.46346-0.46346z" clip-rule="evenodd" fill="#dadada" fill-rule="evenodd" stroke="#dadada" stroke-width=".2"/>
 <path d="M2.63333 2C1.73127 2 1 2.83574 1 3.86667V12.1333C1 13.1643 1.73127 14 2.63333 14H8V12.5C8 11.6716 8.67157 11 9.5 11H11V9.5C11 8.67157 11.6716 8 12.5 8H15V6C15 4.89543 14.1046 4 13 4L8.46667 4L6.84336 2.30775C6.65477 2.11115 6.39413 2 6.1217 2H2.63333Z" fill="none"/>
 <path d="m5.4631 2.1333h-3.7209c-0.24375 0-0.67555 0.27564-0.67555 0.92445v8.8177c0 0.64885 0.4318 0.92448 0.67555 0.92448h5.7244v1.0667h-5.7244c-0.9622 0-1.7422-0.89141-1.7422-1.9911v-8.8177c0-1.0997 0.78002-1.9911 1.7422-1.9911h3.7209c0.29059 0 0.56861 0.11856 0.76977 0.32827l1.7315 1.8051h4.8356c1.1782 0 2.1333 0.95513 2.1333 2.1333v2.1333h-1.0667v-2.1333c0-0.58911-0.47755-1.0667-1.0667-1.0667h-5.2904z" fill="#dadada" stroke="#dadada" stroke-width=".2"/>
</svg>
