<?xml version="1.0" encoding="UTF-8" standalone="no"?>
<svg
   version="1.1"
   width="30px"
   height="30px"
   viewBox="0,0,256,256"
   id="svg2"
   sodipodi:docname="gear copy.svg"
   inkscape:version="1.4 (e7c3feb100, 2024-10-09)"
   xmlns:inkscape="http://www.inkscape.org/namespaces/inkscape"
   xmlns:sodipodi="http://sodipodi.sourceforge.net/DTD/sodipodi-0.dtd"
   xmlns="http://www.w3.org/2000/svg"
   xmlns:svg="http://www.w3.org/2000/svg">
  <defs
     id="defs2" />
  <sodipodi:namedview
     id="namedview2"
     pagecolor="#505050"
     bordercolor="#eeeeee"
     borderopacity="1"
     inkscape:showpageshadow="0"
     inkscape:pageopacity="0"
     inkscape:pagecheckerboard="0"
     inkscape:deskcolor="#505050"
     inkscape:zoom="26.7"
     inkscape:cx="15"
     inkscape:cy="15"
     inkscape:window-width="1920"
     inkscape:window-height="1015"
     inkscape:window-x="0"
     inkscape:window-y="0"
     inkscape:window-maximized="1"
     inkscape:current-layer="path1" />
  <g
     fill="#dadada"
     fill-rule="nonzero"
     stroke="none"
     stroke-width="1"
     stroke-linecap="butt"
     stroke-linejoin="miter"
     stroke-miterlimit="10"
     stroke-dasharray=""
     stroke-dashoffset="0"
     font-family="none"
     font-weight="none"
     font-size="none"
     text-anchor="none"
     style="mix-blend-mode: normal"
     id="g2">
    <g
       transform="scale(8.53333,8.53333)"
       id="g1">
      <g
         id="path1">
        <path
           id="path3"
           d="M 15.000006 2.500001 C 14.718537 2.500001 14.500006 2.7185326 14.500006 3.0000012 L 14.500006 3.1718762 C 14.500006 3.8845973 13.996442 4.5297523 13.27149 4.6464862 C 13.051219 4.6820762 12.834978 4.7232352 12.623052 4.7714862 C 11.912846 4.9337315 11.206972 4.5335645 10.935551 3.8789078 L 10.935551 3.882814 L 10.869145 3.7246108 L 10.867192 3.7226577 C 10.759473 3.4622963 10.476243 3.3427274 10.214848 3.4511732 L 10.214848 3.4531263 C 9.9544858 3.5608446 9.8349175 3.8440753 9.9433633 4.1054704 L 10.00977 4.2636735 L 10.00977 4.2656267 C 10.283148 4.9218623 10.063997 5.7075441 9.4433631 6.0937524 C 9.2572721 6.2095845 9.0748806 6.3321727 8.8964879 6.4589869 C 8.3018199 6.8835308 7.4928826 6.7858512 6.9902371 6.2832056 L 6.8691433 6.1621118 C 6.6689536 5.9619221 6.3610579 5.9626555 6.1621118 6.1621118 C 5.962677 6.3620579 5.9634114 6.6704429 6.1621118 6.8691433 L 6.2832056 6.9902371 C 6.7855015 7.4925329 6.8845491 8.2996468 6.46094 8.8945347 C 6.33356 9.0736329 6.2100618 9.2565054 6.0937524 9.4433631 C 5.7070629 10.064776 4.9213471 10.284634 4.2636735 10.011723 L 4.2617204 10.011723 L 4.1054704 9.9472695 C 3.846086 9.8399556 3.5598496 9.9582725 3.4511732 10.216801 C 3.3436881 10.476599 3.4611877 10.760158 3.7207046 10.869145 L 3.8769546 10.933598 L 3.8769546 10.935551 C 4.5311398 11.206762 4.9340299 11.91154 4.7714862 12.623052 C 4.722764 12.837046 4.6796231 13.052634 4.6445331 13.269536 L 4.6445331 13.27149 C 4.5284059 13.994934 3.8847052 14.500006 3.1718762 14.500006 L 3.0000012 14.500006 C 2.7185326 14.500006 2.500001 14.718537 2.500001 15.000006 C 2.500001 15.281475 2.7185326 15.500006 3.0000012 15.500006 L 3.1718762 15.500006 C 3.8845973 15.500006 4.5297523 16.00357 4.6464862 16.728522 C 4.6820762 16.948793 4.7232352 17.165034 4.7714862 17.37696 C 4.9337315 18.087166 4.5335733 18.793051 3.8789078 19.064461 L 3.882814 19.064461 L 3.7246108 19.130867 L 3.7226577 19.13282 C 3.4622963 19.240539 3.3427274 19.523769 3.4511732 19.785164 L 3.4531263 19.785164 C 3.5608446 20.045526 3.8440753 20.16509 4.1054704 20.056648 L 4.2656267 19.990242 C 4.9229832 19.717462 5.7081709 19.934381 6.0957055 20.554696 L 6.0957055 20.556649 C 6.2130457 20.745162 6.3338749 20.927206 6.46094 21.105477 C 6.8854839 21.700145 6.7878043 22.509082 6.2851587 23.011728 L 6.2832056 23.013681 L 6.1621118 23.132822 C 5.9619221 23.333012 5.9626555 23.640907 6.1621118 23.839853 C 6.3623605 24.039589 6.6704982 24.039007 6.8691433 23.839853 L 6.8710964 23.8379 L 6.9921902 23.718759 C 7.4934719 23.217477 8.3015615 23.116296 8.8964879 23.541025 C 9.0766349 23.669427 9.2588422 23.792142 9.4453162 23.908212 C 10.066471 24.294708 10.287041 25.079573 10.013676 25.738291 L 10.013676 25.740244 L 9.9492226 25.896494 C 9.8419086 26.155879 9.9602257 26.442116 10.218754 26.550792 C 10.478552 26.658277 10.762064 26.540777 10.871098 26.28126 L 10.935551 26.12501 L 10.937504 26.12501 C 11.208713 25.470831 11.913494 25.067935 12.625005 25.230479 C 12.838376 25.279062 13.053273 25.322402 13.269536 25.357432 C 13.994293 25.470241 14.500006 26.114682 14.500006 26.828135 L 14.500006 27.000011 C 14.500006 27.28148 14.718537 27.500011 15.000006 27.500011 C 15.281475 27.500011 15.500006 27.28148 15.500006 27.000011 L 15.500006 26.828135 C 15.500006 26.115414 16.00366 25.470223 16.728522 25.353526 C 16.948793 25.317936 17.165034 25.276775 17.37696 25.228525 C 18.087166 25.066279 18.793051 25.466438 19.064461 26.121104 L 19.064461 26.117198 L 19.130867 26.275401 L 19.13282 26.277354 C 19.240539 26.537718 19.523769 26.657284 19.785164 26.548838 L 19.785164 26.546885 C 20.045529 26.439167 20.165093 26.155936 20.056648 25.894541 L 19.990242 25.734385 C 19.717462 25.077028 19.934335 24.291841 20.554696 23.904306 L 20.556649 23.904306 C 20.745162 23.786966 20.927206 23.666138 21.105477 23.539072 C 21.700145 23.114529 22.509082 23.212207 23.011728 23.714853 L 23.013681 23.716806 L 23.132822 23.8379 C 23.333012 24.038089 23.640907 24.037356 23.839853 23.8379 C 24.039589 23.637651 24.039007 23.329513 23.839853 23.130868 L 23.8379 23.128915 L 23.718759 23.007821 C 23.217477 22.50654 23.116296 21.69845 23.541025 21.103524 C 23.669427 20.923377 23.792142 20.741171 23.908212 20.554696 C 24.294708 19.933547 25.079526 19.712971 25.738291 19.986336 L 25.740244 19.986336 L 25.896494 20.050789 C 26.155879 20.158103 26.442116 20.039786 26.550792 19.781258 C 26.658277 19.52146 26.540777 19.237992 26.28126 19.128914 L 26.12501 19.064461 L 26.12501 19.062507 C 25.470831 18.791298 25.067935 18.086518 25.230479 17.375007 C 25.279062 17.161636 25.322402 16.946738 25.357432 16.730475 C 25.470241 16.005718 26.114682 15.500006 26.828135 15.500006 L 27.000011 15.500006 C 27.28148 15.500006 27.500011 15.281475 27.500011 15.000006 C 27.500011 14.718537 27.28148 14.500006 27.000011 14.500006 L 26.828135 14.500006 C 26.115414 14.500006 25.470263 13.996441 25.353526 13.27149 C 25.317936 13.051219 25.276775 12.834978 25.228525 12.623052 C 25.066279 11.912846 25.466447 11.206972 26.121104 10.935551 L 26.117198 10.935551 L 26.275401 10.869145 L 26.277354 10.867192 C 26.537718 10.759473 26.657284 10.476243 26.548838 10.214848 L 26.546885 10.214848 C 26.439167 9.9544861 26.155936 9.8349175 25.894541 9.9433633 L 25.734385 10.00977 C 25.077028 10.28255 24.291841 10.065678 23.904306 9.4453162 L 23.904306 9.4433631 C 23.786966 9.2548494 23.666138 9.0728051 23.539072 8.8945347 C 23.114529 8.2998667 23.212207 7.4909296 23.714853 6.988284 L 23.716806 6.9863309 L 23.8379 6.8671902 C 24.038089 6.6670005 24.037356 6.3591049 23.8379 6.1601587 C 23.63771 5.9599691 23.329815 5.9607025 23.130868 6.1601587 L 23.011728 6.2812525 L 23.009775 6.2832056 C 22.507811 6.7851692 21.699095 6.8861287 21.103524 6.46094 C 20.923377 6.3325374 20.741171 6.209823 20.554696 6.0937524 C 19.93293 5.7068758 19.715406 4.9212771 19.988289 4.2636735 L 19.988289 4.2617204 L 20.052742 4.1054704 C 20.160056 3.846086 20.041739 3.5598496 19.783211 3.4511732 C 19.522748 3.3434131 19.237372 3.4597926 19.128914 3.7207046 L 19.128914 3.7226577 L 19.062507 3.8808609 L 19.062507 3.8769546 C 18.791298 4.5311338 18.086518 4.9340295 17.375007 4.7714862 C 17.160391 4.722623 16.94411 4.6796821 16.726569 4.6445331 C 16.003603 4.528236 15.500006 3.8840433 15.500006 3.1718762 L 15.500006 3.0000012 C 15.500006 2.7185326 15.281475 2.500001 15.000006 2.500001 z M 15.000006 6.5000025 C 19.32832 6.5000025 22.903966 9.7465363 23.427744 13.937505 L 23.498056 14.500006 L 16.43946 14.500006 L 16.294928 14.250006 C 16.02706 13.786039 15.535753 13.500951 15.000006 13.500005 L 14.70899 13.500005 L 11.179692 7.3847685 L 11.70313 7.1640653 C 12.717503 6.7365711 13.83177 6.5000025 15.000006 6.5000025 z M 10.318363 7.8906281 L 13.847662 14.000005 L 13.701177 14.250006 C 13.569415 14.477398 13.5007 14.735275 13.500005 14.998053 L 13.500005 15.000006 C 13.501215 15.261796 13.569921 15.519598 13.701177 15.7461 L 13.847662 15.9961 L 10.31641 22.107431 L 9.8652382 21.76368 C 7.825058 20.21222 6.5000025 17.75987 6.5000025 15.000006 C 6.5000025 12.239121 7.8256515 9.7857757 9.8671914 8.2343782 L 10.318363 7.8906281 z M 16.441413 15.500006 L 23.498056 15.500006 L 23.427744 16.062506 C 22.903969 20.253476 19.328311 23.500009 15.000006 23.500009 C 13.83177 23.500009 12.717503 23.263441 11.70313 22.835946 L 11.179692 22.615243 L 14.70899 16.500006 L 15.000006 16.500006 C 15.536278 16.499585 16.028749 16.214426 16.296881 15.750006 L 16.441413 15.500006 z " />
      </g>
    </g>
  </g>
</svg>
