<svg version="1.1" viewBox="0 0 16 16" xmlns="http://www.w3.org/2000/svg">
 <defs>
  <style id="current-color-scheme" type="text/css">.ColorScheme-Text {
        color:#dadada;
      }
      .ColorScheme-NegativeText {
        color:#da4453;
      }</style>
 </defs>
 <path d="m5 7h6v2h-6z" color="#da4453" fill="currentColor"/>
 <path d="m7.999 1.0283c-1.4467 0.0021055-2.8569 0.45356-4.0352 1.293l-0.29102 0.20703 1.2266 1.2266 0.20703-0.13672c0.85848-0.56887 1.8647-0.87335 2.8945-0.875 2.9064-4e-7 5.2559 2.3514 5.2559 5.2578-2e-3 1.0292-0.30648 2.0346-0.875 2.8926l-0.13672 0.20703 1.2246 1.2246 0.20703-0.29102c0.83977-1.1774 1.2917-2.5871 1.2949-4.0332 1e-5 -3.8469-3.1237-6.9727-6.9707-6.9727zm-5.4668 2.6484-0.20898 0.28906c-0.83977 1.1774-1.2917 2.5871-1.2949 4.0332v0.00195c-9.5e-6 3.8469 3.1257 6.9707 6.9727 6.9707 1.4467-0.0021 2.8569-0.45356 4.0352-1.293l0.29102-0.20703-1.2266-1.2266-0.20703 0.13672c-0.85794 0.56852-1.8634 0.87298-2.8926 0.875-2.9064 0-5.2578-2.3495-5.2578-5.2559 0.00165-1.0298 0.30613-2.0361 0.875-2.8945l0.13672-0.20703z" color="#da4453" fill="currentColor"/>
</svg>
