<svg version="1.1" viewBox="0 0 16 16" xmlns="http://www.w3.org/2000/svg">
 <defs>
  <style id="current-color-scheme" type="text/css">.ColorScheme-Text {
        color:#dadada;
      }
      .ColorScheme-NegativeText {
        color:#da4453;
      }</style>
 </defs>
 <g fill="#da4453">
  <path d="m5 7.1797v1.6406h6v-1.6406z" color="#da4453" stop-color="#000000"/>
  <path d="m11.99 13.805-1.0586-1.0586c-0.8797 0.54543-1.8923 0.83974-2.9297 0.8418-3.0873 0-5.5898-2.5005-5.5898-5.5879 0.001663-1.0379 0.29615-2.0514 0.8418-2.9316l-1.0566-1.0566c-0.80797 1.1714-1.2445 2.5615-1.248 3.9863v0.0019531c-9.61e-6 3.8918 3.1608 7.0508 7.0527 7.0508 1.4253-0.0025 2.8159-0.43845 3.9883-1.2461z" color="#da4453" stop-color="#000000" stroke-width="1.0335"/>
  <path d="m7.998 0.94922c-1.4253 0.0024812-2.8159 0.43844-3.9883 1.2461l1.0586 1.0586c0.88026-0.54564 1.8937-0.84013 2.9316-0.8418 3.0874-4e-7 5.5879 2.5025 5.5879 5.5898-0.0021 1.0377-0.29633 2.0498-0.8418 2.9297l1.0566 1.0566c0.80797-1.1714 1.2445-2.5616 1.248-3.9863 1e-5 -3.8919-3.1589-7.0527-7.0508-7.0527z" color="#da4453" stop-color="#000000" stroke-width="1.0335"/>
 </g>
</svg>
