<svg version="1.1" viewBox="0 0 16 16" xmlns="http://www.w3.org/2000/svg">
 <defs>
  <style id="current-color-scheme" type="text/css">.ColorScheme-Text {
        color:#dadada;
      }</style>
  <style type="text/css">.ColorScheme-Text {
        color:#dadada;
      }</style>
  <style type="text/css">.ColorScheme-Text {
        color:#dadada;
      }</style>
 </defs>
 <path d="m15.051 0.24988 0.36254 5.2375-5.2375 0.36254 1.8408-2.1146c-1.4486-1.2623-3.4908-1.8432-5.6018-1.2529-2.268 0.6344-3.9835 2.6255-4.2789 4.9616-0.49065 3.8818 2.6679 7.0474 6.365 6.7915 2.1681-0.15008 3.99-1.4408 4.9205-3.244 0.02711-0.05254 0.05353-0.1048 0.07911-0.15818a0.75264 0.75264 0 0 1 0.57754-0.33952 0.75264 0.75264 0 0 1 0.80222 0.70018 0.75264 0.75264 0 0 1-0.03668 0.29034c-0.02834 0.05893-0.05586 0.11817-0.08569 0.17626a0.75264 0.75264 0 0 1-0.0036 0.0042c-1.162 2.259-3.4366 3.8794-6.1498 4.0672-4.5913 0.31777-8.5181-3.5884-7.9661-8.3977 0.34908-3.0488 2.6228-5.6216 5.6017-6.3571 2.5531-0.62979 5.0066 0.094004 6.7612 1.6249z" fill="#fff" fill-opacity=".85" fill-rule="evenodd" stroke-linecap="round" stroke-linejoin="bevel" stroke-width=".62738" style="paint-order:stroke markers fill"/>
</svg>
