<svg version="1.1" viewBox="0 0 16 16" xmlns="http://www.w3.org/2000/svg">
 <defs>
  <style id="current-color-scheme" type="text/css">.ColorScheme-Text {
        color:#dadada;
      }</style>
 </defs>
 <g transform="matrix(.057184 0 0 .057184 .36666 .68051)" fill="#fff" fill-opacity=".85098" font-family="none" font-size="none" font-weight="none" stroke-miterlimit="10" text-anchor="none" style="mix-blend-mode:normal">
  <g transform="scale(9.8462)" fill="#fff" fill-opacity=".85098">
   <path d="m24.875 0.65625c-0.21875 0-0.4375 0.07031-0.6875 0.1875l-22.375 10.312c-1 0.46094-0.91406 0.84375 0.1875 0.84375h22c1.1016 0 2-0.89844 2-2v-8c0-0.82422-0.47266-1.3398-1.125-1.3438zm-22.875 13.344c-1.1016 0-1.1875 0.38281-0.1875 0.84375l22.375 10.312c0.24609 0.11328 0.47266 0.1875 0.6875 0.1875 0.65625 0 1.125-0.51562 1.125-1.3438v-8c0-1.1016-0.89844-2-2-2zm7.0938 2h14.906v6.875z" fill="#fff" fill-opacity=".85098"/>
  </g>
 </g>
</svg>
