<svg width="22" height="22" version="1.1" viewBox="0 0 234.67 234.67" xmlns="http://www.w3.org/2000/svg">
 <g transform="matrix(.87044 0 0 .87044 6.7153 5.119)" fill="#dadada" font-family="none" font-size="none" font-weight="none" stroke-miterlimit="10" text-anchor="none" style="mix-blend-mode:normal">
  <g transform="scale(10.667)" fill="#dadada">
   <path d="m16.156 1.1719c-0.25977 0.00414-0.50774 0.10921-0.69141 0.29297-1.0472 1.0472-1.3943 2.4495-1.3144 3.8223l-3.2012 1.9785c-2.3348-0.43879-4.8348 0.11217-6.6367 1.9141-0.39037 0.39053-0.39037 1.0235 0 1.4141l3.8398 3.8398-5.5898 5.5898c-0.371 0.372-0.66619 0.81188-0.86719 1.2969l-0.69531 1.6797 1.6777-0.69531c0.486-0.201 0.92783-0.49619 1.2988-0.86719l5.5898-5.5898 3.8594 3.8594c0.39053 0.39037 1.0235 0.39037 1.4141 0 1.8051-1.8051 2.3574-4.3104 1.9141-6.6484l1.9824-3.2031c1.3655 0.07285 2.7583-0.27977 3.7988-1.3203 0.39037-0.39053 0.39037-1.0235 0-1.4141l-5.6562-5.6562c-0.19132-0.19141-0.45205-0.29711-0.72266-0.29297zm0.20117 2.5996 3.873 3.873c-0.59603 0.27423-1.2336 0.41729-1.8691 0.2793-0.41398-0.0898-0.83962 0.09094-1.0625 0.45117l-2.3672 3.8262c-0.14659 0.237-0.18765 0.52441-0.11328 0.79297 0.41246 1.4987 0.01275 3.0638-0.87891 4.3984l-7.3125-7.3125c1.3325-0.89003 2.8946-1.2912 4.3926-0.88086 0.26796 0.07379 0.55454 0.03275 0.79102-0.11328l3.8203-2.3633c0.36259-0.22367 0.54369-0.65249 0.45117-1.0684-0.1426-0.64193-3.5e-4 -1.2826 0.27539-1.8828z" fill="#dadada"/>
  </g>
 </g>
</svg>
