<svg version="1.1" viewBox="0 0 16 16" xmlns="http://www.w3.org/2000/svg">
 <defs>
  <style id="current-color-scheme" type="text/css">.ColorScheme-Text {
        color:#dadada;
      }</style>
 </defs>
 <g fill="#fff">
  <path d="m4.0768 0-1.182 2.8393-2.8393 1.182 2.8393 1.1845 1.182 2.8393 1.1845-2.8393 2.8393-1.1845-2.8393-1.182z" opacity=".8" stroke-width=".47325" style="mix-blend-mode:normal"/>
  <path d="m12.54 3.9832c-0.54645 0-1.0928 0.20911-1.5114 0.62783l-7.5587 7.5587c-0.83742 0.83744-0.83742 2.1855 0 3.0229 0.83742 0.83744 2.1855 0.83744 3.0229 0l7.5587-7.5587c0.83744-0.83742 0.83744-2.1855 0-3.0229-0.41871-0.41871-0.96499-0.62783-1.5114-0.62783zm0 1.0696c0.27322 0 0.54561 0.10533 0.75494 0.31469 0.41872 0.41872 0.41872 1.0928 0 1.5114l-2.2664 2.2664-1.5114-1.5114 2.2664-2.2664c0.20936-0.20936 0.48327-0.31469 0.75649-0.31469z" color="#dadada" opacity=".8" stroke-width="1.0689"/>
  <path d="m13.346 10.624-0.64959 1.9488-1.9488 0.64959 1.9488 0.64959 0.64959 1.9488 0.64959-1.9488 1.9488-0.64959-1.9488-0.64959z" opacity=".8" stroke-width=".47242" style="mix-blend-mode:normal"/>
 </g>
</svg>
