<!-- Copyright 2000-2023 JetBrains s.r.o. and contributors. Use of this source code is governed by the Apache 2.0 license. -->
<svg width="16" height="16" version="1.1" viewBox="0 0 16 16" xmlns="http://www.w3.org/2000/svg">
 <path d="m8.0039 5.3496c-1.4641 0-2.6504 1.1863-2.6504 2.6504 0 1.4641 1.1863 2.6504 2.6504 2.6504 1.4641 0 2.6504-1.1863 2.6504-2.6504 0-1.4641-1.1863-2.6504-2.6504-2.6504z" clip-rule="evenodd" fill="#ced0d6" fill-rule="evenodd"/>
 <path d="m8.0039 1c-0.35346 0-0.69966 0.025612-1.0391 0.076172-0.22377 0.03334-0.41637 0.17589-0.52734 0.37305l-0.86719 1.543c-0.13928 0.24746-0.40354 0.39959-0.6875 0.39648l-1.7676-0.019531c-0.2258-0.00247-0.44507 0.091088-0.58594 0.26758-0.43187 0.54109-0.78351 1.148-1.041 1.8027-0.08269 0.21026-0.056516 0.4462 0.058594 0.64062l0.90234 1.5234c0.14468 0.24435 0.14468 0.54861 0 0.79297l-0.90234 1.5234c-0.11511 0.19443-0.14128 0.43043-0.058594 0.64063 0.25751 0.6548 0.60914 1.2616 1.041 1.8027 0.14086 0.1765 0.36014 0.27008 0.58594 0.26758l1.7676-0.01953c0.28396-0.0031 0.54822 0.14908 0.6875 0.39648l0.86719 1.543c0.11097 0.1972 0.30357 0.33975 0.52734 0.37305 0.3394 0.0506 0.6856 0.07617 1.0391 0.07617 0.35342 0 0.70168-0.02567 1.041-0.07617 0.22378-0.0334 0.41442-0.17595 0.52539-0.37305l0.86719-1.543c0.1392-0.2474 0.4035-0.39958 0.6875-0.39648l1.7695 0.01953c0.2258 0.0025 0.44308-0.09108 0.58398-0.26758 0.4318-0.5411 0.78547-1.1481 1.043-1.8027 0.0827-0.2103 0.05455-0.44622-0.06055-0.64063l-0.90234-1.5234c-0.1447-0.24436-0.1447-0.54862 0-0.79297l0.90234-1.5234c0.1151-0.19442 0.14325-0.43036 0.06055-0.64062-0.2575-0.65468-0.61117-1.2617-1.043-1.8027-0.1409-0.17649-0.35818-0.27005-0.58398-0.26758l-1.7695 0.019531c-0.284 0.00311-0.5483-0.14902-0.6875-0.39648l-0.86719-1.543c-0.11097-0.19716-0.30161-0.33972-0.52539-0.37305-0.33934-0.05055-0.6876-0.076172-1.041-0.076172zm0 1c0.25612 0 0.50896 0.015935 0.75586 0.046875l0.80664 1.4355c0.31836 0.56564 0.91936 0.91141 1.5684 0.9043l1.6465-0.017578c0.3042 0.3996 0.55896 0.83824 0.75586 1.3066l-0.83984 1.418c-0.3307 0.55853-0.3307 1.254 0 1.8125l0.83984 1.418c-0.1969 0.4684-0.45166 0.90704-0.75586 1.3066l-1.6465-0.01758c-0.649-0.0071-1.25 0.3386-1.5684 0.9043l-0.80664 1.4355c-0.2469 0.0309-0.49974 0.046875-0.75586 0.046875-0.25616 0-0.50892-0.015875-0.75586-0.046875l-0.80664-1.4355c-0.31836-0.5657-0.91932-0.9114-1.5684-0.9043l-1.6465 0.01758c-0.30423-0.3996-0.55887-0.83814-0.75586-1.3066l0.83984-1.418c0.33068-0.55852 0.33068-1.254 0-1.8125l-0.83984-1.418c0.19698-0.46845 0.45164-0.90701 0.75586-1.3066l1.6465 0.017578c0.64904 0.00711 1.25-0.33866 1.5684-0.9043l0.80664-1.4355c0.24695-0.03095 0.4997-0.046875 0.75586-0.046875z" clip-rule="evenodd" fill="#ced0d6" fill-rule="evenodd"/>
</svg>
