<!-- Copyright 2000-2023 JetBrains s.r.o. and contributors. Use of this source code is governed by the Apache 2.0 license. -->
<svg width="16" height="16" version="1.1" viewBox="0 0 16 16" xmlns="http://www.w3.org/2000/svg">
 <path d="m8 5.0088c-1.6523 0-2.9912 1.3388-2.9912 2.9912 0 1.6523 1.3388 2.9912 2.9912 2.9912 1.6523 0 2.9912-1.3388 2.9912-2.9912 0-1.6523-1.3388-2.9912-2.9912-2.9912z" clip-rule="evenodd" fill="#fff" fill-opacity=".85" fill-rule="evenodd" stroke-width="1.0714"/>
 <path d="m7.9993 0.1c-0.39891 0-0.78962 0.028906-1.1726 0.085965-0.25254 0.037627-0.4699 0.1985-0.59515 0.42102l-0.97869 1.7413c-0.15719 0.27929-0.45543 0.45096-0.77589 0.44746l-1.995-0.022042c-0.25484-0.0027875-0.50229 0.1028-0.66128 0.30198-0.4874 0.61066-0.88426 1.2956-1.1749 2.0346-0.093323 0.23729-0.063783 0.50357 0.066128 0.72298l1.0184 1.7193c0.16329 0.27577 0.16329 0.61915 0 0.89493l-1.0184 1.7193c-0.1299 0.21943-0.15944 0.48578-0.066128 0.72299 0.29063 0.739 0.68745 1.4238 1.1749 2.0346 0.15897 0.19919 0.40645 0.3048 0.66128 0.30198l1.995-0.02205c0.32047-0.0034 0.6187 0.16825 0.77589 0.44745l0.97869 1.7413c0.12525 0.22256 0.34261 0.38344 0.59515 0.42102 0.38305 0.05711 0.77376 0.08597 1.1726 0.08597 0.39887 0 0.7919-0.02897 1.1749-0.08596 0.25256-0.0377 0.4677-0.19858 0.59295-0.42102l0.97869-1.7413c0.1571-0.2792 0.45538-0.45095 0.77589-0.44745l1.997 0.02205c0.25484 0.0028 0.50005-0.10279 0.65907-0.30198 0.48732-0.61067 0.88646-1.2957 1.1771-2.0346 0.09333-0.23733 0.06157-0.5036-0.06834-0.72299l-1.0184-1.7193c-0.16331-0.27578-0.16331-0.61916 0-0.89493l1.0184-1.7193c0.1299-0.21942 0.16167-0.48569 0.06834-0.72298-0.2906-0.73887-0.68975-1.4239-1.1771-2.0346-0.15901-0.19918-0.40424-0.30477-0.65907-0.30198l-1.997 0.022042c-0.32052 0.00351-0.6188-0.16819-0.77589-0.44746l-0.97869-1.7413c-0.12525-0.22251-0.3404-0.3834-0.59295-0.42102-0.38297-0.057049-0.77602-0.085965-1.1749-0.085965zm0 1.1286c0.28906 0 0.5744 0.017984 0.85304 0.052902l0.91036 1.62c0.35929 0.63837 1.0376 1.0286 1.77 1.0206l1.8582-0.019838c0.34332 0.45099 0.63084 0.94602 0.85304 1.4746l-0.94782 1.6004c-0.37321 0.63035-0.37321 1.4152 0 2.0456l0.94782 1.6004c-0.22221 0.52862-0.50973 1.0237-0.85304 1.4746l-1.8582-0.01984c-0.73244-8e-3 -1.4108 0.38214-1.77 1.0206l-0.91036 1.62c-0.27865 0.03487-0.564 0.0529-0.85304 0.0529-0.2891 0-0.57435-0.01792-0.85304-0.0529l-0.91036-1.62c-0.35929-0.63843-1.0375-1.0286-1.77-1.0206l-1.8582 0.01984c-0.34335-0.45098-0.63073-0.94592-0.85304-1.4746l0.94782-1.6004c0.3732-0.63034 0.3732-1.4152 0-2.0456l-0.94782-1.6004c0.2223-0.52868 0.50971-1.0236 0.85304-1.4746l1.8582 0.019838c0.73248 0.00803 1.4108-0.3822 1.77-1.0206l0.91036-1.62c0.2787-0.034929 0.56396-0.052903 0.85304-0.052902z" clip-rule="evenodd" fill="#fff" fill-opacity=".85" fill-rule="evenodd" stroke-width="1.0714"/>
</svg>
