<!-- Copyright 2000-2023 JetBrains s.r.o. and contributors. Use of this source code is governed by the Apache 2.0 license. -->
<svg width="16" height="16" version="1.1" viewBox="0 0 16 16" xmlns="http://www.w3.org/2000/svg">
 <path d="m8 5.1603c-1.5687 0-2.8397 1.271-2.8397 2.8397 0 1.5687 1.271 2.8397 2.8397 2.8397 1.5687 0 2.8397-1.271 2.8397-2.8397 0-1.5687-1.271-2.8397-2.8397-2.8397z" clip-rule="evenodd" fill="#fff" fill-opacity=".85" fill-rule="evenodd" stroke-width="1.0714"/>
 <path d="m7.9993 0.5c-0.37871 0-0.74964 0.027442-1.1133 0.081613-0.23975 0.035722-0.44611 0.18845-0.56501 0.3997l-0.92914 1.6532c-0.14923 0.26514-0.43237 0.42813-0.73661 0.4248l-1.8939-0.020926c-0.24193-0.0026464-0.47686 0.097595-0.6278 0.28669-0.46272 0.57974-0.83948 1.23-1.1154 1.9315-0.088597 0.22528-0.060553 0.47807 0.06278 0.68638l0.9668 1.6322c0.15502 0.26181 0.15502 0.5878 0 0.84962l-0.9668 1.6322c-0.12333 0.20832-0.15137 0.46118-0.06278 0.68639 0.27591 0.70158 0.65265 1.3517 1.1154 1.9315 0.15092 0.18911 0.38587 0.28937 0.6278 0.28669l1.8939-0.02093c0.30424-0.0033 0.58738 0.15973 0.73661 0.4248l0.92914 1.6532c0.1189 0.21129 0.32526 0.36402 0.56501 0.3997 0.36365 0.05422 0.73458 0.08162 1.1133 0.08162 0.37867 0 0.7518-0.0275 1.1154-0.08161 0.23977-0.03579 0.44402-0.18852 0.56292-0.3997l0.92914-1.6532c0.14914-0.26507 0.43232-0.42812 0.73661-0.4248l1.8959 0.02093c0.24193 0.0027 0.47473-0.09759 0.6257-0.28669 0.46264-0.57975 0.84158-1.2301 1.1175-1.9315 0.08861-0.22532 0.05845-0.4781-0.06487-0.68639l-0.9668-1.6322c-0.15504-0.26182-0.15504-0.58781 0-0.84962l0.9668-1.6322c0.12332-0.20831 0.15348-0.4611 0.064875-0.68638-0.27589-0.70145-0.65483-1.3518-1.1175-1.9315-0.15096-0.1891-0.38377-0.28934-0.6257-0.28669l-1.8959 0.020926c-0.30429 0.0033322-0.58747-0.15967-0.73661-0.4248l-0.92914-1.6532c-0.1189-0.21124-0.32316-0.36399-0.56292-0.3997-0.36358-0.054161-0.73672-0.081613-1.1154-0.081613zm0 1.0714c0.27442 0 0.54532 0.017073 0.80985 0.050223l0.86426 1.538c0.3411 0.60605 0.98503 0.97652 1.6804 0.9689l1.7641-0.018834c0.32593 0.42815 0.59889 0.89812 0.80985 1.3999l-0.89983 1.5193c-0.35432 0.59843-0.35432 1.3436 0 1.942l0.89983 1.5193c-0.21096 0.50186-0.48392 0.97184-0.80985 1.3999l-1.7641-0.01884c-0.69536-0.0076-1.3393 0.36279-1.6804 0.9689l-0.86426 1.538c-0.26454 0.03311-0.53544 0.05022-0.80985 0.05022-0.27446 0-0.54527-0.01701-0.80985-0.05022l-0.86426-1.538c-0.3411-0.60611-0.98499-0.9765-1.6804-0.9689l-1.7641 0.01884c-0.32596-0.42815-0.59879-0.89802-0.80985-1.3999l0.89983-1.5193c0.3543-0.59842 0.3543-1.3436 0-1.942l-0.89983-1.5193c0.21105-0.50191 0.4839-0.9718 0.80985-1.3999l1.7641 0.018834c0.6954 0.00762 1.3393-0.36285 1.6804-0.9689l0.86426-1.538c0.26459-0.033161 0.5354-0.050224 0.80985-0.050224z" clip-rule="evenodd" fill="#fff" fill-opacity=".85" fill-rule="evenodd" stroke-width="1.0714"/>
</svg>
