<svg version="1.1" viewBox="0 0 16 16" xmlns="http://www.w3.org/2000/svg">
 <defs>
  <style id="current-color-scheme" type="text/css">.ColorScheme-Text {
        color:#dadada;
      }</style>
 </defs>
 <g transform="matrix(.065156 0 0 .065156 -.34 -.34)" fill="#fff" fill-opacity=".85098" font-family="none" font-size="none" font-weight="none" stroke-miterlimit="10" text-anchor="none" style="mix-blend-mode:normal">
  <g transform="scale(10.667)">
   <path d="m20 2h-16c-1.1055 0-2 0.89453-2 2v16c0 1.1055 0.89453 2 2 2h16c1.1055 0 2-0.89453 2-2v-16c0-1.1055-0.89453-2-2-2zm-9 16c0 0.55078-0.44922 1-1 1h-5c-0.55469 0-1-0.44922-1-1v-13c0-0.55078 0.44531-1 1-1h5c0.55078 0 1 0.44922 1 1zm9-6.0039c0 0.55469-0.44922 1.0039-1.0039 1.0039h-4.9922c-0.55469 0-1.0039-0.44922-1.0039-1.0039v-6.9922c0-0.55469 0.44922-1.0039 1.0039-1.0039h4.9922c0.55469 0 1.0039 0.44922 1.0039 1.0039z"/>
  </g>
 </g>
</svg>
