<svg version="1.1" viewBox="0 0 16 16" xmlns="http://www.w3.org/2000/svg">
 <defs>
  <style id="current-color-scheme" type="text/css">.ColorScheme-Text {
        color:#dadada;
      }</style>
 </defs>
 <g stroke-width="1.1045">
  <path d="m7.5988 8.22c-0.98614-1e-7 -1.7797 0.7957-1.7797 1.7818 0 0.98614 0.79354 1.7818 1.7797 1.7818 0.98614 0 1.7818-0.7957 1.7818-1.7818 0-0.98614-0.7957-1.7818-1.7818-1.7818z" opacity="0" stop-color="#000000"/>
  <path d="m4.2163 4.2163v1.9609h5.9646v-1.9609z" opacity="0" stop-color="#000000"/>
  <path d="m2.3956 1.015c-0.75422 1e-7 -1.3806 0.62634-1.3806 1.3806v11.209c1e-7 0.75431 0.62633 1.3806 1.3806 1.3806h11.209c0.75432 0 1.3806-0.62632 1.3806-1.3806v-9.5154l-3.074-3.074zm-0.22003 1.1606h9.2565l2.3923 2.3923v9.2565h-11.649z" opacity="0" stop-color="#000000"/>
 </g>
</svg>
