<!-- Copyright 2000-2024 JetBrains s.r.o. and contributors. Use of this source code is governed by the Apache 2.0 license. -->
<svg width="16" height="16" fill="none" version="1.1" viewBox="0 0 16 16" xmlns="http://www.w3.org/2000/svg">
 <path id="close" d="m3.2731 12.156c-0.15769 0.15771-0.15769 0.41337 0 0.57108 0.15768 0.15763 0.41332 0.15763 0.571 0l4.1559-4.1559 4.156 4.156c0.15763 0.15763 0.41329 0.15763 0.571 0 0.15763-0.15771 0.15763-0.41337 0-0.571l-4.156-4.156 4.1559-4.1559c0.15763-0.15768 0.15763-0.41332 0-0.571-0.15771-0.15768-0.41337-0.15768-0.57108 0l-4.1558 4.1559-4.1558-4.1558c-0.15768-0.15768-0.41332-0.15768-0.571 0-0.15768 0.15768-0.15768 0.41332 0 0.571l4.1558 4.1558z" fill="#da4453" stroke="#da4453"/>
</svg>
