<svg version="1.1" viewBox="0 0 16 16" xmlns="http://www.w3.org/2000/svg">
 <defs>
  <style id="current-color-scheme" type="text/css">.ColorScheme-Text {
        color:#dadada;
      }</style>
 </defs>
 <g fill="#ced0d6" stroke="#ced0d6">
  <path d="m8 0.19869a7.801 7.801 0 0 0-7.8013 7.8013 7.801 7.801 0 0 0 7.8013 7.8013 7.801 7.801 0 0 0 7.8013-7.8013 7.801 7.801 0 0 0-7.8013-7.8013zm0 0.97516a6.8259 6.8259 0 0 1 6.8261 6.8261 6.8259 6.8259 0 0 1-6.8261 6.8261 6.8259 6.8259 0 0 1-6.8261-6.8261 6.8259 6.8259 0 0 1 6.8261-6.8261z" color="#dadada" stroke-width=".39738"/>
  <path d="m9.1548 4.6004c0.091668 0 0.18327 0.034877 0.25351 0.10511 0.14048 0.14048 0.14048 0.36654 0 0.50702l-2.7886 2.7886 2.7886 2.7886c0.14048 0.14048 0.14048 0.36654 0 0.50702-0.14048 0.14048-0.36654 0.14048-0.50702 0l-3.0421-3.0421c-0.14048-0.14048-0.14048-0.36654 0-0.50702l3.0421-3.0421c0.07024-0.070241 0.16184-0.10511 0.25351-0.10511z" color="#dadada" stroke-width=".60077"/>
 </g>
</svg>
