<svg width="16" height="16" version="1.1" viewBox="0 0 16 16" xmlns="http://www.w3.org/2000/svg">
 <defs>
  <style id="current-color-scheme" type="text/css">.ColorScheme-Text {
        color:#dadada;
      }</style>
 </defs>
 <g transform="matrix(.06817 0 0 .06817 -.72573 -.34868)" fill="#fff" font-family="none" font-size="none" font-weight="none" opacity=".8" stroke-miterlimit="10" text-anchor="none" style="mix-blend-mode:normal">
  <g transform="scale(8)">
   <path d="m16.389 6.002c-0.777 0-1.0035 1.0801-1.9375 1.0801-0.905 0-1.5622-0.81055-2.4082-0.81055-0.807 0-1.3294 0.59255-1.7324 1.8106-1.377 4.163-1.3166 3.9861-1.3066 4.2051 0 1.332 4.8772 5.7031 11.406 5.7031v0.0098c1.681 0 4.1094-0.3753 4.1094-2.5293 0.02-0.364 0.04998-0.09292-1.041-5.1699-0.226-1.031-0.43347-1.4995-2.1055-2.3945-1.308-0.719-4.1484-1.9043-4.9844-1.9043zm-8.1191 7.0371c-2.3 0.11-5.2695 0.53117-5.2695 3.2012 0 4.37 10.19 9.7598 18.26 9.7598 6.18 0 7.7402-2.8398 7.7402-5.0898 0-1.77-1.5009-3.7707-4.2109-4.9707 0.231 1.238 0.21094 1.6192 0.21094 1.7812 0 2.107-2.1552 3.2793-4.9922 3.2793-6.395 0.011-12.008-4.1266-12.008-6.8516 0-0.38 0.12953-0.76138 0.26953-1.1094z"/>
  </g>
 </g>
 <path d="m7.4615 2.6349a0.78768 0.78768 0 1 0-1.5477-0.294l-0.47774 2.5074h-2.0454a0.78749 0.78749 0 0 0 0 1.575h1.7461l-0.59954 3.1478h-2.0496a0.78749 0.78749 0 0 0 0 1.575h1.7493l-0.42314 2.2197a0.78768 0.78768 0 0 0 1.5477 0.29399l0.47879-2.5137h3.1216l-0.42314 2.2197a0.78768 0.78768 0 0 0 1.5477 0.29399l0.47879-2.5137h2.0443a0.78749 0.78749 0 0 0 0-1.575h-1.744l0.59849-3.1478h2.0475a0.78749 0.78749 0 0 0 0-1.575h-1.7472l0.42209-2.2134a0.78768 0.78768 0 0 0-1.5477-0.294l-0.47774 2.5074h-3.1216zm-0.72134 3.7883-0.59954 3.1478h3.1216l0.59849-3.1478z" clip-rule="evenodd" display="none" fill="#fff" fill-rule="evenodd" opacity=".8" stroke-width="1.05"/>
</svg>
