<?xml version="1.0" encoding="UTF-8" standalone="no"?>
<svg
   version="1.1"
   viewBox="0 0 16 16"
   id="svg1"
   sodipodi:docname="tag.svg"
   inkscape:version="1.3.2 (091e20ef0f, 2023-11-25, custom)"
   xmlns:inkscape="http://www.inkscape.org/namespaces/inkscape"
   xmlns:sodipodi="http://sodipodi.sourceforge.net/DTD/sodipodi-0.dtd"
   xmlns="http://www.w3.org/2000/svg"
   xmlns:svg="http://www.w3.org/2000/svg">
  <sodipodi:namedview
     id="namedview1"
     pagecolor="#505050"
     bordercolor="#eeeeee"
     borderopacity="1"
     inkscape:showpageshadow="0"
     inkscape:pageopacity="0"
     inkscape:pagecheckerboard="0"
     inkscape:deskcolor="#505050"
     inkscape:zoom="23"
     inkscape:cx="7.6086956"
     inkscape:cy="12.282609"
     inkscape:window-width="1920"
     inkscape:window-height="1014"
     inkscape:window-x="0"
     inkscape:window-y="0"
     inkscape:window-maximized="1"
     inkscape:current-layer="svg1" />
  <defs
     id="defs1">
    <style
       id="current-color-scheme"
       type="text/css">.ColorScheme-Text {
        color:#dadada;
      }</style>
  </defs>
  <path
     d="m 8.3698458,1.0131298 -6.2783945,0.03287 C 1.5153427,1.0494228 1.049165,1.5155986 1.0457464,2.0916864 l -0.032871,6.2782831 c -0.00144,0.2956435 0.121596,0.5782441 0.3389857,0.778611 l 6.8371474,6.3111005 c 0.4146887,0.382558 1.0573385,0.369873 1.4566279,-0.02876 L 15.430915,9.645748 c 0.398637,-0.3992508 0.411333,-1.0418891 0.02876,-1.4566021 L 9.1484602,1.35212 C 8.9480897,1.1347341 8.6654841,1.0116992 8.3698353,1.0131403 Z M 8.3760092,2.0649799 14.687222,8.9020058 8.9019436,14.687182 2.0647963,8.3760807 2.0976672,2.0977976 Z M 5.7463371,4.1686802 c -0.8709474,0 -1.5778032,0.7068433 -1.5778032,1.5777752 0,0.8709319 0.7068558,1.5777752 1.5778032,1.5777752 0.8709474,0 1.5778033,-0.7068433 1.5778033,-1.5777752 0,-0.8709319 -0.7068559,-1.5777752 -1.5778033,-1.5777752 z"
     class="ColorScheme-Text"
     fill="currentColor"
     id="path1"
     style="fill:#ced0d6;fill-opacity:1;stroke:#ced0d6;stroke-width:0.52593;stroke-dasharray:none;stroke-opacity:1" />
</svg>
