<svg version="1.1" xmlns="http://www.w3.org/2000/svg" xmlns:xlink="http://www.w3.org/1999/xlink" width="24px" height="24px" viewBox="0,0,256,256"><g fill="#dadada" fill-rule="nonzero" stroke="none" stroke-width="1" stroke-linecap="butt" stroke-linejoin="miter" stroke-miterlimit="10" stroke-dasharray="" stroke-dashoffset="0" font-family="none" font-weight="none" font-size="none" text-anchor="none" style="mix-blend-mode: normal"><g transform="scale(10.66667,10.66667)"><path d="M9.71484,2.30078l-1.42969,1.39844l1.39258,1.42187c-0.41768,0.51547 -0.67773,1.16369 -0.67773,1.87891c0,0.05372 0.01284,0.08581 0.01563,0.13477c-0.48535,0.13867 -0.9417,0.38162 -1.3125,0.75195c-0.34656,0.34561 -0.66142,0.72099 -0.95312,1.11328h-3.75v2h2.61523c-0.26241,0.64091 -0.45088,1.31041 -0.54297,2h-2.07227v2h2.04688c0.05734,0.69543 0.16953,1.36736 0.35156,2h-2.39844v2h3.27734c0.13597,0.21626 0.2823,0.42611 0.44141,0.625c1.18284,1.47855 3.03125,2.375 5.28125,2.375c2.25,0 4.09841,-0.89645 5.28125,-2.375c0.15911,-0.19889 0.30544,-0.40874 0.44141,-0.625h3.27734v-2h-2.39844c0.18211,-0.63289 0.29702,-1.30379 0.35352,-2h2.04492v-2h-2.08008c-0.09511,-0.67647 -0.28283,-1.34828 -0.55078,-2h2.63086v-2h-3.75781c-0.28862,-0.39284 -0.60043,-0.76934 -0.94531,-1.11328c-0.3708,-0.37033 -0.82714,-0.61328 -1.3125,-0.75195c0.00279,-0.04896 0.01563,-0.08104 0.01563,-0.13477c0,-0.71522 -0.26006,-1.36344 -0.67773,-1.87891l1.39258,-1.42187l-1.42969,-1.39844l-1.71875,1.75586c-0.18353,-0.03508 -0.37264,-0.05664 -0.56641,-0.05664c-0.19376,0 -0.38288,0.02156 -0.56641,0.05664zM9.87305,9h4.25391c0.29472,0 0.56814,0.11111 0.75781,0.30078v0.00195c1.27477,1.27128 2.11523,3.19208 2.11523,4.69727c0,1.83333 -0.46409,3.35355 -1.28125,4.375c-0.64923,0.81154 -1.51494,1.35406 -2.71875,1.54492v-8.91992h-2v8.91992c-1.20381,-0.19086 -2.06952,-0.73338 -2.71875,-1.54492c-0.81716,-1.02145 -1.28125,-2.54167 -1.28125,-4.375c0,-1.68433 0.8157,-3.40128 2.11523,-4.69727v-0.00195c0.18967,-0.18967 0.4631,-0.30078 0.75781,-0.30078z"></path></g></g></svg>
