<svg width="16" height="16" version="1.1" xmlns="http://www.w3.org/2000/svg">
 <defs>
  <style id="current-color-scheme" type="text/css">.ColorScheme-Text { color:#dadada; }</style>
 </defs>
 <g class="ColorScheme-Text">
  <path d="m2.2147 6.2691c-1.221 0-2.2147 0.99149-2.2147 2.2125v4.8222c0 1.221 0.99371 2.2125 2.2147 2.2125h7.7137c1.221 0 2.2125-0.99149 2.2125-2.2125v-4.8222c0-1.221-0.99149-2.2125-2.2125-2.2125zm0 0.5681h7.7137c0.9161 0 1.6444 0.72829 1.6444 1.6444v4.8222c0 0.9161-0.72829 1.6444-1.6444 1.6444h-7.7137c-0.9161 0-1.6466-0.72829-1.6466-1.6444v-4.8222c0-0.9161 0.73051-1.6444 1.6466-1.6444zm0 0.39723c-0.68672 0-1.2494 0.56043-1.2494 1.2472v4.8222c0 0.68672 0.56265 1.2494 1.2494 1.2494h7.7137c0.68672 0 1.2494-0.56265 1.2494-1.2494v-4.8222c0-0.68672-0.56265-1.2472-1.2494-1.2472zm0 0.5681h7.7137c0.38182 0 0.68128 0.29723 0.68128 0.67906v4.8222c0 0.38182-0.29946 0.68128-0.68128 0.68128h-7.7137c-0.38182 0-0.68128-0.29945-0.68128-0.68128v-4.8222c0-0.38182 0.29945-0.67906 0.68128-0.67906zm-0.00105-1.2491c-1.0685 0-1.9288 0.86024-1.9288 1.9288v4.822c0 1.0685 0.86024 1.9288 1.9288 1.9288h7.7151c1.0685 0 1.9288-0.86024 1.9288-1.9288v-4.822c0-1.0685-0.86024-1.9288-1.9288-1.9288zm0 0.96439h7.7151c0.53427 0 0.96439 0.43012 0.96439 0.96439v4.822c0 0.53427-0.43012 0.96439-0.96439 0.96439h-7.7151c-0.53427 0-0.96439-0.43012-0.96439-0.96439v-4.822c0-0.53427 0.43012-0.96439 0.96439-0.96439zm9.6432-7.034c-2.2895 0-4.1409 1.8514-4.1409 4.1409v2.2125h1.5334v-2.2125c0-1.4504 1.1571-2.6097 2.6075-2.6097 1.4504 0 2.6097 1.1593 2.6097 2.6097v2.2125h1.5334v-2.2125c0-2.2895-1.8536-4.1409-4.1431-4.1409zm0 0.5681c1.9846 0 3.575 1.5882 3.575 3.5728v1.6444h-0.39723v-1.6444c0-1.7553-1.4225-3.1778-3.1778-3.1778s-3.1756 1.4225-3.1756 3.1778v1.6444h-0.39723v-1.6444c0-1.9846 1.5882-3.5728 3.5728-3.5728zm7e-4 -0.28481c-2.1371 0-3.8576 1.7205-3.8576 3.8576v1.9288h0.96439v-1.9288c0-1.6028 1.2904-2.8932 2.8932-2.8932 1.6028 0 2.8932 1.2904 2.8932 2.8932v1.9288h0.96439v-1.9288c0-2.1371-1.7205-3.8576-3.8576-3.8576z" color="#dadada" fill="#fff" opacity=".8" stroke-width="1.1362"/>
 </g>
</svg>
