<svg width="19" height="18" fill="none" version="1.1" viewBox="0 0 19 18" xmlns="http://www.w3.org/2000/svg">
 <path d="m5.5398 3.048c-0.45223 0-0.82483 0.37059-0.82483 0.82282v8.2683l-2.012-2.012c-0.31973-0.31978-0.84343-0.31978-1.1632 0-0.31978 0.3197-0.31978 0.84346 0 1.1632l3.4174 3.4214c0.14885 0.14891 0.35688 0.24024 0.58258 0.24024 0.19995 0 0.37141-0.09465 0.51451-0.21422h0.04004l0.028028-0.02802 3.4194-3.4194c0.31978-0.3197 0.31978-0.84346 0-1.1632-0.31973-0.31978-0.84543-0.31978-1.1652 0l-2.014 2.014v-8.2703c0-0.45224-0.37059-0.82282-0.82282-0.82282zm3.4174 0.058058c-0.42203-3e-5 -0.76603 0.34474-0.76476 0.76677 8.696e-4 0.4204 0.34416 0.76279 0.76476 0.76276h7.978c0.42061 2.84e-5 0.7639-0.34236 0.76477-0.76276v-0.00199c3.66e-4 -0.42129-0.34329-0.76481-0.76477-0.76478zm-3.4174 0.14214c0.34293-1e-7 0.62262 0.27969 0.62262 0.62262v8.7528l2.3564-2.3564c0.24253-0.24256 0.63835-0.24256 0.88088 0 0.24254 0.24248 0.24254 0.6384 0 0.88088l-3.3874 3.3894h-0.00199l-0.03003 0.03004c-0.11261 0.11256-0.26943 0.18418-0.44044 0.18418-0.17177 0-0.32783-0.06953-0.44044-0.18218l-3.4194-3.4214c-0.24254-0.24248-0.24254-0.6384 0-0.88088 0.24253-0.24256 0.63835-0.24256 0.88088 0l2.3544 2.3564v-8.7528c0-0.34293 0.2817-0.62262 0.62462-0.62262zm3.4174 0.056056h7.978c0.31363-2.27e-5 0.56551 0.25294 0.56456 0.56657 2.2e-5 0.31297-0.25159 0.56459-0.56456 0.56456h-7.978c-0.31297 2.16e-5 -0.56459-0.25159-0.56456-0.56456-9.435e-4 -0.31363 0.25093-0.56659 0.56456-0.56657zm-3.4174 0.05005c-0.28493 0-0.51652 0.23159-0.51652 0.51652v9.011l-2.5385-2.5385c-0.20141-0.20144-0.52932-0.20144-0.73073 0-0.20171 0.20166-0.20171 0.53107 0 0.73273l3.4194 3.4174c0.093642 0.09366 0.22413 0.15215 0.36637 0.15215 0.14227 0 0.27267-0.05802 0.36637-0.15215l3.4174-3.4174c0.20171-0.20166 0.20171-0.53107 0-0.73273-0.20141-0.20144-0.52732-0.20144-0.72873 0l-2.5365 2.5365v-9.009c0-0.28549-0.23359-0.51652-0.51852-0.51652zm0 0.2002c0.1787 0 0.31832 0.13818 0.31832 0.31632v9.4935l2.8769-2.8789c0.12644-0.12646 0.32001-0.12646 0.44645 0 0.12609 0.12606 0.12609 0.32239 0 0.44845l-3.4174 3.4194c-0.057417 0.05768-0.13391 0.09209-0.22422 0.09209-0.089692 0-0.16685-0.03469-0.22422-0.09209l-3.4194-3.4194c-0.12609-0.12606-0.12609-0.32239 0-0.44845 0.12644-0.12646 0.32001-0.12646 0.44645 0l2.8809 2.8789v-9.4935c0-0.1787 0.13762-0.31632 0.31632-0.31632zm5.6977 4.6827c-0.41943 0.00119-0.76156 0.34134-0.76276 0.76076v2e-3c-3e-5 0.42029 0.34247 0.76156 0.76276 0.76276h5.6977c0.42116 3.28e-5 0.76479-0.3416 0.76477-0.76276v-0.00199c-0.0012-0.4203-0.34447-0.7608-0.76477-0.76077zm0 0.2002h5.6977c0.31231-2.13e-5 0.56367 0.25025 0.56456 0.56256 2.2e-5 0.31297-0.25159 0.56258-0.56456 0.56256h-5.6977c-0.31231-8.979e-4 -0.56258-0.25025-0.56256-0.56256 8.95e-4 -0.31165 0.25091-0.56167 0.56256-0.56256zm2.2783 4.9269c-0.42116-3e-5 -0.76479 0.34361-0.76476 0.76476-2.9e-5 0.42116 0.34361 0.7648 0.76476 0.76476h3.4194c0.42116 3e-5 0.76479-0.34361 0.76477-0.76476 2.8e-5 -0.42116-0.34361-0.76479-0.76477-0.76476zm0 0.2002h3.4194c0.31297-2.1e-5 0.56459 0.25159 0.56456 0.56456 2.2e-5 0.31297-0.25159 0.56458-0.56456 0.56457h-3.4194c-0.31297 1.9e-5 -0.56459-0.25159-0.56456-0.56457-2.2e-5 -0.31297 0.25159-0.56458 0.56456-0.56456zm-7.976-10.316c-0.34293 0-0.62462 0.2797-0.62462 0.62262v8.7528l-2.3544-2.3564c-0.24253-0.24256-0.63835-0.24256-0.88088 0-0.24254 0.24248-0.24254 0.6384 0 0.88088l3.4194 3.4214c0.11261 0.11266 0.26867 0.18218 0.44044 0.18218 0.17101 0 0.32783-0.07163 0.44044-0.18418l0.03003-0.03004h0.00199l3.3874-3.3894c0.24254-0.24248 0.24254-0.6384 0-0.88088-0.24253-0.24256-0.63835-0.24256-0.88088 0l-2.3563 2.3564v-8.7528c0-0.34293-0.2797-0.62262-0.62262-0.62262zm3.4174 0.056056c-0.31363-2.15e-5 -0.56551 0.25294-0.56456 0.56657-2.1e-5 0.31297 0.25159 0.56459 0.56456 0.56456h7.978c0.31297 2.11e-5 0.56459-0.25159 0.56456-0.56456 9.44e-4 -0.31363-0.25093-0.56659-0.56456-0.56657zm-3.4174 0.05005c0.28493 6e-7 0.51852 0.23103 0.51852 0.51652v9.009l2.5365-2.5365c0.20141-0.20144 0.52732-0.20144 0.72873 0 0.20171 0.20166 0.20171 0.53107 0 0.73273l-3.4174 3.4174c-0.093701 0.09414-0.2241 0.15215-0.36637 0.15215-0.14223 0-0.27272-0.05849-0.36637-0.15215l-3.4194-3.4174c-0.20171-0.20166-0.20171-0.53107 0-0.73273 0.20141-0.20144 0.52932-0.20144 0.73073 0l2.5385 2.5385v-9.011c0-0.28493 0.23159-0.51652 0.51652-0.51652zm0 0.2002c-0.1787 8e-7 -0.31632 0.13762-0.31632 0.31632v9.4935l-2.8809-2.8789c-0.12644-0.12646-0.32001-0.12646-0.44645 0-0.12609 0.12606-0.12609 0.32239 0 0.44845l3.4194 3.4194c0.057376 0.05739 0.13453 0.09209 0.22422 0.09209 0.09031 0 0.16681-0.0344 0.22422-0.09209l3.4174-3.4194c0.12609-0.12606 0.12609-0.32239 0-0.44845-0.12644-0.12646-0.32001-0.12646-0.44645 0l-2.8769 2.8789v-9.4935c0-0.17813-0.13962-0.31632-0.31832-0.31632zm5.6977 4.8829c-0.31165 8.949e-4 -0.56167 0.25091-0.56256 0.56256-2.1e-5 0.31231 0.25025 0.56167 0.56256 0.56256h5.6977c0.31297 2.11e-5 0.56459-0.24959 0.56456-0.56256-8.97e-4 -0.31231-0.25225-0.56258-0.56456-0.56256zm2.2783 5.1271c-0.31297-2.1e-5 -0.56459 0.25159-0.56456 0.56456-2.2e-5 0.31297 0.25159 0.56458 0.56456 0.56457h3.4194c0.31297 1.9e-5 0.56459-0.25159 0.56456-0.56457 2.2e-5 -0.31297-0.25159-0.56458-0.56456-0.56456z" clip-rule="evenodd" fill="#fff" fill-opacity=".85" fill-rule="evenodd" stop-color="#000000" stroke-width="1.025"/>
</svg>
