<svg version="1.1" xmlns="http://www.w3.org/2000/svg" xmlns:xlink="http://www.w3.org/1999/xlink" width="24px" height="24px" viewBox="0,0,256,256"><g fill="#dadada" fill-rule="nonzero" stroke="none" stroke-width="1" stroke-linecap="butt" stroke-linejoin="miter" stroke-miterlimit="10" stroke-dasharray="" stroke-dashoffset="0" font-family="none" font-weight="none" font-size="none" text-anchor="none" style="mix-blend-mode: normal"><g transform="scale(10.66667,10.66667)"><path d="M4,3c-0.552,0 -1,0.448 -1,1v2c0,0.552 0.448,1 1,1h2c0.552,0 1,-0.448 1,-1v-2c0,-0.552 -0.448,-1 -1,-1zM11,3c-0.552,0 -1,0.448 -1,1v2c0,0.552 0.448,1 1,1h2c0.552,0 1,-0.448 1,-1v-2c0,-0.552 -0.448,-1 -1,-1zM18,3c-0.552,0 -1,0.448 -1,1v2c0,0.552 0.448,1 1,1h2c0.552,0 1,-0.448 1,-1v-2c0,-0.552 -0.448,-1 -1,-1zM4,10c-0.552,0 -1,0.448 -1,1v2c0,0.552 0.448,1 1,1h2c0.552,0 1,-0.448 1,-1v-2c0,-0.552 -0.448,-1 -1,-1zM11,10c-0.552,0 -1,0.448 -1,1v2c0,0.552 0.448,1 1,1h2c0.552,0 1,-0.448 1,-1v-2c0,-0.552 -0.448,-1 -1,-1zM18,10c-0.552,0 -1,0.448 -1,1v2c0,0.552 0.448,1 1,1h2c0.552,0 1,-0.448 1,-1v-2c0,-0.552 -0.448,-1 -1,-1zM4,17c-0.552,0 -1,0.448 -1,1v2c0,0.552 0.448,1 1,1h2c0.552,0 1,-0.448 1,-1v-2c0,-0.552 -0.448,-1 -1,-1zM11,17c-0.552,0 -1,0.448 -1,1v2c0,0.552 0.448,1 1,1h2c0.552,0 1,-0.448 1,-1v-2c0,-0.552 -0.448,-1 -1,-1zM18,17c-0.552,0 -1,0.448 -1,1v2c0,0.552 0.448,1 1,1h2c0.552,0 1,-0.448 1,-1v-2c0,-0.552 -0.448,-1 -1,-1z"></path></g></g></svg>