<?xml version="1.0" encoding="UTF-8" standalone="no"?>
<svg
   version="1.1"
   viewBox="0 0 16 16"
   id="svg4"
   sodipodi:docname="view-list-icons.svg"
   inkscape:version="1.3.2 (091e20ef0f, 2023-11-25, custom)"
   xmlns:inkscape="http://www.inkscape.org/namespaces/inkscape"
   xmlns:sodipodi="http://sodipodi.sourceforge.net/DTD/sodipodi-0.dtd"
   xmlns="http://www.w3.org/2000/svg"
   xmlns:svg="http://www.w3.org/2000/svg">
  <sodipodi:namedview
     id="namedview4"
     pagecolor="#505050"
     bordercolor="#eeeeee"
     borderopacity="1"
     inkscape:showpageshadow="0"
     inkscape:pageopacity="0"
     inkscape:pagecheckerboard="0"
     inkscape:deskcolor="#505050"
     inkscape:zoom="23"
     inkscape:cx="8.7826087"
     inkscape:cy="9.3695652"
     inkscape:window-width="1920"
     inkscape:window-height="1014"
     inkscape:window-x="0"
     inkscape:window-y="0"
     inkscape:window-maximized="1"
     inkscape:current-layer="svg4" />
  <defs
     id="defs1">
    <style
       id="current-color-scheme"
       type="text/css">.ColorScheme-Text {
        color:#dadada;
      }</style>
  </defs>
  <g
     class="ColorScheme-Text"
     style="fill:#ced0d6;stroke:#ced0d6;stroke-opacity:1;stroke-width:0.2;stroke-dasharray:none;fill-opacity:1"
     id="g4">
    <path
       d="m2 1c-0.554 0-1 0.446-1 1v4c0 0.554 0.446 1 1 1h4c0.554 0 1-0.446 1-1v-4c0-0.554-0.446-1-1-1zm0 1h4v4h-4z"
       id="path1"
       style="stroke:#ced0d6;stroke-opacity:1;stroke-width:0.2;stroke-dasharray:none;fill:#ced0d6;fill-opacity:1" />
    <path
       d="m10 1c-0.554 0-1 0.446-1 1v4c0 0.554 0.446 1 1 1h4c0.554 0 1-0.446 1-1v-4c0-0.554-0.446-1-1-1zm0 1h4v4h-4z"
       id="path2"
       style="stroke:#ced0d6;stroke-opacity:1;stroke-width:0.2;stroke-dasharray:none;fill:#ced0d6;fill-opacity:1" />
    <path
       d="m2 9c-0.554 0-1 0.446-1 1v4c0 0.554 0.446 1 1 1h4c0.554 0 1-0.446 1-1v-4c0-0.554-0.446-1-1-1zm0 1h4v4h-4z"
       id="path3"
       style="stroke:#ced0d6;stroke-opacity:1;stroke-width:0.2;stroke-dasharray:none;fill:#ced0d6;fill-opacity:1" />
    <path
       d="m10 9c-0.554 0-1 0.446-1 1v4c0 0.554 0.446 1 1 1h4c0.554 0 1-0.446 1-1v-4c0-0.554-0.446-1-1-1zm0 1h4v4h-4z"
       id="path4"
       style="stroke:#ced0d6;stroke-opacity:1;stroke-width:0.2;stroke-dasharray:none;fill:#ced0d6;fill-opacity:1" />
  </g>
</svg>
