<svg version="1.1" viewBox="0 0 16 16" xmlns="http://www.w3.org/2000/svg">
 <defs>
  <style id="current-color-scheme" type="text/css">.ColorScheme-Text {
        color:#dadada;
      }</style>
 </defs>
 <path class="ColorScheme-Text" d="m8 0.72566a7.2743 7.2743 0 0 0-7.2743 7.2743 7.2743 7.2743 0 0 0 7.2743 7.2743 7.2743 7.2743 0 0 0 7.2743-7.2743 7.2743 7.2743 0 0 0-7.2743-7.2743zm0.68747 2.0624v0.00187c0.11639-0.0093262 0.23315 0.025831 0.31715 0.10999l4.101 4.1083c0.08224 0.082349 0.11706 0.19339 0.10816 0.30798v0.00746c-0.01253 0.24276-0.21921 0.44797-0.46197 0.46015l-4.3191 0.21082-0.018335 0.0056c-0.24277 0.013328-0.42801-0.17156-0.41431-0.41432l0.22549-4.3356c0.013094-0.24217 0.21978-0.44921 0.46198-0.46198zm-1.1018 5.2119c0.24277-0.013336 0.42801 0.17155 0.41431 0.41431l-0.22549 4.3356c-0.013094 0.24218-0.21978 0.44922-0.46198 0.46198v-0.0018c-0.11639 0.009439-0.23315-0.025854-0.31715-0.11001l-4.101-4.1083c-0.082246-0.082349-0.11707-0.19339-0.10816-0.30798l-0.00364-0.00746c0.012528-0.24275 0.22289-0.44797 0.46566-0.46015l4.3155-0.21082 0.022-0.0056z" display="none" fill="#fff" fill-opacity=".85098" stroke-width="1.2124"/>
 <g display="none" fill="#ced0d6" stroke="#ced0d6" stroke-width=".2">
  <rect transform="scale(-1,1)" x="-5" y="7" width="1" height="4" rx=".5"/>
  <rect transform="matrix(0,1,1,0,0,0)" x="10" y="4" width="1" height="4" rx=".5"/>
  <rect transform="scale(-1,1)" x="-12" y="5" width="1" height="4" rx=".5"/>
  <rect transform="matrix(0,1,1,0,0,0)" x="5" y="8" width="1" height="4" rx=".5"/>
 </g>
 <path d="m2.3867 1.5508c-1.2 1e-7 -2.1875 0.98653-2.1875 2.1895v8.5195c0 1.2029 0.98747 2.1895 2.1875 2.1895h11.227c1.2 0 2.1875-0.98652 2.1875-2.1895v-8.5195c0-1.2029-0.98747-2.1895-2.1875-2.1895zm6.9219 1.8027c0.43801 0 0.80078 0.36277 0.80078 0.80078v2.1992h2.1992c0.43801 0 0.80078 0.36277 0.80078 0.80078s-0.36277 0.80078-0.80078 0.80078h-3c-0.43801 0-0.80078-0.36277-0.80078-0.80078v-3c0-0.43801 0.36277-0.80078 0.80078-0.80078zm-5.6172 4.6914h3c0.43801 0 0.80078 0.36277 0.80078 0.80078v3c1e-7 0.43801-0.36277 0.80078-0.80078 0.80078s-0.80078-0.36277-0.80078-0.80078v-2.1992h-2.1992c-0.43801 0-0.80078-0.36277-0.80078-0.80078s0.36277-0.80078 0.80078-0.80078z" fill="#fff" fill-opacity=".85098"/>
</svg>
