<?xml version="1.0" encoding="UTF-8" standalone="no"?>
<svg
   width="24"
   height="24"
   fill="none"
   version="1.1"
   viewBox="0 0 24 24"
   id="svg3"
   sodipodi:docname="view-group.svg"
   inkscape:version="1.4 (e7c3feb100, 2024-10-09)"
   xmlns:inkscape="http://www.inkscape.org/namespaces/inkscape"
   xmlns:sodipodi="http://sodipodi.sourceforge.net/DTD/sodipodi-0.dtd"
   xmlns="http://www.w3.org/2000/svg"
   xmlns:svg="http://www.w3.org/2000/svg">
  <defs
     id="defs3" />
  <sodipodi:namedview
     id="namedview3"
     pagecolor="#505050"
     bordercolor="#eeeeee"
     borderopacity="1"
     inkscape:showpageshadow="0"
     inkscape:pageopacity="0"
     inkscape:pagecheckerboard="0"
     inkscape:deskcolor="#505050"
     inkscape:zoom="21.1875"
     inkscape:cx="15.150442"
     inkscape:cy="15.976401"
     inkscape:window-width="2057"
     inkscape:window-height="1255"
     inkscape:window-x="0"
     inkscape:window-y="0"
     inkscape:window-maximized="1"
     inkscape:current-layer="svg3" />
  <g
     transform="translate(-.0069538 -.19334)"
     stroke="#dadada"
     stroke-linecap="round"
     stroke-linejoin="round"
     stroke-width="1.6"
     id="g3">
    <path
       d="m7.9288 10.187c-0.14208 0.0077-0.28355-0.02394-0.40874-0.09157-0.1252-0.06762-0.22926-0.16856-0.30067-0.29164-0.0714-0.12308-0.10739-0.26351-0.10396-0.40577 0.0034388-0.14225 0.046138-0.28078 0.12339-0.40028l4.1068-6.5261c0.06448-0.1162 0.15794-0.21377 0.27136-0.28323 0.11331-0.06946 0.24259-0.10847 0.37552-0.11324 0.13282-0.00476 0.26464 0.024866 0.38257 0.086026 0.11804 0.061161 0.21824 0.15177 0.29098 0.26305l4.0803 6.5503c0.08046 0.1155 0.12774 0.2508 0.13678 0.39126 9e-3 0.14045-0.0205 0.28071-0.08542 0.40557-0.06492 0.12487-0.16279 0.2296-0.28293 0.30285-0.12025 0.07325-0.25813 0.11224-0.39888 0.11273z"
       id="path1"
       style="stroke-width:1.8;stroke-dasharray:none" />
    <path
       d="m8.7004 14.596h-5.511c-0.60872 0-1.1022 0.49345-1.1022 1.1022v5.511c0 0.60874 0.49348 1.1022 1.1022 1.1022h5.511c0.60872 0 1.1022-0.49345 1.1022-1.1022v-5.511c0-0.60874-0.49348-1.1022-1.1022-1.1022z"
       id="path2"
       style="stroke-width:1.8;stroke-dasharray:none" />
    <path
       d="m18.069 22.312c2.1305 0 3.8577-1.7271 3.8577-3.8577s-1.7271-3.8577-3.8577-3.8577c-2.1305 0-3.8577 1.7271-3.8577 3.8577s1.7271 3.8577 3.8577 3.8577z"
       id="path3"
       style="stroke-width:1.8;stroke-dasharray:none" />
  </g>
</svg>
