<svg width="24" height="24" version="1.1" viewBox="0 0 24 24" xmlns="http://www.w3.org/2000/svg">
 <defs>
  <style id="current-color-scheme" type="text/css">.ColorScheme-Text {
        color:#dadada;
      }</style>
 </defs>
 <path class="ColorScheme-Text" d="m12 1.8097c-1.8365 0-3.5531 0.48777-5.038 1.331l0.94043 0.94043 0.00249-0.00249 3.5403 3.5378 0.90063-0.90063-3.162-3.1597c0.88609-0.29639 1.8277-0.47269 2.8163-0.47269 4.9399 0 8.9167 3.9769 8.9167 8.9167 0 1.4808-0.3641 2.871-0.99764 4.0975l0.94043 0.94043c0.84332-1.485 1.331-3.2016 1.331-5.038 0-5.6455-4.5449-10.19-10.19-10.19zm-8.8594 5.1524c-0.84332 1.485-1.331 3.2016-1.331 5.038 0 5.6455 4.5449 10.19 10.19 10.19 1.8365 0 3.5531-0.48777 5.038-1.331l-0.87076-0.87076 0.0026-0.0026-3.6025-3.6025-0.90062 0.90062 3.1572 3.1572c-0.88828 0.29802-1.8325 0.47524-2.8238 0.47524-4.9399 0-8.9167-3.9769-8.9167-8.9167 0-1.4808 0.3641-2.871 0.99764-4.0975z" fill="currentColor" stroke="#dadada" stroke-width="1.019"/>
</svg>
