<svg version="1.1" viewBox="0 0 16 16" xmlns="http://www.w3.org/2000/svg">
 <defs>
  <style id="current-color-scheme" type="text/css">.ColorScheme-Text {
        color:#dadada;
      }</style>
 </defs>
 <path transform="matrix(1.1845 0 0 1.1845 -2.1731 -1.1213)" d="m8.5879 5.5117c-1.2028 0-2.1875 0.98668-2.1875 2.1895 0 1.2028 0.98472 2.1875 2.1875 2.1875 1.2028 0 2.1895-0.98472 2.1895-2.1875 0-1.2028-0.98668-2.1895-2.1895-2.1895zm0 1.0137c0.65525 0 1.1758 0.52053 1.1758 1.1758 0 0.65525-0.52053 1.1758-1.1758 1.1758-0.65525 0-1.1738-0.52053-1.1738-1.1758 0-0.65525 0.51858-1.1758 1.1738-1.1758zm0-3.2559c-2.4581 0-4.9357 1.3677-6.0391 4.043l-0.00391 0.00781-0.00391 0.00977c-0.088906 0.23951-0.088906 0.50268 0 0.74219l0.49805-0.18555-0.49023 0.20313c1.1033 2.6753 3.5809 4.043 6.0391 4.043 2.4581 0 4.9377-1.3677 6.041-4.043l0.0039-0.00977 0.0039-0.00781c0.08891-0.23951 0.08891-0.50268 0-0.74219l-0.0039-0.00977-0.0039-0.00781c-1.1033-2.6753-3.5829-4.043-6.041-4.043zm0 1.0137c2.0841 0 4.1473 1.1154 5.0977 3.4023 3e-3 0.010471 0.0034 0.020845 0 0.03125-0.95037 2.2869-3.0136 3.4023-5.0977 3.4023-2.0841 0-4.1453-1.1154-5.0957-3.4023-0.00343-0.010405-0.00303-0.020779 0-0.03125 0.95036-2.2869 3.0116-3.4023 5.0957-3.4023z" fill="#fff" fill-opacity=".8" stroke-width="1.0131"/>
</svg>
