<svg id="Desktop--Streamline-Radix.svg" width="16" height="16" fill="none" version="1.1" viewBox="0 0 16 16" xmlns="http://www.w3.org/2000/svg">
 <desc>Desktop Streamline Icon: https://streamlinehq.com</desc>
 <path d="m1.334 2.2136c-0.73638 0-1.334 0.5976-1.334 1.334v9.125c0 0.73643 0.5976 1.334 1.334 1.334h13.332c0.73643 0 1.334-0.59756 1.334-1.334v-9.125c0-0.73638-0.59756-1.334-1.334-1.334zm0 1.0664h13.332c0.14731 0 0.26758 0.1203 0.26758 0.26758v9.125c0 0.14731-0.12027 0.26562-0.26758 0.26562h-1.4688l-0.72266-1.51c-0.14382-0.30086-0.40962-0.48614-0.69723-0.48605h-7.5547c-0.28761-8.9e-5 -0.55341 0.18519-0.69727 0.48605l-0.72266 1.51h-1.4688c-0.14727 0-0.26758-0.11832-0.26758-0.26562v-9.125c0-0.14727 0.1203-0.26758 0.26758-0.26758z" fill="#fff" fill-opacity=".85" style="paint-order:fill markers stroke"/>
</svg>
