<svg width="22" height="22" viewBox="0 0 22 22" fill="none" xmlns="http://www.w3.org/2000/svg">
<path fill-rule="evenodd" clip-rule="evenodd" d="M15.7705 10.6379L16.4385 9.55869C17.6271 9.6221 18.8394 9.31516 19.7452 8.40943C20.0849 8.0695 20.0849 7.5185 19.7452 7.17857L14.8217 2.25512C14.6552 2.0885 14.4282 1.9965 14.1927 2.0001C13.9666 2.00371 13.7507 2.09516 13.5908 2.25512C12.6794 3.16661 12.3772 4.38724 12.4467 5.58219L11.3763 6.24374L12.6412 7.50861L13.7354 6.83175C14.051 6.63706 14.2086 6.26379 14.1281 5.9018C14.004 5.34304 14.1278 4.78539 14.3678 4.26291L17.7391 7.63419C17.2203 7.87289 16.6653 7.99742 16.1121 7.8773C15.7517 7.79914 15.3812 7.95646 15.1872 8.27002L14.5051 9.37254L15.7705 10.6379ZM6.37491 9.46607C6.21274 9.554 6.05354 9.65027 5.89795 9.7542L12.2631 16.1193C12.367 15.9637 12.4633 15.8045 12.5512 15.6424L13.9269 17.0181C13.6846 17.4141 13.392 17.7887 13.0468 18.1339C12.7069 18.4737 12.1559 18.4737 11.8159 18.1339L8.45658 14.7746L3.59093 19.6402C3.268 19.9631 2.88341 20.2201 2.46037 20.395L1 21.0003L1.60523 19.5382C1.78019 19.116 2.03714 18.7332 2.36007 18.4093L7.22572 13.5437L3.88335 10.2013C3.54355 9.86139 3.54355 9.3104 3.88335 8.97047C4.2286 8.62522 4.60329 8.33273 4.99941 8.09057L6.37491 9.46607Z" fill="#DADADA"/>
<path d="M3.2 2.19995L20.2 19.2" stroke="#DADADA" stroke-width="1.89915" stroke-linecap="round"/>
</svg>
