<!-- Copyright 2000-2022 JetBrains s.r.o. and contributors. Use of this source code is governed by the Apache 2.0 license. -->
<svg width="16" height="16" fill="none" version="1.1" viewBox="0 0 16 16" xmlns="http://www.w3.org/2000/svg">
 <g fill="#ced0d6" stroke="#ced0d6" stroke-width=".2">
  <rect transform="scale(-1,1)" x="-5" y="7" width="1" height="4" rx=".5"/>
  <rect transform="matrix(0,1,1,0,0,0)" x="10" y="4" width="1" height="4" rx=".5"/>
  <rect transform="scale(-1,1)" x="-12" y="5" width="1" height="4" rx=".5"/>
  <rect transform="matrix(0,1,1,0,0,0)" x="5" y="8" width="1" height="4" rx=".5"/>
 </g>
 <rect x="1.5" y="2.5" width="13" height="11" rx="1.5" display="none" stroke="#ced0d6"/>
 <g fill="#ced0d6" fill-rule="evenodd">
  <path d="m2.3861 1.65c-1.1452 0-2.0861 0.94145-2.0861 2.0897v8.5205c0 1.1483 0.94087 2.0897 2.0861 2.0897h11.228c1.1452 0 2.0861-0.94144 2.0861-2.0897v-8.5205c0-1.1483-0.94087-2.0897-2.0861-2.0897zm0 1.1089h11.228c0.55146 0 0.97821 0.42791 0.97822 0.98086v8.5205c0 0.55295-0.42676 0.98086-0.97822 0.98086h-11.228c-0.55146 0-0.97821-0.42791-0.97821-0.98086v-8.5205c0-0.55295 0.42676-0.98086 0.97821-0.98086z"/>
  <path d="m2.3867 1.5508c-1.2 1e-7 -2.1875 0.98658-2.1875 2.1895v8.5195c0 1.2029 0.98747 2.1895 2.1875 2.1895h11.227c1.2 0 2.1875-0.98657 2.1875-2.1895v-8.5195c0-1.2029-0.98747-2.1895-2.1875-2.1895zm0 0.19922h11.227c1.0904 0 1.9863 0.89656 1.9863 1.9902v8.5195c0 1.0936-0.89593 1.9902-1.9863 1.9902h-11.227c-1.0904 0-1.9863-0.89656-1.9863-1.9902v-8.5195c0-1.0936 0.89593-1.9902 1.9863-1.9902zm0 0.9082c-0.60318 0-1.0781 0.47763-1.0781 1.082v8.5195c0 0.6044 0.47493 1.082 1.0781 1.082h11.227c0.60319 0 1.0781-0.47763 1.0781-1.082v-8.5195c-1.1e-5 -0.6044-0.47493-1.082-1.0781-1.082zm0 0.20117h11.227c0.49973 0 0.8789 0.37936 0.87891 0.88086v8.5195c0 0.5015-0.37918 0.88086-0.87891 0.88086h-11.227c-0.49973 0-0.87891-0.37936-0.87891-0.88086v-8.5195c0-0.5015 0.37919-0.88086 0.87891-0.88086z"/>
 </g>
</svg>
