<!-- Uploaded to: SVG Repo, www.svgrepo.com, Generator: SVG Repo Mixer Tools -->
<svg width="800px" height="800px" data-name="Layer 1" version="1.1" viewBox="0 0 24 24" xmlns="http://www.w3.org/2000/svg">
 <defs>
  <style>.cls-1{fill:none;stroke:#020202;stroke-miterlimit:10;stroke-width:1.91px;}</style>
 </defs>
 <g transform="matrix(.95113 0 0 .95113 1.4947 .89171)" fill="#969696">
  <g stroke-miterlimit="10">
   <path d="m0.54492 0.54492v20.051h10.494v-1.9102h-8.584v-10.5h-0.95508v-1.9102h0.95508v-3.8203h17.18v3.8203h0.95508v1.9102h-0.95508v0.95508h1.9102v-8.5957z"/>
   <path d="m1.5 6.2754v1.9102h19.09v-1.9102z"/>
   <path d="m4.3594 3.4043v1.9102h1.9102v-1.9102z"/>
   <path d="m8.1797 3.4043v1.9102h1.9102v-1.9102z"/>
  </g>
  <path d="m17.714 11.64c-0.81053 0-1.5082 0.14877-2.093 0.44631-0.57455 0.29753-1.0311 0.70792-1.3697 1.2312-0.33858 0.52326-0.53862 1.1235-0.60018 1.8006l2.0622 0.09229c0.07182-0.61559 0.27186-1.0824 0.60018-1.4004s0.79518-0.47707 1.4005-0.47707c0.52326 0 0.92339 0.13847 1.2004 0.41549 0.28728 0.27701 0.4309 0.63098 0.4309 1.0619 0 0.26676-0.03588 0.49249-0.1077 0.67717-0.06156 0.17442-0.18984 0.34373-0.38478 0.50789-0.19494 0.1539-0.48218 0.33346-0.8618 0.53865-0.54377 0.29754-0.93367 0.66689-1.1696 1.1081-0.22572 0.43092-0.33855 1.0413-0.33855 1.8313h1.9699c0-0.50273 0.07181-0.88748 0.21545-1.1542 0.15389-0.26676 0.42065-0.51298 0.80027-0.73869 0.45143-0.27702 0.8157-0.53863 1.0927-0.78486 0.28728-0.2565 0.49756-0.53865 0.63094-0.84644 0.13338-0.3078 0.2001-0.68745 0.2001-1.1389 0-0.60533-0.14877-1.1439-0.44631-1.6159-0.28728-0.48223-0.70281-0.86182-1.2466-1.1388-0.54378-0.27702-1.2055-0.41555-1.9853-0.41555zm-1.3697 9.0185v2.1546h2.2469v-2.1546z" stop-color="#000000"/>
 </g>
</svg>
