<!-- Uploaded to: SVG Repo, www.svgrepo.com, Generator: SVG Repo Mixer Tools -->
<svg width="800px" height="800px" version="1.1" viewBox="0 0 100 100" xmlns="http://www.w3.org/2000/svg">
 <path d="m85.988 84.008c-5.2319 0-5.9794-0.74742-9.7164-9.7164l-25.412-60.541h-2.2422l-21.675 53.067c-6.7267 15.696-7.9974 17.191-12.931 17.191v2.2422h20.405v-2.2422c-4.4845 0-6.7267-0.74742-6.7267-3.737 0-1.4948 0-3.737 0.74742-5.2319l4.4845-11.958h27.654l3.737 9.7164c1.4948 3.737 2.2422 6.7267 2.2422 8.2216 0 2.2422-1.4948 2.9897-7.4742 2.9897v2.2422h26.907v-2.2422m-50.824-25.412 11.958-29.897 11.958 29.897h-23.918" fill="#dadada" stroke-width=".74742"/>
</svg>
