<?xml version="1.0" encoding="UTF-8"?>
<svg width="24" height="24" fill="none" version="1.1" viewBox="0 0 24 24" xmlns="http://www.w3.org/2000/svg">
 <path d="m7.0238 3.8571h1.8095v1.8095h-1.8095v4.5238c-2.6e-6 0.99937-0.81015 1.8095-1.8095 1.8095 0.99937 2e-6 1.8095 0.81015 1.8095 1.8095v4.5238h1.8095v1.8095h-1.8095c-0.96809-0.24428-1.8095-0.81428-1.8095-1.8095v-3.6191c-2.5e-6 -0.99937-0.81015-1.8095-1.8095-1.8095h-0.90477v-1.8095h0.90477c0.99937-2e-6 1.8095-0.81015 1.8095-1.8095v-3.6191c2.4e-6 -0.99937 0.81015-1.8095 1.8095-1.8095m9.9524 0c0.99937 2.4e-6 1.8095 0.81015 1.8095 1.8095v3.6191c4e-6 0.99937 0.81015 1.8095 1.8095 1.8095h0.90477v1.8095h-0.90477c-0.99937 0-1.8095 0.81015-1.8095 1.8095v3.6191c-2e-6 0.99937-0.81015 1.8095-1.8095 1.8095h-1.8095v-1.8095h1.8095v-4.5238c2e-6 -0.99937 0.81015-1.8095 1.8095-1.8095-0.99937-5e-6 -1.8095-0.81015-1.8095-1.8095v-4.5238h-1.8095v-1.8095h1.8095" fill="#f59e0b" stroke-width=".90476"/>
</svg>
