<?xml version="1.0" encoding="UTF-8" standalone="no"?>
<svg
   width="22"
   height="22"
   version="1.1"
   id="svg1"
   sodipodi:docname="audio-x-flac.svg"
   inkscape:version="1.4 (e7c3feb100, 2024-10-09)"
   xmlns:inkscape="http://www.inkscape.org/namespaces/inkscape"
   xmlns:sodipodi="http://sodipodi.sourceforge.net/DTD/sodipodi-0.dtd"
   xmlns="http://www.w3.org/2000/svg"
   xmlns:svg="http://www.w3.org/2000/svg">
  <defs
     id="defs1" />
  <sodipodi:namedview
     id="namedview1"
     pagecolor="#505050"
     bordercolor="#eeeeee"
     borderopacity="1"
     inkscape:showpageshadow="0"
     inkscape:pageopacity="0"
     inkscape:pagecheckerboard="0"
     inkscape:deskcolor="#505050"
     inkscape:zoom="9.4204546"
     inkscape:cx="-24.25573"
     inkscape:cy="3.7683957"
     inkscape:window-width="1920"
     inkscape:window-height="1015"
     inkscape:window-x="0"
     inkscape:window-y="0"
     inkscape:window-maximized="1"
     inkscape:current-layer="svg1" />
  <path
     fill-rule="evenodd"
     clip-rule="evenodd"
     d="m 17.777759,2.1283857 c 0.07875,0.059478 0.142594,0.1364275 0.186581,0.2247889 0.04393,0.088361 0.06683,0.1857211 0.06671,0.2844129 V 14.583853 c -1.13e-4,0.554118 -0.180675,1.093162 -0.514463,1.535512 -0.333731,0.442349 -0.802462,0.76393 -1.335319,0.916143 l -1.122075,0.320512 c -0.275286,0.08258 -0.564242,0.109744 -0.850105,0.07976 -0.285862,-0.02998 -0.562893,-0.116382 -0.815062,-0.254307 -0.252169,-0.137868 -0.474469,-0.324506 -0.653906,-0.549 -0.179494,-0.224493 -0.312582,-0.482398 -0.391557,-0.758755 -0.07897,-0.276356 -0.102262,-0.56565 -0.06857,-0.851062 0.03375,-0.285413 0.123806,-0.561319 0.26505,-0.811631 0.141187,-0.250369 0.33075,-0.470138 0.557606,-0.64665 0.226856,-0.176457 0.48645,-0.306113 0.763875,-0.381488 l 1.96453,-0.561037 c 0.2664,-0.07611 0.500794,-0.236925 0.667631,-0.458043 0.166894,-0.221175 0.257175,-0.490725 0.257231,-0.767756 V 6.6704019 L 9.1051933,8.8568162 v 8.2772978 c -1.69e-4,0.554119 -0.180732,1.093162 -0.514491,1.535512 -0.3337538,0.44235 -0.8025075,0.763932 -1.3353244,0.916144 L 6.1332647,19.906226 C 5.8576341,19.989983 5.5680928,20.018051 5.281516,19.988745 4.9949391,19.959439 4.7170641,19.873376 4.464091,19.735564 4.2111235,19.597751 3.9881204,19.410945 3.8080866,19.186058 3.6280495,18.96117 3.4945863,18.702701 3.4154774,18.425726 c -0.07911,-0.277031 -0.102285,-0.567 -0.068164,-0.853031 0.034121,-0.286031 0.1248357,-0.562444 0.2668725,-0.813037 0.1420358,-0.25065 0.3325433,-0.470474 0.5604177,-0.646705 0.2278743,-0.176232 0.4885537,-0.305325 0.7668393,-0.3798 l 1.9637034,-0.561038 c 0.2664056,-0.07611 0.5007825,-0.236925 0.6676594,-0.4581 0.1668768,-0.221119 0.257175,-0.490669 0.2572312,-0.7677 V 5.1878492 C 7.830065,5.0493167 7.8752169,4.9145587 7.9586525,4.8039768 8.0420938,4.6933893 8.1592794,4.6129856 8.292485,4.5749381 L 17.218412,2.024675 c 0.09489,-0.027199 0.194794,-0.031988 0.291882,-0.01399 0.09703,0.017998 0.188606,0.05829 0.267468,0.1177018 z"
     fill="url(#paint0_linear_4_20)"
     id="path1-2"
     style="fill:#009bff;fill-opacity:1;stroke-width:0.5625" />
</svg>
