<?xml version="1.0" encoding="UTF-8"?>
<!-- Uploaded to: SVG Repo, www.svgrepo.com, Generator: SVG Repo Mixer Tools -->
<svg width="800px" height="800px" fill="#000000" role="img" version="1.1" viewBox="0 0 24 24" xmlns="http://www.w3.org/2000/svg" xmlns:cc="http://creativecommons.org/ns#" xmlns:dc="http://purl.org/dc/elements/1.1/" xmlns:rdf="http://www.w3.org/1999/02/22-rdf-syntax-ns#">
 <title>Adobe Acrobat Reader icon</title>
 <path d="m20.381 14.378c-0.51165-0.53688-1.5609-0.84315-3.044-0.84315-0.7927 0-1.713 0.07639-2.7103 0.25511a14.011 14.011 0 0 1-1.6625-1.9176c-0.38338-0.51165-0.71632-1.0738-1.0233-1.6114 0.58876-1.7901 0.86981-3.2479 0.86981-4.2965 0-1.1761-0.43454-2.4041-1.6877-2.4041-0.38338 0-0.76748 0.2306-0.97214 0.56282-0.5621 0.99737-0.30627 3.1708 0.66515 5.319a43.438 43.438 0 0 1-1.2272 3.2479c-0.40932 0.97214-0.86981 1.9695-1.3815 2.8898-2.8127 1.1256-4.6287 2.43-4.8333 3.4519-0.076388 0.3841 0.051165 0.74226 0.33294 1.0233 0.10233 0.07711 0.46049 0.3841 1.0738 0.3841 1.8665 0 3.836-3.018 4.8333-4.8333 0.76748-0.25583 1.535-0.51165 2.3017-0.71632a25.196 25.196 0 0 1 2.4552-0.53688c1.9688 1.7641 3.7077 2.0459 4.5775 2.0459 1.0738 0 1.4579-0.43527 1.5854-0.7927 0.2306-0.46121 0.07639-0.97214-0.1535-1.228zm-1.0233 0.74226c-0.07711 0.38338-0.46121 0.63921-0.99737 0.63921-0.1535 0-0.28105-0.02594-0.43527-0.05117-0.97142-0.2306-1.8924-0.71632-2.8127-1.4838a12.768 12.768 0 0 1 2.1475-0.17872c0.5376 0 0.99809 0.02522 1.3044 0.10233 0.35816 0.07639 0.92098 0.30699 0.7927 0.97142zm-5.4221-1.202a27.392 27.392 0 0 0-2.1223 0.48571 28.595 28.595 0 0 0-1.816 0.53688 28.862 28.862 0 0 0 0.86981-1.8412c0.30699-0.71632 0.5621-1.4579 0.81865-2.1482 0.25511 0.43455 0.53688 0.86981 0.81793 1.2532a36.123 36.123 0 0 0 1.4319 1.7137zm-3.3495-9.5139a0.55345 0.55345 0 0 1 0.48571-0.30627c0.53688 0 0.63921 0.61326 0.63921 1.0997 0 0.81793-0.25583 2.0711-0.69037 3.503-0.74226-1.9947-0.7927-3.6565-0.43455-4.2965zm-2.8134 11.917c-1.3044 2.1482-2.5575 3.4778-3.3243 3.4778a0.6284 0.6284 0 0 1-0.38338-0.12755c-0.1535-0.1535-0.2306-0.33222-0.17944-0.53688 0.1535-0.76748 1.6366-1.8412 3.8871-2.8134z" fill="#eb0f00" stroke-width=".72064"/>
 <metadata>
  <rdf:RDF>
   <cc:Work rdf:about="">
    <dc:title>Adobe Acrobat Reader icon</dc:title>
   </cc:Work>
  </rdf:RDF>
 </metadata>
</svg>
