<svg width="128" height="128" version="1.1" viewBox="0 0 128 128" xmlns="http://www.w3.org/2000/svg" xmlns:cc="http://creativecommons.org/ns#" xmlns:dc="http://purl.org/dc/elements/1.1/" xmlns:rdf="http://www.w3.org/1999/02/22-rdf-syntax-ns#">
 <title>svelte-logo</title>
 <path d="m75.967 6.0059c-6.014 0.11593-11.998 1.7874-17.285 5.1563l-27.014 17.217a30.992 30.992 0 0 0-14.002 20.759 32.64 32.64 0 0 0 3.2184 20.954 31.078 31.078 0 0 0-4.6365 11.581 33.027 33.027 0 0 0 5.6419 24.978c10.773 15.418 32.05 19.986 47.429 10.185l27.014-17.217a30.987 30.987 0 0 0 14.001-20.759 32.652 32.652 0 0 0-3.2144-20.954 31.072 31.072 0 0 0 4.6324-11.581 33.018 33.018 0 0 0-5.6419-24.978c-7.0688-10.117-18.66-15.563-30.141-15.341zm0.2913 13.229a21.458 21.458 0 0 1 18.729 9.1981 19.859 19.859 0 0 1 3.3944 15.022 19.058 19.058 0 0 1-0.64531 2.5225l-0.50977 1.5515-1.3836-1.0155a34.819 34.819 0 0 0-10.567-5.2817l-1.0034-0.30545 0.09102-1.0013a6.0681 6.0681 0 0 0-1.0883-4.0174 6.4618 6.4618 0 0 0-6.9345-2.5731 5.9501 5.9501 0 0 0-1.6608 0.72824l-27.014 17.217a5.6154 5.6154 0 0 0-2.5367 3.7606 5.9929 5.9929 0 0 0 1.0216 4.5272 6.4666 6.4666 0 0 0 6.9364 2.5751 5.9711 5.9711 0 0 0 1.6588-0.72824l10.307-6.5703a19.656 19.656 0 0 1 5.4861-2.4113 21.458 21.458 0 0 1 23.031 8.5385 19.857 19.857 0 0 1 3.3944 15.02 18.641 18.641 0 0 1-8.4214 12.484l-27.012 17.214a19.683 19.683 0 0 1-5.4902 2.4133 21.458 21.458 0 0 1-23.031-8.5365 19.859 19.859 0 0 1-3.3944-15.022 18.838 18.838 0 0 1 0.64531-2.5225l0.50977-1.5515 1.3836 1.0175a34.845 34.845 0 0 0 10.567 5.2797l1.0034 0.30343-0.09103 1.0034a6.0562 6.0562 0 0 0 1.0883 4.0155 6.4618 6.4618 0 0 0 6.9345 2.5751 5.9501 5.9501 0 0 0 1.6608-0.73026l27.014-17.214a5.6246 5.6246 0 0 0 2.5388-3.7606 6.0017 6.0017 0 0 0-1.0236-4.5272 6.4666 6.4666 0 0 0-6.9364-2.5751 5.9478 5.9478 0 0 0-1.6567 0.72824l-10.309 6.5723a19.713 19.713 0 0 1-5.4861 2.4072 21.458 21.458 0 0 1-23.031-8.5365 19.857 19.857 0 0 1-3.3944-15.02 18.631 18.631 0 0 1 8.4214-12.482l27.012-17.217a19.683 19.683 0 0 1 5.4902-2.4134 21.458 21.458 0 0 1 4.3006-0.66148z" fill="#a3a3a3" stroke-width="1.0357"/>
 <metadata>
  <rdf:RDF>
   <cc:Work rdf:about="">
    <dc:title>svelte-logo</dc:title>
   </cc:Work>
  </rdf:RDF>
 </metadata>
</svg>
