<svg width="32" height="32" fill="none" version="1.1" viewBox="0 0 32 32" xmlns="http://www.w3.org/2000/svg">
 <path d="m5 2c-1.6568 0-3 1.3432-3 3v22c0 1.6569 1.3432 3 3 3h22c1.6569 0 3-1.3431 3-3v-22c0-1.6568-1.3431-3-3-3h-22zm7 18.716v4.2837c1.5968 0 3.0726-0.3823 4.4274-1.1468 1.3549-0.7646 2.4557-1.8102 3.3024-3.1369 0.8468-1.3268 1.2702-2.7996 1.2702-4.4187v-8.0278c0-0.17989-0.0968-0.26984-0.2903-0.26984h-8.4194c-0.1935 0-0.2903 0.08995-0.2903 0.26984v7.758c0 0.1799 0.0968 0.2698 0.2903 0.2698h4.1734c0 1.1918-0.4355 2.2262-1.3064 3.1032-0.871 0.877-1.9234 1.3155-3.1573 1.3155z" clip-rule="evenodd" fill="#2b9c60" fill-rule="evenodd"/>
</svg>
