<svg width="16" height="16" version="1.1" xmlns="http://www.w3.org/2000/svg">
 <path transform="matrix(.75 0 0 .75 -1 -1)" d="m3 4c-0.55226 6e-5 -0.99994 0.44774-1 1v14c6e-5 0.55226 0.44774 0.99994 1 1h18c0.55226-6e-5 0.99994-0.44774 1-1v-14c-6e-5 -0.55226-0.44774-0.99994-1-1zm1 2h2v0.5c0 0.276 0.224 0.5 0.5 0.5h1c0.276 0 0.5-0.224 0.5-0.5v-0.5h8v0.5c0 0.276 0.224 0.5 0.5 0.5h1c0.276 0 0.5-0.224 0.5-0.5v-0.5h2v12h-2v-0.5c0-0.276-0.224-0.5-0.5-0.5h-1c-0.276 0-0.5 0.224-0.5 0.5v0.5h-8v-0.5c0-0.276-0.224-0.5-0.5-0.5h-1c-0.276 0-0.5 0.224-0.5 0.5v0.5h-2zm2.5 3c-0.276 0-0.5 0.224-0.5 0.5v1c0 0.276 0.224 0.5 0.5 0.5h1c0.276 0 0.5-0.224 0.5-0.5v-1c0-0.276-0.224-0.5-0.5-0.5zm10 0c-0.276 0-0.5 0.224-0.5 0.5v1c0 0.276 0.224 0.5 0.5 0.5h1c0.276 0 0.5-0.224 0.5-0.5v-1c0-0.276-0.224-0.5-0.5-0.5zm-10 4c-0.276 0-0.5 0.224-0.5 0.5v1c0 0.276 0.224 0.5 0.5 0.5h1c0.276 0 0.5-0.224 0.5-0.5v-1c0-0.276-0.224-0.5-0.5-0.5zm10 0c-0.276 0-0.5 0.224-0.5 0.5v1c0 0.276 0.224 0.5 0.5 0.5h1c0.276 0 0.5-0.224 0.5-0.5v-1c0-0.276-0.224-0.5-0.5-0.5z" fill="#49b3ff" style="mix-blend-mode:normal"/>
</svg>
