<!-- Uploaded to: SVG Repo, www.svgrepo.com, Generator: SVG Repo Mixer Tools -->
<svg width="22" height="22" fill="#000000" version="1.1" viewBox="0 0 1.54 1.54" xmlns="http://www.w3.org/2000/svg">
 <path d="m0.77 1.3229c0.01476 0 0.028386-0.0017 0.043711-0.00284l0.032925 0.062444c0.00624 0.012488 0.018733 0.019299 0.034063 0.01703 0.014191-0.00284 0.02441-0.013055 0.026113-0.028386l0.010219-0.068689c0.027815-0.00738 0.055632-0.018166 0.08288-0.030087l0.051092 0.045981c0.010786 0.010219 0.02441 0.012491 0.0386 0.00454 0.012491-0.00681 0.017599-0.020435 0.01476-0.035195l-0.014191-0.068116c0.023274-0.016463 0.04655-0.035195 0.067552-0.0562l0.063581 0.026682c0.014196 0.00567 0.027251 0.00284 0.038041-0.010219 0.00965-0.010219 0.010776-0.024978 0.00284-0.037468l-0.036901-0.059039c0.017032-0.023841 0.030656-0.049388 0.043713-0.076634l0.069256 0.00341c0.014755 5.667e-4 0.027241-0.00738 0.032357-0.021571 0.00453-0.014193 0-0.027817-0.011929-0.036901l-0.053925-0.043147c0.00738-0.027251 0.013055-0.056769 0.015322-0.087422l0.065848-0.020435c0.014196-0.00511 0.023276-0.015896 0.023276-0.031224 0-0.01476-0.00908-0.025545-0.023276-0.030653l-0.065848-0.021007c-0.00227-0.030653-0.00794-0.059036-0.015322-0.086853l0.053921-0.043709c0.011929-0.00852 0.016463-0.021574 0.011929-0.035764-0.00512-0.014194-0.017602-0.02214-0.032357-0.021574l-0.069256 0.00284c-0.013058-0.027249-0.026682-0.052794-0.043713-0.076635l0.036901-0.059039c0.00794-0.011921 0.00681-0.026682-0.00284-0.036901-0.01079-0.013055-0.023846-0.016463-0.038041-0.010216l-0.063581 0.025547c-0.021002-0.019871-0.044277-0.039174-0.067552-0.055634l0.014191-0.067554c0.00284-0.015327-0.00227-0.028952-0.01476-0.035764-0.014191-0.00738-0.027815-0.00624-0.0386 0.00511l-0.051092 0.044848c-0.027248-0.011922-0.055063-0.021574-0.08288-0.029521l-0.010219-0.068689c-0.0017-0.01476-0.011921-0.025545-0.026113-0.027817-0.015329-0.00227-0.027817 0.00397-0.034063 0.016463l-0.032925 0.062446c-0.015327-0.00114-0.028952-0.00227-0.043711-0.00227-0.015327 0-0.028952 0.00114-0.044846 0.00227l-0.032357-0.062446c-0.00625-0.012488-0.018735-0.018733-0.034629-0.016463-0.014194 0.00227-0.023843 0.013058-0.026116 0.027817l-0.00965 0.068121c-0.028386 0.00851-0.0562 0.018166-0.082882 0.030087l-0.051089-0.044848c-0.011355-0.011355-0.024978-0.012491-0.038603-0.00511-0.012488 0.00681-0.017599 0.020438-0.01476 0.035764l0.014191 0.067554c-0.023841 0.016461-0.047116 0.035762-0.068121 0.055634l-0.06301-0.025547c-0.014193-0.00625-0.027817-0.00284-0.038603 0.010216-0.00908 0.010219-0.010216 0.024979-0.00284 0.036333l0.037465 0.059607c-0.01703 0.023843-0.030653 0.049386-0.043709 0.076636l-0.069827-0.00284c-0.014758-5.668e-4 -0.027248 0.00738-0.03179 0.021574-0.00454 0.014191-5.667e-4 0.027248 0.011355 0.035764l0.054497 0.043709c-0.00738 0.027817-0.013624 0.0562-0.015327 0.086853l-0.065851 0.021007c-0.01476 0.00454-0.022707 0.015325-0.022707 0.030653 0 0.015327 0.00795 0.026113 0.022707 0.031224l0.065851 0.021002c0.0017 0.030087 0.00795 0.059605 0.015327 0.086856l-0.054497 0.043142c-0.011921 0.00908-0.015896 0.022707-0.011355 0.036901 0.00454 0.014191 0.017032 0.022138 0.03179 0.021571l0.069827-0.00341c0.013055 0.027246 0.02668 0.052795 0.043142 0.076634l-0.036333 0.059039c-0.00852 0.012488-0.00738 0.027248 0.00227 0.037468 0.010785 0.013058 0.02441 0.015894 0.038602 0.010219l0.06301-0.026682c0.021007 0.021004 0.04428 0.039738 0.068121 0.0562l-0.014191 0.068121c-0.00284 0.01476 0.00227 0.028386 0.01476 0.035195 0.014191 0.00795 0.027815 0.00568 0.038603-0.00454l0.050523-0.045981c0.027248 0.011921 0.055063 0.022707 0.083449 0.030087l0.00965 0.068689c0.00227 0.015329 0.011921 0.025547 0.026116 0.028386 0.015894 0.00227 0.028383-0.00454 0.034629-0.01703l0.032357-0.062444c0.015327 0.00113 0.029518 0.00284 0.044846 0.00284zm0.14249-0.58926c-0.026682-0.071528-0.078906-0.1107-0.14419-0.1107-0.00965 0-0.021002 0.00114-0.039169 0.00511l-0.16293-0.27817c0.060742-0.030087 0.13-0.04655 0.2038-0.04655 0.24752 0 0.44166 0.1879 0.45925 0.43029zm-0.60345 0.036333c0-0.15782 0.074367-0.29689 0.19188-0.38092l0.16406 0.27986c-0.030653 0.031791-0.044846 0.06642-0.044846 0.10332 0 0.035764 0.013624 0.068692 0.044846 0.10162l-0.16803 0.27475c-0.11467-0.084583-0.1879-0.22196-0.1879-0.37865zm0.39113 0.0017c0-0.0386 0.032925-0.068689 0.069258-0.068689 0.038603 0 0.070393 0.030087 0.070393 0.068689 0 0.038034-0.031791 0.069258-0.070393 0.069258-0.036333 0-0.069258-0.031224-0.069258-0.069258zm0.069824 0.46492c-0.075499 0-0.14589-0.017596-0.20777-0.048251l0.1669-0.27306c0.017596 0.00454 0.029518 0.00568 0.039169 0.00568 0.065851 0 0.11808-0.040306 0.14419-0.11354h0.31677c-0.018171 0.24125-0.21232 0.42916-0.45925 0.42916z" fill="#dadada" stroke-width=".024222"/>
</svg>
