<svg viewBox="0 0 22 22" fill="none" xmlns="http://www.w3.org/2000/svg" id="Desktop--Streamline-Radix.svg" height="22" width="22"><desc>Desktop Streamline Icon: https://streamlinehq.com</desc><path fill-rule="evenodd" clip-rule="evenodd" d="M1.4666666666666666 4.766666666666667c0 -0.20250266666666664 0.164164 -0.36666666666666664 0.36666666666666664 -0.36666666666666664h18.333333333333332c0.20254666666666665 0 0.36666666666666664 0.164164 0.36666666666666664 0.36666666666666664v11c0 0.20254666666666665 -0.16412 0.36666666666666664 -0.36666666666666664 0.36666666666666664H1.8333333333333333c-0.20250266666666664 0 -0.36666666666666664 -0.16412 -0.36666666666666664 -0.36666666666666664v-11ZM1.8333333333333333 2.933333333333333C0.8208097333333333 2.933333333333333 0 3.754138666666666 0 4.766666666666667v11C0 16.779253333333333 0.8208112 17.599999999999998 1.8333333333333333 17.599999999999998h5.607667999999999l-0.3571333333333333 1.9046133333333333c-0.09307466666666667 0.49646666666666667 0.2877746666666666 0.9553866666666666 0.7928506666666665 0.9553866666666666h6.246562666666666c0.5050906666666667 0 0.8859986666666666 -0.45892 0.7928653333333333 -0.9553866666666666L14.558998666666664 17.599999999999998H20.166666666666664c1.0125866666666665 0 1.8333333333333333 -0.8207466666666666 1.8333333333333333 -1.8333333333333333v-11C22 3.754138666666666 21.17925333333333 2.933333333333333 20.166666666666664 2.933333333333333H1.8333333333333333Zm11.382667999999999 14.666666666666666H8.783998666666665l-0.28874266666666665 1.54h5.009488L13.216001333333333 17.599999999999998Z" fill="#dadada" stroke-width="1"></path></svg>