<?xml version="1.0" encoding="UTF-8" standalone="no"?>
<svg
   width="19"
   height="16"
   viewBox="0 0 19 16"
   fill="none"
   version="1.1"
   id="svg2"
   sodipodi:docname="window-new.svg"
   inkscape:version="1.4 (e7c3feb100, 2024-10-09)"
   xmlns:inkscape="http://www.inkscape.org/namespaces/inkscape"
   xmlns:sodipodi="http://sodipodi.sourceforge.net/DTD/sodipodi-0.dtd"
   xmlns="http://www.w3.org/2000/svg"
   xmlns:svg="http://www.w3.org/2000/svg">
  <defs
     id="defs2" />
  <sodipodi:namedview
     id="namedview2"
     pagecolor="#505050"
     bordercolor="#eeeeee"
     borderopacity="1"
     inkscape:showpageshadow="0"
     inkscape:pageopacity="0"
     inkscape:pagecheckerboard="0"
     inkscape:deskcolor="#505050"
     inkscape:zoom="22.627417"
     inkscape:cx="13.479223"
     inkscape:cy="13.545514"
     inkscape:window-width="1920"
     inkscape:window-height="1015"
     inkscape:window-x="0"
     inkscape:window-y="0"
     inkscape:window-maximized="1"
     inkscape:current-layer="svg2" />
  <g
     id="g3"
     transform="translate(0.039515,-1.2387693)">
    <path
       d="m 2.2838285,1.239145 c -1.2463267,0 -2.27148435,1.0251576 -2.27148435,2.2714844 V 13.729379 c 10e-9,1.246327 1.02515765,2.271485 2.27148435,2.271485 H 15.908829 c 1.246327,0 2.271484,-1.025158 2.271484,-2.271485 v -2.703125 c 0,0 -0.412144,0.396485 -1.361328,0.396485 v 2.30664 c 0,0.515029 -0.395128,0.908204 -0.910156,0.908204 H 2.2838285 c -0.5150287,0 -0.908203,-0.393175 -0.9082031,-0.908204 V 3.5106294 c 0,-0.5150288 0.3931744,-0.9101562 0.9082031,-0.9101563 H 9.1685942 C 9.2447928,2.1232253 9.3823359,1.6682777 9.5689848,1.239145 Z"
       style="fill:#dadada;stroke-width:1.13548"
       id="path4" />
    <path
       d="M 14.382233,8.8709955 V 1.2387693 h 1.51859 V 8.8709955 Z M 11.328247,5.811333 V 4.2927884 h 7.632238 V 5.811333 Z"
       fill="#dadada"
       id="path2"
       style="stroke-width:1.13548" />
  </g>
</svg>
