<svg width="30px" height="30px" version="1.1" viewBox="0 0 256 256" xmlns="http://www.w3.org/2000/svg">
 <path transform="matrix(6.4443 0 0 6.4443 31.337 31.37)" d="m24.939 2.7461c-0.3894-0.00375-0.74557 0.21886-0.91281 0.57054-0.16724 0.35167-0.11515 0.76845 0.13352 1.0681 2.3982 2.9831 3.8398 6.755 3.8398 10.871 0 3.8979-1.3024 7.4796-3.4785 10.387-0.33116 0.44226-0.24109 1.0692 0.20117 1.4004 0.44226 0.33116 1.0692 0.24109 1.4004-0.20117 2.4199-3.2329 3.877-7.2418 3.877-11.586 0-4.5839-1.6115-8.8041-4.2812-12.125-0.18755-0.24032-0.47447-0.38198-0.7793-0.38477zm-4.9023 2.9004c-0.38881-0.00844-0.74726 0.20929-0.919 0.55822s-0.12563 0.76578 0.11822 1.0687c1.7271 2.2098 2.7637 4.9703 2.7637 7.9824 0 2.7993-0.89419 5.3811-2.4062 7.5078-0.22386 0.29028-0.27097 0.67976-0.12279 1.015 0.14819 0.33528 0.46792 0.56262 0.83327 0.59248s0.71776-0.14255 0.91842-0.44932c1.7399-2.4472 2.7773-5.4393 2.7773-8.666 0-3.4719-1.2006-6.6707-3.1875-9.2129-0.18433-0.24367-0.46993-0.3897-0.77539-0.39648zm-9.0371 1.3535-4.207 4h-3.793c-1.657 0-3 1.343-3 3v2c0 1.657 1.343 3 3 3h3.793l4.207 4zm3.7383 1.5918c-0.4063-0.0087-0.77747 0.22933-0.93905 0.60222-0.16159 0.37289-0.08146 0.80648 0.20273 1.097 1.2375 1.2965 1.998 3.0371 1.998 4.9648 0 1.7232-0.60744 3.298-1.6191 4.541-0.23899 0.2756-0.30896 0.65946-0.18259 1.0017s0.42904 0.58845 0.78979 0.64257 0.72236-0.09247 0.94358-0.38252c1.2883-1.5829 2.0684-3.6079 2.0684-5.8027 0-2.4563-0.97628-4.6962-2.5508-6.3457-0.18421-0.19784-0.44067-0.31268-0.71094-0.31836z" fill="#fff" fill-opacity=".8" style="mix-blend-mode:normal"/>
</svg>
