<svg width="30" height="30" version="1.1" xmlns="http://www.w3.org/2000/svg">
 <defs>
  <style id="current-color-scheme" type="text/css">.ColorScheme-Text { color:#ffffff; } .ColorScheme-Highlight { color:#4285f4; }</style>
 </defs>
 <g transform="translate(.3387 .25394)" fill="#fff">
  <path transform="matrix(.75468 0 0 .75468 3.6664 3.6833)" d="m16.99 9.9901c-0.40692 1.1e-4 -0.77338 0.2467-0.9265 0.62371s-0.06129 0.80832 0.23033 1.0921l3.2919 3.2945-3.2919 3.2919c-0.26124 0.25082-0.36828 0.62265-0.27692 0.97309s0.36644 0.62552 0.71688 0.71688 0.72227-0.01309 0.97309-0.27433l3.2945-3.2945 3.2919 3.2945c0.25082 0.26124 0.62265 0.36569 0.97309 0.27433s0.62552-0.36644 0.71688-0.71688-0.01568-0.72227-0.27692-0.97309l-3.2919-3.2919 3.2919-3.2945c0.29576-0.28749 0.38592-0.72524 0.22516-1.1051-0.16075-0.37985-0.53751-0.62293-0.9498-0.61077-0.2598 0.00774-0.50729 0.11639-0.68841 0.3028l-3.2919 3.2919-3.2945-3.2919c-0.18827-0.19353-0.44688-0.30279-0.71688-0.3028z" style="mix-blend-mode:normal"/>
  <path transform="translate(-.011104 -.0039)" d="m11.979 8.9629-3.1758 3.0215h-2.8652c-1.2514 0-2.2656 1.0123-2.2656 2.2637v1.5117c0 1.2514 1.0143 2.2656 2.2656 2.2656h2.8652l3.1758 3.0195z"/>
 </g>
</svg>
