<svg width="30" height="30" version="1.1" xmlns="http://www.w3.org/2000/svg">
 <defs>
  <style id="current-color-scheme" type="text/css">.ColorScheme-Text { color:#ffffff; } .ColorScheme-Highlight { color:#4285f4; }</style>
 </defs>
 <g transform="translate(0 -.00010643)" fill="#fff">
  <path d="m22.506 5.75c-0.29407-0.00283-0.56316 0.16605-0.68945 0.43164-0.1263 0.26558-0.08623 0.58035 0.10156 0.80664 1.8111 2.2528 2.9004 5.1006 2.9004 8.209 0 2.9437-0.98358 5.6481-2.627 7.8438-0.25009 0.33399-0.1836 0.80847 0.15039 1.0586 0.33399 0.25009 0.80847 0.18165 1.0586-0.15234 1.8275-2.4415 2.9277-5.4693 2.9277-8.75 0-3.4617-1.2163-6.6483-3.2324-9.1563-0.14164-0.18149-0.35964-0.28891-0.58984-0.29102z" opacity=".3"/>
  <path d="m18.805 7.9414c-0.29362-0.00637-0.56562 0.15641-0.69531 0.41992-0.1297 0.26351-0.09431 0.57983 0.08984 0.80859 1.3043 1.6688 2.0879 3.7526 2.0879 6.0273 0 2.114-0.6765 4.0639-1.8184 5.6699-0.16906 0.21922-0.2037 0.51246-0.0918 0.76562 0.11191 0.2532 0.353 0.42667 0.62891 0.44922s0.54182-0.10817 0.69336-0.33984c1.314-1.8481 2.0977-4.1081 2.0977-6.5449 0-2.6219-0.90771-5.0372-2.4082-6.957-0.1392-0.18402-0.3533-0.29371-0.58398-0.29883z"/>
  <path d="m14.803 10.164c-0.30683-0.0066-0.58696 0.17347-0.70898 0.45508-0.12203 0.2816-0.06227 0.60873 0.15234 0.82812 0.93455 0.9791 1.5098 2.2942 1.5098 3.75 0 1.3013-0.45866 2.491-1.2227 3.4297-0.18048 0.20813-0.2341 0.4974-0.13867 0.75586s0.32327 0.44546 0.5957 0.48633c0.27244 0.04087 0.54583-0.07002 0.71289-0.28906 0.97291-1.1954 1.5625-2.7253 1.5625-4.3828 0-1.855-0.73672-3.5473-1.9258-4.793-0.13911-0.14941-0.333-0.23594-0.53711-0.24023z"/>
  <path d="m11.979 8.9629-3.1758 3.0215h-2.8652c-1.2514 0-2.2656 1.0123-2.2656 2.2637v1.5117c0 1.2514 1.0143 2.2656 2.2656 2.2656h2.8652l3.1758 3.0195z"/>
 </g>
</svg>
