<?xml version="1.0" encoding="UTF-8" standalone="no"?>
<svg
   width="22"
   height="22"
   version="1.1"
   id="svg2"
   sodipodi:docname="battery-full-charging.svg"
   inkscape:version="1.4 (e7c3feb100, 2024-10-09)"
   xmlns:inkscape="http://www.inkscape.org/namespaces/inkscape"
   xmlns:sodipodi="http://sodipodi.sourceforge.net/DTD/sodipodi-0.dtd"
   xmlns="http://www.w3.org/2000/svg"
   xmlns:svg="http://www.w3.org/2000/svg">
  <sodipodi:namedview
     id="namedview2"
     pagecolor="#505050"
     bordercolor="#eeeeee"
     borderopacity="1"
     inkscape:showpageshadow="0"
     inkscape:pageopacity="0"
     inkscape:pagecheckerboard="0"
     inkscape:deskcolor="#505050"
     inkscape:zoom="32.227272"
     inkscape:cx="13.047955"
     inkscape:cy="6.6248238"
     inkscape:window-width="1920"
     inkscape:window-height="1015"
     inkscape:window-x="0"
     inkscape:window-y="0"
     inkscape:window-maximized="1"
     inkscape:current-layer="svg2" />
  <defs
     id="defs1">
    <style
       id="current-color-scheme"
       type="text/css">.ColorScheme-Text { color:#ffffff; } .ColorScheme-Highlight { color:#4285f4; }</style>
  </defs>
  <g
     id="g39"
     inkscape:label="OG">
    <path
       d="m 11.121,5.5469 -1.8613,2.5117 -2.4688,3.334 h 3.5879 l -0.96875,2.6562 -0.89258,2.4375 1.8652,-2.4375 3.0234,-3.9492 h -3.5918 l 0.58594,-2.041 z M 3.8769,8.0098 c -0.36114,0 -0.65039,0.27222 -0.65039,0.60938 v 4.8691 c 0,0.33716 0.28925,0.60938 0.65039,0.60938 h 4.2852 l 0.60742,-1.5547 h -2.2813 c -0.88183,0 -1.4279,-1.0074 -0.9043,-1.6699 l 2.2598,-2.8633 z m 7.9824,0 -0.28125,0.93945 h 2.3574 c 0.8664,0 1.3959,1.0224 0.87109,1.6816 l -0.01172,0.01367 v 0.002 l -2.75,3.4512 h 4.4375 c 0.35246,0 0.63672,-0.27222 0.63672,-0.60938 v -4.8692 c 0,-0.33716 -0.28426,-0.60938 -0.63672,-0.60938 z"
       fill="#ffffff"
       id="path1"
       style="display:none" />
    <path
       d="m 3.2168,5.668 c -1.1443,0 -2.0664,0.93581 -2.0664,2.1055 v 6.4863 c 0,1.1697 0.9221,2.1074 2.0664,2.1074 h 4 l 0.35156,-0.97461 h -4.3516 c -0.62031,0 -1.1191,-0.50672 -1.1191,-1.1328 v -6.4863 c 0,-0.62609 0.49824,-1.1367 1.1191,-1.1367 h 5.1836 L 9.10348,5.66804 Z m 9.1973,0 -0.26953,0.96875 h 4.8848 c 0.6209,0 1.1172,0.51063 1.1172,1.1367 v 6.4863 c 0,0.62609 -0.49688,1.1328 -1.1172,1.1328 h -5.7852 l -0.72852,0.97461 h 6.5137 c 1.1443,0 2.0684,-0.93789 2.0684,-2.1074 v -6.4863 c 0,-1.1695 -0.92405,-2.1055 -2.0684,-2.1055 z m 7.0703,3.1641 v 4.3711 h 0.75 c 0.50622,-4.9e-5 0.91644,-0.39191 0.91602,-0.875 V 9.7052 C 21.149718,9.22287 20.73982,8.8322 20.2344,8.83215 Z"
       fill="#ffffff"
       id="path2"
       style="display:none" />
  </g>
  <g
     id="g42"
     inkscape:label="Icon"
     transform="translate(-0.15,-0.13342772)">
    <g
       id="g41"
       inkscape:label="outline">
      <path
         d="M 12.533203,6 12.246094,7 H 17 c 0.5523,0 1,0.44772 1,1 v 6 c 0,0.55229 -0.4477,1 -1,1 h -5.080078 l -0.761719,1 H 17 c 1.1046,0 2,-0.89543 2,-2 V 8 C 19,6.895431 18.1046,6 17,6 Z"
         style="clip-rule:evenodd;fill:#ffffff;fill-opacity:1;fill-rule:evenodd"
         id="path32" />
      <path
         d="M 7.0898437,16 7.4550781,15 H 3 C 2.44772,15 2,14.55229 2,14 V 8 C 2,7.44772 2.44772,7 3,7 H 7.9941406 L 8.7324219,6 H 3 C 1.89543,6 1,6.895431 1,8 v 6 c 0,1.10457 0.89543,2 2,2 z"
         style="clip-rule:evenodd;fill:#ffffff;fill-opacity:1;fill-rule:evenodd"
         id="path31" />
    </g>
    <g
       id="g40"
       inkscape:label="fill">
      <path
         d="m 11.960938,8 -0.21875,0.7636719 h 2.02539 c 1.132195,0 1.831347,1.4102991 1.144531,2.3105471 L 12.681641,14 H 16.5 c 0.2761,0 0.5,-0.22386 0.5,-0.5 v -5 C 17,8.22386 16.7761,8 16.5,8 Z"
         style="fill:#ffffff;opacity:0.55"
         id="path34" />
      <path
         d="M 7.8183594,14 8.0898438,13.253906 H 6.2324219 c -1.124192,0 -1.8248642,-1.386054 -1.1582032,-2.291015 L 7.2578125,8 H 3.5 C 3.22386,8 3,8.22386 3,8.5 v 5 C 3,13.77614 3.22386,14 3.5,14 Z"
         style="fill:#ffffff;opacity:0.55"
         id="path33" />
    </g>
    <path
       d="m 19.5,9 h 0.8 c 0.5523,0 1,0.44772 1,1 v 2.2 c 0,0.55228 -0.4477,1 -1,1 h -0.8 z"
       fill="#ffffff"
       fill-opacity="0.7"
       id="path3"
       inkscape:label="cap"
       style="fill:#ffffff;fill-opacity:1" />
    <path
       d="m 31.498047,17.054687 c -0.286,0 -0.57411,0.12411 -0.78711,0.41211 L 21.173828,30.40625 C 20.686828,31.06625 21.158516,32 21.978516,32 h 5.839843 l -3.576172,9.830078 c -0.271,0.745 0.331985,1.349609 0.958985,1.349609 0.28,0 0.563344,-0.121343 0.777344,-0.402343 L 36.775391,28.605469 C 37.277391,27.947469 36.808469,27 35.980469,27 H 30 l 2.476562,-8.666016 c 0.207,-0.727 -0.375515,-1.279297 -0.978515,-1.279297 z"
       style="display:none;mix-blend-mode:normal;fill:#ffffff;fill-opacity:1;stroke-width:1.85807;stroke-dasharray:none"
       id="path2-5"
       inkscape:label="charge rounded"
       transform="matrix(0.53819194,0,0,0.53819194,-5.5965351,-5.2088274)" />
    <path
       d="m 31.456864,18.473608 c -0.0028,0.0012 -0.0086,0.0085 -0.02903,0.03629 l -2.072187,2.808884 -1.368152,1.858074 -1.368151,1.858073 -4.728651,6.41253 c -0.06828,0.09253 -0.05666,0.116129 0.05806,0.116129 h 7.163744 l -1.68025,4.61978 -0.675003,1.858073 -0.675004,1.858073 -0.997988,2.739932 c -0.03222,0.0886 -0.01855,0.03939 -0.0036,0.05806 0.01492,0.01867 0.07585,0.04355 0.09073,0.04355 0.01159,0 -0.0127,0.03644 0.03992,-0.03266 l 2.141139,-2.808884 1.4117,-1.858073 1.415329,-1.858073 5.828253,-7.650036 c 0.07191,-0.09426 0.06121,-0.1125 -0.05806,-0.1125 h -7.210921 l 0.968957,-3.385903 0.529841,-1.858073 0.53347,-1.858074 0.783875,-2.74719 c 0.02368,-0.08315 0.01349,-0.03861 0,-0.05444 -0.01349,-0.01583 -0.06924,-0.03992 -0.0871,-0.03992 -0.0082,0 -0.0081,-0.0048 -0.01089,-0.0036 z"
       style="display:none;fill:#ffffff"
       id="path18"
       transform="matrix(0.53819194,0,0,0.53819194,-5.5965351,-5.2088274)" />
    <path
       d="m 31.456864,18.473608 c -0.0028,0.0012 -0.0086,0.0085 -0.02903,0.03629 l -2.072187,2.808884 -1.368152,1.858074 -1.368151,1.858073 -4.728651,6.41253 c -0.06828,0.09253 -0.05666,0.116129 0.05806,0.116129 h 7.163744 l -1.68025,4.61978 -0.675003,1.858073 -0.675004,1.858073 -0.997988,2.739932 c -0.03222,0.0886 -0.01855,0.03939 -0.0036,0.05806 0.01492,0.01867 0.07585,0.04355 0.09073,0.04355 0.01159,0 -0.0127,0.03644 0.03992,-0.03266 l 2.141139,-2.808884 1.4117,-1.858073 1.415329,-1.858073 5.828253,-7.650036 c 0.07191,-0.09426 0.06121,-0.1125 -0.05806,-0.1125 h -7.210921 l 0.968957,-3.385903 0.529841,-1.858073 0.53347,-1.858074 0.783875,-2.74719 c 0.02368,-0.08315 0.01349,-0.03861 0,-0.05444 -0.01349,-0.01583 -0.06924,-0.03992 -0.0871,-0.03992 -0.0082,0 -0.0081,-0.0048 -0.01089,-0.0036 z"
       style="display:inline;fill:#ffffff"
       id="path35"
       transform="matrix(0.53819194,0,0,0.53819194,-5.5965351,-5.2088274)" />
    <g
       id="g1"
       transform="matrix(0.53819194,0,0,0.53819194,-5.5965351,-5.2088274)"
       style="display:inline"
       inkscape:label="Charge" />
  </g>
</svg>
