<?xml version="1.0" encoding="UTF-8" standalone="no"?>
<svg
   width="22"
   height="22"
   version="1.1"
   id="svg1"
   sodipodi:docname="battery-full.svg"
   inkscape:version="1.4 (e7c3feb100, 2024-10-09)"
   xmlns:inkscape="http://www.inkscape.org/namespaces/inkscape"
   xmlns:sodipodi="http://sodipodi.sourceforge.net/DTD/sodipodi-0.dtd"
   xmlns="http://www.w3.org/2000/svg"
   xmlns:svg="http://www.w3.org/2000/svg">
  <sodipodi:namedview
     id="namedview1"
     pagecolor="#505050"
     bordercolor="#eeeeee"
     borderopacity="1"
     inkscape:showpageshadow="0"
     inkscape:pageopacity="0"
     inkscape:pagecheckerboard="0"
     inkscape:deskcolor="#505050"
     inkscape:zoom="11.313709"
     inkscape:cx="-4.0216698"
     inkscape:cy="17.36831"
     inkscape:window-width="1920"
     inkscape:window-height="1015"
     inkscape:window-x="0"
     inkscape:window-y="0"
     inkscape:window-maximized="1"
     inkscape:current-layer="svg1" />
  <defs
     id="defs1">
    <style
       id="current-color-scheme"
       type="text/css">
   .ColorScheme-Text { color:#ffffff; } .ColorScheme-Highlight { color:#4285f4; }
  </style>
    <inkscape:path-effect
       effect="fillet_chamfer"
       id="path-effect49"
       is_visible="true"
       lpeversion="1"
       nodesatellites_param="F,0,0,1,0,0,0,1 @ F,0,0,1,0,1.0449696,0,1 @ F,0,0,1,0,1.0449696,0,1 @ F,0,0,1,0,0,0,1"
       radius="1.0449696"
       unit="px"
       method="auto"
       mode="F"
       chamfer_steps="1"
       flexible="false"
       use_knot_distance="true"
       apply_no_radius="true"
       apply_with_radius="true"
       only_selected="false"
       hide_knots="false" />
    <inkscape:path-effect
       effect="fillet_chamfer"
       id="path-effect49-9"
       is_visible="true"
       lpeversion="1"
       nodesatellites_param="F,0,0,1,0,0,0,1 @ F,0,0,1,0,1.0449696,0,1 @ F,0,0,1,0,1.0449696,0,1 @ F,0,0,1,0,0,0,1"
       radius="1.0449696"
       unit="px"
       method="auto"
       mode="F"
       chamfer_steps="1"
       flexible="false"
       use_knot_distance="true"
       apply_no_radius="true"
       apply_with_radius="true"
       only_selected="false"
       hide_knots="false" />
  </defs>
  <g
     id="g42"
     inkscape:label="Icon"
     transform="translate(-0.14980469,-7.049e-4)">
    <g
       id="g41"
       inkscape:label="outline">
      <path
         d="m 2.9996094,6.0007048 c -1.10457,0 -2.00000002,0.895431 -2.00000002,2 v 6.0000002 c 0,1.10457 0.89543002,2 2.00000002,2 h 3.0058594 1.0839843 4.0683599 2.515625 3.326171 c 1.1046,0 2,-0.89543 2,-2 V 8.0007048 c 0,-1.104569 -0.8954,-2 -2,-2 H 13.364844 12.532813 8.7320313 6.8453125 Z m 0,1 h 3.8457031 1.1484375 4.251953 1.119141 3.634765 c 0.5523,0 1,0.44772 1,1 v 6.0000002 c 0,0.55229 -0.4477,1 -1,1 H 13.673438 11.919531 7.4546875 6.0054688 2.9996094 c -0.55228,0 -1,-0.44771 -1,-1 V 8.0007048 c 0,-0.55228 0.44772,-1 1,-1 z"
         style="clip-rule:evenodd;fill:#ffffff;fill-opacity:0.7;fill-rule:evenodd"
         id="path4" />
    </g>
    <g
       id="g40"
       inkscape:label="fill">
      <path
         d="m 3.4996094,8.0007048 c -0.27614,0 -0.5,0.22386 -0.5,0.5 v 5.0000002 c 0,0.27614 0.22386,0.5 0.5,0.5 h 0.6269531 3.6914063 4.8632812 3.818359 c 0.2761,0 0.5,-0.22386 0.5,-0.5 V 8.5007048 c 0,-0.27614 -0.2239,-0.5 -0.5,-0.5 H 11.960547 7.2574219 4.1265625 Z"
         style="fill:#ffffff"
         id="path3" />
    </g>
    <path
       d="m 19.5,9 h 0.8 c 0.5523,0 1,0.44772 1,1 v 2.2 c 0,0.55228 -0.4477,1 -1,1 h -0.8 z"
       fill="#ffffff"
       fill-opacity="0.7"
       id="path3-5"
       inkscape:label="cap" />
    <path
       d="m 31.498047,17.054687 c -0.286,0 -0.57411,0.12411 -0.78711,0.41211 L 21.173828,30.40625 C 20.686828,31.06625 21.158516,32 21.978516,32 h 5.839843 l -3.576172,9.830078 c -0.271,0.745 0.331985,1.349609 0.958985,1.349609 0.28,0 0.563344,-0.121343 0.777344,-0.402343 L 36.775391,28.605469 C 37.277391,27.947469 36.808469,27 35.980469,27 H 30 l 2.476562,-8.666016 c 0.207,-0.727 -0.375515,-1.279297 -0.978515,-1.279297 z"
       style="display:none;mix-blend-mode:normal;fill:#ffffff;fill-opacity:1;stroke-width:1.85807;stroke-dasharray:none"
       id="path2-5"
       inkscape:label="charge rounded"
       transform="matrix(0.53819194,0,0,0.53819194,-5.5965351,-5.2088274)" />
    <path
       d="m 31.456864,18.473608 c -0.0028,0.0012 -0.0086,0.0085 -0.02903,0.03629 l -2.072187,2.808884 -1.368152,1.858074 -1.368151,1.858073 -4.728651,6.41253 c -0.06828,0.09253 -0.05666,0.116129 0.05806,0.116129 h 7.163744 l -1.68025,4.61978 -0.675003,1.858073 -0.675004,1.858073 -0.997988,2.739932 c -0.03222,0.0886 -0.01855,0.03939 -0.0036,0.05806 0.01492,0.01867 0.07585,0.04355 0.09073,0.04355 0.01159,0 -0.0127,0.03644 0.03992,-0.03266 l 2.141139,-2.808884 1.4117,-1.858073 1.415329,-1.858073 5.828253,-7.650036 c 0.07191,-0.09426 0.06121,-0.1125 -0.05806,-0.1125 h -7.210921 l 0.968957,-3.385903 0.529841,-1.858073 0.53347,-1.858074 0.783875,-2.74719 c 0.02368,-0.08315 0.01349,-0.03861 0,-0.05444 -0.01349,-0.01583 -0.06924,-0.03992 -0.0871,-0.03992 -0.0082,0 -0.0081,-0.0048 -0.01089,-0.0036 z"
       style="display:none;fill:#ffffff"
       id="path18"
       transform="matrix(0.53819194,0,0,0.53819194,-5.5965351,-5.2088274)" />
    <g
       id="g2"
       transform="matrix(0.53819194,0,0,0.53819194,-5.5965351,-5.2088274)"
       style="display:inline"
       inkscape:label="Charge" />
  </g>
</svg>
