<svg width="22" height="22" version="1.1" xmlns="http://www.w3.org/2000/svg">
 <defs>
  <style id="current-color-scheme" type="text/css">.ColorScheme-Text { color:#ffffff; } .ColorScheme-Highlight { color:#4285f4; }</style>
 </defs>
 <g transform="translate(-.1498 -.0007049)">
  <path d="m2.9996 6.0007c-1.1046 0-2 0.89543-2 2v6c0 1.1046 0.89543 2 2 2h14c1.1046 0 2-0.89543 2-2v-6c0-1.1046-0.8954-2-2-2h-10.154zm0 1h14c0.5523 0 1 0.44772 1 1v6c0 0.55229-0.4477 1-1 1h-14c-0.55228 0-1-0.44771-1-1v-6c0-0.55228 0.44772-1 1-1z" clip-rule="evenodd" fill="#fff" fill-rule="evenodd"/>
  <path d="m3.4994 8.0007c-0.27614 0-0.5 0.22386-0.5 0.5v5c0 0.27614 0.22386 0.5 0.5 0.5h9.1504c0.2761 0 0.5-0.22386 0.5-0.5v-5c0-0.27614-0.2239-0.5-0.5-0.5h-4.5391z" fill="#fff"/>
  <g fill="#fff">
   <path d="m19.5 9h0.8c0.5523 0 1 0.44772 1 1v2.2c0 0.55228-0.4477 1-1 1h-0.8z"/>
   <path transform="matrix(.53819 0 0 .53819 -5.5965 -5.2088)" d="m31.498 17.055c-0.286 0-0.57411 0.12411-0.78711 0.41211l-9.5371 12.939c-0.487 0.66-0.015312 1.5938 0.80469 1.5938h5.8398l-3.5762 9.8301c-0.271 0.745 0.33198 1.3496 0.95898 1.3496 0.28 0 0.56334-0.12134 0.77734-0.40234l10.797-14.172c0.502-0.658 0.033078-1.6055-0.79492-1.6055h-5.9805l2.4766-8.666c0.207-0.727-0.37552-1.2793-0.97852-1.2793z" display="none" stroke-width="1.8581" style="mix-blend-mode:normal"/>
   <path transform="matrix(.53819 0 0 .53819 -5.5965 -5.2088)" d="m31.457 18.474c-0.0028 0.0012-0.0086 0.0085-0.02903 0.03629l-2.0722 2.8089-2.7363 3.7161-4.7287 6.4125c-0.06828 0.09253-0.05666 0.11613 0.05806 0.11613h7.1637l-1.6802 4.6198-1.35 3.7161-0.99799 2.7399c-0.03222 0.0886-0.01855 0.03939-0.0036 0.05806 0.01492 0.01867 0.07585 0.04355 0.09073 0.04355 0.01159 0-0.0127 0.03644 0.03992-0.03266l2.1411-2.8089 1.4117-1.8581 1.4153-1.8581 5.8283-7.65c0.07191-0.09426 0.06121-0.1125-0.05806-0.1125h-7.2109l0.96896-3.3859 0.52984-1.8581 0.53347-1.8581 0.78388-2.7472c0.02368-0.08315 0.01349-0.03861 0-0.05444s-0.06924-0.03992-0.0871-0.03992c-0.0082 0-0.0081-0.0048-0.01089-0.0036z" display="none"/>
  </g>
 </g>
</svg>
