<?xml version="1.0" encoding="UTF-8" standalone="no"?>
<svg
   width="22"
   height="22"
   version="1.1"
   id="svg1"
   sodipodi:docname="bluetooth-disabled.svg"
   inkscape:version="1.3.2 (091e20ef0f, 2023-11-25, custom)"
   xmlns:inkscape="http://www.inkscape.org/namespaces/inkscape"
   xmlns:sodipodi="http://sodipodi.sourceforge.net/DTD/sodipodi-0.dtd"
   xmlns="http://www.w3.org/2000/svg"
   xmlns:svg="http://www.w3.org/2000/svg">
  <sodipodi:namedview
     id="namedview1"
     pagecolor="#505050"
     bordercolor="#eeeeee"
     borderopacity="1"
     inkscape:showpageshadow="0"
     inkscape:pageopacity="0"
     inkscape:pagecheckerboard="0"
     inkscape:deskcolor="#505050"
     inkscape:zoom="36.090909"
     inkscape:cx="10.986146"
     inkscape:cy="11"
     inkscape:window-width="1920"
     inkscape:window-height="1008"
     inkscape:window-x="0"
     inkscape:window-y="0"
     inkscape:window-maximized="1"
     inkscape:current-layer="svg1" />
  <defs
     id="defs1">
    <style
       id="current-color-scheme"
       type="text/css">.ColorScheme-Text { color:#ffffff; } .ColorScheme-Highlight { color:#4285f4; }</style>
  </defs>
  <path
     class="ColorScheme-Text"
     fill="currentColor"
     d="m10.5 4c-0.277 0-0.5 0.223-0.5 0.5v3.6543l1 0.86328v-2.9551l2.0938 1.875-1.6699 1.4453 1.1543 0.99805 2.1094-1.8496a0.78 0.78 0 0 0 0.21875-0.375 0.712 0.712 0 0 0 0-0.4375 0.78 0.78 0 0 0-0.21875-0.375l-3.5312-3.1562c-0.199-0.16-0.42725-0.1875-0.65625-0.1875zm-2.748 3.7012c-0.18438 0.018375-0.3635 0.11058-0.5 0.26758a0.753 0.753 0 0 0 0.060547 1.0625l2.25 1.9688-2.25 1.9688a0.753 0.753 0 0 0-0.0625 1.0625c0.274 0.313 0.71925 0.36675 1.0312 0.09375l1.7207-1.5v4.875c0 0.277 0.222 0.5 0.5 0.5 0.282 0 0.4363-0.0195 0.6543-0.1875l3.5312-3.1562a0.78 0.78 0 0 0 0.21875-0.375 0.745 0.745 0 0 0 0.03125-0.28125 0.723 0.723 0 0 0-0.03125-0.15625 0.78 0.78 0 0 0-0.083984-0.20508 0.78 0.78 0 0 0-0.001954-0.001953l-6.8496-5.9121c-0.072382-0.016362-0.14552-0.030736-0.21875-0.023438zm3.248 4.5488 2.0938 1.8125-2.0938 1.875v-3.6875z"
     opacity=".55"
     id="path1"
     style="opacity:1" />
  <rect
     transform="rotate(40.802)"
     x="4.5146"
     y=".63884"
     width="22"
     height="1"
     rx="0"
     ry="0"
     class="ColorScheme-Text"
     fill="currentColor"
     id="rect1" />
</svg>
