<svg width="22" height="22" version="1.1" xmlns="http://www.w3.org/2000/svg">
 <defs>
  <style id="current-color-scheme" type="text/css">.ColorScheme-Text { color:#ffffff; } .ColorScheme-Highlight { color:#4285f4; }</style>
 </defs>
 <path class="ColorScheme-Text" d="m11 2.9883c-1.662 0-3 1.338-3 3v6.0254c0 1.662 1.338 3 3 3s3-1.338 3-3v-6.0254c0-1.662-1.338-3-3-3zm-4.5 7.0234v2e-3c-0.277 0-0.5 0.223-0.5 0.5v1.5c0 2.6 1.967 4.7246 4.5 4.9746v1.0234h-2c-0.66667 0-0.66667 1 0 1h5c0.66667 0 0.66667-1 0-1h-2v-1.0254c2.5575-0.25141 4.5054-2.4048 4.5-4.9746v-1.5c0-0.66667-1-0.66667-1 0v1.5c0 2.216-1.784 4-4 4s-4-1.784-4-4v-1.5c0-0.277-0.223-0.5-0.5-0.5z" display="none" fill="currentColor"/>
 <rect class="ColorScheme-Text" transform="rotate(45)" x="4.5563" y="-.5" width="22" height="1" rx=".5" ry=".5" display="none" fill="currentColor"/>
 <g transform="matrix(.071412 0 0 .071412 1.8592 2.002)" fill="#fff" font-family="none" font-size="none" font-weight="none" stroke-miterlimit="10" text-anchor="none" style="mix-blend-mode:normal">
  <g transform="scale(4)">
   <path d="m46.639 37.305c0.86494-1.7802 1.3607-3.7375 1.3607-5.805 0-1.104-0.89255-2.0034-1.9965-2.0034s-2.0034 0.89939-2.0034 2.0034c0 1.1142-0.20522 2.1848-0.57435 3.1931z" style=""/>
   <path d="m39.959 44.047-3.4734-2.817c-1.3883 0.49215-2.8978 0.77264-4.4854 0.77264-6.617 0-12-4.7124-12-10.502 0-1.104-0.89939-2.0034-2.0034-2.0034s-1.9965 0.89939-1.9965 2.0034c0 7.3798 6.117 13.476 13.996 14.372v6.1264h-6.9948c-1.104 0-2.0034 0.89938-2.0034 2.0034s0.89939 1.9965 2.0034 1.9965h17.996c1.104 0 2.0034-0.89255 2.0034-1.9965s-0.89939-2.0034-2.0034-2.0034h-6.9948v-6.1264c2.1488-0.24454 4.1567-0.88683 5.9555-1.8256z" style=""/>
   <path d="m32.479 37.975-9.3605-7.5965c0.66688 4.3085 4.3888 7.6238 8.8819 7.6238 0.16208 0 0.31863-0.01884 0.47862-0.02735z" style=""/>
   <path d="m32 7.0013c-4.963 0-8.9981 4.0361-8.9981 8.9981v2.1059l17.388 14.119c0.38743-1.0035 0.60854-2.0889 0.60854-3.2273v-12.998c0-4.962-4.0351-8.9981-8.9981-8.9981z" style=""/>
  </g>
 </g>
 <rect transform="rotate(-50.923)" x="-2.1967" y="5.79" width="1.1829" height="19.367" ry=".59146" fill="#fff" fill-rule="evenodd"/>
</svg>
