<?xml version="1.0" encoding="UTF-8" standalone="no"?>
<svg
   width="22"
   height="22"
   version="1.1"
   id="svg1"
   sodipodi:docname="mic-off.svg"
   inkscape:version="1.3.2 (091e20ef0f, 2023-11-25, custom)"
   xmlns:inkscape="http://www.inkscape.org/namespaces/inkscape"
   xmlns:sodipodi="http://sodipodi.sourceforge.net/DTD/sodipodi-0.dtd"
   xmlns="http://www.w3.org/2000/svg"
   xmlns:svg="http://www.w3.org/2000/svg">
  <sodipodi:namedview
     id="namedview1"
     pagecolor="#505050"
     bordercolor="#eeeeee"
     borderopacity="1"
     inkscape:showpageshadow="0"
     inkscape:pageopacity="0"
     inkscape:pagecheckerboard="0"
     inkscape:deskcolor="#505050"
     inkscape:zoom="36.090909"
     inkscape:cx="10.986146"
     inkscape:cy="11"
     inkscape:window-width="1920"
     inkscape:window-height="1008"
     inkscape:window-x="0"
     inkscape:window-y="0"
     inkscape:window-maximized="1"
     inkscape:current-layer="svg1" />
  <defs
     id="defs1">
    <style
       id="current-color-scheme"
       type="text/css">.ColorScheme-Text { color:#ffffff; } .ColorScheme-Highlight { color:#4285f4; }</style>
  </defs>
  <path
     class="ColorScheme-Text"
     d="m11 2.9883c-1.662 0-3 1.338-3 3v6.0254c0 1.662 1.338 3 3 3 1.662 0 3-1.338 3-3v-6.0254c0-1.662-1.338-3-3-3zm-4.5 7.0234v2e-3c-0.277 0-0.5 0.223-0.5 0.5v1.5c0 2.6 1.967 4.7246 4.5 4.9746v1.0234h-2c-0.66667 0-0.66667 1 0 1h5c0.66667 0 0.66667-1 0-1h-2v-1.0254c2.5575-0.25141 4.5054-2.4048 4.5-4.9746v-1.5c0-0.66667-1-0.66667-1 0v1.5c0 2.216-1.784 4-4 4-2.216 0-4-1.784-4-4v-1.5c0-0.277-0.223-0.5-0.5-0.5z"
     fill="currentColor"
     opacity=".35"
     id="path1"
     style="opacity:1" />
  <rect
     class="ColorScheme-Text"
     transform="rotate(45)"
     x="4.5563"
     y="-.5"
     width="22"
     height="1"
     rx=".5"
     ry=".5"
     fill="currentColor"
     id="rect1" />
</svg>
