<svg width="32px" height="32px" version="1.1" viewBox="0 0 256 256" xmlns="http://www.w3.org/2000/svg">
 <g transform="matrix(.93659 0 0 .93659 8.1171 7.2976)" fill="#fff" font-family="none" font-size="none" font-weight="none" stroke-miterlimit="10" text-anchor="none" style="mix-blend-mode:normal">
  <g transform="scale(8)" fill="#fff">
   <path d="m16 7c-5.0156 0-9.543 2.082-12.812 5.4062l1.4062 1.4062c2.9062-2.9609 6.9414-4.8125 11.406-4.8125s8.5 1.8516 11.406 4.8125l1.4062-1.4062c-3.2695-3.3242-7.7969-5.4062-12.812-5.4062zm0 5c-3.6406 0-6.918 1.5195-9.2812 3.9375l1.4062 1.4062c2-2.0547 4.7891-3.3438 7.875-3.3438s5.875 1.2891 7.875 3.3438l1.4062-1.4062c-2.3633-2.418-5.6406-3.9375-9.2812-3.9375zm0 5c-2.2617 0-4.293 0.95703-5.75 2.4688l1.4062 1.4062c1.0938-1.1484 2.6328-1.875 4.3438-1.875s3.25 0.72656 4.3438 1.875l1.4062-1.4062c-1.4531-1.5117-3.4883-2.4688-5.75-2.4688zm0 5c-0.88281 0-1.668 0.39063-2.2188 1l2.2188 2.2188 2.2188-2.2188c-0.55078-0.60937-1.3359-1-2.2188-1z" fill="#fff"/>
  </g>
 </g>
</svg>
