<svg width="32" height="32" version="1.1" xmlns="http://www.w3.org/2000/svg">
 <defs>
  <style id="current-color-scheme" type="text/css">.ColorScheme-Text { color:#ffffff; } .ColorScheme-Highlight { color:#4285f4; }</style>
 </defs>
 <g transform="matrix(.13021 0 0 .13021 -.66667 -.67752)" fill="#fff">
  <circle cx="128" cy="184.41" r="12" stroke-linecap="square" stroke-width="14.664" style="paint-order:stroke markers fill"/>
  <path d="m128 134.67c16.946 0 32.192 7.1832 43.08 18.51l-10.53 10.53c-8.1955-8.6049-19.73-14.055-32.55-14.055s-24.354 5.4504-32.55 14.055l-10.53-10.53c10.917-11.327 26.134-18.51 43.08-18.51z"/>
  <path d="m128 97.213c-27.278 0-51.833 11.388-69.54 29.505l10.545 10.53c14.985-15.395 35.873-25.065 58.995-25.065 23.122 0 44.01 9.6697 58.995 25.065l10.545-10.53c-17.708-18.117-42.262-29.505-69.54-29.505z" opacity=".25"/>
  <path d="m128 59.756c-37.58 0-71.506 15.593-96 40.5l10.545 10.545c21.775-22.185 52.003-36.06 85.455-36.06 33.452 0 63.696 13.875 85.47 36.06l10.53-10.545c-24.497-24.907-58.423-40.5-96-40.5z" opacity=".25"/>
 </g>
</svg>
