<svg width="32" height="32" version="1.1" viewBox="0 0 170.67 170.67" xmlns="http://www.w3.org/2000/svg">
 <g fill="#fff" stroke-miterlimit="10">
  <path d="m85.333 39.833c-25.054 0-47.671 10.395-64 27l7.0208 7.0312c14.517-14.79 34.678-24.042 56.979-24.042s42.463 9.2515 56.979 24.042l7.0208-7.0312c-16.332-16.605-38.949-27-64-27z" fill-opacity=".25" stop-color="#000000"/>
  <path d="m85.333 64.802c18.185 0 34.56 7.5988 46.365 19.677l-7.0312 7.0208c-9.9903-10.264-23.919-16.708-39.333-16.708-15.415 0-29.343 6.4448-39.333 16.708l-7.0312-7.0208c11.805-12.078 28.179-19.677 46.365-19.677zm0 24.979c11.298 0 21.46 4.7822 28.719 12.333l-7.0208 7.0208c-5.4637-5.7366-13.151-9.3646-21.698-9.3646s-16.234 3.6282-21.698 9.3646l-7.0208-7.0208c7.2779-7.5515 17.421-12.333 28.719-12.333z" fill="#fff" stop-color="#000000" stroke-width=".99735"/>
  <path d="m85.333 114.76c-4.4098 0-8.332 1.9457-11.083 4.9896l11.083 11.083 11.083-11.083c-2.7512-3.0439-6.6731-4.9896-11.083-4.9896z" fill="#fff" stop-color="#000000" stroke-width=".99735"/>
 </g>
</svg>
