<?xml version="1.0" encoding="UTF-8" standalone="no"?>
<svg
   width="22"
   height="22"
   version="1.1"
   viewBox="0 0 22 22"
   id="svg1"
   sodipodi:docname="xfsm-logout.svg"
   inkscape:version="1.3.2 (091e20ef0f, 2023-11-25, custom)"
   xmlns:inkscape="http://www.inkscape.org/namespaces/inkscape"
   xmlns:sodipodi="http://sodipodi.sourceforge.net/DTD/sodipodi-0.dtd"
   xmlns="http://www.w3.org/2000/svg"
   xmlns:svg="http://www.w3.org/2000/svg">
  <sodipodi:namedview
     id="namedview1"
     pagecolor="#505050"
     bordercolor="#eeeeee"
     borderopacity="1"
     inkscape:showpageshadow="0"
     inkscape:pageopacity="0"
     inkscape:pagecheckerboard="0"
     inkscape:deskcolor="#505050"
     inkscape:zoom="33.454545"
     inkscape:cx="11"
     inkscape:cy="11"
     inkscape:window-width="1920"
     inkscape:window-height="1015"
     inkscape:window-x="0"
     inkscape:window-y="0"
     inkscape:window-maximized="1"
     inkscape:current-layer="svg1" />
  <defs
     id="defs1">
    <style
       id="current-color-scheme"
       type="text/css">.ColorScheme-Text {
        color:#ffffff;
      }</style>
  </defs>
  <path
     d="m 11,3 a 8,8 0 0 0 -8,8 8,8 0 0 0 8,8 8,8 0 0 0 8,-8 8,8 0 0 0 -8,-8 z m 0,1 a 7,7 0 0 1 7,7 7,7 0 0 1 -7,7 7,7 0 0 1 -7,-7 7,7 0 0 1 7,-7 z"
     style="color:#ffffff;fill:currentColor"
     id="path3" />
  <path
     d="m 9.7155524,7.2812394 c -0.100228,0 -0.2004215,0.038076 -0.2772256,0.1148725 -0.1536003,0.1536004 -0.1536003,0.4008509 0,0.5544512 l 3.0494822,3.0494819 -3.0494822,3.049482 c -0.1536003,0.153601 -0.1536003,0.400851 0,0.554451 0.1536004,0.153601 0.4008509,0.153601 0.5544512,0 l 3.326708,-3.326707 c 0.1536,-0.1536 0.1536,-0.400851 0,-0.554452 L 9.992778,7.3961119 C 9.9159786,7.3193125 9.8157805,7.2812394 9.7155524,7.2812394 Z"
     style="color:#ffffff;fill:currentColor;stroke-width:0.784196"
     id="path2" />
</svg>
