<svg width="32px" height="32px" version="1.1" viewBox="0 0 256 256" xmlns="http://www.w3.org/2000/svg">
 <g transform="matrix(1.0417 0 0 1.0417 -5.3333 -5.4173)" fill="#fff">
  <g transform="matrix(.93659 0 0 .93659 8.1171 7.2976)" font-family="none" font-size="none" font-weight="none" stroke-miterlimit="10" text-anchor="none" style="mix-blend-mode:normal">
   <g transform="scale(8)" fill="#fff">
    <path d="m16 22c-0.88281 0-1.668 0.38952-2.2188 0.99889l2.2188 2.2188 2.2188-2.2188c-0.55078-0.60937-1.3359-0.99889-2.2188-0.99889z" display="none"/>
    <path d="m16 7.0004c-5.0156 0-9.5434 2.081-12.812 5.4052l1.4076 1.4076c2.9062-2.9609 6.9402-4.813 11.405-4.813s8.5009 1.8521 11.407 4.813l1.4055-1.4076c-3.2695-3.3242-7.7973-5.4052-12.812-5.4052zm0 4.9986c-3.6406 0-6.9187 1.5212-9.2819 3.9392l1.4076 1.4055c2-2.0547 4.7884-3.3449 7.8743-3.3449s5.8743 1.2902 7.8743 3.3449l1.4076-1.4055c-2.3633-2.418-5.6413-3.9392-9.2819-3.9392zm0 5.0007c-2.2617 0-4.2923 0.95729-5.7493 2.4691l1.4055 1.4055c1.0938-1.1484 2.6328-1.8747 4.3438-1.8747s3.25 0.7263 4.3438 1.8747l1.4055-1.4055c-1.4531-1.5117-3.4876-2.4691-5.7493-2.4691z"/>
   </g>
  </g>
  <circle cx="128" cy="184.41" r="12" stroke-linecap="square" stroke-width="14.664" style="paint-order:stroke markers fill"/>
 </g>
</svg>
