<?xml version="1.0" encoding="UTF-8" standalone="no"?>
<svg
   version="1.1"
   viewBox="0 0 16 16"
   id="svg1"
   sodipodi:docname="xfsm-logout.svg"
   inkscape:version="1.3.2 (091e20ef0f, 2023-11-25, custom)"
   xmlns:inkscape="http://www.inkscape.org/namespaces/inkscape"
   xmlns:sodipodi="http://sodipodi.sourceforge.net/DTD/sodipodi-0.dtd"
   xmlns="http://www.w3.org/2000/svg"
   xmlns:svg="http://www.w3.org/2000/svg">
  <sodipodi:namedview
     id="namedview1"
     pagecolor="#505050"
     bordercolor="#eeeeee"
     borderopacity="1"
     inkscape:showpageshadow="0"
     inkscape:pageopacity="0"
     inkscape:pagecheckerboard="0"
     inkscape:deskcolor="#505050"
     inkscape:zoom="23"
     inkscape:cx="7.2608696"
     inkscape:cy="8.9130435"
     inkscape:window-width="1920"
     inkscape:window-height="1015"
     inkscape:window-x="0"
     inkscape:window-y="0"
     inkscape:window-maximized="1"
     inkscape:current-layer="svg1" />
  <defs
     id="defs1">
    <style
       id="current-color-scheme"
       type="text/css">.ColorScheme-Text {
        color:#ffffff;
      }</style>
  </defs>
  <path
     d="M 8,0 A 8,8 0 0 0 0,8 8,8 0 0 0 8,16 8,8 0 0 0 16,8 8,8 0 0 0 8,0 Z M 8,1 A 7,7 0 0 1 15,8 7,7 0 0 1 8,15 7,7 0 0 1 1,8 7,7 0 0 1 8,1 Z"
     style="color:#ffffff;fill:currentColor"
     id="path3" />
  <path
     d="m 6.7677667,4.3979815 c -0.097082,0 -0.19413,0.036881 -0.2685232,0.1112666 -0.1487787,0.1487787 -0.1487787,0.3882677 0,0.5370464 L 9.4529993,8.0000502 6.4992435,10.953806 c -0.1487787,0.148779 -0.1487787,0.388268 0,0.537046 0.1487787,0.148779 0.3882678,0.148779 0.5370465,0 l 3.222279,-3.2222785 c 0.148778,-0.1487787 0.148778,-0.3882678 0,-0.5370465 L 7.03629,4.5092481 C 6.9619014,4.4348595 6.8648485,4.3979815 6.7677667,4.3979815 Z"
     style="color:#ffffff;fill:currentColor;stroke-width:0.75958"
     id="path2" />
</svg>
